<?xml version="1.0" encoding="UTF-8" standalone="no"?>
<!DOCTYPE svg PUBLIC "-//W3C//DTD SVG 20010904//EN"
"http://www.w3.org/TR/2001/REC-SVG-20010904/DTD/svg10.dtd">
<!-- Created by Andrew Fitzsimon (http://andy.fitzsimon.com.au/) -->
<!-- Created using Inkscape (http://www.inkscape.org/) -->
<svg
   id="ubuntuicon"
   sodipodi:version="0.32"
   inkscape:version="0.39cvs"
   width="160.00000"
   height="160.00000"
   sodipodi:docname="gnome-fs-client.svg"
   version="1.0"
   x="0.00000000"
   y="0.00000000"
   xmlns="http://www.w3.org/2000/svg"
   xmlns:cc="http://web.resource.org/cc/"
   xmlns:inkscape="http://www.inkscape.org/namespaces/inkscape"
   xmlns:sodipodi="http://sodipodi.sourceforge.net/DTD/sodipodi-0.dtd"
   xmlns:rdf="http://www.w3.org/1999/02/22-rdf-syntax-ns#"
   xmlns:dc="http://purl.org/dc/elements/1.1/"
   xmlns:xlink="http://www.w3.org/1999/xlink"
   sodipodi:docbase="C:\Documents and Settings\n4429206\Desktop\mm\ubuntu\filesystems">
  <defs
     id="definitions">
    <radialGradient
       inkscape:collect="always"
       xlink:href="#MaterialSoftShadow"
       id="radialGradient2044" />
    <linearGradient
       id="MaterialSoftShadow">
      <stop
         style="stop-color:#000000;stop-opacity:0.21472393;"
         offset="0.0000000"
         id="stop2619" />
      <stop
         style="stop-color:#000000;stop-opacity:0.098159507;"
         offset="0.50000000"
         id="stop2621" />
      <stop
         style="stop-color:#000000;stop-opacity:0.0000000;"
         offset="1.0000000"
         id="stop2620" />
    </linearGradient>
    <linearGradient
       id="linearGradient1693">
      <stop
         style="stop-color:#000;stop-opacity:1;"
         offset="0"
         id="stop1694" />
      <stop
         style="stop-color:#fff;stop-opacity:1;"
         offset="1"
         id="stop1695" />
    </linearGradient>
  </defs>
  <sodipodi:namedview
     id="base"
     pagecolor="#ffffff"
     bordercolor="#666666"
     borderopacity="1.0"
     inkscape:pageopacity="0.0"
     inkscape:pageshadow="2"
     inkscape:zoom="2.0000000"
     inkscape:cx="141.77561"
     inkscape:cy="53.545227"
     inkscape:window-width="640"
     inkscape:window-height="524"
     inkscape:window-x="445"
     inkscape:window-y="198"
     showgrid="true"
     gridempspacing="5"
     gridtolerance="5.0000000mm"
     inkscape:grid-points="true"
     gridspacingx="1.2500000mm"
     gridspacingy="1.2500000mm"
     showguides="true"
     inkscape:guide-bbox="true"
     inkscape:grid-bbox="false" />
  <metadata
     id="metadata1293">
    <rdf:RDF
       id="RDF1294">
      <cc:Work
         rdf:about=""
         id="Work1295">
        <dc:format
           id="imageformat">image/svg+xml</dc:format>
        <dc:type
           id="type1298"
           rdf:resource="http://purl.org/dc/dcmitype/StillImage" />
        <dc:creator
           id="creator1299">
          <cc:Agent
             id="Agent1300">
            <dc:title
               id="title1301">Ubuntu Icon</dc:title>
          </cc:Agent>
        </dc:creator>
        <dc:rights
           id="rights1303">
          <cc:Agent
             id="Agent1304">
            <dc:title
               id="creator">Andrew Fitzsimon</dc:title>
          </cc:Agent>
          <cc:Agent
             id="Agent1332">
            <dc:title
               id="company">Canonical Software</dc:title>
          </cc:Agent>
          <cc:Agent
             id="Agent1335">
            <dc:title
               id="owner">Mark Shuttleworth</dc:title>
          </cc:Agent>
        </dc:rights>
        <dc:date
           id="date1307">2004-09-01</dc:date>
        <dc:description
           id="description1309">Icon for the Ubuntu Icon Set</dc:description>
        <dc:contributor
           id="contributor1311">
          <cc:Agent
             id="Agent1312">
            <dc:title
               id="title1313">Andrew Fitzsimon</dc:title>
          </cc:Agent>
        </dc:contributor>
      </cc:Work>
    </rdf:RDF>
  </metadata>
  <g
     id="g3797"
     transform="matrix(0.957119,0.000000,0.000000,0.957119,3.345541,-1.073170)">
    <path
       sodipodi:type="arc"
       style="fill:url(#radialGradient2044);fill-opacity:1.0000000;fill-rule:evenodd;stroke:none;stroke-width:1.0000000pt;stroke-linecap:butt;stroke-linejoin:miter;stroke-opacity:1.0000000;"
       id="path3809"
       sodipodi:cx="-289.09140"
       sodipodi:cy="598.36652"
       sodipodi:rx="125.20509"
       sodipodi:ry="125.20509"
       d="M -163.88631 598.36652 A 125.20509 125.20509 0 1 0 -414.29649,598.36652 A 125.20509 125.20509 0 1 0 -163.88631 598.36652 z"
       transform="matrix(-0.600381,0.000000,0.000000,7.080940e-2,-94.02427,102.4102)" />
    <path
       style="fill:#eeeeee;fill-opacity:1.0000000;fill-rule:evenodd;stroke:#000000;stroke-width:1.3329986;stroke-miterlimit:4.0000000;stroke-opacity:1.0000000;stroke-dasharray:none;"
       d="M 24.899386,96.203262 L 25.202630,101.16894 L 3.0851043,129.26311 L 1.9362449,133.25112 L 1.9362449,139.89779 C 1.9362449,141.70074 4.2076345,143.01246 5.7657753,142.99957 L 155.59024,141.76008 C 157.25456,141.74631 159.03896,139.28546 158.83970,137.37349 L 158.29813,132.17672 L 155.04867,127.79015 L 133.21733,100.68690 L 133.11284,95.204135 L 24.899386,96.203262 z "
       id="path1791"
       sodipodi:nodetypes="cccczzzzccccc"
       transform="matrix(0.979748,0.000000,0.000000,0.979748,1.451559,7.487379)" />
    <path
       style="fill:#eeeeee;fill-opacity:1.0000000;fill-rule:evenodd;stroke:#000000;stroke-width:1.3329986;stroke-miterlimit:4.0000000;stroke-opacity:1.0000000;stroke-dasharray:none;"
       d="M 25.380029,96.029833 L 24.707620,56.952229 L 24.035210,22.977980 C 24.035210,19.112905 25.881378,17.874625 29.138565,17.874625 L 126.10231,17.874625 C 129.48113,17.874625 131.20567,19.599187 131.20567,22.977980 L 131.46623,56.730671 L 131.72679,95.586718 L 124.01625,95.143604 L 124.01625,100.46094 L 64.994599,100.01783 L 64.994599,96.665810 L 60.490682,96.601522 L 60.385835,100.46094 L 35.128486,100.46094 L 34.868920,95.640473 L 25.380029,96.029833 z "
       id="path1776"
       sodipodi:nodetypes="cczzzzccccccccccc"
       transform="matrix(0.979748,0.000000,0.000000,0.979748,1.451559,7.487379)" />
    <path
       style="fill:#aaaaaa;fill-opacity:1.0000000;fill-rule:evenodd;stroke:#000000;stroke-width:1.2758383;stroke-miterlimit:4.0000000;stroke-opacity:1.0000000;"
       d="M 34.241920,28.081335 L 34.241920,89.321595 L 120.99896,89.321595 L 120.99896,28.081335 L 34.241920,28.081335 z "
       id="path1777"
       sodipodi:nodetypes="ccccc"
       transform="matrix(0.979748,0.000000,0.000000,0.979748,1.451559,7.487379)" />
    <path
       style="fill:#cccccc;fill-opacity:1.0000000;fill-rule:evenodd;stroke-width:1.0000000pt;"
       d="M 36.553048,83.301821 C 36.553048,83.301821 42.447837,63.326496 74.366893,70.490889 C 105.18778,77.408792 109.07279,49.480969 117.36076,48.968528 L 117.36076,93.038115 L 36.936787,93.550562 L 36.553048,83.301821 z "
       id="path1848"
       sodipodi:nodetypes="czcccc" />
    <path
       style="fill:#cccccc;fill-opacity:1.0000000;fill-rule:evenodd;stroke-width:1.0000000pt;"
       d="M 29.521593,102.15108 L 15.321726,122.15025 C 12.471112,126.16508 15.873382,127.17141 17.488038,127.16349 L 145.30027,126.53683 C 146.44200,126.53123 149.45350,126.87717 146.38343,122.77690 L 131.23137,102.54043 L 29.521593,102.15108 z "
       id="path1782"
       sodipodi:nodetypes="czzzzcc"
       transform="matrix(0.979748,0.000000,0.000000,0.979748,1.451559,7.487379)" />
    <path
       style="fill:#666666;fill-opacity:1.0000000;fill-rule:evenodd;stroke-width:1.0000000pt;"
       d="M 57.401711,126.83156 L 61.665783,113.34552 L 98.052523,113.34552 L 102.60087,126.50264 L 57.401711,126.83156 z "
       id="path2125"
       sodipodi:nodetypes="ccccc"
       transform="matrix(0.979748,0.000000,0.000000,0.979748,1.451559,7.487379)" />
    <path
       style="fill:#333333;fill-opacity:1.0000000;fill-rule:evenodd;stroke-width:1.0000000pt;"
       d="M 29.169027,101.87577 L 22.152676,111.45227 L 138.97102,111.74099 L 130.76256,101.40578 L 29.169027,101.87577 z "
       id="path1784"
       sodipodi:nodetypes="ccccc"
       transform="matrix(0.979748,0.000000,0.000000,0.979748,1.451559,7.487379)" />
    <path
       style="fill:#cccccc;fill-opacity:1.0000000;fill-rule:evenodd;stroke:none;stroke-width:2.5038331;stroke-linecap:round;stroke-linejoin:round;stroke-opacity:1.0000000;"
       d="M 152.42454,134.80380 L 6.9646842,135.22034 C 6.2991946,135.22034 5.7597088,135.75982 5.7597088,136.42531 C 5.7597088,137.09080 6.2991946,137.63028 6.9646842,137.63028 L 152.45430,137.18400 C 152.89562,137.20308 153.31132,136.97656 153.53451,136.59536 C 153.75771,136.21414 153.75179,135.74077 153.51914,135.36525 C 153.28649,134.98975 152.86525,134.77368 152.42454,134.80380 z "
       id="path1792" />
    <path
       style="fill:#cccccc;fill-opacity:1.0000000;fill-rule:evenodd;stroke-width:1.0000000pt;"
       d="M 36.937500,101.25000 L 37.031250,105.25000 L 59.687500,105.06250 L 59.687500,101.25000 L 36.937500,101.25000 z M 67.000000,101.25000 L 67.093750,105.25000 L 120.43750,105.50000 L 120.12500,101.25000 L 67.000000,101.25000 z "
       id="path1854" />
  </g>
</svg>
