<?xml version="1.0" encoding="UTF-8" standalone="no"?>
<!DOCTYPE svg PUBLIC "-//W3C//DTD SVG 20010904//EN"
"http://www.w3.org/TR/2001/REC-SVG-20010904/DTD/svg10.dtd">
<!-- Created by Andrew Fitzsimon (http://andy.fitzsimon.com.au/) -->
<!-- Created using Inkscape (http://www.inkscape.org/) -->
<svg
   id="ubuntuicon"
   sodipodi:version="0.32"
   inkscape:version="0.40cvs"
   width="160.00000"
   height="160.00000"
   sodipodi:docname="gnome-fs-nfs.svg"
   version="1.0"
   x="0.00000000"
   y="0.00000000"
   sodipodi:docbase="/home/andy/Desktop/warty/scalable/filesystem"
   xmlns="http://www.w3.org/2000/svg"
   xmlns:cc="http://web.resource.org/cc/"
   xmlns:inkscape="http://www.inkscape.org/namespaces/inkscape"
   xmlns:sodipodi="http://sodipodi.sourceforge.net/DTD/sodipodi-0.dtd"
   xmlns:rdf="http://www.w3.org/1999/02/22-rdf-syntax-ns#"
   xmlns:dc="http://purl.org/dc/elements/1.1/"
   xmlns:xlink="http://www.w3.org/1999/xlink">
  <defs
     id="definitions">
    <linearGradient
       inkscape:collect="always"
       xlink:href="#linearGradient2150"
       id="linearGradient2149"
       x1="0.86000001"
       y1="1.8189656"
       x2="0.62000000"
       y2="0.46551725" />
    <linearGradient
       inkscape:collect="always"
       xlink:href="#linearGradient1693"
       id="linearGradient1761"
       x1="0.57200003"
       y1="-0.93750000"
       x2="0.57200003"
       y2="0.62558496" />
    <linearGradient
       inkscape:collect="always"
       xlink:href="#linearGradient2541"
       id="linearGradient2141"
       x1="0.80000001"
       y1="0.56779659"
       x2="1.0280000"
       y2="1.8559322" />
    <linearGradient
       inkscape:collect="always"
       xlink:href="#linearGradient2541"
       id="linearGradient2943"
       x1="0.70833331"
       y1="0.20312500"
       x2="0.71354169"
       y2="0.85937500" />
    <linearGradient
       inkscape:collect="always"
       id="linearGradient2541">
      <stop
         style="stop-color:#000000;stop-opacity:0.0000000;"
         offset="0.0000000"
         id="stop2542" />
      <stop
         style="stop-color:#000000;stop-opacity:1.0000000;"
         offset="1.0000000"
         id="stop2543" />
    </linearGradient>
    <linearGradient
       inkscape:collect="always"
       xlink:href="#linearGradient2541"
       id="linearGradient2143"
       x1="0.61904764"
       y1="0.078125000"
       x2="0.75000000"
       y2="1.0156250" />
    <linearGradient
       inkscape:collect="always"
       xlink:href="#linearGradient2127"
       id="linearGradient2132"
       x1="0.32352942"
       y1="0.14062500"
       x2="0.45294118"
       y2="0.82031250" />
    <linearGradient
       inkscape:collect="always"
       xlink:href="#linearGradient1693"
       id="linearGradient1812"
       x1="0.54400003"
       y1="2.2069993"
       x2="0.55599999"
       y2="0.50862068" />
    <linearGradient
       inkscape:collect="always"
       xlink:href="#MaterialSoftShadow"
       id="linearGradient1778"
       x1="0.54400003"
       y1="0.13829787"
       x2="0.62000000"
       y2="0.69148934" />
    <linearGradient
       inkscape:collect="always"
       xlink:href="#linearGradient1693"
       id="linearGradient1769"
       x1="0.13861386"
       y1="-0.25781250"
       x2="0.52475250"
       y2="0.69531250" />
    <linearGradient
       id="linearGradient2150">
      <stop
         style="stop-color:#ffffff;stop-opacity:1.0000000;"
         offset="0.00000000"
         id="stop2151" />
      <stop
         style="stop-color:#edc73e;stop-opacity:0.00000000;"
         offset="1.0000000"
         id="stop2152" />
    </linearGradient>
    <linearGradient
       id="linearGradient2127">
      <stop
         style="stop-color:#d0930c;stop-opacity:1.0000000;"
         offset="0.00000000"
         id="stop2128" />
      <stop
         style="stop-color:#edc73e;stop-opacity:1.0000000;"
         offset="1.0000000"
         id="stop2129" />
    </linearGradient>
    <radialGradient
       inkscape:collect="always"
       xlink:href="#MaterialSoftShadow"
       id="radialGradient2044" />
    <linearGradient
       id="MaterialSoftShadow">
      <stop
         style="stop-color:#000000;stop-opacity:0.21472393;"
         offset="0.0000000"
         id="stop2619" />
      <stop
         style="stop-color:#000000;stop-opacity:0.098159507;"
         offset="0.50000000"
         id="stop2621" />
      <stop
         style="stop-color:#000000;stop-opacity:0.0000000;"
         offset="1.0000000"
         id="stop2620" />
    </linearGradient>
    <linearGradient
       id="linearGradient1693">
      <stop
         style="stop-color:#ffffff;stop-opacity:1.0000000;"
         offset="0.00000000"
         id="stop1694" />
      <stop
         style="stop-color:#ffffff;stop-opacity:0.00000000;"
         offset="1.0000000"
         id="stop1695" />
    </linearGradient>
    <linearGradient
       inkscape:collect="always"
       xlink:href="#linearGradient2127"
       id="linearGradient1704"
       x1="0.56547618"
       y1="0.15625000"
       x2="0.58928573"
       y2="0.78125000" />
    <linearGradient
       inkscape:collect="always"
       xlink:href="#linearGradient2127"
       id="linearGradient1705"
       x1="0.52845526"
       y1="0.90625000"
       x2="0.52845526"
       y2="-0.17187500" />
    <linearGradient
       inkscape:collect="always"
       xlink:href="#linearGradient2127"
       id="linearGradient1706"
       x1="0.54435486"
       y1="0.76562500"
       x2="0.54435486"
       y2="0.046467930" />
    <linearGradient
       inkscape:collect="always"
       xlink:href="#linearGradient1693"
       id="linearGradient1707"
       x1="-0.27536231"
       y1="-0.14062500"
       x2="0.34782609"
       y2="0.50000000" />
    <linearGradient
       inkscape:collect="always"
       xlink:href="#linearGradient1693"
       id="linearGradient1708"
       x1="1.0685484"
       y1="1.4122807"
       x2="0.44758064"
       y2="0.25438598" />
  </defs>
  <sodipodi:namedview
     id="base"
     pagecolor="#ffffff"
     bordercolor="#666666"
     borderopacity="1.0"
     inkscape:pageopacity="0.0"
     inkscape:pageshadow="2"
     inkscape:zoom="0.50000000"
     inkscape:cx="65.249969"
     inkscape:cy="60.111938"
     inkscape:window-width="640"
     inkscape:window-height="524"
     inkscape:window-x="85"
     inkscape:window-y="32"
     showgrid="false"
     gridempspacing="5"
     gridtolerance="5.0000000mm"
     inkscape:grid-points="false"
     gridspacingx="1.2500000mm"
     gridspacingy="1.2500000mm"
     showguides="true"
     inkscape:guide-bbox="true"
     inkscape:grid-bbox="false"
     showborder="true"
     inkscape:current-layer="ubuntuicon" />
  <metadata
     id="metadata1293">
    <rdf:RDF
       id="RDF1294">
      <cc:Work
         rdf:about=""
         id="Work1295">
        <dc:format
           id="imageformat">image/svg+xml</dc:format>
        <dc:type
           id="type1298"
           rdf:resource="http://purl.org/dc/dcmitype/StillImage" />
        <dc:creator
           id="creator1299">
          <cc:Agent
             id="Agent1300">
            <dc:title
               id="title1301">Ubuntu Icon</dc:title>
          </cc:Agent>
        </dc:creator>
        <dc:rights
           id="rights1303">
          <cc:Agent
             id="Agent1304">
            <dc:title
               id="creator">Andrew Fitzsimon</dc:title>
          </cc:Agent>
          <cc:Agent
             id="Agent1332">
            <dc:title
               id="company">Canonical Software</dc:title>
          </cc:Agent>
          <cc:Agent
             id="Agent1335">
            <dc:title
               id="owner">Mark Shuttleworth</dc:title>
          </cc:Agent>
        </dc:rights>
        <dc:date
           id="date1307">2004-09-01</dc:date>
        <dc:description
           id="description1309">Icon for the Ubuntu Icon Set</dc:description>
        <dc:contributor
           id="contributor1311">
          <cc:Agent
             id="Agent1312">
            <dc:title
               id="title1313">Andrew Fitzsimon</dc:title>
          </cc:Agent>
        </dc:contributor>
      </cc:Work>
    </rdf:RDF>
  </metadata>
  <g
     id="g1199"
     transform="matrix(0.871268,0.000000,0.000000,0.871268,11.66906,-2.822883)">
    <path
       sodipodi:type="arc"
       style="fill:url(#radialGradient2044);fill-opacity:1.0000000;fill-rule:evenodd;stroke:none;stroke-width:1.0000000pt;stroke-linecap:butt;stroke-linejoin:miter;stroke-opacity:1.0000000;"
       id="path1417"
       sodipodi:cx="-289.09140"
       sodipodi:cy="598.36652"
       sodipodi:rx="125.20509"
       sodipodi:ry="125.20509"
       d="M -163.88631 598.36652 A 125.20509 125.20509 0 1 0 -414.29649,598.36652 A 125.20509 125.20509 0 1 0 -163.88631 598.36652 z"
       transform="matrix(-0.620430,0.000000,0.000000,8.925865e-2,-99.14065,87.41881)" />
    <path
       style="fill:url(#linearGradient1704);fill-opacity:1.0;fill-rule:evenodd;stroke:none;stroke-width:7.5000000;stroke-miterlimit:4.0000000;stroke-opacity:1.0000000;"
       d="M 31.450149,13.634357 C 26.500269,13.634357 22.192899,15.544355 19.481399,18.821857 C 16.769899,22.099359 15.637649,26.362014 15.637649,30.915607 L 15.637649,108.85310 L 15.637649,112.60310 L 19.387649,112.60310 L 140.54390,112.60310 L 144.29390,112.60310 L 144.29390,108.85310 L 144.29390,38.853107 C 144.29390,35.863082 143.36379,33.049670 141.63765,30.821857 C 139.91151,28.594044 137.17838,26.915607 134.04390,26.915607 L 88.606402,26.915607 C 87.586162,26.915607 87.047792,26.651851 86.137652,25.821857 C 85.227512,24.991863 84.187272,23.546968 83.043902,21.884357 C 81.900532,20.221746 80.649742,18.329529 78.825152,16.665607 C 77.000562,15.001685 74.383572,13.634357 71.325152,13.634357 L 31.450149,13.634357 z "
       id="path1418" />
    <path
       style="fill:url(#linearGradient2143);fill-opacity:1.0000000;fill-rule:evenodd;stroke:#000000;stroke-width:1.2500000;stroke-miterlimit:4.0000000;stroke-opacity:1.0000000;"
       d="M 31.450149,13.634357 C 26.500269,13.634357 22.192899,15.544355 19.481399,18.821857 C 16.769899,22.099359 15.637649,26.362014 15.637649,30.915607 L 15.637649,108.85310 L 15.637649,112.60310 L 19.387649,112.60310 L 140.54390,112.60310 L 144.29390,112.60310 L 144.29390,108.85310 L 144.29390,38.853107 C 144.29390,35.863082 143.36379,33.049670 141.63765,30.821857 C 139.91151,28.594044 137.17838,26.915607 134.04390,26.915607 L 88.606402,26.915607 C 87.586162,26.915607 87.047792,26.651851 86.137652,25.821857 C 85.227512,24.991863 84.187272,23.546968 83.043902,21.884357 C 81.900532,20.221746 80.649742,18.329529 78.825152,16.665607 C 77.000562,15.001685 74.383572,13.634357 71.325152,13.634357 L 31.450149,13.634357 z "
       id="path1420" />
    <path
       style="fill:url(#linearGradient2132);fill-opacity:0.29113922;fill-rule:evenodd;stroke:none;stroke-width:2.1279688;stroke-miterlimit:4.0000000;stroke-opacity:1.0000000;"
       d="M 20.424990,109.46394 L 20.424990,31.007180 C 20.424990,23.078283 24.334062,17.353644 32.547580,17.353644 L 72.695554,17.353644 C 80.909083,17.353644 81.905552,30.746165 90.119081,30.746165 L 135.85583,30.746165 C 139.56416,30.746165 142.38964,34.582062 142.38964,38.989643 L 142.38964,109.46394 L 20.424990,109.46394 z "
       id="path1419"
       sodipodi:nodetypes="cczzzzzcc"
       transform="matrix(0.993158,0.000000,0.000000,0.993158,-0.886620,1.019608)" />
    <path
       style="fill:url(#linearGradient2943);fill-opacity:1.0000000;fill-rule:evenodd;stroke:none;stroke-width:1.2500000;stroke-opacity:0.33962265;"
       d="M 20.424990,109.46394 L 20.424990,31.007180 C 20.424990,23.078283 81.905552,30.746165 90.119081,30.746165 L 135.85583,30.746165 C 139.56416,30.746165 142.38964,34.582062 142.38964,38.989643 L 142.38964,109.46394 L 20.424990,109.46394 z "
       id="path1424"
       sodipodi:nodetypes="cczzzcc"
       transform="matrix(0.993158,0.000000,0.000000,0.993158,-0.886620,1.019608)" />
    <g
       id="g1421">
      <path
         style="fill:#fafafa;fill-opacity:1.0000000;fill-rule:evenodd;stroke:#000000;stroke-width:1.2500000;stroke-linecap:round;stroke-linejoin:round;stroke-miterlimit:4.0000000;stroke-opacity:1.0000000;"
         d="M 38.824753,41.724217 L 38.824753,132.97061 L 120.86678,132.97061 L 120.89669,41.802429 L 38.824753,41.724217 z "
         id="path1423"
         sodipodi:nodetypes="ccccc" />
    </g>
    <path
       style="fill:url(#linearGradient2141);fill-opacity:1.0000000;fill-rule:evenodd;stroke:none;stroke-width:1.3937240;stroke-miterlimit:4.0000000;stroke-opacity:1.0000000;"
       d="M 7.5464654,90.905489 L 13.366637,134.02507 C 13.891244,137.91170 18.286972,142.32817 22.673664,142.32817 L 136.68481,142.32817 C 140.56197,142.32817 143.04495,137.44051 143.66509,134.02507 L 151.49442,90.905489 C 152.87453,83.304575 148.17528,75.678344 141.26436,75.678344 L 17.776543,75.678344 C 10.865611,75.678344 6.5147932,83.262196 7.5464654,90.905489 z "
       id="path1427"
       sodipodi:nodetypes="czzzzzzzz" />
    <path
       style="fill:url(#linearGradient1705);fill-opacity:1.0;fill-rule:evenodd;stroke:#000000;stroke-width:1.2500000;stroke-miterlimit:4.0000000;stroke-opacity:1.0000000;"
       d="M 7.5464654,83.197931 L 13.366637,132.97826 C 13.878491,137.35618 18.286972,142.32817 22.673664,142.32817 L 136.68481,142.32817 C 140.56197,142.32817 143.05987,136.82633 143.66509,132.97826 L 151.49442,83.197931 C 152.84130,74.634216 148.17528,67.616159 141.26436,67.616159 L 17.776543,67.616159 C 10.865611,67.616159 6.5398728,74.588475 7.5464654,83.197931 z "
       id="path1425"
       sodipodi:nodetypes="czzzzzzzz" />
    <path
       style="fill:url(#linearGradient1706);fill-opacity:1.0;fill-rule:evenodd;stroke:none;stroke-width:1.3937240;stroke-miterlimit:4.0000000;stroke-opacity:1.0000000;"
       d="M 11.560914,85.985960 L 17.056660,131.65848 C 17.552025,135.77523 21.702728,140.45317 25.844899,140.45317 L 133.50089,140.45317 C 137.16193,140.45317 139.50651,135.27614 140.09208,131.65848 L 147.48499,85.985960 C 148.78817,77.935025 144.35087,69.857276 137.82517,69.857276 L 21.220751,69.857276 C 14.695045,69.857276 10.586748,77.890138 11.560914,85.985960 z "
       id="path1426"
       sodipodi:nodetypes="czzzzzzzz" />
    <path
       style="fill:url(#linearGradient1761);fill-opacity:1.0000000;fill-rule:evenodd;stroke-width:0.90415878pt;"
       d="M 9.4770154,85.695560 C 9.2396846,86.850938 14.531364,79.768847 22.051034,79.768847 L 136.92038,79.768847 C 146.17098,79.768847 148.27557,86.850938 148.51289,85.695560 C 148.75023,84.540190 153.47688,68.578789 136.25510,68.578789 L 21.734808,68.578789 C 7.1616327,68.578789 9.7143344,84.540190 9.4770154,85.695560 z "
       id="path1428"
       sodipodi:nodetypes="czzzzzz" />
    <path
       style="fill:none;fill-opacity:1.0000000;fill-rule:evenodd;stroke:none;stroke-width:1.9695193;stroke-miterlimit:4.0000000;stroke-opacity:1.0000000;"
       d="M 7.5464654,92.128148 L 13.366637,134.22249 C 13.891244,138.01671 18.286972,142.32817 22.673664,142.32817 L 136.68481,142.32817 C 140.56197,142.32817 143.04495,137.55673 143.66509,134.22249 L 151.49442,92.128148 C 152.87453,84.707958 148.17528,77.263053 141.26436,77.263053 L 17.776543,77.263053 C 10.865611,77.263053 6.5147932,84.666587 7.5464654,92.128148 z "
       id="path1429"
       sodipodi:nodetypes="czzzzzzzz" />
    <path
       style="fill:url(#linearGradient2149);fill-opacity:1.0000000;fill-rule:evenodd;stroke:none;stroke-width:1.3937240;stroke-miterlimit:4.0000000;stroke-opacity:1.0000000;"
       d="M 18.352047,93.620840 L 23.298973,130.27085 C 23.744869,133.57434 27.481071,137.32817 31.209593,137.32817 L 128.11475,137.32817 C 131.41018,137.32817 133.52062,133.17384 134.04772,130.27085 L 140.70235,93.620840 C 141.87539,87.160351 137.88121,80.678344 132.00719,80.678344 L 27.047226,80.678344 C 21.173195,80.678344 17.475165,87.124331 18.352047,93.620840 z "
       id="path1430"
       sodipodi:nodetypes="czzzzzzzz" />
  </g>
  <g
     id="g1854"
     transform="matrix(0.691195,0.000000,0.000000,0.691195,24.17833,57.89247)">
    <path
       sodipodi:type="arc"
       style="fill:url(#radialGradient2044);fill-opacity:1.0000000;fill-rule:evenodd;stroke:none;stroke-width:1.0000000pt;stroke-linecap:butt;stroke-linejoin:miter;stroke-opacity:1.0000000;"
       id="path1855"
       sodipodi:cx="-289.09140"
       sodipodi:cy="598.36652"
       sodipodi:rx="125.20509"
       sodipodi:ry="125.20509"
       d="M -163.88631 598.36652 A 125.20509 125.20509 0 1 0 -414.29649,598.36652 A 125.20509 125.20509 0 1 0 -163.88631 598.36652 z"
       transform="matrix(-0.597176,0.000000,0.000000,0.515480,-92.63858,-223.5123)" />
    <path
       sodipodi:type="arc"
       style="fill:url(#radialGradient2044);fill-opacity:1.0000000;fill-rule:evenodd;stroke:none;stroke-width:1.0000000pt;stroke-linecap:butt;stroke-linejoin:miter;stroke-opacity:1.0000000;"
       id="path1856"
       sodipodi:cx="-289.09140"
       sodipodi:cy="598.36652"
       sodipodi:rx="125.20509"
       sodipodi:ry="125.20509"
       d="M -163.88631 598.36652 A 125.20509 125.20509 0 1 0 -414.29649,598.36652 A 125.20509 125.20509 0 1 0 -163.88631 598.36652 z"
       transform="matrix(-0.614872,0.000000,0.000000,5.762207e-2,-97.34688,100.9913)" />
    <path
       sodipodi:type="arc"
       style="fill:url(#radialGradient2044);fill-opacity:1.0000000;fill-rule:evenodd;stroke:none;stroke-width:1.0000000pt;stroke-linecap:butt;stroke-linejoin:miter;stroke-opacity:1.0000000;"
       id="path1857"
       sodipodi:cx="-289.09140"
       sodipodi:cy="598.36652"
       sodipodi:rx="125.20509"
       sodipodi:ry="125.20509"
       d="M -163.88631 598.36652 A 125.20509 125.20509 0 1 0 -414.29649,598.36652 A 125.20509 125.20509 0 1 0 -163.88631 598.36652 z"
       transform="matrix(-0.645369,0.000000,0.000000,5.762207e-2,-106.1632,100.9913)" />
    <path
       sodipodi:type="arc"
       style="fill:url(#radialGradient2044);fill-opacity:1.0000000;fill-rule:evenodd;stroke:none;stroke-width:1.0000000pt;stroke-linecap:butt;stroke-linejoin:miter;stroke-opacity:1.0000000;"
       id="path1858"
       sodipodi:cx="-289.09140"
       sodipodi:cy="598.36652"
       sodipodi:rx="125.20509"
       sodipodi:ry="125.20509"
       d="M -163.88631 598.36652 A 125.20509 125.20509 0 1 0 -414.29649,598.36652 A 125.20509 125.20509 0 1 0 -163.88631 598.36652 z"
       transform="matrix(-0.586555,0.000000,0.000000,0.476841,-90.86195,-201.2576)" />
    <path
       style="fill:#cccccc;fill-opacity:1.0000000;fill-rule:evenodd;stroke:#000000;stroke-width:1.8084622;stroke-linecap:butt;stroke-linejoin:miter;stroke-opacity:1.0000000;stroke-miterlimit:4.0000000;stroke-dasharray:none;"
       d="M 19.265676,134.78019 L 141.54975,134.78019 C 144.16999,134.78019 147.10812,131.84205 147.10812,129.22182 L 147.10812,90.313247 L 130.43302,29.171205 C 129.74360,26.643295 127.49489,23.612839 124.87465,23.612839 L 35.940777,23.612839 C 33.320539,23.612839 31.071841,26.643295 30.382411,29.171205 L 13.707308,90.313247 L 13.707308,129.22182 C 13.707308,131.84205 16.645436,134.78019 19.265676,134.78019 z "
       id="path1860"
       sodipodi:nodetypes="czzczzzzczz" />
    <path
       style="fill:#cccccc;fill-opacity:1.0000000;fill-rule:evenodd;stroke:none;stroke-width:1.3200000pt;stroke-linecap:butt;stroke-linejoin:miter;stroke-opacity:1.0000000;"
       d="M 141.01040,82.082354 L 128.65899,30.137201 C 127.82818,26.643163 124.40095,24.365517 120.80951,24.365517 L 41.622002,24.365517 C 38.030549,24.365517 35.195479,26.676773 34.234247,30.137201 L 19.805039,82.082354 L 141.01040,82.082354 z "
       id="path1861"
       sodipodi:nodetypes="czzzzcc" />
    <path
       style="fill:url(#linearGradient1708);fill-opacity:1.0;fill-rule:evenodd;stroke:none;stroke-width:1.3200000pt;stroke-linecap:butt;stroke-linejoin:miter;stroke-opacity:1.0000000;"
       d="M 141.01040,82.082354 L 128.42812,34.621717 C 127.53591,31.256222 124.40095,27.251358 120.80951,27.251358 L 41.622002,27.251358 C 38.030549,27.251358 35.001816,31.284258 34.003380,34.621717 L 19.805039,82.082354 L 141.01040,82.082354 z "
       id="path1863"
       sodipodi:nodetypes="czzzzcc" />
    <path
       style="fill:url(#linearGradient1707);fill-opacity:1.0;fill-rule:evenodd;stroke:none;stroke-width:1.0000000pt;stroke-linecap:butt;stroke-linejoin:miter;stroke-opacity:1.0000000;"
       d="M 66.555568,25.550994 C 49.532708,25.588416 39.996916,33.495401 35.828308,50.000000 L 27.678643,82.266674 C 23.510037,98.771273 41.383018,113.01924 58.405899,112.99393 L 121.33497,112.90038 L 109.11049,25.457443 L 66.555568,25.550994 z "
       id="path1865"
       sodipodi:nodetypes="czzzccz" />
    <path
       style="fill:#eeeeee;fill-opacity:1.0000000;fill-rule:evenodd;stroke:none;stroke-width:1.0000000pt;stroke-linecap:butt;stroke-linejoin:miter;stroke-opacity:1.0000000;"
       d="M 22.209905,131.14166 C 19.715841,131.14166 16.919196,128.34502 16.919196,125.85096 L 16.919196,92.423282 C 16.919196,89.929221 19.715841,87.132577 22.209905,87.132577 L 138.60552,87.132577 C 141.09958,87.132577 143.89623,89.929221 143.89623,92.423282 L 143.89623,125.85096 C 143.89623,128.34502 141.09958,131.14166 138.60552,131.14166 L 22.209905,131.14166 z "
       id="path1866"
       sodipodi:nodetypes="czzzzzzzz" />
    <path
       style="fill:url(#linearGradient1778);fill-opacity:1.0000000;fill-rule:evenodd;stroke:none;stroke-width:1.0000000pt;stroke-linecap:butt;stroke-linejoin:miter;stroke-opacity:1.0000000;"
       d="M 25.576723,130.93223 C 23.226942,130.93223 20.592086,128.64865 20.592086,126.61215 L 20.592086,96.371689 C 20.592086,94.335183 23.226942,92.051622 25.576723,92.051622 L 135.23871,92.051622 C 137.58849,92.051622 140.22334,94.335183 140.22334,96.371689 L 140.22334,126.61215 C 140.22334,128.64865 137.58849,130.93223 135.23871,130.93223 L 25.576723,130.93223 z "
       id="path1867"
       sodipodi:nodetypes="czzzzzzzz" />
  </g>
</svg>
