<?xml version="1.0" encoding="UTF-8" standalone="no"?>
<!DOCTYPE svg PUBLIC "-//W3C//DTD SVG 20010904//EN"
"http://www.w3.org/TR/2001/REC-SVG-20010904/DTD/svg10.dtd">
<!-- Created by Andrew Fitzsimon (http://andy.fitzsimon.com.au/) -->
<!-- Created using Inkscape (http://www.inkscape.org/) -->
<svg
   id="ubuntuicon"
   sodipodi:version="0.32"
   inkscape:version="0.40cvs"
   width="160.00000"
   height="160.00000"
   sodipodi:docname="gnome-fs-ftp.svg"
   version="1.0"
   x="0.00000000"
   y="0.00000000"
   sodipodi:docbase="/home/andy/Desktop/warty/scalable/filesystem"
   xmlns="http://www.w3.org/2000/svg"
   xmlns:cc="http://web.resource.org/cc/"
   xmlns:inkscape="http://www.inkscape.org/namespaces/inkscape"
   xmlns:sodipodi="http://sodipodi.sourceforge.net/DTD/sodipodi-0.dtd"
   xmlns:rdf="http://www.w3.org/1999/02/22-rdf-syntax-ns#"
   xmlns:dc="http://purl.org/dc/elements/1.1/"
   xmlns:xlink="http://www.w3.org/1999/xlink">
  <defs
     id="definitions">
    <linearGradient
       inkscape:collect="always"
       xlink:href="#MaterialSoftShadow"
       id="linearGradient1873"
       x1="0.67441863"
       y1="0.32812500"
       x2="0.41085270"
       y2="0.60156250" />
    <linearGradient
       inkscape:collect="always"
       xlink:href="#MaterialSoftShadow"
       id="linearGradient1824"
       x1="1.1363636"
       y1="-0.020547945"
       x2="0.59090906"
       y2="0.42465752" />
    <linearGradient
       id="linearGradient1694">
      <stop
         style="stop-color:#0180d4;stop-opacity:1.0000000;"
         offset="0.00000000"
         id="stop1696" />
      <stop
         style="stop-color:#0180d4;stop-opacity:1.0000000;"
         offset="0.56999999"
         id="stop1698" />
      <stop
         style="stop-color:#013366;stop-opacity:1.0000000;"
         offset="1.0000000"
         id="stop1697" />
    </linearGradient>
    <radialGradient
       xlink:href="#linearGradient1694"
       id="radialGradient1505"
       cx="0.50000000"
       cy="0.50000000"
       r="0.55434185"
       fx="0.48461539"
       fy="0.20312500" />
    <radialGradient
       inkscape:collect="always"
       xlink:href="#MaterialSoftShadow"
       id="radialGradient2044" />
    <linearGradient
       id="linearGradient2150">
      <stop
         style="stop-color:#ffffff;stop-opacity:1.0000000;"
         offset="0.00000000"
         id="stop2151" />
      <stop
         style="stop-color:#edc73e;stop-opacity:0.00000000;"
         offset="1.0000000"
         id="stop2152" />
    </linearGradient>
    <linearGradient
       id="linearGradient2127">
      <stop
         style="stop-color:#d0930c;stop-opacity:1.0000000;"
         offset="0.00000000"
         id="stop2128" />
      <stop
         style="stop-color:#edc73e;stop-opacity:1.0000000;"
         offset="1.0000000"
         id="stop2129" />
    </linearGradient>
    <linearGradient
       id="MaterialSoftShadow">
      <stop
         style="stop-color:#000000;stop-opacity:0.21472393;"
         offset="0.0000000"
         id="stop2619" />
      <stop
         style="stop-color:#000000;stop-opacity:0.098159507;"
         offset="0.50000000"
         id="stop2621" />
      <stop
         style="stop-color:#000000;stop-opacity:0.0000000;"
         offset="1.0000000"
         id="stop2620" />
    </linearGradient>
    <linearGradient
       id="linearGradient1693">
      <stop
         style="stop-color:#ffffff;stop-opacity:1.0000000;"
         offset="0.00000000"
         id="stop1694" />
      <stop
         style="stop-color:#ffffff;stop-opacity:0.00000000;"
         offset="1.0000000"
         id="stop1695" />
    </linearGradient>
    <radialGradient
       inkscape:collect="always"
       xlink:href="#linearGradient1694"
       id="radialGradient1689"
       cx="0.50000000"
       cy="0.50000000"
       r="0.50000000"
       fx="0.50781250"
       fy="0.10937500" />
    <linearGradient
       inkscape:collect="always"
       xlink:href="#linearGradient1693"
       id="linearGradient1690"
       x1="0.56081080"
       y1="0.17187500"
       x2="0.56081080"
       y2="1.6592611" />
    <linearGradient
       inkscape:collect="always"
       xlink:href="#linearGradient1693"
       id="linearGradient1691"
       x1="0.47656250"
       y1="-0.28125000"
       x2="0.47656250"
       y2="0.40625000" />
    <linearGradient
       inkscape:collect="always"
       xlink:href="#linearGradient1693"
       id="linearGradient1695"
       x1="0.66406250"
       y1="1.6875000"
       x2="0.49218750"
       y2="0.76562500" />
  </defs>
  <sodipodi:namedview
     id="base"
     pagecolor="#ffffff"
     bordercolor="#666666"
     borderopacity="1.0"
     inkscape:pageopacity="0.0"
     inkscape:pageshadow="2"
     inkscape:zoom="1.4016105"
     inkscape:cx="129.62577"
     inkscape:cy="58.351563"
     inkscape:window-width="640"
     inkscape:window-height="524"
     inkscape:window-x="485"
     inkscape:window-y="48"
     showgrid="false"
     gridempspacing="5"
     gridtolerance="5.0000000mm"
     inkscape:grid-points="false"
     gridspacingx="1.2500000mm"
     gridspacingy="1.2500000mm"
     showguides="true"
     inkscape:guide-bbox="true"
     inkscape:grid-bbox="false"
     showborder="true"
     inkscape:current-layer="ubuntuicon" />
  <metadata
     id="metadata1293">
    <rdf:RDF
       id="RDF1294">
      <cc:Work
         rdf:about=""
         id="Work1295">
        <dc:format
           id="imageformat">image/svg+xml</dc:format>
        <dc:type
           id="type1298"
           rdf:resource="http://purl.org/dc/dcmitype/StillImage" />
        <dc:creator
           id="creator1299">
          <cc:Agent
             id="Agent1300">
            <dc:title
               id="title1301">Ubuntu Icon</dc:title>
          </cc:Agent>
        </dc:creator>
        <dc:rights
           id="rights1303">
          <cc:Agent
             id="Agent1304">
            <dc:title
               id="creator">Andrew Fitzsimon</dc:title>
          </cc:Agent>
          <cc:Agent
             id="Agent1332">
            <dc:title
               id="company">Canonical Software</dc:title>
          </cc:Agent>
          <cc:Agent
             id="Agent1335">
            <dc:title
               id="owner">Mark Shuttleworth</dc:title>
          </cc:Agent>
        </dc:rights>
        <dc:date
           id="date1307">2004-09-01</dc:date>
        <dc:description
           id="description1309">Icon for the Ubuntu Icon Set</dc:description>
        <dc:contributor
           id="contributor1311">
          <cc:Agent
             id="Agent1312">
            <dc:title
               id="title1313">Andrew Fitzsimon</dc:title>
          </cc:Agent>
        </dc:contributor>
      </cc:Work>
    </rdf:RDF>
  </metadata>
  <path
     sodipodi:type="arc"
     style="fill:url(#radialGradient1689);fill-opacity:1.0;stroke:#000000;stroke-width:1.8134760;stroke-linecap:round;stroke-linejoin:round;stroke-miterlimit:4.0000000;stroke-dashoffset:0.0000000;stroke-opacity:0.97368419;"
     id="path1688"
     sodipodi:cx="77.589317"
     sodipodi:cy="75.276031"
     sodipodi:rx="69.562836"
     sodipodi:ry="69.562836"
     d="M 147.15215 75.276031 A 69.562836 69.562836 0 1 0 8.0264816,75.276031 A 69.562836 69.562836 0 1 0 147.15215 75.276031 z"
     transform="translate(1.783662,1.783662)" />
  <g
     id="g2659"
     transform="matrix(1.004180,0.000000,0.000000,1.004180,-1.430117,0.876877)">
    <path
       sodipodi:type="arc"
       style="fill:url(#radialGradient2044);fill-opacity:1.0000000;fill-rule:evenodd;stroke:none;stroke-width:1.0000000pt;stroke-linecap:butt;stroke-linejoin:miter;stroke-opacity:1.0000000;"
       id="path7309"
       sodipodi:cx="-289.09140"
       sodipodi:cy="598.36652"
       sodipodi:rx="125.20509"
       sodipodi:ry="125.20509"
       d="M -163.88631 598.36652 A 125.20509 125.20509 0 1 0 -414.29649,598.36652 A 125.20509 125.20509 0 1 0 -163.88631 598.36652 z"
       transform="matrix(-0.420736,0.000000,0.000000,0.131116,-47.63483,61.61894)" />
    <path
       sodipodi:type="arc"
       style="fill:url(#radialGradient2044);fill-opacity:1.0000000;fill-rule:evenodd;stroke:none;stroke-width:1.0000000pt;stroke-linecap:butt;stroke-linejoin:miter;stroke-opacity:1.0000000;"
       id="path7310"
       sodipodi:cx="-289.09140"
       sodipodi:cy="598.36652"
       sodipodi:rx="125.20509"
       sodipodi:ry="125.20509"
       d="M -163.88631 598.36652 A 125.20509 125.20509 0 1 0 -414.29649,598.36652 A 125.20509 125.20509 0 1 0 -163.88631 598.36652 z"
       transform="matrix(-0.588077,0.000000,0.000000,8.738623e-2,-86.70993,90.84327)" />
    <path
       d="M 74.146182,10.900920 C 68.419654,12.150835 62.297186,12.461694 57.184133,15.597388 C 55.203691,15.759177 47.203040,18.897988 52.542782,19.443030 C 55.850097,18.504337 57.387227,15.065280 61.079753,15.353686 C 65.044056,14.174275 69.121328,12.770993 73.443066,11.945354 C 73.889082,11.738033 73.898236,11.246483 74.146182,10.900920 z M 82.576650,12.010554 C 79.715997,15.300508 73.119655,15.091346 72.725473,20.450256 C 74.073704,22.303236 80.707620,13.581974 82.658331,18.969488 C 83.042547,22.581577 80.635323,27.140981 76.464926,24.787184 C 74.441354,24.618249 71.921391,25.034201 72.005493,23.223341 C 70.955337,25.879872 62.588081,31.020584 65.527065,25.292728 C 67.053366,24.145668 63.391401,23.937103 65.907020,21.966692 C 68.133337,19.706083 61.068229,19.919176 63.743315,22.357690 C 62.193550,24.494615 61.494944,26.767510 58.449023,27.139373 C 61.048812,26.849259 63.751258,26.428761 61.756770,29.203819 C 63.262228,34.859625 53.811254,31.906547 52.651525,36.081386 C 49.214872,41.611140 57.798471,41.318720 60.248759,38.594171 C 59.834961,33.480570 65.097300,34.989875 67.858594,34.485044 C 70.759308,32.331836 73.822142,38.992846 75.257791,41.373987 C 77.139821,42.367168 79.205129,38.475180 76.338756,37.468700 C 76.678699,35.557171 70.523532,32.322069 74.419201,32.182666 C 77.023053,33.567492 78.488001,36.436453 78.978987,38.304603 C 84.168565,38.069557 76.845909,44.067131 81.826904,42.242938 C 84.982895,41.677981 81.486862,36.414150 85.676461,38.478430 C 90.971731,40.511802 83.858238,31.645832 89.903335,31.608341 C 92.711787,29.949932 91.205036,37.371812 92.934299,33.743923 C 93.916138,27.866798 101.77752,35.935766 98.194796,38.288918 C 93.639637,37.022104 89.051529,36.652545 87.078581,41.781998 C 86.803358,44.197497 93.712795,38.296993 92.906790,42.605448 C 94.363447,47.174553 87.188950,48.006692 84.482557,46.423664 C 81.994447,43.428418 79.677146,46.219841 77.825178,47.582696 C 74.938227,47.179212 65.334186,46.416269 69.394215,42.113352 C 70.468099,37.620904 63.786245,41.704429 61.354314,40.692344 C 58.283769,42.355793 53.552810,40.882652 51.098095,43.363152 C 50.747043,46.239590 46.146615,44.653710 45.393406,48.115121 C 43.654857,52.055462 37.893573,53.371374 37.748417,57.595031 C 37.583063,62.315593 35.359631,66.611165 37.828905,71.261852 C 38.422664,76.018497 42.928626,78.961262 47.538937,77.843933 C 50.208484,77.786544 52.712828,81.126675 54.590381,77.098848 C 57.616138,72.114304 60.710279,79.877106 64.503290,77.861461 C 67.626947,81.459338 61.890701,85.739307 66.786931,88.258193 C 70.892227,92.607340 69.672439,98.648026 67.878890,103.69802 C 67.906615,107.76453 73.244847,109.88139 73.147082,113.91186 C 72.739418,119.68043 77.930754,124.74137 83.594918,121.95355 C 87.265972,120.91866 88.752494,116.55903 92.515940,115.55232 C 95.372315,113.14145 94.130705,106.09838 99.344907,105.92697 C 106.46046,103.54736 101.35558,95.040664 103.29473,90.224458 C 106.13910,86.864628 107.34644,81.892073 111.70344,80.031151 C 115.07112,77.082400 112.84790,71.139131 116.26376,67.799298 C 113.37038,70.029678 108.50152,71.980937 105.33422,69.271825 C 100.43239,65.019498 96.401329,59.700383 93.901646,53.700787 C 92.731785,51.048186 92.805972,45.713717 95.705923,45.738705 C 96.162851,51.305419 100.10052,55.789458 102.84824,60.411195 C 105.47741,63.414964 107.31117,68.124499 112.19027,66.550111 C 116.31248,65.152683 121.96350,62.421086 122.05396,57.533711 C 121.66920,51.999166 111.79962,57.167834 109.85259,51.520485 C 105.95834,49.200381 112.50292,45.368335 113.68297,49.670141 C 116.21025,52.248489 120.74338,50.885784 122.60186,54.369711 C 126.36388,52.688056 129.37357,53.871629 130.92348,57.818403 C 134.23925,61.101891 135.13678,66.077647 135.01333,70.577224 C 139.36464,74.819270 138.02720,64.404829 139.17772,61.844091 C 139.35098,59.415310 139.59630,56.424043 140.61924,60.396553 C 143.80316,61.922390 141.58445,55.435372 140.85757,53.974950 C 135.27389,41.218235 133.47917,38.881185 127.35419,31.537287 C 117.24575,21.622802 109.03179,17.391784 97.840792,13.702059 C 97.027158,17.676261 92.057720,14.177922 89.687490,17.506032 C 87.200541,19.385741 87.188170,19.145886 88.931858,16.649767 C 87.665443,14.379026 84.789685,13.293187 82.576650,12.010554 z M 64.944399,16.449061 C 62.458942,15.272584 56.301270,19.155785 61.814923,18.893776 C 63.374106,19.218580 63.894326,17.193914 64.944399,16.449061 z M 61.426063,22.267833 C 59.441857,23.026598 54.729353,24.362640 58.894592,25.252468 C 60.087236,24.692452 60.864257,23.407299 61.426063,22.267833 z M 72.792978,39.182890 C 69.775594,40.696655 72.595439,43.705516 74.188051,40.842774 C 73.809854,40.215403 73.216792,39.773018 72.792978,39.182890 z M 140.85916,71.389150 C 136.42763,74.409651 146.10879,76.682795 140.85916,71.389150 z M 14.199229,79.102423 C 13.942162,84.639123 15.363385,90.475754 16.599656,96.447112 C 18.194871,99.272479 19.267777,105.05865 21.103461,105.87572 C 23.016383,101.48855 19.082194,96.581608 21.376331,92.042714 C 18.614654,89.870437 22.330760,85.055408 17.841364,83.742978 C 16.428415,82.361370 15.375988,80.676231 14.199229,79.102423 z M 111.35931,96.964712 C 110.90132,102.07659 103.94101,103.27712 105.23886,108.45824 C 106.47885,111.17435 104.63099,111.37480 104.34582,113.57634 C 106.90500,115.53970 109.08036,109.14845 111.04175,107.41330 C 111.49917,104.88733 117.46441,96.372727 111.35931,96.964712 z "
       style="fill:url(#linearGradient1690);fill-opacity:1.0;fill-rule:evenodd;stroke:none;stroke-width:1.0000000pt;stroke-linecap:butt;stroke-linejoin:miter;stroke-opacity:1.0000000;"
       id="path3950" />
    <path
       d="M 276.25000,26.750000 C 276.25000,-56.783068 208.53307,-124.50000 125.00000,-124.50000 C 41.466932,-124.50000 -26.250000,-56.783068 -26.250000,26.750000 C -26.250000,110.28307 41.466932,178.00000 125.00000,178.00000 C 208.53307,178.00000 276.25000,110.28307 276.25000,26.750000 z "
       transform="matrix(0.462365,0.000000,0.000000,0.462365,22.13662,64.53211)"
       style="fill:none;fill-opacity:1.0000000;fill-rule:evenodd;stroke:none;stroke-width:3.7500000;stroke-linecap:butt;stroke-linejoin:miter;stroke-miterlimit:4.0000000;stroke-opacity:1.0000000;"
       id="path3952" />
    <path
       d="M 276.25000,26.750000 C 276.25000,-56.783068 208.53307,-124.50000 125.00000,-124.50000 C 41.466932,-124.50000 -26.250000,-56.783068 -26.250000,26.750000 C -26.250000,110.28307 41.466932,178.00000 125.00000,178.00000 C 208.53307,178.00000 276.25000,110.28307 276.25000,26.750000 z "
       transform="matrix(0.462365,0.000000,0.000000,0.462365,22.13662,64.53211)"
       style="fill:none;fill-opacity:0.94117647;fill-rule:evenodd;stroke:none;stroke-width:5.8040280;stroke-linecap:butt;stroke-linejoin:miter;stroke-miterlimit:4.0000000;stroke-opacity:1.0000000;"
       id="path1906" />
    <path
       d="M 137.30315,72.471240 C 137.30315,40.355271 111.61733,14.320135 79.932246,14.320135 C 48.247167,14.320135 22.561336,40.355271 22.561336,72.471240 C 22.561336,104.58721 48.247167,130.62234 79.932246,130.62234 C 111.61733,130.62234 137.30315,104.58721 137.30315,72.471240 z "
       style="fill:url(#linearGradient1691);fill-opacity:1.0;fill-rule:evenodd;stroke:none;stroke-width:2.3390312;stroke-linecap:butt;stroke-linejoin:miter;stroke-miterlimit:4.0000000;stroke-opacity:1.0000000;"
       id="path1687" />
  </g>
  <g
     id="g3478"
     transform="matrix(1.269547,0.000000,0.000000,1.269547,-417.0063,-882.3007)">
    <g
       id="g3479"
       transform="matrix(0.339688,0.000000,0.000000,0.336286,269.5576,736.6288)"
       style="fill:#000000;fill-opacity:0.078431375;">
      <path
         style="fill-rule:evenodd;stroke:none;stroke-width:1.0000000pt;stroke-linecap:butt;stroke-linejoin:bevel;stroke-opacity:1.0000000;"
         d="M 281.25000,-46.250000 L 281.25000,151.25000 L 451.25000,151.25000 L 451.25000,-3.9285714 L 408.75000,-46.250000 L 281.25000,-46.250000 z "
         id="path3480"
         sodipodi:nodetypes="cccccc" />
      <path
         style="fill-rule:evenodd;stroke:none;stroke-width:1.0000000pt;stroke-linecap:butt;stroke-linejoin:bevel;stroke-opacity:1.0000000;"
         d="M 280.00000,-47.500000 L 280.00000,152.50000 L 452.50000,152.50000 L 452.50000,-4.6428572 L 409.37500,-47.500000 L 280.00000,-47.500000 z "
         id="path3481"
         sodipodi:nodetypes="cccccc" />
      <path
         style="fill-rule:evenodd;stroke:none;stroke-width:1.0000000pt;stroke-linecap:butt;stroke-linejoin:bevel;stroke-opacity:1.0000000;"
         d="M 278.75000,-48.750000 L 278.75000,153.75000 L 453.75000,153.75000 L 453.75000,-5.3571430 L 410.00000,-48.750000 L 278.75000,-48.750000 z "
         id="path3482"
         sodipodi:nodetypes="cccccc" />
      <path
         style="fill-rule:evenodd;stroke:none;stroke-width:1.0000000pt;stroke-linecap:butt;stroke-linejoin:bevel;stroke-opacity:1.0000000;"
         d="M 277.50000,-50.000000 L 277.50000,155.00000 L 455.00000,155.00000 L 455.00000,-6.0714288 L 410.62500,-50.000000 L 277.50000,-50.000000 z "
         id="path3483"
         sodipodi:nodetypes="cccccc" />
    </g>
    <path
       style="fill:#fafafa;fill-opacity:1.0000000;fill-rule:evenodd;stroke:#000000;stroke-width:2.6666231;stroke-linecap:butt;stroke-linejoin:bevel;stroke-miterlimit:4.0000000;stroke-opacity:1.0000000;"
       d="M 20.000000,10.000000 L 20.000000,150.00000 L 140.00000,150.00000 L 140.00000,40.000000 L 110.00000,10.000000 L 20.000000,10.000000 z "
       id="path3484"
       sodipodi:nodetypes="cccccc"
       transform="matrix(0.487291,0.000000,0.000000,0.482420,353.2189,714.0066)" />
    <g
       id="g3485"
       transform="matrix(0.487291,0.000000,0.000000,0.482420,353.2189,714.0066)">
      <path
         style="fill:url(#linearGradient1824);fill-opacity:1.0000000;fill-rule:evenodd;stroke:none;stroke-width:1.0000000pt;stroke-linecap:butt;stroke-linejoin:bevel;stroke-opacity:1.0000000;"
         d="M 60.000000,10.000000 L 140.00000,100.00000 L 140.00000,40.000000 L 110.00000,10.000000 L 60.000000,10.000000 z "
         id="path3486"
         sodipodi:nodetypes="ccccc" />
      <path
         style="fill:#ffffff;fill-opacity:1.0000000;fill-rule:evenodd;stroke:none;stroke-width:1.0000000pt;stroke-linecap:butt;stroke-linejoin:bevel;stroke-opacity:1.0000000;"
         d="M 110.00000,40.000000 L 140.00000,40.000000 L 110.00000,10.000000 L 110.00000,40.000000 z "
         id="path3487"
         sodipodi:nodetypes="cccc" />
      <path
         style="fill:url(#linearGradient1873);fill-opacity:1.0000000;fill-rule:evenodd;stroke:#000000;stroke-width:2.6666231;stroke-linecap:butt;stroke-linejoin:bevel;stroke-miterlimit:4.0000000;stroke-opacity:1.0000000;"
         d="M 110.00000,40.000000 L 140.00000,40.000000 L 110.00000,10.000000 L 110.00000,40.000000 z "
         id="path3488"
         sodipodi:nodetypes="cccc" />
    </g>
  </g>
  <path
     sodipodi:type="arc"
     style="fill:url(#linearGradient1695);fill-opacity:1.0;stroke:none;stroke-width:1.8134760;stroke-linecap:round;stroke-linejoin:round;stroke-miterlimit:4.0000000;stroke-dashoffset:0.0000000;stroke-opacity:0.97368419;"
     id="path1692"
     sodipodi:cx="75.805656"
     sodipodi:cy="100.24731"
     sodipodi:rx="51.726212"
     sodipodi:ry="51.726212"
     d="M 127.53187 100.24731 A 51.726212 51.726212 0 1 0 24.079445,100.24731 A 51.726212 51.726212 0 1 0 127.53187 100.24731 z"
     transform="translate(3.567325,-12.48564)" />
</svg>
