<?xml version="1.0" encoding="UTF-8" standalone="no"?>
<!DOCTYPE svg PUBLIC "-//W3C//DTD SVG 20010904//EN"
"http://www.w3.org/TR/2001/REC-SVG-20010904/DTD/svg10.dtd">
<!-- Created by Andrew Fitzsimon (http://andy.fitzsimon.com.au/) -->
<!-- Created using Inkscape (http://www.inkscape.org/) -->
<svg
   id="ubuntuicon"
   sodipodi:version="0.32"
   inkscape:version="0.40cvs"
   width="160.00000"
   height="160.00000"
   sodipodi:docname="gnome-mime-text-html.svg"
   version="1.0"
   x="0.00000000"
   y="0.00000000"
   sodipodi:docbase="/home/andy/Desktop"
   xmlns="http://www.w3.org/2000/svg"
   xmlns:cc="http://web.resource.org/cc/"
   xmlns:inkscape="http://www.inkscape.org/namespaces/inkscape"
   xmlns:sodipodi="http://sodipodi.sourceforge.net/DTD/sodipodi-0.dtd"
   xmlns:rdf="http://www.w3.org/1999/02/22-rdf-syntax-ns#"
   xmlns:dc="http://purl.org/dc/elements/1.1/"
   xmlns:xlink="http://www.w3.org/1999/xlink">
  <defs
     id="definitions">
    <linearGradient
       id="linearGradient1694">
      <stop
         style="stop-color:#0180d4;stop-opacity:1.0000000;"
         offset="0.00000000"
         id="stop1696" />
      <stop
         style="stop-color:#0180d4;stop-opacity:1.0000000;"
         offset="0.56999999"
         id="stop1698" />
      <stop
         style="stop-color:#013366;stop-opacity:1.0000000;"
         offset="1.0000000"
         id="stop1697" />
    </linearGradient>
    <linearGradient
       id="linearGradient1693">
      <stop
         style="stop-color:#ffffff;stop-opacity:1.0000000;"
         offset="0.00000000"
         id="stop1694" />
      <stop
         style="stop-color:#ffffff;stop-opacity:0.00000000;"
         offset="1.0000000"
         id="stop1695" />
    </linearGradient>
    <radialGradient
       inkscape:collect="always"
       xlink:href="#MaterialSoftShadow"
       id="radialGradient2194"
       cx="25.664554"
       cy="490.21891"
       r="24.109127"
       fx="25.664554"
       fy="490.21891"
       gradientTransform="scale(3.214550,0.311086)"
       gradientUnits="userSpaceOnUse" />
    <linearGradient
       id="MaterialSoftShadow">
      <stop
         style="stop-color:#000000;stop-opacity:0.21472393;"
         offset="0.0000000"
         id="stop2619" />
      <stop
         style="stop-color:#000000;stop-opacity:0.098159507;"
         offset="0.50000000"
         id="stop2621" />
      <stop
         style="stop-color:#000000;stop-opacity:0.0000000;"
         offset="1.0000000"
         id="stop2620" />
    </linearGradient>
    <linearGradient
       id="BlackTransparent">
      <stop
         style="stop-color:#000000;stop-opacity:1.0000000;"
         offset="0.0000000"
         id="stopBlackFull" />
      <stop
         style="stop-color:#000000;stop-opacity:0.0000000;"
         offset="1.0000000"
         id="stopBlackTransparent" />
    </linearGradient>
    <linearGradient
       inkscape:collect="always"
       xlink:href="#BlackTransparent"
       id="linearGradient1747"
       x1="128.34514"
       y1="30.315726"
       x2="134.78941"
       y2="21.727016"
       gradientUnits="userSpaceOnUse" />
    <linearGradient
       id="WhiteTransparent">
      <stop
         style="stop-color:#ffffff;stop-opacity:1.0000000;"
         offset="0.0000000"
         id="stopWhiteFull" />
      <stop
         style="stop-color:#ffffff;stop-opacity:0.0000000;"
         offset="1.0000000"
         id="stopWhiteTransparent" />
    </linearGradient>
    <linearGradient
       inkscape:collect="always"
       xlink:href="#WhiteTransparent"
       id="linearGradient1746"
       x1="128.96387"
       y1="27.076172"
       x2="132.70801"
       y2="22.916016"
       gradientUnits="userSpaceOnUse" />
    <linearGradient
       inkscape:collect="always"
       xlink:href="#MaterialSoftShadow"
       id="linearGradient1745"
       x1="-0.54385966"
       y1="0.49249643"
       x2="0.77193534"
       y2="0.49249643" />
    <radialGradient
       inkscape:collect="always"
       xlink:href="#MaterialSoftShadow"
       id="radialGradient4170"
       gradientUnits="userSpaceOnUse"
       cx="-289.09140"
       cy="598.36652"
       fx="-289.09140"
       fy="598.36652"
       r="125.20509" />
    <radialGradient
       inkscape:collect="always"
       xlink:href="#MaterialSoftShadow"
       id="radialGradient4171"
       gradientUnits="userSpaceOnUse"
       cx="-289.09140"
       cy="598.36652"
       fx="-289.09140"
       fy="598.36652"
       r="125.20509" />
    <radialGradient
       inkscape:collect="always"
       xlink:href="#linearGradient1694"
       id="radialGradient4172"
       gradientUnits="userSpaceOnUse"
       gradientTransform="matrix(1.064131,0.000000,0.000000,1.064131,-37.90337,-44.46426)"
       cx="79.724411"
       cy="76.779894"
       fx="77.554564"
       fy="34.908619"
       r="78.184421" />
    <linearGradient
       inkscape:collect="always"
       xlink:href="#linearGradient1693"
       id="linearGradient4173"
       gradientUnits="userSpaceOnUse"
       gradientTransform="matrix(1.139732,0.000000,0.000000,0.993545,-37.90337,-44.46426)"
       x1="88.009292"
       y1="-11.108592"
       x2="72.715558"
       y2="162.85263" />
    <linearGradient
       inkscape:collect="always"
       xlink:href="#linearGradient1693"
       id="linearGradient4174"
       gradientUnits="userSpaceOnUse"
       gradientTransform="matrix(0.993268,0.000000,0.000000,1.006777,-35.00000,-40.00000)"
       x1="92.480659"
       y1="-36.282169"
       x2="94.371857"
       y2="69.624741" />
    <linearGradient
       inkscape:collect="always"
       xlink:href="#linearGradient1693"
       id="linearGradient4175"
       gradientUnits="userSpaceOnUse"
       gradientTransform="matrix(1.094074,0.000000,0.000000,1.108954,-43.46470,-47.50052)"
       x1="64.112701"
       y1="213.35556"
       x2="69.786293"
       y2="111.23103" />
    <linearGradient
       inkscape:collect="always"
       xlink:href="#MaterialSoftShadow"
       id="linearGradient1695"
       x1="0.93846154"
       y1="0.070312500"
       x2="0.46153846"
       y2="0.52343750" />
    <linearGradient
       inkscape:collect="always"
       xlink:href="#MaterialSoftShadow"
       id="linearGradient1696"
       x1="0.89230770"
       y1="0.13281250"
       x2="0.50769234"
       y2="0.49218750" />
  </defs>
  <sodipodi:namedview
     id="base"
     pagecolor="#ffffff"
     bordercolor="#666666"
     borderopacity="1.0"
     inkscape:pageopacity="0.0"
     inkscape:pageshadow="2"
     inkscape:zoom="0.99405000"
     inkscape:cx="58.165566"
     inkscape:cy="47.407655"
     inkscape:window-width="408"
     inkscape:window-height="637"
     inkscape:window-x="161"
     inkscape:window-y="124"
     showgrid="true"
     gridempspacing="2"
     gridtolerance="4.0000000pt"
     inkscape:grid-points="true"
     gridspacingx="4.0000000pt"
     gridspacingy="4.0000000pt"
     showguides="true"
     inkscape:guide-bbox="true"
     inkscape:grid-bbox="false"
     showborder="true"
     inkscape:current-layer="ubuntuicon"
     gridoriginy="0.0000000pt"
     gridoriginx="0.0000000pt"
     gridcolor="#3f3fff"
     gridopacity="0.023529412"
     gridempcolor="#3f3fff"
     gridempopacity="0.082352941" />
  <metadata
     id="metadata1293">
    <rdf:RDF
       id="RDF1294">
      <cc:Work
         rdf:about=""
         id="Work1295">
        <dc:format
           id="imageformat">image/svg+xml</dc:format>
        <dc:type
           id="type1298"
           rdf:resource="http://purl.org/dc/dcmitype/StillImage" />
        <dc:creator
           id="creator1299">
          <cc:Agent
             id="Agent1300">
            <dc:title
               id="title1301">Ubuntu Icon</dc:title>
          </cc:Agent>
        </dc:creator>
        <dc:rights
           id="rights1303">
          <cc:Agent
             id="Agent1332">
            <dc:title
               id="company">Canonical Software</dc:title>
          </cc:Agent>
          <cc:Agent
             id="Agent1304">
            <dc:title
               id="creator">Andrew Fitzsimon</dc:title>
          </cc:Agent>
          <cc:Agent
             id="Agent1335">
            <dc:title
               id="owner">Mark Shuttleworth</dc:title>
          </cc:Agent>
        </dc:rights>
        <dc:date
           id="date1307">2004-09-01</dc:date>
        <dc:description
           id="description1309">Icon for the Ubuntu Icon Set</dc:description>
        <dc:contributor
           id="contributor1311">
          <cc:Agent
             id="Agent1312">
            <dc:title
               id="title1313">Andrew Fitzsimon</dc:title>
          </cc:Agent>
        </dc:contributor>
      </cc:Work>
    </rdf:RDF>
  </metadata>
  <path
     style="fill:#f5f5f5;fill-opacity:1.0000000;fill-rule:evenodd;stroke:#000000;stroke-width:1.6250000;stroke-linecap:butt;stroke-linejoin:miter;stroke-miterlimit:4.0000000;stroke-opacity:1.0000000;"
     d="M 20.000000,10.000000 L 20.000000,150.00000 L 145.00000,150.00000 L 145.00000,35.000000 L 120.00000,10.000000 L 20.000000,10.000000 z "
     id="path1682"
     sodipodi:nodetypes="cccccc" />
  <path
     sodipodi:type="arc"
     style="fill:url(#radialGradient2194);fill-opacity:1.0000000;fill-rule:evenodd;stroke:none;stroke-width:1.0000000pt;stroke-linecap:butt;stroke-linejoin:miter;stroke-opacity:1.0000000;"
     id="path1570"
     sodipodi:cx="82.500000"
     sodipodi:cy="152.50000"
     sodipodi:rx="77.500000"
     sodipodi:ry="7.5000000"
     d="M 160.00000 152.50000 A 77.500000 7.5000000 0 1 0 5.0000000,152.50000 A 77.500000 7.5000000 0 1 0 160.00000 152.50000 z" />
  <path
     style="fill:url(#linearGradient1745);fill-opacity:1.0;fill-rule:evenodd;stroke:none;stroke-width:1.0000000pt;stroke-linecap:butt;stroke-linejoin:miter;stroke-opacity:1.0000000;"
     d="M 25.000000,145.00000 L 25.000000,15.000000 L 120.00000,15.000000 L 135.00000,30.000000 L 140.00000,145.00000 L 25.000000,145.00000 z "
     id="path2474"
     sodipodi:nodetypes="cccccc" />
  <path
     style="fill:url(#linearGradient1695);fill-opacity:1.0;fill-rule:evenodd;stroke:none;stroke-width:1.0000000pt;stroke-linecap:butt;stroke-linejoin:miter;stroke-opacity:1.0000000;"
     d="M 120.00000,10.000000 L 145.00000,35.000000 L 145.00000,85.000000 L 70.000000,10.000000 L 120.00000,10.000000 z "
     id="path1119" />
  <path
     style="fill:url(#linearGradient1696);fill-opacity:1.0;fill-rule:evenodd;stroke:none;stroke-width:1.0000000pt;stroke-linecap:butt;stroke-linejoin:miter;stroke-opacity:1.0000000;"
     d="M 85.000000,10.000000 L 145.00000,70.000000 L 145.00000,35.000000 L 120.00000,10.000000 L 85.000000,10.000000 z "
     id="path1742" />
  <path
     style="fill:url(#linearGradient1746);fill-opacity:1.0000000;fill-rule:evenodd;stroke:url(#linearGradient1747);stroke-width:1.6250000;stroke-linecap:butt;stroke-linejoin:miter;stroke-miterlimit:4.0000000;stroke-opacity:1.0000000;"
     d="M 120.00000,10.000000 L 120.00000,35.000000 L 145.00000,35.000000 L 120.00000,10.000000 z "
     id="path1745" />
  <g
     id="g4159"
     transform="matrix(0.800855,0.000000,0.000000,0.800855,30.13428,64.24136)">
    <path
       sodipodi:type="arc"
       style="fill:url(#radialGradient4170);fill-opacity:1.0000000;fill-rule:evenodd;stroke:none;stroke-width:1.0000000pt;stroke-linecap:butt;stroke-linejoin:miter;stroke-opacity:1.0000000;"
       id="path1881"
       sodipodi:cx="-289.09140"
       sodipodi:cy="598.36652"
       sodipodi:rx="125.20509"
       sodipodi:ry="125.20509"
       d="M -163.88631 598.36652 A 125.20509 125.20509 0 1 0 -414.29649,598.36652 A 125.20509 125.20509 0 1 0 -163.88631 598.36652 z"
       transform="matrix(-0.447718,0.000000,0.000000,0.124549,-88.59307,28.56530)" />
    <path
       sodipodi:type="arc"
       style="fill:url(#radialGradient4171);fill-opacity:1.0000000;fill-rule:evenodd;stroke:none;stroke-width:1.0000000pt;stroke-linecap:butt;stroke-linejoin:miter;stroke-opacity:1.0000000;"
       id="path1882"
       sodipodi:cx="-289.09140"
       sodipodi:cy="598.36652"
       sodipodi:rx="125.20509"
       sodipodi:ry="125.20509"
       d="M -163.88631 598.36652 A 125.20509 125.20509 0 1 0 -414.29649,598.36652 A 125.20509 125.20509 0 1 0 -163.88631 598.36652 z"
       transform="matrix(-0.625791,0.000000,0.000000,9.299040e-2,-130.1741,56.84108)" />
    <path
       d="M 121.57260,37.367815 C 121.57260,-3.7318748 88.254716,-37.049756 47.155025,-37.049756 C 6.0553355,-37.049756 -27.262546,-3.7318748 -27.262546,37.367815 C -27.262546,78.467505 6.0553355,111.78539 47.155025,111.78539 C 88.254716,111.78539 121.57260,78.467505 121.57260,37.367815 z "
       style="fill:#013366;fill-opacity:1.0000000;fill-rule:evenodd;stroke:none;stroke-width:8.7163954;stroke-linecap:butt;stroke-linejoin:miter;stroke-miterlimit:4.0000000;stroke-opacity:1.0000000;"
       id="path1883" />
    <path
       d="M 121.35141,37.239607 C 121.35141,-3.8600764 88.033535,-37.177953 46.933847,-37.177953 C 5.8341634,-37.177953 -27.483713,-3.8600764 -27.483713,37.239607 C -27.483713,78.339292 5.8341634,111.65717 46.933847,111.65717 C 88.033535,111.65717 121.35141,78.339292 121.35141,37.239607 z "
       style="fill:url(#radialGradient4172);fill-opacity:1.0000000;fill-rule:evenodd;stroke:#000000;stroke-width:1.2500000;stroke-linecap:butt;stroke-linejoin:miter;stroke-miterlimit:4.0000000;stroke-opacity:1.0000000;"
       id="path1884" />
    <path
       d="M 40.997883,-32.864249 C 34.904107,-31.534176 28.388999,-31.203381 22.948041,-27.866592 C 20.840591,-27.694427 12.326850,-24.354321 18.009035,-23.774325 C 21.528452,-24.773217 23.164159,-28.432825 27.093491,-28.125923 C 31.312028,-29.380971 35.650780,-30.874246 40.249675,-31.752835 C 40.724295,-31.973451 40.734036,-32.496525 40.997883,-32.864249 z M 49.969005,-31.683453 C 46.924896,-28.182511 39.905524,-28.405087 39.486062,-22.702505 C 40.920757,-20.730691 47.980112,-30.011256 50.055924,-24.278236 C 50.464781,-20.434500 47.903179,-15.582697 43.465330,-18.087445 C 41.311984,-18.267214 38.630414,-17.824587 38.719909,-19.751579 C 37.602406,-16.924682 28.698549,-11.454291 31.826013,-17.549480 C 33.450197,-18.770102 29.553387,-18.992043 32.230335,-21.088818 C 34.599428,-23.494402 27.081228,-23.267643 29.927870,-20.672745 C 28.278717,-18.398777 27.535308,-15.980119 24.294049,-15.584408 C 27.060565,-15.893127 29.936322,-16.340592 27.813925,-13.387567 C 29.415930,-7.3690484 19.358856,-10.511510 18.124752,-6.0689346 C 14.467703,-0.18455198 23.601777,-0.49572517 26.209204,-3.3950022 C 25.768869,-8.8365436 31.368687,-7.2304453 34.307065,-7.7676516 C 37.393805,-10.058947 40.653062,-2.9707598 42.180780,-0.43691384 C 44.183507,0.61996085 46.381265,-3.5216242 43.331069,-4.5926508 C 43.692813,-6.6267681 37.142909,-10.069340 41.288411,-10.217683 C 44.059250,-8.7440472 45.618147,-5.6910968 46.140620,-3.7031405 C 51.663011,-3.9532602 43.870746,2.4289442 49.171177,0.48776386 C 52.529565,-0.11342440 48.809328,-5.7148301 53.267610,-3.5181658 C 58.902471,-1.3543916 51.332783,-10.788945 57.765558,-10.828840 C 60.754119,-12.593605 59.150738,-4.6957523 60.990901,-8.5563015 C 62.035706,-14.810332 70.401246,-6.2238934 66.588758,-3.7198314 C 61.741473,-5.0678874 56.859125,-5.4611466 54.759649,-0.0027366863 C 54.466776,2.5676707 61.819322,-3.7112385 60.961627,0.87352199 C 62.511701,5.7356483 54.877097,6.6211532 51.997140,4.9366040 C 49.349465,1.7492699 46.883553,4.7197096 44.912816,6.1699659 C 41.840722,5.7406060 31.620765,4.9287347 35.941167,0.34986738 C 37.083921,-4.4306858 29.973553,-0.085280264 27.385660,-1.1622713 C 24.118197,0.60785636 19.083837,-0.95975864 16.471699,1.6798183 C 16.098134,4.7407251 11.202676,3.0531411 10.401163,6.7365358 C 8.5511186,10.929575 2.4203577,12.329878 2.2658927,16.824402 C 2.0899344,21.847698 -0.27608850,26.418750 2.3515425,31.367690 C 2.9833799,36.429383 7.7783137,39.560871 12.684289,38.371886 C 15.525036,38.310817 18.189986,41.865154 20.187949,37.579018 C 23.407751,32.274810 26.700322,40.535449 30.736582,38.390538 C 34.060563,42.219151 27.956446,46.773598 33.166676,49.454023 C 37.535248,54.082085 36.237234,60.510167 34.328663,65.884022 C 34.358166,70.211321 40.038744,72.463937 39.934710,76.752885 C 39.500902,82.891400 45.025163,88.276903 51.052576,85.310297 C 54.959058,84.209039 56.540912,79.569821 60.545712,78.498550 C 63.585269,75.933068 62.264033,68.438319 67.812627,68.255917 C 75.384508,65.723700 69.952247,56.671461 72.015756,51.546387 C 75.042539,47.971087 76.327307,42.679638 80.963725,40.699373 C 84.547378,37.561515 82.181581,31.237099 85.816503,27.683079 C 82.737568,30.056495 77.556463,32.132890 74.186041,29.250040 C 68.969852,24.725007 64.680275,19.064772 62.020284,12.680416 C 60.775399,9.8577012 60.854344,4.1811274 63.940272,4.2077179 C 64.426503,10.131431 68.616698,14.903036 71.540632,19.821169 C 74.338414,23.017573 76.289775,28.029135 81.481776,26.353780 C 85.868348,24.866734 91.881773,21.959957 91.978035,16.759149 C 91.568599,10.869669 81.066073,16.369808 78.994178,10.360289 C 74.850186,7.8913946 81.814477,3.8135957 83.070205,8.3912808 C 85.759562,11.134981 90.583406,9.6848842 92.561072,13.392239 C 96.564354,11.602738 99.767058,12.862214 101.41637,17.062099 C 104.94478,20.556160 105.89987,25.851017 105.76850,30.639156 C 110.39887,35.153249 108.97565,24.070919 110.19996,21.345958 C 110.38433,18.761417 110.64538,15.578317 111.73392,19.805588 C 115.12203,21.429279 112.76103,14.526242 111.98754,12.972162 C 106.04577,-0.60265437 104.13595,-3.0895817 97.618174,-10.904451 C 86.861469,-21.454762 78.120740,-25.957120 66.212052,-29.883470 C 65.346239,-25.654399 60.058106,-29.377090 57.535870,-25.835545 C 54.889431,-23.835288 54.876267,-24.090525 56.731779,-26.746723 C 55.384148,-29.163089 52.323964,-30.318564 49.969005,-31.683453 z M 31.205980,-26.960300 C 28.561128,-28.212226 22.008559,-24.079991 27.875808,-24.358803 C 29.534983,-24.013169 30.088565,-26.167679 31.205980,-26.960300 z M 27.462010,-20.768365 C 25.350555,-19.960939 20.335833,-18.539216 24.768193,-17.592322 C 26.037323,-18.188252 26.864175,-19.555824 27.462010,-20.768365 z M 39.557896,-2.7685281 C 36.347005,-1.1576838 39.347689,2.0441384 41.042437,-1.0021941 C 40.639986,-1.6697990 40.008890,-2.1405546 39.557896,-2.7685281 z M 111.98923,31.503152 C 107.27350,34.717360 117.57552,37.136283 111.98923,31.503152 z M -22.793528,39.711084 C -23.067081,45.602859 -21.554714,51.813799 -20.239159,58.168106 C -18.541642,61.174666 -17.399929,67.331910 -15.446521,68.201380 C -13.410921,63.532856 -17.597414,58.311227 -15.156152,53.481249 C -18.094938,51.169662 -14.140514,46.045840 -18.917819,44.649243 C -20.421382,43.179031 -21.541303,41.385822 -22.793528,39.711084 z M 80.597526,58.718900 C 80.110165,64.158608 72.703483,65.436129 74.084565,70.949519 C 75.404077,73.839816 73.437712,74.053121 73.134254,76.395848 C 75.857557,78.485121 78.172425,71.683993 80.259600,69.837566 C 80.746355,67.149603 87.094152,58.088950 80.597526,58.718900 z "
       style="fill:url(#linearGradient4173);fill-opacity:1.0000000;fill-rule:evenodd;stroke:none;stroke-width:1.0000000pt;stroke-linecap:butt;stroke-linejoin:miter;stroke-opacity:1.0000000;"
       id="path1683" />
    <path
       d="M 40.997883,-32.864249 C 34.904107,-31.534176 28.388999,-31.203381 22.948041,-27.866592 C 20.840591,-27.694427 12.326850,-24.354321 18.009035,-23.774325 C 21.528452,-24.773217 23.164159,-28.432825 27.093491,-28.125923 C 31.312028,-29.380971 35.650780,-30.874246 40.249675,-31.752835 C 40.724295,-31.973451 40.734036,-32.496525 40.997883,-32.864249 z M 49.969005,-31.683453 C 46.924896,-28.182511 39.905524,-28.405087 39.486062,-22.702505 C 40.920757,-20.730691 47.980112,-30.011256 50.055924,-24.278236 C 50.464781,-20.434500 47.903179,-15.582697 43.465330,-18.087445 C 41.311984,-18.267214 38.630414,-17.824587 38.719909,-19.751579 C 37.602406,-16.924682 28.698549,-11.454291 31.826013,-17.549480 C 33.450197,-18.770102 29.553387,-18.992043 32.230335,-21.088818 C 34.599428,-23.494402 27.081228,-23.267643 29.927870,-20.672745 C 28.278717,-18.398777 27.535308,-15.980119 24.294049,-15.584408 C 27.060565,-15.893127 29.936322,-16.340592 27.813925,-13.387567 C 29.415930,-7.3690484 19.358856,-10.511510 18.124752,-6.0689346 C 14.467703,-0.18455198 23.601777,-0.49572517 26.209204,-3.3950022 C 25.768869,-8.8365436 31.368687,-7.2304453 34.307065,-7.7676516 C 37.393805,-10.058947 40.653062,-2.9707598 42.180780,-0.43691384 C 44.183507,0.61996085 46.381265,-3.5216242 43.331069,-4.5926508 C 43.692813,-6.6267681 37.142909,-10.069340 41.288411,-10.217683 C 44.059250,-8.7440472 45.618147,-5.6910968 46.140620,-3.7031405 C 51.663011,-3.9532602 43.870746,2.4289442 49.171177,0.48776386 C 52.529565,-0.11342440 48.809328,-5.7148301 53.267610,-3.5181658 C 58.902471,-1.3543916 51.332783,-10.788945 57.765558,-10.828840 C 60.754119,-12.593605 59.150738,-4.6957523 60.990901,-8.5563015 C 62.035706,-14.810332 70.401246,-6.2238934 66.588758,-3.7198314 C 61.741473,-5.0678874 56.859125,-5.4611466 54.759649,-0.0027366863 C 54.466776,2.5676707 61.819322,-3.7112385 60.961627,0.87352199 C 62.511701,5.7356483 54.877097,6.6211532 51.997140,4.9366040 C 49.349465,1.7492699 46.883553,4.7197096 44.912816,6.1699659 C 41.840722,5.7406060 31.620765,4.9287347 35.941167,0.34986738 C 37.083921,-4.4306858 29.973553,-0.085280264 27.385660,-1.1622713 C 24.118197,0.60785636 19.083837,-0.95975864 16.471699,1.6798183 C 16.098134,4.7407251 11.202676,3.0531411 10.401163,6.7365358 C 8.5511186,10.929575 2.4203577,12.329878 2.2658927,16.824402 C 2.0899344,21.847698 -0.27608850,26.418750 2.3515425,31.367690 C 2.9833799,36.429383 7.7783137,39.560871 12.684289,38.371886 C 15.525036,38.310817 18.189986,41.865154 20.187949,37.579018 C 23.407751,32.274810 26.700322,40.535449 30.736582,38.390538 C 34.060563,42.219151 27.956446,46.773598 33.166676,49.454023 C 37.535248,54.082085 36.237234,60.510167 34.328663,65.884022 C 34.358166,70.211321 40.038744,72.463937 39.934710,76.752885 C 39.500902,82.891400 45.025163,88.276903 51.052576,85.310297 C 54.959058,84.209039 56.540912,79.569821 60.545712,78.498550 C 63.585269,75.933068 62.264033,68.438319 67.812627,68.255917 C 75.384508,65.723700 69.952247,56.671461 72.015756,51.546387 C 75.042539,47.971087 76.327307,42.679638 80.963725,40.699373 C 84.547378,37.561515 82.181581,31.237099 85.816503,27.683079 C 82.737568,30.056495 77.556463,32.132890 74.186041,29.250040 C 68.969852,24.725007 64.680275,19.064772 62.020284,12.680416 C 60.775399,9.8577012 60.854344,4.1811274 63.940272,4.2077179 C 64.426503,10.131431 68.616698,14.903036 71.540632,19.821169 C 74.338414,23.017573 76.289775,28.029135 81.481776,26.353780 C 85.868348,24.866734 91.881773,21.959957 91.978035,16.759149 C 91.568599,10.869669 81.066073,16.369808 78.994178,10.360289 C 74.850186,7.8913946 81.814477,3.8135957 83.070205,8.3912808 C 85.759562,11.134981 90.583406,9.6848842 92.561072,13.392239 C 96.564354,11.602738 99.767058,12.862214 101.41637,17.062099 C 104.94478,20.556160 105.89987,25.851017 105.76850,30.639156 C 110.39887,35.153249 108.97565,24.070919 110.19996,21.345958 C 110.38433,18.761417 110.64538,15.578317 111.73392,19.805588 C 115.12203,21.429279 112.76103,14.526242 111.98754,12.972162 C 106.04577,-0.60265437 104.13595,-3.0895817 97.618174,-10.904451 C 86.861469,-21.454762 78.120740,-25.957120 66.212052,-29.883470 C 65.346239,-25.654399 60.058106,-29.377090 57.535870,-25.835545 C 54.889431,-23.835288 54.876267,-24.090525 56.731779,-26.746723 C 55.384148,-29.163089 52.323964,-30.318564 49.969005,-31.683453 z M 31.205980,-26.960300 C 28.561128,-28.212226 22.008559,-24.079991 27.875808,-24.358803 C 29.534983,-24.013169 30.088565,-26.167679 31.205980,-26.960300 z M 27.462010,-20.768365 C 25.350555,-19.960939 20.335833,-18.539216 24.768193,-17.592322 C 26.037323,-18.188252 26.864175,-19.555824 27.462010,-20.768365 z M 39.557896,-2.7685281 C 36.347005,-1.1576838 39.347689,2.0441384 41.042437,-1.0021941 C 40.639986,-1.6697990 40.008890,-2.1405546 39.557896,-2.7685281 z M 111.98923,31.503152 C 107.27350,34.717360 117.57552,37.136283 111.98923,31.503152 z M -22.793528,39.711084 C -23.067081,45.602859 -21.554714,51.813799 -20.239159,58.168106 C -18.541642,61.174666 -17.399929,67.331910 -15.446521,68.201380 C -13.410921,63.532856 -17.597414,58.311227 -15.156152,53.481249 C -18.094938,51.169662 -14.140514,46.045840 -18.917819,44.649243 C -20.421382,43.179031 -21.541303,41.385822 -22.793528,39.711084 z M 80.597526,58.718900 C 80.110165,64.158608 72.703483,65.436129 74.084565,70.949519 C 75.404077,73.839816 73.437712,74.053121 73.134254,76.395848 C 75.857557,78.485121 78.172425,71.683993 80.259600,69.837566 C 80.746355,67.149603 87.094152,58.088950 80.597526,58.718900 z "
       style="fill:#fdfdfd;fill-opacity:0.58854169;fill-rule:evenodd;stroke:none;stroke-width:1.0000000pt;stroke-linecap:butt;stroke-linejoin:miter;stroke-opacity:1.0000000;"
       id="path1885" />
    <path
       d="M 121.57260,37.367815 C 121.57260,-3.7318748 88.254716,-37.049756 47.155025,-37.049756 C 6.0553355,-37.049756 -27.262546,-3.7318748 -27.262546,37.367815 C -27.262546,78.467505 6.0553355,111.78539 47.155025,111.78539 C 88.254716,111.78539 121.57260,78.467505 121.57260,37.367815 z "
       style="fill:none;fill-opacity:1.0000000;fill-rule:evenodd;stroke:none;stroke-width:3.7500000;stroke-linecap:butt;stroke-linejoin:miter;stroke-miterlimit:4.0000000;stroke-opacity:1.0000000;"
       id="path1886" />
    <path
       d="M 121.57260,37.367815 C 121.57260,-3.7318748 88.254716,-37.049756 47.155025,-37.049756 C 6.0553355,-37.049756 -27.262546,-3.7318748 -27.262546,37.367815 C -27.262546,78.467505 6.0553355,111.78539 47.155025,111.78539 C 88.254716,111.78539 121.57260,78.467505 121.57260,37.367815 z "
       style="fill:none;fill-opacity:0.94117647;fill-rule:evenodd;stroke:none;stroke-width:5.8040280;stroke-linecap:butt;stroke-linejoin:miter;stroke-miterlimit:4.0000000;stroke-opacity:1.0000000;"
       id="path1887" />
    <path
       d="M 109.45517,33.904637 C 109.45517,-0.27096100 82.122090,-27.975756 48.405013,-27.975756 C 14.687938,-27.975756 -12.645151,-0.27096100 -12.645151,33.904637 C -12.645151,68.080240 14.687938,95.785030 48.405013,95.785030 C 82.122090,95.785030 109.45517,68.080240 109.45517,33.904637 z "
       style="fill:url(#linearGradient4174);fill-opacity:1.0000000;fill-rule:evenodd;stroke:none;stroke-width:2.3390312;stroke-linecap:butt;stroke-linejoin:miter;stroke-miterlimit:4.0000000;stroke-opacity:1.0000000;"
       id="path1888" />
    <path
       d="M 115.65110,33.904637 C 115.65110,-3.7394120 85.544010,-34.255942 48.405013,-34.255942 C 11.266023,-34.255942 -18.841077,-3.7394120 -18.841077,33.904637 C -18.841077,71.548690 11.266023,102.06522 48.405013,102.06522 C 85.544010,102.06522 115.65110,71.548690 115.65110,33.904637 z "
       style="fill:url(#linearGradient4175);fill-opacity:1.0000000;fill-rule:evenodd;stroke:none;stroke-width:2.3390312;stroke-linecap:butt;stroke-linejoin:miter;stroke-miterlimit:4.0000000;stroke-opacity:1.0000000;"
       id="path1685" />
  </g>
</svg>
