<?xml version="1.0" encoding="UTF-8" standalone="no"?>
<!DOCTYPE svg PUBLIC "-//W3C//DTD SVG 20010904//EN"
"http://www.w3.org/TR/2001/REC-SVG-20010904/DTD/svg10.dtd">
<!-- Created with Inkscape (http://www.inkscape.org/) -->
<svg
   id="svg1"
   sodipodi:version="0.32"
   inkscape:version="0.37"
   width="400.00000pt"
   height="300.00000pt"
   sodipodi:docbase="/home/gryphon/data/projects/gdm_theme/sakura"
   sodipodi:docname="sakura.svg"
   xmlns="http://www.w3.org/2000/svg"
   xmlns:cc="http://web.resource.org/cc/"
   xmlns:inkscape="http://www.inkscape.org/namespaces/inkscape"
   xmlns:sodipodi="http://sodipodi.sourceforge.net/DTD/sodipodi-0.dtd"
   xmlns:rdf="http://www.w3.org/1999/02/22-rdf-syntax-ns#"
   xmlns:dc="http://purl.org/dc/elements/1.1/"
   xmlns:xlink="http://www.w3.org/1999/xlink">
  <defs
     id="defs3">
    <linearGradient
       id="linearGradient1039">
      <stop
         style="stop-color:#282828;stop-opacity:1;"
         offset="0.00000000"
         id="stop1040" />
      <stop
         style="stop-color:#000000;stop-opacity:1;"
         offset="1.00000000"
         id="stop1041" />
    </linearGradient>
    <linearGradient
       xlink:href="#linearGradient1039"
       id="linearGradient1042"
       x1="1.00000000"
       y1="1.41406250"
       x2="0.49707603"
       y2="-0.09375000" />
    <linearGradient
       xlink:href="#linearGradient1039"
       id="linearGradient704" />
  </defs>
  <sodipodi:namedview
     id="base"
     pagecolor="#fdfdfd"
     bordercolor="#666666"
     borderopacity="1.0"
     inkscape:pageopacity="0.0000000"
     inkscape:pageshadow="2"
     inkscape:zoom="2.82842713"
     inkscape:cx="141.367084"
     inkscape:cy="151.733294"
     inkscape:window-width="1592"
     inkscape:window-height="1176"
     gridspacingy="50.000000pt"
     gridspacingx="50.000000pt"
     gridoriginy="0.0000000pt"
     gridoriginx="0.0000000pt"
     gridtolerance="5.0000000pt"
     showgrid="true"
     inkscape:grid-points="false"
     inkscape:window-x="0"
     inkscape:window-y="0"
     showguides="true"
     inkscape:guide-bbox="false"
     guidetolerance="5.0000000pt">
    <sodipodi:guide
       orientation="horizontal"
       position="359.12481"
       id="guide1601" />
  </sodipodi:namedview>
  <metadata
     id="metadata4">
    <rdf:RDF
       id="RDF5">
      <cc:Work
         rdf:about=""
         id="Work6">
        <dc:format
           id="format7">image/svg+xml</dc:format>
        <dc:type
           id="type9"
           rdf:resource="http://purl.org/dc/dcmitype/StillImage" />
      </cc:Work>
    </rdf:RDF>
  </metadata>
  <rect
     style="fill:#000000;fill-opacity:1;fill-rule:evenodd;stroke:none;stroke-width:1.0000000pt;stroke-linecap:butt;stroke-linejoin:miter;stroke-opacity:1.0000000;"
     id="blackbg_hack"
     width="500.00000000"
     height="375.00000000"
     x="0.00000000"
     y="0.00000000"
     sodipodi:insensitive="true" />
  <rect
     style="fill:url(#linearGradient1042);fill-opacity:0.735537;fill-rule:evenodd;stroke:none;stroke-width:1.0000000pt;stroke-linecap:butt;stroke-linejoin:miter;stroke-opacity:1.0000000;"
     id="blackbg_gradient"
     width="500.00000000"
     height="375.00000000"
     x="0.00000000"
     y="0.00000000"
     sodipodi:insensitive="true" />
  <path
     sodipodi:type="arc"
     style="font-size:12;fill:#231d1d;fill-opacity:1;fill-rule:evenodd;stroke:none;stroke-width:0.0666208;stroke-opacity:1;stroke-dasharray:none;"
     id="path849"
     sodipodi:cx="81.98019409"
     sodipodi:cy="136.35145569"
     sodipodi:rx="12.15339756"
     sodipodi:ry="11.93242645"
     d="M 94.133592 136.351456 A 12.153398 11.932426 0 1 0 69.826797,136.351456 A 12.1534 11.9324 0 1 0 94.1336 136.351 L 81.980194 136.351456 z"
     transform="matrix(2.005096,0.000000,0.000000,1.934742,164.1563,-11.88923)" />
  <path
     sodipodi:type="arc"
     style="font-size:12;fill:#1e1a1a;fill-opacity:1;fill-rule:evenodd;stroke:none;stroke-width:0.0666208;stroke-opacity:1;stroke-dasharray:none;"
     id="path848"
     sodipodi:cx="81.98019409"
     sodipodi:cy="136.35145569"
     sodipodi:rx="12.15339756"
     sodipodi:ry="11.93242645"
     d="M 94.133592 136.351456 A 12.153398 11.932426 0 1 0 69.826797,136.351456 A 12.1534 11.9324 0 1 0 94.1336 136.351 L 81.980194 136.351456 z"
     transform="matrix(2.167231,0.000000,0.000000,2.024368,136.0815,33.83460)" />
  <path
     sodipodi:type="arc"
     style="font-size:12;fill:#211b1b;fill-opacity:1;fill-rule:evenodd;stroke:none;stroke-width:0.0666208;stroke-opacity:1;stroke-dasharray:none;"
     id="path847"
     sodipodi:cx="81.98019409"
     sodipodi:cy="136.35145569"
     sodipodi:rx="12.15339756"
     sodipodi:ry="11.93242645"
     d="M 94.133592 136.351456 A 12.153398 11.932426 0 1 0 69.826797,136.351456 A 12.1534 11.9324 0 1 0 94.1336 136.351 L 81.980194 136.351456 z"
     transform="matrix(1.910101,0.000000,0.000000,1.843080,187.4735,32.32777)" />
  <path
     sodipodi:type="arc"
     style="font-size:12;fill:#5c3838;fill-opacity:1;fill-rule:evenodd;stroke:none;stroke-width:1pt;"
     id="path1032"
     sodipodi:cx="81.98019409"
     sodipodi:cy="136.35145569"
     sodipodi:rx="12.15339756"
     sodipodi:ry="11.93242645"
     d="M 94.133592 136.351456 A 12.153398 11.932426 0 1 0 69.826797,136.351456 A 12.1534 11.9324 0 1 0 94.1336 136.351 L 81.980194 136.351456 z"
     transform="matrix(1.836364,0.000000,0.000000,1.771930,219.5808,-138.6901)" />
  <path
     sodipodi:type="arc"
     style="font-size:12;fill:#663d3d;fill-opacity:1;fill-rule:evenodd;stroke:none;stroke-width:1pt;"
     id="path1036"
     sodipodi:cx="81.98019409"
     sodipodi:cy="136.35145569"
     sodipodi:rx="12.15339756"
     sodipodi:ry="11.93242645"
     d="M 94.133592 136.351456 A 12.153398 11.932426 0 1 0 69.826797,136.351456 A 12.1534 11.9324 0 1 0 94.1336 136.351 L 81.980194 136.351456 z"
     transform="matrix(1.836364,0.000000,0.000000,1.771930,-8.019234,-176.2552)" />
  <path
     sodipodi:type="arc"
     style="font-size:12;fill:#613d3f;fill-opacity:1;fill-rule:evenodd;stroke:none;stroke-width:1pt;"
     id="path1031"
     sodipodi:cx="81.98019409"
     sodipodi:cy="136.35145569"
     sodipodi:rx="12.15339756"
     sodipodi:ry="11.93242645"
     d="M 94.133592 136.351456 A 12.153398 11.932426 0 1 0 69.826797,136.351456 A 12.1534 11.9324 0 1 0 94.1336 136.351 L 81.980194 136.351456 z"
     transform="matrix(1.951516,0.000000,0.000000,1.883041,190.3269,-198.9183)" />
  <path
     sodipodi:type="arc"
     style="font-size:12;fill:#663d3d;fill-opacity:1;fill-rule:evenodd;stroke:none;stroke-width:1pt;"
     id="path1035"
     sodipodi:cx="81.98019409"
     sodipodi:cy="136.35145569"
     sodipodi:rx="12.15339756"
     sodipodi:ry="11.93242645"
     d="M 94.133592 136.351456 A 12.153398 11.932426 0 1 0 69.826797,136.351456 A 12.1534 11.9324 0 1 0 94.1336 136.351 L 81.980194 136.351456 z"
     transform="matrix(1.836364,0.000000,0.000000,1.771930,151.5217,-222.6591)" />
  <path
     sodipodi:type="arc"
     style="font-size:12;fill:#593c3c;fill-opacity:1;fill-rule:evenodd;stroke:none;stroke-width:1pt;"
     id="path1034"
     sodipodi:cx="81.98019409"
     sodipodi:cy="136.35145569"
     sodipodi:rx="12.15339756"
     sodipodi:ry="11.93242645"
     d="M 94.133592 136.351456 A 12.153398 11.932426 0 1 0 69.826797,136.351456 A 12.1534 11.9324 0 1 0 94.1336 136.351 L 81.980194 136.351456 z"
     transform="matrix(1.836364,0.000000,0.000000,1.771930,-33.65185,-120.5705)" />
  <path
     sodipodi:type="arc"
     style="font-size:12;fill:#5e3f3a;fill-opacity:1;fill-rule:evenodd;stroke:none;stroke-width:1pt;"
     id="path1033"
     sodipodi:cx="81.98019409"
     sodipodi:cy="136.35145569"
     sodipodi:rx="12.15339756"
     sodipodi:ry="11.93242645"
     d="M 94.133592 136.351456 A 12.153398 11.932426 0 1 0 69.826797,136.351456 A 12.1534 11.9324 0 1 0 94.1336 136.351 L 81.980194 136.351456 z"
     transform="matrix(1.745455,0.000000,0.000000,1.684211,-113.9245,-186.1124)" />
  <path
     sodipodi:type="arc"
     style="font-size:12;fill:#663d3d;fill-opacity:1;fill-rule:evenodd;stroke:none;stroke-width:1pt;"
     id="path1011"
     sodipodi:cx="81.98019409"
     sodipodi:cy="136.35145569"
     sodipodi:rx="12.15339756"
     sodipodi:ry="11.93242645"
     d="M 94.133592 136.351456 A 12.153398 11.932426 0 1 0 69.826797,136.351456 A 12.1534 11.9324 0 1 0 94.1336 136.351 L 81.980194 136.351456 z"
     transform="matrix(1.836364,0.000000,0.000000,1.771930,-108.3400,-189.5134)" />
  <path
     sodipodi:type="arc"
     style="font-size:12;fill:#633f42;fill-opacity:1;fill-rule:evenodd;stroke:none;stroke-width:1pt;"
     id="path1004"
     sodipodi:cx="81.98019409"
     sodipodi:cy="136.35145569"
     sodipodi:rx="12.15339756"
     sodipodi:ry="11.93242645"
     d="M 94.133592 136.351456 A 12.153398 11.932426 0 1 0 69.826797,136.351456 A 12.1534 11.9324 0 1 0 94.1336 136.351 L 81.980194 136.351456 z"
     transform="matrix(2.028283,0.000000,0.000000,1.957115,62.54857,-167.0340)" />
  <path
     sodipodi:type="arc"
     style="font-size:12;fill:#61423f;fill-opacity:1;fill-rule:evenodd;stroke:none;stroke-width:1pt;"
     id="path1013"
     sodipodi:cx="81.98019409"
     sodipodi:cy="136.35145569"
     sodipodi:rx="12.15339756"
     sodipodi:ry="11.93242645"
     d="M 94.133592 136.351456 A 12.153398 11.932426 0 1 0 69.826797,136.351456 A 12.1534 11.9324 0 1 0 94.1336 136.351 L 81.980194 136.351456 z"
     transform="matrix(1.890909,0.000000,0.000000,1.824562,62.86035,-120.4897)" />
  <path
     sodipodi:type="arc"
     style="font-size:12;fill:#663d38;fill-opacity:1;fill-rule:evenodd;stroke:none;stroke-width:1pt;"
     id="path1001"
     sodipodi:cx="81.98019409"
     sodipodi:cy="136.35145569"
     sodipodi:rx="12.15339756"
     sodipodi:ry="11.93242645"
     d="M 94.133592 136.351456 A 12.153398 11.932426 0 1 0 69.826797,136.351456 A 12.1534 11.9324 0 1 0 94.1336 136.351 L 81.980194 136.351456 z"
     transform="matrix(1.836364,0.000000,0.000000,1.771930,46.33951,-183.7682)" />
  <path
     sodipodi:type="arc"
     style="font-size:12;fill:#613d3d;fill-opacity:1;fill-rule:evenodd;stroke:none;stroke-width:1pt;"
     id="path1005"
     sodipodi:cx="81.98019409"
     sodipodi:cy="136.35145569"
     sodipodi:rx="12.15339756"
     sodipodi:ry="11.93242645"
     d="M 94.133592 136.351456 A 12.153398 11.932426 0 1 0 69.826797,136.351456 A 12.1534 11.9324 0 1 0 94.1336 136.351 L 81.980194 136.351456 z"
     transform="matrix(1.909091,0.000000,0.000000,1.842105,288.7486,-81.57188)" />
  <path
     sodipodi:type="arc"
     style="font-size:12;fill:#6b3b3e;fill-opacity:1;fill-rule:evenodd;stroke:none;stroke-width:1pt;"
     id="path701"
     sodipodi:cx="81.98019409"
     sodipodi:cy="136.35145569"
     sodipodi:rx="12.15339756"
     sodipodi:ry="11.93242645"
     d="M 94.133592 136.351456 A 12.153398 11.932426 0 1 0 69.826797,136.351456 A 12.1534 11.9324 0 1 0 94.1336 136.351 L 81.980194 136.351456 z"
     transform="matrix(1.836364,0.000000,0.000000,1.771930,258.4716,-170.9518)" />
  <path
     sodipodi:type="arc"
     style="font-size:12;fill:#633f3d;fill-opacity:1;fill-rule:evenodd;stroke:none;stroke-width:1pt;"
     id="path1007"
     sodipodi:cx="81.98019409"
     sodipodi:cy="136.35145569"
     sodipodi:rx="12.15339756"
     sodipodi:ry="11.93242645"
     d="M 94.133592 136.351456 A 12.153398 11.932426 0 1 0 69.826797,136.351456 A 12.1534 11.9324 0 1 0 94.1336 136.351 L 81.980194 136.351456 z"
     transform="matrix(1.836364,0.000000,0.000000,1.771930,276.5913,-130.7352)" />
  <g
     id="branch_b1026"
     style="fill:#121212;fill-opacity:1;">
    <path
       style="fill:#121212;fill-rule:nonzero;stroke:none;fill-opacity:1;stroke-opacity:1;stroke-width:1pt;stroke-linejoin:miter;stroke-linecap:butt;"
       id="path1021"
       d="M 411.53196 51.409561 C 414.60845 57.09687 420.40893 62.768486 423.95616 68.496316 C 440.76725 94.111871 458.16006 119.28934 475.61137 144.47095 C 479.40873 150.12001 477.5741 147.35559 481.12008 152.761 L 478.32407 155.63321 C 474.97256 150.22096 412.88888 60.457434 408.94876 54.492118 L 411.53196 51.409561 z "
       sodipodi:nodetypes="ccccccc" />
    <path
       style="fill:#121212;fill-rule:nonzero;stroke:none;fill-opacity:1;stroke-opacity:1;stroke-width:1pt;stroke-linejoin:miter;stroke-linecap:butt;"
       id="path1025"
       d="M 412.57877 52.237936 C 413.98044 69.156779 419.72528 114.21027 421.95462 131.03769 L 418.7942 131.80417 C 416.17712 115.03926 410.95994 70.269086 407.69687 53.617464 L 412.57877 52.237936 z "
       sodipodi:nodetypes="ccccc" />
    <path
       style="fill:#121212;fill-rule:nonzero;stroke:none;fill-opacity:1;stroke-opacity:1;stroke-width:1pt;stroke-linejoin:miter;stroke-linecap:butt;"
       id="path1019"
       d="M 303.62191 -17.571873 C 308.48235 -16.88944 312.6114 -13.337409 316.67754 -10.807055 C 340.28255 3.7966432 363.41428 19.04795 386.49218 34.470373 C 395.16983 40.343089 403.83844 46.228783 412.50154 52.122936 L 409.03822 54.578117 C 400.41058 48.663205 391.76563 42.776064 383.09845 36.919243 C 359.90018 21.589599 336.64896 6.5190052 312.6907 -7.5962974 C 310.27713 -8.9938012 307.88635 -10.434406 305.4543 -11.79975 C 304.96843 -12.072517 302.44952 -12.99609 303.62191 -12.897235 L 303.62191 -17.571873 z " />
  </g>
  <path
     sodipodi:type="arc"
     style="font-size:12;fill:#663d3d;fill-opacity:1;fill-rule:evenodd;stroke:none;stroke-width:1pt;"
     id="path1010"
     sodipodi:cx="81.98019409"
     sodipodi:cy="136.35145569"
     sodipodi:rx="12.15339756"
     sodipodi:ry="11.93242645"
     d="M 94.133592 136.351456 A 12.153398 11.932426 0 1 0 69.826797,136.351456 A 12.1534 11.9324 0 1 0 94.1336 136.351 L 81.980194 136.351456 z"
     transform="matrix(1.836364,0.000000,0.000000,1.771930,254.4941,-105.5445)" />
  <path
     sodipodi:type="arc"
     style="font-size:12;fill:#6e3d3d;fill-opacity:1;fill-rule:evenodd;stroke:none;stroke-width:1pt;"
     id="path1012"
     sodipodi:cx="81.98019409"
     sodipodi:cy="136.35145569"
     sodipodi:rx="12.15339756"
     sodipodi:ry="11.93242645"
     d="M 94.133592 136.351456 A 12.153398 11.932426 0 1 0 69.826797,136.351456 A 12.1534 11.9324 0 1 0 94.1336 136.351 L 81.980194 136.351456 z"
     transform="matrix(1.836364,0.000000,0.000000,1.771930,191.7384,-217.3557)" />
  <path
     sodipodi:type="arc"
     style="font-size:12;fill:#663d3d;fill-opacity:1;fill-rule:evenodd;stroke:none;stroke-width:1pt;"
     id="path1003"
     sodipodi:cx="81.98019409"
     sodipodi:cy="136.35145569"
     sodipodi:rx="12.15339756"
     sodipodi:ry="11.93242645"
     d="M 94.133592 136.351456 A 12.153398 11.932426 0 1 0 69.826797,136.351456 A 12.1534 11.9324 0 1 0 94.1336 136.351 L 81.980194 136.351456 z"
     transform="matrix(1.989899,0.000000,0.000000,1.920078,-100.0574,-174.8002)" />
  <g
     id="all_flowers"
     sodipodi:insensitive="true"
     transform="">
    <path
       style="font-size:12;fill:#bf4746;fill-rule:evenodd;stroke:#000000;stroke-width:0.375;fill-opacity:1;"
       d="M 284.35376 41.33136 C 280.33912 41.331362 276.88356 43.17236 274.51001 45.89386 C 272.68478 44.960661 270.69701 44.30011 268.47876 44.30011 C 261.33738 44.300112 255.54126 49.78459 255.54126 56.55011 C 255.54127 58.558395 256.16751 60.376738 257.07251 62.05011 C 254.24752 64.298985 252.35376 67.533472 252.35376 71.30011 C 252.35377 78.065626 258.14987 83.550112 265.29126 83.55011 C 266.18394 83.550104 267.04308 83.463465 267.88501 83.30011 C 269.65783 88.066717 274.40585 91.518862 280.04126 91.51886 C 286.95669 91.518854 292.5654 86.331861 292.91626 79.86261 C 293.17035 79.876717 293.40846 79.92511 293.66626 79.92511 C 300.80766 79.925104 306.60376 74.440633 306.60376 67.67511 C 306.60377 62.03815 302.54545 57.353659 297.07251 55.92511 C 297.2241 55.175135 297.29126 54.404246 297.29126 53.61261 C 297.29127 46.84709 291.49515 41.331357 284.35376 41.33136 z "
       id="blossom_b834" />
    <path
       style="font-size:12;fill:#bf4343;fill-rule:evenodd;stroke:#000000;stroke-width:0.246138;"
       d="M 251.50191 133.98626 C 251.2734 137.09132 252.20902 140.36828 254.35642 143.03783 C 256.63455 145.86987 259.80294 147.36178 263.04174 147.62895 C 263.01897 154.16244 267.72471 159.59188 273.74329 159.78745 C 278.12739 159.9299 281.91903 157.20679 283.86064 153.23434 C 285.0447 153.71915 286.31378 154.05802 287.65361 154.10157 C 294.09003 154.3107 299.46984 148.88965 299.69371 142.00006 C 299.8241 137.98737 298.07591 134.49987 295.39858 132.1267 C 297.64543 129.92986 299.11585 126.85693 299.22966 123.35437 C 299.45353 116.46477 294.40746 110.67394 287.97105 110.4648 C 284.63836 110.3565 281.61774 111.82153 279.41404 114.15466 C 277.25642 110.56159 273.55586 108.1431 269.30018 108.37014 C 262.98798 108.7069 258.14313 114.49268 258.48796 121.25553 C 258.53707 122.21867 258.89201 123.05367 259.13431 123.94249 C 257.87852 124.36535 256.69422 124.98299 255.61722 125.87416 C 253.12136 127.93939 251.73043 130.8812 251.50191 133.98626 z "
       id="blossom_b824"
       sodipodi:nodetypes="cccccccccccccccc" />
    <path
       style="fill:black;fill-rule:nonzero;stroke:none;fill-opacity:0.75;stroke-opacity:1;stroke-width:1pt;stroke-linejoin:miter;stroke-linecap:butt;"
       id="stem817"
       d="M 310.64027 120.4495 C 310.60975 121.67116 310.71124 122.88709 310.78628 124.10557 C 311.15693 127.78203 311.74964 131.37377 312.46153 134.99914 L 310.92126 135.14793 C 310.22241 131.49548 309.62132 127.86396 309.20657 124.1681 C 309.10493 122.92834 308.99539 121.69313 308.96204 120.4495 L 310.64027 120.4495 z " />
    <path
       style="font-size:12;fill:#bd423f;fill-rule:evenodd;stroke:#000000;stroke-width:0.25;fill-opacity:1;stroke-dasharray:none;"
       d="M 209.03538 11.721737 C 204.56816 11.721738 200.83424 14.053 198.59788 17.37799 C 197.28473 16.93793 195.91323 16.59674 194.44163 16.59674 C 187.489 16.59674 181.84788 21.91629 181.84788 28.50299 C 181.84788 31.131 182.95154 33.43705 184.47288 35.40924 C 181.7202 37.59867 179.87913 40.74034 179.87913 44.40924 C 179.87913 50.99594 185.52025 56.34674 192.47288 56.34674 C 194.41097 56.34674 196.20721 55.86986 197.84788 55.12799 C 199.73119 59.47199 204.21133 62.53424 209.47288 62.53424 C 216.42551 62.53424 222.06662 57.18344 222.06663 50.59674 C 222.06663 50.09822 221.97314 49.64175 221.91038 49.15924 C 227.96797 48.29498 232.69163 43.54403 232.69163 37.56549 C 232.69163 31.41925 227.71651 26.528 221.41038 25.87799 C 221.55352 25.15843 221.62913 24.41801 221.62913 23.65924 C 221.62913 17.07254 215.98801 11.721734 209.03538 11.721737 z "
       id="blossom_b810" />
    <path
       style="fill:black;fill-rule:nonzero;stroke:none;fill-opacity:0.75;stroke-opacity:1;stroke-width:1pt;stroke-linejoin:miter;stroke-linecap:butt;"
       id="stem812"
       d="M 306.88406 29.184561 C 307.37897 29.774966 307.92235 32.724691 308.24841 33.850636 L 306.73038 34.075666 C 306.23157 32.445339 305.68987 30.813666 305.20525 29.184561 L 306.88406 29.184561 z " />
    <path
       style="font-size:12;fill:#bd4242;fill-rule:evenodd;stroke:#000000;stroke-width:0.25;stroke-dasharray:none;"
       d="M 137.52982 60.284745 C 134.09733 60.569411 130.92713 62.346464 128.93607 65.065995 C 123.69387 62.66202 117.29279 63.839589 113.87357 68.128495 C 112.92038 69.324128 112.3221 70.666802 111.99857 72.034745 C 111.02798 76.138565 112.79358 80.636221 116.90482 83.347245 C 116.87903 83.495107 116.89286 83.637278 116.87357 83.784745 C 116.5435 83.946326 116.18981 84.069217 115.90482 84.315995 C 111.36902 88.243697 111.11543 94.709791 115.34232 98.753495 C 118.54211 101.81461 123.3926 102.59415 127.52982 101.09724 C 128.90816 103.91949 131.37982 106.16282 134.74857 106.90974 C 140.82263 108.25649 147.08706 104.45243 148.71732 98.409745 C 149.0065 97.33785 148.96099 96.296825 148.93607 95.253495 C 151.71773 95.310011 154.50963 94.603512 156.74857 92.847245 C 161.66661 88.989446 162.12868 82.09982 157.74857 77.472245 C 155.46787 75.062686 152.30313 73.799798 149.12357 73.628495 C 149.13409 73.591096 149.17593 73.572337 149.18607 73.534745 C 150.76106 67.696899 147.1039 61.881497 141.02982 60.534745 C 139.85693 60.274692 138.67398 60.189856 137.52982 60.284745 z "
       id="blossom_b756" />
    <path
       style="font-size:12;fill:#bd4848;fill-rule:evenodd;stroke:#000000;stroke-width:0.25;stroke-dasharray:none;"
       d="M 85.281250 15.437500 C 82.096289 15.728867 79.159982 17.560203 77.312500 20.343750 C 72.448332 17.883187 66.516404 19.078886 63.343750 23.468750 C 62.459302 24.692527 61.893952 26.037357 61.593750 27.437500 C 60.693154 31.637924 62.341484 36.256410 66.156250 39.031250 C 66.267087 39.111870 66.387419 39.142568 66.500000 39.218750 C 66.086475 39.513785 65.597298 39.669665 65.218750 40.031250 C 61.010040 44.051405 60.765427 50.673610 64.687500 54.812500 C 67.656543 57.945667 72.161125 58.750896 76.000000 57.218750 C 77.278950 60.107435 79.592929 62.391745 82.718750 63.156250 C 88.354804 64.534703 94.174806 60.653679 95.687500 54.468750 C 95.955835 53.371623 95.898127 52.286639 95.875000 51.218750 C 98.456065 51.276596 101.047517 50.547608 103.125000 48.750000 C 107.688393 44.801392 108.095504 37.767756 104.031250 33.031250 C 101.915012 30.564973 98.981529 29.269085 96.031250 29.093750 C 96.041018 29.055470 96.084340 29.038476 96.093750 29.000000 C 97.555168 23.024736 94.167313 17.065953 88.531250 15.687500 C 87.442945 15.421325 86.342904 15.340378 85.281250 15.437500 z "
       id="blossom_b759" />
    <path
       style="fill:black;fill-rule:nonzero;stroke:none;fill-opacity:0.75;stroke-opacity:1;stroke-width:1pt;stroke-linejoin:miter;stroke-linecap:butt;"
       id="stem717"
       d="M 112.49618 15.597156 C 108.56809 18.691059 104.62453 21.765847 100.70328 24.86888 C 94.683718 29.846821 88.862387 34.956306 83.147126 40.280832 L 82.135643 39.76644 C 87.858058 34.42908 93.682503 29.28271 99.678497 24.254612 C 103.41461 21.219867 107.55059 17.879993 111.1184 14.929636 L 112.49618 15.597156 z " />
    <g
       id="branch"
       transform="matrix(1.530510,0.000000,0.000000,1.530510,-157.0008,-114.2711)">
      <path
         style="fill:#0c0c0c;fill-rule:nonzero;stroke:none;fill-opacity:1;stroke-opacity:1;stroke-width:1pt;stroke-linejoin:miter;stroke-linecap:butt;"
         id="path640"
         d="M 271.3681 92.030233 C 278.8525 92.239043 297.09387 92.084005 303.22387 91.621255 L 303.47838 94.389483 C 297.34572 94.912923 300.35754 94.655983 294.44292 95.160333 C 286.75167 95.779003 279.08131 96.455783 271.3681 96.703763 L 271.3681 92.030233 z "
         sodipodi:nodetypes="cccccc" />
      <path
         style="fill:#0c0c0c;fill-rule:nonzero;stroke:none;fill-opacity:1;stroke-opacity:1;stroke-width:1pt;stroke-linejoin:miter;stroke-linecap:butt;"
         id="path642"
         d="M 271.73066 91.973878 C 274.8255 92.367038 276.27744 94.144178 278.39 96.320618 C 286.76519 110.32325 312.46025 149.07826 316.54662 154.55758 L 313.313 154.28782 C 309.30213 148.74561 305.32519 143.18302 301.38281 137.59189 C 292.27366 124.39424 283.34056 111.06016 273.69017 98.252958 C 272.91903 97.484098 270.24839 95.840158 271.73066 95.996018 L 271.73066 91.973878 z "
         sodipodi:nodetypes="cccccccc" />
      <path
         style="fill:#0d0d0d;fill-rule:nonzero;stroke:none;fill-opacity:1;stroke-opacity:1;stroke-width:1pt;stroke-linejoin:miter;stroke-linecap:butt;"
         id="path664"
         d="M 155.25074 60.351165 C 174.56146 80.708206 211.65767 116.40194 218.34287 122.85745 L 216.31426 124.95589 C 209.78214 118.43168 203.19624 111.96723 196.56865 105.53623 C 176.03717 86.08631 172.21519 81.991793 151.85355 62.370648 C 149.4265 60.197772 151.99719 56.633942 155.25074 60.351165 z "
         sodipodi:nodetypes="cccccc" />
      <path
         style="font-size:12;fill-opacity:1;stroke-width:1pt;fill:#0c0c0c;"
         d="M 224.63549 67.284047 C 226.61322 64.763075 226.5915 65.420079 227.96329 63.999432 C 229.90944 65.132943 273.1 92.197352 275.04615 93.330862 L 271.66674 96.099132 C 269.73476 94.948309 236.14039 73.8189 224.63549 67.284047 z "
         id="path670"
         sodipodi:nodetypes="ccccc" />
    </g>
    <path
       style="fill:black;fill-rule:nonzero;stroke:none;fill-opacity:0.75;stroke-opacity:1;stroke-width:1pt;stroke-linejoin:miter;stroke-linecap:butt;"
       id="stem703"
       d="M 113.18156 12.824776 C 116.47991 13.00392 114.71929 17.496506 114.63058 20.478162 C 114.48353 27.026023 114.38413 33.572476 114.31946 40.121665 L 113.10166 40.118048 C 113.14087 33.567912 113.1848 27.017836 113.21513 20.46765 C 113.21808 17.469573 111.60206 13.001745 114.86037 12.824776 L 113.18156 12.824776 z " />
    <path
       style="fill:black;fill-rule:nonzero;stroke:none;fill-opacity:0.75;stroke-opacity:1;stroke-width:1pt;stroke-linejoin:miter;stroke-linecap:butt;"
       id="stem704"
       d="M 169.30816 69.393318 C 172.48702 69.297835 170.71736 72.460361 170.25664 75.312711 C 169.19961 80.790841 168.07011 86.253695 166.9501 91.719302 L 165.63402 91.589595 C 166.73214 86.132045 167.81195 80.676062 168.77299 75.192687 C 169.18114 72.202767 168.226 69.793427 170.98697 69.393318 L 169.30816 69.393318 z " />
    <path
       style="fill:black;fill-rule:nonzero;stroke:none;fill-opacity:0.75;stroke-opacity:1;stroke-width:1pt;stroke-linejoin:miter;stroke-linecap:butt;"
       id="stem764"
       d="M 170.80254 71.528276 C 169.97441 71.528762 169.15279 71.813623 168.35541 72.000362 C 161.7556 73.687996 155.27477 75.630372 148.79662 77.737255 C 144.16825 79.351276 139.54404 80.977201 134.918 82.597961 L 134.261 81.686375 C 138.89414 80.070711 143.52326 78.443684 148.15503 76.82414 C 154.66491 74.687423 161.18399 72.705545 167.80382 70.939102 C 168.79763 70.694031 169.77404 70.391065 170.80254 70.359893 L 170.80254 71.528276 z " />
    <g
       id="g694"
       transform="translate(77.56078,-41.10058)">
      <path
         sodipodi:type="arc"
         style="font-size:12;fill:#bd6246;fill-opacity:1;fill-rule:evenodd;stroke:none;stroke-width:1pt;"
         id="path693"
         sodipodi:cx="81.98019409"
         sodipodi:cy="136.35145569"
         sodipodi:rx="12.15339756"
         sodipodi:ry="11.93242645"
         d="M 94.133592 136.351456 A 12.153398 11.932426 0 1 0 69.826797,136.351456 A 12.1534 11.9324 0 1 0 94.1336 136.351 L 81.980194 136.351456 z"
         transform="matrix(1.036364,0.000000,0.000000,1.000000,-2.539156,0.000000)" />
      <path
         style="font-size:12;fill:#c23130;fill-rule:evenodd;stroke-width:0.375;stroke:#000000;stroke-opacity:1;stroke-dasharray:none;fill-opacity:1;"
         d="M 82.747599 110.79681 C 75.622469 110.79681 69.841348 116.26544 69.841349 123.01556 C 69.841349 123.27143 69.887473 123.51357 69.903849 123.76556 C 69.494206 123.72742 69.136517 123.54681 68.716349 123.54681 C 61.763719 123.54681 56.122594 128.86636 56.122599 135.45306 C 56.122599 140.06244 58.955766 143.96587 62.997599 145.95306 C 62.993891 146.06952 62.966349 146.17954 62.966349 146.29681 C 62.966349 152.88351 68.86503 158.23431 76.122599 158.23431 C 79.450261 158.23431 82.43083 157.02381 84.747599 155.17181 C 87.075823 157.43379 90.308086 158.85931 93.903849 158.85931 C 100.97846 158.85931 106.71635 153.43657 106.71635 146.73431 C 106.71635 145.04338 106.34523 143.44741 105.6851 141.98431 C 108.5503 139.79647 110.4976 136.58322 110.4976 132.82806 C 110.4976 126.24136 104.85648 120.89055 97.903849 120.89056 C 97.050792 120.89056 96.303214 121.20594 95.497599 121.35931 C 94.62866 115.4073 89.26806 110.7968 82.747599 110.79681 z M 85.528849 134.95306 C 85.684666 135.77111 85.893955 136.54571 86.216349 137.29681 C 85.94902 137.4927 85.622555 137.61317 85.372599 137.82806 C 84.210237 136.78449 82.833976 135.92243 81.310099 135.32806 C 81.309252 135.25217 81.281187 135.18485 81.278849 135.10931 C 81.768613 135.16281 82.242779 135.26556 82.747599 135.26556 C 83.707466 135.26556 84.628563 135.14162 85.528849 134.95306 z "
         id="blossom685" />
    </g>
    <path
       style="fill:black;fill-rule:nonzero;stroke:none;fill-opacity:0.75;stroke-opacity:1;stroke-width:1pt;stroke-linejoin:miter;stroke-linecap:butt;"
       id="stem828"
       d="M 99.67987 24.656962 C 98.74882 25.289596 97.748808 25.841562 96.78607 26.426801 C 93.426665 28.528259 90.382997 30.798411 87.404903 33.413378 C 87.195199 33.61854 86.985494 33.823702 86.77579 34.028864 L 85.498031 33.394736 C 85.714421 33.183927 85.930812 32.973118 86.147203 32.762309 C 89.189478 30.093253 92.301365 27.754226 95.715854 25.582613 C 96.461647 25.117955 97.204461 24.648392 97.951177 24.185267 C 98.089069 24.099744 98.525508 23.704289 98.302088 23.989441 L 99.67987 24.656962 z " />
    <g
       id="g690"
       transform="translate(27.62137,-67.17515)">
      <path
         sodipodi:type="arc"
         style="font-size:12;fill:#bd5446;fill-opacity:1;fill-rule:evenodd;stroke:none;stroke-width:1pt;"
         id="path616"
         sodipodi:cx="81.98019409"
         sodipodi:cy="136.35145569"
         sodipodi:rx="12.15339756"
         sodipodi:ry="11.93242645"
         d="M 94.133592 136.351456 A 12.153398 11.932426 0 1 0 69.826797,136.351456 A 12.1534 11.9324 0 1 0 94.1336 136.351 L 81.980194 136.351456 z"
         transform="matrix(1.036364,0.000000,0.000000,1.000000,-19.99585,-64.08155)" />
      <path
         style="font-size:12;fill:#ba3a3a;fill-rule:evenodd;stroke-width:0.375;fill-opacity:1;stroke:#000000;stroke-opacity:1;stroke-dasharray:none;"
         d="M 61.901481 48.361528 C 60.247201 48.537165 58.600609 49.027807 57.026481 49.861528 C 52.417418 52.302672 49.849562 57.022524 50.026481 61.705278 C 48.4476 62.198261 46.907932 63.006545 45.526481 64.111528 C 39.861306 68.642936 38.764814 76.682028 43.057731 82.049028 C 43.909914 83.114427 44.956027 83.920607 46.057731 84.611528 C 46.033409 84.917469 45.963981 85.205968 45.963981 85.517778 C 45.963981 92.226456 51.6951 97.674029 58.776481 97.674028 C 63.181254 97.674028 66.903693 95.443601 69.213981 92.236528 C 70.192901 93.302989 71.374473 94.200658 72.745231 94.861528 C 78.84319 97.801475 86.2982 94.985762 89.40148 88.549028 C 91.31838 84.573043 90.8962 80.265782 89.02648 76.767778 C 91.16369 74.650667 92.49523 71.801287 92.49523 68.642778 C 92.49523 62.135429 86.9266 56.861528 80.05773 56.861528 C 78.34051 56.861528 76.702546 57.202226 75.213981 57.799028 C 74.996944 56.725967 74.686726 55.653361 74.151481 54.642778 C 71.781959 50.168944 66.864321 47.834618 61.901481 48.361528 z M 68.088981 71.642778 C 68.400249 72.756837 69.00027 73.714811 69.620231 74.674028 C 68.984429 75.368863 68.365252 76.081735 67.870231 76.924028 C 67.267917 76.353415 66.459423 76.029073 65.745231 75.580278 C 65.917969 74.567224 65.985099 73.539525 65.932731 72.517778 C 66.666177 72.302346 67.380737 71.991196 68.088981 71.642778 z "
         id="blossom673" />
    </g>
    <g
       id="g686"
       transform="translate(35.35534,-45.96195)">
      <path
         sodipodi:type="arc"
         style="font-size:12;fill:#bd5c47;fill-opacity:1;fill-rule:evenodd;stroke:none;stroke-width:1pt;"
         id="path663"
         sodipodi:cx="81.98019409"
         sodipodi:cy="136.35145569"
         sodipodi:rx="12.15339756"
         sodipodi:ry="11.93242645"
         d="M 94.133592 136.351456 A 12.153398 11.932426 0 1 0 69.826797,136.351456 A 12.1534 11.9324 0 1 0 94.1336 136.351 L 81.980194 136.351456 z"
         transform="matrix(1.036364,0.000000,0.000000,1.000000,-4.969836,-36.68116)" />
      <path
         style="font-size:12;fill:#bd383a;fill-rule:evenodd;stroke-width:0.375;fill-opacity:1;stroke:#000000;stroke-opacity:1;stroke-dasharray:none;"
         d="M 83.129115 73.091371 C 81.518867 73.296829 79.897599 73.808057 78.379115 74.653871 C 75.177799 76.437041 73.112657 79.37019 72.254115 82.560121 C 67.246551 80.591791 61.540095 81.88532 58.504115 86.278871 C 55.348933 90.844922 56.384564 96.889697 60.379115 100.87262 C 59.240076 102.66652 58.410364 104.62809 58.410365 106.87262 C 58.410365 113.45932 64.051489 118.81012 71.004115 118.81012 C 73.161766 118.81012 75.072024 118.15462 76.847865 117.24762 C 78.296093 119.31537 80.232914 121.08451 82.847865 121.99762 C 89.208246 124.2186 96.087523 121.14825 98.191615 115.12262 C 98.591331 113.97793 98.612413 112.81149 98.629115 111.65387 C 103.65734 110.08761 107.37911 105.75192 107.37911 100.46637 C 107.37911 94.215078 102.21543 89.222974 95.754115 88.716371 C 96.935225 85.557333 96.907303 82.046537 95.191615 78.966371 C 92.787725 74.650682 87.959859 72.474998 83.129115 73.091371 z M 79.754115 96.435121 C 80.742184 96.760481 81.761676 96.865208 82.816615 96.935121 C 82.463584 98.008156 82.208168 99.131135 82.191615 100.31012 C 81.920412 100.40619 81.610363 100.38298 81.347865 100.49762 C 80.698294 99.556912 80.024793 98.666447 79.129115 97.935121 C 79.341204 97.434766 79.620701 96.954241 79.754115 96.435121 z "
         id="blossom679" />
    </g>
    <path
       style="fill:black;fill-rule:nonzero;stroke:none;fill-opacity:0.75;stroke-opacity:1;stroke-width:1pt;stroke-linejoin:miter;stroke-linecap:butt;"
       id="stem818"
       d="M 220.9669 30.648804 C 220.49731 30.658294 219.42737 31.056944 218.83536 31.215375 C 215.61119 32.059243 212.40307 32.917132 209.21547 33.891089 C 207.60924 34.428985 206.01735 34.987965 204.43482 35.591879 L 203.6467 34.615503 C 205.27172 34.000816 206.90621 33.430567 208.55439 32.880843 C 211.77062 31.897364 215.00838 31.024427 218.25634 30.152711 C 219.14156 29.906239 220.04694 29.550905 220.9669 29.480144 L 220.9669 30.648804 z " />
    <g
       id="g713"
       transform="matrix(0.884756,0.000000,0.000000,0.880893,-56.47439,-79.40186)">
      <path
         sodipodi:type="arc"
         style="font-size:12;fill:#bd5e49;fill-opacity:1;fill-rule:evenodd;stroke:none;stroke-width:1pt;"
         id="path711"
         sodipodi:cx="81.98019409"
         sodipodi:cy="136.35145569"
         sodipodi:rx="12.15339756"
         sodipodi:ry="11.93242645"
         d="M 94.133592 136.351456 A 12.153398 11.932426 0 1 0 69.826797,136.351456 A 12.1534 11.9324 0 1 0 94.1336 136.351 L 81.980194 136.351456 z"
         transform="matrix(1.036364,0.000000,0.000000,1.000000,58.00686,9.943689)" />
      <path
         style="font-size:12;fill:#bd3f3a;fill-opacity:1;fill-rule:evenodd;stroke:#000000;stroke-width:0.375;stroke-opacity:1;stroke-dasharray:none;"
         d="M 151.31028 119.97985 C 146.45683 120.1196 141.83242 123.18115 139.81028 128.1361 C 139.75153 128.28006 139.73869 128.42891 139.68528 128.5736 C 139.25032 128.19717 138.96516 127.70601 138.46653 127.3861 C 132.9227 123.82934 125.58244 125.35119 122.09153 130.79235 C 119.44889 134.91135 119.78483 140.0974 122.49778 143.91735 C 119.66973 146.10673 117.77903 149.26429 117.77903 152.91735 C 117.77903 159.50405 123.61369 164.85485 130.81028 164.85485 C 132.08686 164.85485 133.23781 164.51211 134.40403 164.1986 C 135.03359 167.06037 136.52885 169.7363 139.06028 171.54235 C 144.6208 175.50952 152.48268 174.05147 156.59153 168.29235 C 158.73099 165.2936 159.34749 161.71794 158.74778 158.41735 C 158.79243 158.4178 158.82801 158.4486 158.87278 158.4486 C 165.82541 158.4486 171.46653 153.09781 171.46653 146.5111 C 171.46653 141.42361 168.0777 137.13271 163.34153 135.41735 C 164.73684 129.38997 161.82556 123.16943 156.15403 120.85485 C 154.57296 120.20961 152.9281 119.93327 151.31028 119.97985 z M 142.68528 142.35485 C 143.7371 143.35742 144.95666 144.21443 146.37278 144.79235 C 146.40397 144.80508 146.43529 144.81116 146.46653 144.8236 C 146.3826 145.37957 146.27903 145.93327 146.27903 146.5111 C 146.27903 147.24871 146.36234 147.96663 146.49778 148.66735 C 145.34611 148.70806 144.26169 148.87617 143.15403 149.22985 C 142.62236 147.74765 141.7024 146.45511 140.62278 145.29235 C 141.14699 144.75108 141.76336 144.32499 142.18528 143.66735 C 142.44895 143.25638 142.4799 142.78465 142.68528 142.35485 z "
         id="blossom712" />
    </g>
    <g
       id="g725"
       transform="matrix(-0.912491,0.409096,-0.409096,-0.912491,368.8688,77.81155)">
      <path
         sodipodi:type="arc"
         style="font-size:12;fill:#bd5b46;fill-opacity:1;fill-rule:evenodd;stroke:none;stroke-width:1pt;"
         id="path723"
         sodipodi:cx="81.98019409"
         sodipodi:cy="136.35145569"
         sodipodi:rx="12.15339756"
         sodipodi:ry="11.93242645"
         d="M 94.133592 136.351456 A 12.153398 11.932426 0 1 0 69.826797,136.351456 A 12.1534 11.9324 0 1 0 94.1336 136.351 L 81.980194 136.351456 z"
         transform="matrix(1.036364,0.000000,0.000000,1.000000,53.14550,1.104851)" />
      <path
         style="font-size:12;fill:#bf3131;fill-opacity:1;fill-rule:evenodd;stroke:#000000;stroke-width:0.375;stroke-opacity:1;stroke-dasharray:none;"
         d="M 138.093750 110.062500 C 131.141120 110.062500 125.500004 115.413299 125.500000 122.000000 C 125.500000 122.106719 125.528306 122.206450 125.531250 122.312500 C 125.152575 122.282388 124.793313 122.218750 124.406250 122.218750 C 117.087696 122.218750 111.156247 127.699085 111.156250 134.468750 C 111.156250 140.501683 115.887257 145.510066 122.093750 146.531250 C 122.060921 146.898577 121.968750 147.249342 121.968750 147.625000 C 121.968750 154.577630 127.706642 160.218749 134.781250 160.218750 C 138.145445 160.218750 141.150208 158.867308 143.437500 156.781250 C 144.720515 157.208325 146.061273 157.562499 147.500000 157.562500 C 154.269664 157.562500 159.750003 152.405252 159.750000 146.062500 C 159.750000 145.235040 159.646397 144.434257 159.468750 143.656250 C 163.266859 141.693765 165.937503 138.003173 165.937500 133.593750 C 165.937500 127.190016 160.489929 122.000001 153.781250 122.000000 C 152.660253 122.000000 151.655909 122.322142 150.625000 122.593750 C 150.635612 122.393043 150.687500 122.203190 150.687500 122.000000 C 150.687500 115.413301 145.046375 110.062498 138.093750 110.062500 z M 141.750000 133.218750 C 141.745297 133.351287 141.656250 133.460126 141.656250 133.593750 C 141.656250 134.404869 141.958790 135.110705 142.125000 135.875000 C 141.635280 136.102290 141.231296 136.434480 140.781250 136.718750 C 139.749712 136.168272 138.740092 135.599770 137.562500 135.343750 C 137.585447 135.049032 137.656250 134.768849 137.656250 134.468750 C 137.656250 134.243945 137.606683 134.034338 137.593750 133.812500 C 137.770072 133.819448 137.915636 133.906250 138.093750 133.906250 C 139.388337 133.906250 140.574216 133.562932 141.750000 133.218750 z "
         id="blossom724" />
    </g>
    <g
       id="g735"
       transform="translate(96.12233,-116.2307)">
      <path
         sodipodi:type="arc"
         style="font-size:12;fill:#bd5d48;fill-opacity:1;fill-rule:evenodd;stroke:none;stroke-width:1pt;"
         id="path728"
         sodipodi:cx="81.98019409"
         sodipodi:cy="136.35145569"
         sodipodi:rx="12.15339756"
         sodipodi:ry="11.93242645"
         d="M 94.133592 136.351456 A 12.153398 11.932426 0 1 0 69.826797,136.351456 A 12.1534 11.9324 0 1 0 94.1336 136.351 L 81.980194 136.351456 z"
         transform="matrix(0.509091,0.000000,0.000000,0.564815,99.24404,72.48593)" />
      <path
         style="font-size:12;fill:#bf3131;fill-opacity:1;fill-rule:evenodd;stroke:#000000;stroke-width:0.375;stroke-opacity:1;stroke-dasharray:none;"
         d="M 141.500000 121.500000 C 138.362345 121.369535 135.089534 122.434842 132.468750 124.718750 C 129.688434 127.141680 128.288242 130.430187 128.125000 133.750000 C 121.537931 133.943743 116.218750 138.934644 116.218750 145.093750 C 116.218750 149.580237 119.088072 153.365860 123.156250 155.218750 C 122.706303 156.445297 122.406251 157.753877 122.406250 159.125000 C 122.406250 165.711699 128.047373 171.031248 135.000000 171.031250 C 139.049404 171.031250 142.507840 169.128292 144.812500 166.312500 C 147.100698 168.536427 150.246634 169.937503 153.781250 169.937500 C 160.733880 169.937500 166.406248 164.586698 166.406250 158.000000 C 166.406250 154.589499 164.830422 151.550264 162.406250 149.375000 C 165.957695 147.049971 168.274521 143.186657 167.906250 138.843750 C 167.360007 132.402149 161.368732 127.641587 154.562500 128.218750 C 153.593170 128.300948 152.763058 128.691521 151.875000 128.968750 C 151.407577 127.699020 150.746148 126.508862 149.812500 125.437500 C 147.648799 122.954650 144.637655 121.630465 141.500000 121.500000 z M 144.375000 144.906250 C 145.007366 146.191063 145.947744 147.249665 147.000000 148.218750 C 145.848827 148.941342 144.844248 149.781012 144.000000 150.812500 C 142.917083 149.760000 141.616753 148.930522 140.187500 148.312500 C 140.459257 147.467266 140.635435 146.602381 140.687500 145.687500 C 141.944443 145.584146 143.167541 145.391436 144.375000 144.906250 z "
         id="blossom734" />
    </g>
    <path
       style="fill:black;fill-rule:nonzero;stroke:none;fill-opacity:0.75;stroke-opacity:1;stroke-width:1pt;stroke-linejoin:miter;stroke-linecap:butt;"
       id="stem825"
       d="M 285.75981 127.9506 C 286.28908 128.23619 286.74496 128.33129 285.61841 128.95788 C 283.40628 130.41647 281.26009 131.94353 279.15002 133.54591 L 277.94898 132.80654 C 280.10712 131.17344 282.30108 129.60654 284.54586 128.0945 C 286.10292 127.26223 286.68276 127.42541 287.43862 127.9506 L 285.75981 127.9506 z " />
    <g
       id="g745"
       transform="translate(88.38834,-86.39961)">
      <path
         sodipodi:type="arc"
         style="font-size:12;fill:#bd674b;fill-opacity:1;fill-rule:evenodd;stroke:none;stroke-width:1pt;"
         id="path738"
         sodipodi:cx="81.98019409"
         sodipodi:cy="136.35145569"
         sodipodi:rx="12.15339756"
         sodipodi:ry="11.93242645"
         d="M 94.133592 136.351456 A 12.153398 11.932426 0 1 0 69.826797,136.351456 A 12.1534 11.9324 0 1 0 94.1336 136.351 L 81.980194 136.351456 z"
         transform="matrix(0.372728,0.000000,0.000000,0.398148,126.6645,101.8402)" />
      <path
         style="font-size:12;fill:#c23131;fill-opacity:1;fill-rule:evenodd;stroke:#000000;stroke-width:0.375;stroke-opacity:1;stroke-dasharray:none;"
         d="M 162.812500 130.812500 C 158.797855 130.812500 155.342301 132.653500 152.968750 135.375000 C 151.143513 134.441799 149.155748 133.781250 146.937500 133.781250 C 139.796108 133.781250 133.999994 139.265730 134.000000 146.031250 C 134.000000 148.039533 134.626248 149.857878 135.531250 151.531250 C 132.706250 153.780123 130.812500 157.014612 130.812500 160.781250 C 130.812500 167.546772 136.608611 173.031252 143.750000 173.031250 C 144.642674 173.031250 145.501815 172.944605 146.343750 172.781250 C 148.116567 177.547863 152.864587 181.000002 158.500000 181.000000 C 165.415427 181.000000 171.024135 175.813001 171.375000 169.343750 C 171.629085 169.357863 171.867199 169.406250 172.125000 169.406250 C 179.266392 169.406250 185.062498 163.921773 185.062500 157.156250 C 185.062500 151.519296 181.004189 146.834799 175.531250 145.406250 C 175.682829 144.656273 175.750000 143.885386 175.750000 143.093750 C 175.750000 136.328228 169.953889 130.812497 162.812500 130.812500 z M 156.750000 153.718750 C 157.604587 154.158736 158.449271 154.593959 159.406250 154.843750 C 159.295660 155.390928 159.280930 155.960925 159.250000 156.531250 C 158.998864 156.517466 158.754763 156.468750 158.500000 156.468750 C 157.607326 156.468750 156.748186 156.555395 155.906250 156.718750 C 155.712936 156.203057 155.417651 155.762601 155.156250 155.281250 C 155.753959 154.803892 156.252060 154.289855 156.750000 153.718750 z "
         id="blossom744" />
    </g>
    <g
       id="g792"
       transform="translate(147.8296,-57.67339)">
      <path
         sodipodi:type="arc"
         style="font-size:12;fill:#bd5d47;fill-opacity:1;fill-rule:evenodd;stroke:none;stroke-width:1pt;"
         id="path785"
         sodipodi:cx="81.98019409"
         sodipodi:cy="136.35145569"
         sodipodi:rx="12.15339756"
         sodipodi:ry="11.93242645"
         d="M 94.133592 136.351456 A 12.153398 11.932426 0 1 0 69.826797,136.351456 A 12.1534 11.9324 0 1 0 94.1336 136.351 L 81.980194 136.351456 z"
         transform="matrix(0.272728,0.000000,0.000000,0.296296,120.6099,129.5386)" />
      <path
         style="font-size:12;fill:#bf2e2f;fill-opacity:1;fill-rule:evenodd;stroke:#000000;stroke-width:0.375;stroke-opacity:1;stroke-dasharray:none;"
         d="M 146.718750 144.750000 C 142.251535 144.750000 138.517614 147.081259 136.281250 150.406250 C 134.968100 149.966189 133.596607 149.625000 132.125000 149.625000 C 125.172370 149.625000 119.531253 154.944557 119.531250 161.531250 C 119.531250 164.159257 120.634913 166.465309 122.156250 168.437500 C 119.403576 170.626932 117.562501 173.768607 117.562500 177.437500 C 117.562500 184.024199 123.203621 189.375002 130.156250 189.375000 C 132.094339 189.375000 133.890587 188.898118 135.531250 188.156250 C 137.414563 192.500249 141.894707 195.562498 147.156250 195.562500 C 154.108880 195.562500 159.749997 190.211704 159.750000 183.625000 C 159.750000 183.126486 159.656517 182.670017 159.593750 182.187500 C 165.651339 181.323243 170.375000 176.572290 170.375000 170.593750 C 170.375000 164.447513 165.399885 159.556265 159.093750 158.906250 C 159.236888 158.186693 159.312500 157.446268 159.312500 156.687500 C 159.312500 150.100801 153.671386 144.749997 146.718750 144.750000 z M 142.562500 167.843750 C 143.460782 168.144782 144.427745 168.274139 145.406250 168.375000 C 145.263112 169.094556 145.187500 169.834983 145.187500 170.593750 C 145.187500 171.096435 145.279944 171.576096 145.343750 172.062500 C 144.098886 172.240109 142.879002 172.440911 141.781250 172.937500 C 141.388770 172.032216 140.728756 171.309036 140.125000 170.531250 C 141.096073 169.756746 141.874674 168.859755 142.562500 167.843750 z "
         id="blossom791" />
    </g>
    <g
       id="g802"
       transform="translate(161.9716,-6.187184)">
      <path
         sodipodi:type="arc"
         style="font-size:12;fill:#bd6144;fill-opacity:1;fill-rule:evenodd;stroke:none;stroke-width:1pt;"
         id="path795"
         sodipodi:cx="81.98019409"
         sodipodi:cy="136.35145569"
         sodipodi:rx="12.15339756"
         sodipodi:ry="11.93242645"
         d="M 94.133592 136.351456 A 12.153398 11.932426 0 1 0 69.826797,136.351456 A 12.1534 11.9324 0 1 0 94.1336 136.351 L 81.980194 136.351456 z"
         transform="matrix(0.400000,0.000000,0.000000,0.398148,119.0149,105.3758)" />
      <path
         style="font-size:12;fill:#bd2f2f;fill-opacity:1;fill-rule:evenodd;stroke:#000000;stroke-width:0.375;stroke-opacity:1;stroke-dasharray:none;"
         d="M 157.32598 133.9264 C 152.54027 133.9264 148.51986 136.54323 146.38848 140.27015 C 144.31754 139.02281 141.98807 138.1139 139.32598 138.1139 C 132.06841 138.1139 126.16974 143.52871 126.16973 150.1764 C 126.16973 152.84903 127.3095 155.17786 128.91973 157.1764 C 126.69459 159.37965 125.29473 162.35519 125.29473 165.64515 C 125.29473 172.41481 131.09664 177.89515 138.23223 177.89515 C 140.33881 177.89515 142.22442 177.3068 143.98223 176.45765 C 145.93858 180.79392 150.52564 183.8639 155.88848 183.8639 C 162.83857 183.8639 168.47312 178.74135 168.76348 172.33265 C 174.26136 170.92167 178.32598 166.21161 178.32598 160.5514 C 178.32598 155.13425 174.58905 150.57967 169.45098 148.95765 C 169.73429 147.9641 169.91973 146.94192 169.91973 145.8639 C 169.91973 139.2772 164.27862 133.92639 157.32598 133.9264 z M 150.76348 155.77015 C 151.525 156.2243 152.24762 156.66469 153.10723 156.95765 C 152.75092 158.0531 152.49834 159.1928 152.48223 160.39515 C 151.70051 160.59874 150.94674 160.78374 150.23223 161.1139 C 149.85151 160.20572 149.19424 159.46295 148.60723 158.6764 C 149.51254 157.84716 150.15188 156.81138 150.76348 155.77015 z "
         id="blossom801" />
    </g>
    <g
       id="g772"
       transform="matrix(0.964239,-0.265033,0.265033,0.964239,131.9098,-61.41822)">
      <path
         sodipodi:type="arc"
         style="font-size:12;fill:#bd5d48;fill-opacity:1;fill-rule:evenodd;stroke:none;stroke-width:1pt;"
         id="path765"
         sodipodi:cx="81.98019409"
         sodipodi:cy="136.35145569"
         sodipodi:rx="12.15339756"
         sodipodi:ry="11.93242645"
         d="M 94.133592 136.351456 A 12.153398 11.932426 0 1 0 69.826797,136.351456 A 12.1534 11.9324 0 1 0 94.1336 136.351 L 81.980194 136.351456 z"
         transform="matrix(0.363637,0.000000,0.000000,0.361111,114.0411,113.5194)" />
      <path
         style="font-size:12;fill:#bf2f33;fill-opacity:1;fill-rule:evenodd;stroke:#000000;stroke-width:0.375;stroke-opacity:1;stroke-dasharray:none;"
         d="M 140.437500 135.250000 C 134.006404 135.250000 128.636786 139.514678 127.500000 145.156250 C 120.855903 145.660206 115.562497 150.749360 115.562500 157.125000 C 115.562500 161.228419 117.871816 164.674052 121.187500 166.875000 C 120.557450 168.295194 120.218751 169.863702 120.218750 171.500000 C 120.218750 178.086699 125.859864 183.406243 132.812500 183.406250 C 136.430957 183.406250 139.639446 181.942270 141.937500 179.625000 C 145.454855 185.035037 152.883206 186.553628 158.718750 182.968750 C 164.642832 179.329475 166.635234 171.831027 163.187500 166.218750 C 163.111409 166.094887 163.017579 165.994942 162.937500 165.875000 C 166.023290 163.699490 168.156254 160.390183 168.156250 156.468750 C 168.156250 149.882051 162.515129 144.531255 155.562500 144.531250 C 154.764889 144.531250 154.069090 144.834239 153.312500 144.968750 C 152.098288 139.417499 146.799242 135.250000 140.437500 135.250000 z M 143.281250 159.031250 C 143.654277 160.638849 144.549490 161.988211 145.531250 163.281250 C 144.691962 163.883714 143.964501 164.565575 143.312500 165.312500 C 142.480327 164.049322 141.473917 162.982579 140.218750 162.093750 C 140.627894 161.246041 140.962484 160.375496 141.156250 159.437500 C 141.902693 159.398089 142.573160 159.181206 143.281250 159.031250 z "
         id="blossom771" />
    </g>
    <g
       id="g782"
       transform="matrix(8.443870e-2,-0.996429,0.996429,8.443870e-2,135.1348,166.3677)">
      <path
         sodipodi:type="arc"
         style="font-size:12;fill:#bd6844;fill-opacity:1;fill-rule:evenodd;stroke:none;stroke-width:1pt;"
         id="path775"
         sodipodi:cx="81.98019409"
         sodipodi:cy="136.35145569"
         sodipodi:rx="12.15339756"
         sodipodi:ry="11.93242645"
         d="M 94.133592 136.351456 A 12.153398 11.932426 0 1 0 69.826797,136.351456 A 12.1534 11.9324 0 1 0 94.1336 136.351 L 81.980194 136.351456 z"
         transform="matrix(0.409091,0.000000,0.000000,0.370371,95.84110,89.60741)" />
      <path
         style="font-size:12;fill:#bd3131;fill-opacity:1;fill-rule:evenodd;stroke:#000000;stroke-width:0.375;stroke-opacity:1;stroke-dasharray:none;"
         d="M 136.500000 117.531250 C 134.949395 117.749624 133.392550 118.259646 131.937500 119.093750 C 130.777772 119.758561 129.887464 120.667799 129.031250 121.593750 C 125.047714 117.041943 118.099470 116.034301 112.718750 119.562500 C 107.398238 123.051225 105.510689 129.720974 107.968750 135.156250 C 105.646662 136.946904 103.895539 139.425858 103.375000 142.468750 C 102.233512 149.141485 107.029079 155.515559 114.062500 156.718750 C 115.126329 156.900736 116.159543 156.908131 117.187500 156.843750 C 117.198587 156.896611 117.206843 156.947148 117.218750 157.000000 C 118.653010 163.366150 125.510634 167.269211 132.531250 165.687500 C 137.440213 164.581533 140.994022 161.048493 142.281250 156.875000 C 143.108122 157.038455 143.967047 157.124999 144.843750 157.125000 C 151.857368 157.125000 157.562497 151.613409 157.562500 144.843750 C 157.562500 139.297967 153.705937 134.670724 148.468750 133.156250 C 149.898928 129.912109 150.050817 126.195951 148.218750 123.000000 C 145.852933 118.872950 141.151815 116.876128 136.500000 117.531250 z M 129.125000 137.312500 C 130.322986 138.481223 131.681089 139.366473 133.250000 139.906250 C 132.879112 140.710450 132.591457 141.522116 132.406250 142.406250 C 131.231870 142.242925 129.986280 142.380551 128.750000 142.531250 C 128.504059 141.316485 127.911227 140.235656 127.312500 139.156250 C 127.989809 138.593424 128.590126 137.976697 129.125000 137.312500 z "
         id="blossom781" />
    </g>
  </g>
  <path
     sodipodi:type="arc"
     style="font-size:12;fill:#6e3f3d;fill-opacity:1;fill-rule:evenodd;stroke:none;stroke-width:1pt;"
     id="path1002"
     sodipodi:cx="81.98019409"
     sodipodi:cy="136.35145569"
     sodipodi:rx="12.15339756"
     sodipodi:ry="11.93242645"
     d="M 94.133592 136.351456 A 12.153398 11.932426 0 1 0 69.826797,136.351456 A 12.1534 11.9324 0 1 0 94.1336 136.351 L 81.980194 136.351456 z"
     transform="matrix(1.763637,0.000000,0.000000,1.701755,252.5015,-145.8688)" />
  <path
     sodipodi:type="arc"
     style="font-size:12;fill:#6e4040;fill-opacity:1;fill-rule:evenodd;stroke:none;stroke-width:1pt;"
     id="path1008"
     sodipodi:cx="81.98019409"
     sodipodi:cy="136.35145569"
     sodipodi:rx="12.15339756"
     sodipodi:ry="11.93242645"
     d="M 94.133592 136.351456 A 12.153398 11.932426 0 1 0 69.826797,136.351456 A 12.1534 11.9324 0 1 0 94.1336 136.351 L 81.980194 136.351456 z"
     transform="matrix(1.981819,0.000000,0.000000,1.912281,212.5177,-211.8371)" />
  <path
     sodipodi:type="arc"
     style="font-size:12;fill:#683d42;fill-opacity:1;fill-rule:evenodd;stroke:none;stroke-width:1pt;"
     id="path1009"
     sodipodi:cx="81.98019409"
     sodipodi:cy="136.35145569"
     sodipodi:rx="12.15339756"
     sodipodi:ry="11.93242645"
     d="M 94.133592 136.351456 A 12.153398 11.932426 0 1 0 69.826797,136.351456 A 12.1534 11.9324 0 1 0 94.1336 136.351 L 81.980194 136.351456 z"
     transform="matrix(2.066667,0.000000,0.000000,1.994152,301.6104,-68.22770)" />
  <path
     style="fill:black;fill-rule:nonzero;stroke:none;fill-opacity:0.75;stroke-opacity:1;stroke-width:1pt;stroke-linejoin:miter;stroke-linecap:butt;"
     id="path1017"
     d="M -178.97846 -59.99828 C -178.97619 -59.998306 -178.97393 -59.998333 -178.97166 -59.998359 L -178.97166 -55.323563 C -178.97393 -55.323589 -178.97619 -55.323616 -178.97846 -55.323642 L -178.97846 -59.99828 z " />
  <path
     style="fill:black;fill-rule:nonzero;stroke:none;fill-opacity:0.75;stroke-opacity:1;stroke-width:1pt;stroke-linejoin:miter;stroke-linecap:butt;"
     id="path1024"
     d="M 427.17746 44.893343 C 427.17458 44.921323 427.1717 44.949303 427.16882 44.977283 L 420.47543 44.977283 C 420.47255 44.949303 420.46967 44.921323 420.46679 44.893343 L 427.17746 44.893343 z " />
  <path
     sodipodi:type="arc"
     style="font-size:12;fill:#6b3d3d;fill-opacity:1;fill-rule:evenodd;stroke:none;stroke-width:1pt;"
     id="path1006"
     sodipodi:cx="81.98019409"
     sodipodi:cy="136.35145569"
     sodipodi:rx="12.15339756"
     sodipodi:ry="11.93242645"
     d="M 94.133592 136.351456 A 12.153398 11.932426 0 1 0 69.826797,136.351456 A 12.1534 11.9324 0 1 0 94.1336 136.351 L 81.980194 136.351456 z"
     transform="matrix(1.836364,0.000000,0.000000,1.771930,311.0628,-78.58603)" />
  <path
     sodipodi:type="arc"
     style="font-size:12;fill:#703e3e;fill-opacity:1;fill-rule:evenodd;stroke:none;stroke-width:1pt;"
     id="path1030"
     sodipodi:cx="81.98019409"
     sodipodi:cy="136.35145569"
     sodipodi:rx="12.15339756"
     sodipodi:ry="11.93242645"
     d="M 94.133592 136.351456 A 12.153398 11.932426 0 1 0 69.826797,136.351456 A 12.1534 11.9324 0 1 0 94.1336 136.351 L 81.980194 136.351456 z"
     transform="matrix(1.836364,0.000000,0.000000,1.771930,273.9396,-114.3833)" />
  <path
     sodipodi:type="arc"
     style="font-size:12;fill:#513535;fill-opacity:1;fill-rule:evenodd;stroke:none;stroke-width:1pt;"
     id="path1038"
     sodipodi:cx="81.98019409"
     sodipodi:cy="136.35145569"
     sodipodi:rx="12.15339756"
     sodipodi:ry="11.93242645"
     d="M 94.133592 136.351456 A 12.153398 11.932426 0 1 0 69.826797,136.351456 A 12.1534 11.9324 0 1 0 94.1336 136.351 L 81.980194 136.351456 z"
     transform="matrix(1.836364,0.000000,0.000000,1.771930,294.2689,-205.4233)" />
  <path
     sodipodi:type="arc"
     style="font-size:12;fill:#613a3a;fill-opacity:1;fill-rule:evenodd;stroke:none;stroke-width:1pt;"
     id="path702"
     sodipodi:cx="81.98019409"
     sodipodi:cy="136.35145569"
     sodipodi:rx="12.15339756"
     sodipodi:ry="11.93242645"
     d="M 94.133592 136.351456 A 12.153398 11.932426 0 1 0 69.826797,136.351456 A 12.1534 11.9324 0 1 0 94.1336 136.351 L 81.980194 136.351456 z"
     transform="matrix(1.759596,0.000000,0.000000,1.697856,334.1008,-185.1585)" />
  <path
     sodipodi:type="arc"
     style="font-size:12;fill:#613838;fill-opacity:1;fill-rule:evenodd;stroke:none;stroke-width:1pt;"
     id="path1037"
     sodipodi:cx="81.98019409"
     sodipodi:cy="136.35145569"
     sodipodi:rx="12.15339756"
     sodipodi:ry="11.93242645"
     d="M 94.133592 136.351456 A 12.153398 11.932426 0 1 0 69.826797,136.351456 A 12.1534 11.9324 0 1 0 94.1336 136.351 L 81.980194 136.351456 z"
     transform="matrix(1.836364,0.000000,0.000000,1.771930,309.7369,-224.8687)" />
  <path
     sodipodi:type="arc"
     style="font-size:12;fill:#141313;fill-opacity:1;fill-rule:evenodd;stroke:none;stroke-width:0.141312;stroke-opacity:1;stroke-dasharray:none;"
     id="path694"
     sodipodi:cx="81.98019409"
     sodipodi:cy="136.35145569"
     sodipodi:rx="12.15339756"
     sodipodi:ry="11.93242645"
     d="M 94.133592 136.351456 A 12.153398 11.932426 0 1 0 69.826797,136.351456 A 12.1534 11.9324 0 1 0 94.1336 136.351 L 81.980194 136.351456 z"
     transform="matrix(1.801011,0.000000,0.000000,1.737817,-78.91288,103.7608)" />
  <path
     sodipodi:type="arc"
     style="font-size:12;fill:#171616;fill-opacity:1;fill-rule:evenodd;stroke:none;stroke-width:0.137158;stroke-opacity:1;stroke-dasharray:none;"
     id="path695"
     sodipodi:cx="81.98019409"
     sodipodi:cy="136.35145569"
     sodipodi:rx="12.15339756"
     sodipodi:ry="11.93242645"
     d="M 94.133592 136.351456 A 12.153398 11.932426 0 1 0 69.826797,136.351456 A 12.1534 11.9324 0 1 0 94.1336 136.351 L 81.980194 136.351456 z"
     transform="matrix(1.855555,0.000000,0.000000,1.790449,-83.60549,68.48627)" />
  <path
     sodipodi:type="arc"
     style="font-size:12;fill:#171616;fill-opacity:1;fill-rule:evenodd;stroke:none;stroke-width:0.142834;stroke-opacity:1;stroke-dasharray:none;"
     id="path696"
     sodipodi:cx="81.98019409"
     sodipodi:cy="136.35145569"
     sodipodi:rx="12.15339756"
     sodipodi:ry="11.93242645"
     d="M 94.133592 136.351456 A 12.153398 11.932426 0 1 0 69.826797,136.351456 A 12.1534 11.9324 0 1 0 94.1336 136.351 L 81.980194 136.351456 z"
     transform="matrix(1.781819,0.000000,0.000000,1.719299,-103.2054,99.87765)" />
  <path
     sodipodi:type="arc"
     style="font-size:12;fill:#171616;fill-opacity:1;fill-rule:evenodd;stroke:none;stroke-width:0.0744562;stroke-opacity:1;stroke-dasharray:none;"
     id="path697"
     sodipodi:cx="81.98019409"
     sodipodi:cy="136.35145569"
     sodipodi:rx="12.15339756"
     sodipodi:ry="11.93242645"
     d="M 94.133592 136.351456 A 12.153398 11.932426 0 1 0 69.826797,136.351456 A 12.1534 11.9324 0 1 0 94.1336 136.351 L 81.980194 136.351456 z"
     transform="matrix(1.709091,0.000000,0.000000,1.649123,86.16267,138.2189)" />
  <path
     sodipodi:type="arc"
     style="font-size:12;fill:#191818;fill-opacity:1;fill-rule:evenodd;stroke:none;stroke-width:0.0666208;stroke-opacity:1;stroke-dasharray:none;"
     id="path698"
     sodipodi:cx="81.98019409"
     sodipodi:cy="136.35145569"
     sodipodi:rx="12.15339756"
     sodipodi:ry="11.93242645"
     d="M 94.133592 136.351456 A 12.153398 11.932426 0 1 0 69.826797,136.351456 A 12.1534 11.9324 0 1 0 94.1336 136.351 L 81.980194 136.351456 z"
     transform="matrix(1.910101,0.000000,0.000000,1.843080,50.91353,88.89632)" />
  <path
     sodipodi:type="arc"
     style="font-size:12;fill:#171616;fill-opacity:1;fill-rule:evenodd;stroke:none;stroke-width:0.132054;stroke-opacity:1;stroke-dasharray:none;"
     id="path699"
     sodipodi:cx="81.98019409"
     sodipodi:cy="136.35145569"
     sodipodi:rx="12.15339756"
     sodipodi:ry="11.93242645"
     d="M 94.133592 136.351456 A 12.153398 11.932426 0 1 0 69.826797,136.351456 A 12.1534 11.9324 0 1 0 94.1336 136.351 L 81.980194 136.351456 z"
     transform="matrix(1.927273,0.000000,0.000000,1.859649,-53.25795,120.0269)" />
  <path
     sodipodi:type="arc"
     style="font-size:12;fill:#1c1b1b;fill-opacity:1;fill-rule:evenodd;stroke:none;stroke-width:0.066656;stroke-opacity:1;stroke-dasharray:none;"
     id="path700"
     sodipodi:cx="81.98019409"
     sodipodi:cy="136.35145569"
     sodipodi:rx="12.15339756"
     sodipodi:ry="11.93242645"
     d="M 94.133592 136.351456 A 12.153398 11.932426 0 1 0 69.826797,136.351456 A 12.1534 11.9324 0 1 0 94.1336 136.351 L 81.980194 136.351456 z"
     transform="matrix(1.909091,0.000000,0.000000,1.842106,283.4454,112.0218)" />
  <path
     style="fill:black;fill-rule:nonzero;stroke:none;fill-opacity:0.75;stroke-opacity:1;stroke-width:1pt;stroke-linejoin:miter;stroke-linecap:butt;"
     id="path814"
     d="M 154.69056 168.57571 C 154.69152 168.57571 154.69247 168.57571 154.69343 168.57571 L 154.69343 169.2368 C 154.69247 169.23679 154.69152 169.23679 154.69056 169.23679 L 154.69056 168.57571 z " />
  <g
     id="the_blossom">
    <path
       transform="matrix(0.479660,-0.112636,0.115650,0.444829,268.6982,219.6810)"
       style="font-size:12;fill:#cdbfba;fill-opacity:1;fill-rule:evenodd;stroke:#000000;stroke-width:0.656778;stroke-opacity:1;stroke-dasharray:none;"
       d="M 94.133591 136.351456 C 94.513315 147.924684 78.016647 152.705100 71.903318 143.021498 C 65.580853 134.529604 74.338898 122.134113 84.428534 124.661593 C 89.880738 125.664841 94.231905 130.768041 94.133591 136.351456 z "
       id="path846" />
    <path
       transform="matrix(1.027273,0.000000,0.000000,0.769006,239.8378,178.3375)"
       style="font-size:12;fill:#eecfcf;fill-opacity:1;fill-rule:evenodd;stroke:#000000;stroke-width:0.421914;stroke-opacity:1;stroke-dasharray:none;"
       d="M 94.133591 136.351456 C 94.513315 147.924684 78.016647 152.705100 71.903318 143.021498 C 65.580853 134.529604 74.338898 122.134113 84.428534 124.661593 C 89.880738 125.664841 94.231905 130.768041 94.133591 136.351456 z "
       id="path844" />
    <path
       transform="matrix(1.050549,-6.448044e-2,5.314205e-2,0.865818,215.0806,159.6653)"
       style="font-size:12;fill:#f0d1d1;fill-opacity:1;fill-rule:evenodd;stroke:#000000;stroke-width:0.392458;stroke-opacity:1;stroke-dasharray:none;"
       d="M 94.133591 136.351456 C 94.513315 147.924684 78.016647 152.705100 71.903318 143.021498 C 65.580853 134.529604 74.338898 122.134113 84.428534 124.661593 C 89.880738 125.664841 94.231905 130.768041 94.133591 136.351456 z "
       id="path845" />
    <path
       transform="matrix(1.030101,0.225740,-0.190070,0.867332,280.2169,137.6784)"
       style="font-size:12;fill:#eecfcf;fill-opacity:1;fill-rule:evenodd;stroke:#000000;stroke-width:0.387537;stroke-opacity:1;stroke-dasharray:none;"
       d="M 94.133591 136.351456 C 94.513315 147.924684 78.016647 152.705100 71.903318 143.021498 C 65.580853 134.529604 74.338898 122.134113 84.428534 124.661593 C 89.880738 125.664841 94.231905 130.768041 94.133591 136.351456 z "
       id="path843" />
    <path
       style="fill:black;fill-rule:nonzero;stroke:none;fill-opacity:0.75;stroke-opacity:1;stroke-width:1pt;stroke-linejoin:miter;stroke-linecap:butt;"
       id="path800"
       d="M 322.80035 268.43137 C 322.85265 267.05992 323.36333 265.74978 323.7466 264.44483 C 326.0187 256.14203 327.1851 247.86047 328.13411 239.31141 C 328.47926 228.25332 327.81214 217.78133 326.2035 206.8365 L 327.80674 206.70659 C 329.38633 217.70976 330.05501 228.26247 329.73155 239.37487 C 328.81659 247.96943 327.6841 256.32543 325.52558 264.70052 C 325.19256 265.90753 324.6887 267.1618 324.69965 268.43137 L 322.80035 268.43137 z " />
    <path
       style="fill:#0a0a0a;fill-rule:nonzero;stroke:none;fill-opacity:0.75;stroke-opacity:1;stroke-width:1pt;stroke-linejoin:miter;stroke-linecap:butt;"
       id="path840"
       d="M 322.6441 268.74387 C 322.6964 267.37242 323.20708 266.06228 323.59035 264.75733 C 325.86245 256.45453 327.02885 248.17297 327.97786 239.62391 C 328.32301 228.56582 327.65589 218.09383 326.04725 207.149 L 326.86924 206.39409 C 328.44883 217.39726 329.11751 227.94997 328.79405 239.06237 C 327.87909 247.65693 326.7466 256.01293 324.58808 264.38802 C 324.25506 265.59503 323.7512 266.8493 323.76215 268.11887 L 322.6441 268.74387 z "
       sodipodi:nodetypes="ccccccccc" />
    <path
       transform="matrix(0.396714,0.888615,-0.873336,0.664724,418.6773,92.64431)"
       style="font-size:12;fill:#f0d3d3;fill-opacity:1;fill-rule:evenodd;stroke:#000000;stroke-width:0.367759;stroke-opacity:1;stroke-dasharray:none;"
       d="M 94.133591 136.351456 C 94.513315 147.924684 78.016647 152.705100 71.903318 143.021498 C 65.580853 134.529604 74.338898 122.134113 84.428534 124.661593 C 89.880738 125.664841 94.231905 130.768041 94.133591 136.351456 z "
       id="path842" />
    <path
       transform="matrix(7.996108e-2,-1.042715,1.011839,0.323509,168.3862,299.0473)"
       style="font-size:12;fill:#efd3d3;fill-opacity:1;fill-rule:evenodd;stroke:#000000;stroke-width:0.360689;stroke-opacity:1;stroke-dasharray:none;"
       d="M 94.133591 136.351456 C 94.513315 147.924684 78.016647 152.705100 71.903318 143.021498 C 65.580853 134.529604 74.338898 122.134113 84.428534 124.661593 C 89.880738 125.664841 94.231905 130.768041 94.133591 136.351456 z "
       id="path841" />
    <path
       style="fill:#d9d9d9;fill-rule:nonzero;stroke:#000000;fill-opacity:1;stroke-opacity:1;stroke-width:0.3125;stroke-linejoin:miter;stroke-linecap:butt;stroke-dasharray:none;"
       id="path815"
       d="M 323.90018 269.37194 C 324.19114 268.5732 325.00445 267.78205 325.47638 267.07283 C 326.02229 266.08971 326.51456 265.0958 326.99102 264.077 L 327.81685 264.25884 C 327.33916 265.29559 326.84609 266.30986 326.30242 267.31338 C 326.18265 267.49903 324.92079 269.44001 324.84982 269.37194 L 323.90018 269.37194 z " />
    <path
       style="fill:#e6e6e6;fill-rule:nonzero;stroke:#000000;fill-opacity:1;stroke-opacity:1;stroke-width:0.3125;stroke-linejoin:miter;stroke-linecap:butt;stroke-dasharray:none;"
       id="path816"
       d="M 323.43143 268.90319 C 323.81358 269.62001 322.22069 268.62349 321.93773 268.48362 C 320.02592 266.76965 319.45597 265.07604 318.85159 262.60185 L 319.7123 262.52648 C 320.27591 264.79906 320.78167 266.42062 322.54181 268.0006 C 323.13617 268.29644 323.98811 268.41464 324.38107 268.90319 L 323.43143 268.90319 z " />
    <path
       style="fill:#ebebeb;fill-rule:nonzero;stroke:#000000;fill-opacity:1;stroke-opacity:1;stroke-width:0.3125;stroke-linejoin:miter;stroke-linecap:butt;stroke-dasharray:none;"
       id="path817"
       d="M 325.00607 270.15931 C 325.12606 270.40673 326.29543 270.53036 326.61675 270.59343 C 328.43206 270.55448 329.42607 270.1116 330.84721 268.98868 L 331.5679 269.35669 C 329.8584 270.69073 328.62919 271.18306 326.45708 271.22318 C 325.65141 271.062 324.39769 271.04792 324.05643 270.15931 L 325.00607 270.15931 z " />
    <path
       style="fill:#dcdcdc;fill-rule:nonzero;stroke:#000000;fill-opacity:1;stroke-opacity:1;stroke-width:0.3125;stroke-linejoin:miter;stroke-linecap:butt;stroke-dasharray:none;"
       id="path818"
       d="M 322.33768 270.62194 C 322.53053 271.15579 321.00263 269.64684 320.8403 269.49252 C 320.31507 268.89024 319.82971 268.27928 319.36076 267.63226 L 320.16835 267.35932 C 320.62056 267.9798 321.08872 268.56343 321.59732 269.13865 C 322.10812 269.61614 322.91671 270.06189 323.28732 270.62194 L 322.33768 270.62194 z " />
    <path
       style="fill:#d7d7d7;fill-rule:nonzero;stroke:#000000;fill-opacity:1;stroke-opacity:1;stroke-width:0.3125;stroke-linejoin:miter;stroke-linecap:butt;stroke-dasharray:none;"
       id="path819"
       d="M 323.14243 270.72746 C 322.91841 269.54545 323.37763 268.219 323.59979 267.06717 L 324.46548 267.15344 C 324.26799 268.25079 323.96708 269.40909 324.03894 270.51028 L 323.14243 270.72746 z " />
    <path
       style="fill:#fafafa;fill-rule:nonzero;stroke:#000000;fill-opacity:1;stroke-opacity:1;stroke-width:0.3125;stroke-linejoin:miter;stroke-linecap:butt;stroke-dasharray:none;"
       id="path820"
       d="M 324.53732 271.09681 C 324.59867 270.91791 324.79537 271.25976 325.12239 271.43728 C 325.88143 271.8493 326.67831 271.95692 327.50189 272.15886 C 328.01198 272.20735 328.50085 272.23263 329.01316 272.23554 L 329.02236 272.86684 C 328.43535 272.86065 327.87435 272.82989 327.29007 272.77258 C 326.03102 272.46135 324.33758 272.29903 323.58768 271.09681 L 324.53732 271.09681 z " />
    <path
       style="fill:#dcdcdc;fill-rule:nonzero;stroke:#000000;fill-opacity:1;stroke-opacity:1;stroke-width:0.3125;stroke-linejoin:miter;stroke-linecap:butt;stroke-dasharray:none;"
       id="path821"
       d="M 323.12194 272.67429 C 322.24329 271.74055 324.08799 269.96373 324.77206 268.8644 L 325.57871 269.10214 C 324.96375 270.11527 324.20183 272.63063 323.12194 272.01321 L 323.12194 272.67429 z " />
    <path
       style="fill:#dedede;fill-rule:nonzero;stroke:#000000;fill-opacity:1;stroke-opacity:1;stroke-width:0.3125;stroke-linejoin:miter;stroke-linecap:butt;stroke-dasharray:none;"
       id="path822"
       d="M 324.06857 271.40931 C 323.44201 272.33793 322.1075 272.0859 321.12927 272.04596 C 320.47433 271.87587 319.90235 271.65978 319.29219 271.36689 L 319.82442 270.85417 C 320.32461 271.09623 320.79284 271.27991 321.32965 271.4225 C 321.72795 271.44335 323.14294 271.29645 323.11893 271.40931 L 324.06857 271.40931 z " />
    <path
       style="fill:#e8e8e8;fill-rule:nonzero;stroke:#000000;fill-opacity:1;stroke-opacity:1;stroke-width:0.3125;stroke-linejoin:miter;stroke-linecap:butt;stroke-dasharray:none;"
       id="path823"
       d="M 322.65319 271.42429 C 321.5821 271.41202 320.53162 271.33217 319.46527 271.23146 C 317.54003 270.84452 316.01688 270.3065 314.31657 269.32473 L 314.9461 268.87927 C 316.49013 269.77898 317.87062 270.25914 319.62367 270.60759 C 320.63784 270.69836 321.63448 270.77488 322.65319 270.76321 L 322.65319 271.42429 z " />
    <path
       style="fill:#e8e8e8;fill-rule:nonzero;stroke:#000000;fill-opacity:1;stroke-opacity:1;stroke-width:0.3125;stroke-linejoin:miter;stroke-linecap:butt;stroke-dasharray:none;"
       id="path824"
       d="M 323.98037 271.91061 C 323.41143 272.524 322.41948 273.11544 321.60681 273.59735 C 320.90232 273.93038 320.21556 274.1994 319.47242 274.43381 L 319.12431 273.84617 C 319.79481 273.63725 320.41157 273.39517 321.04646 273.09483 C 321.81706 272.63469 322.60827 272.22326 323.201 271.53302 L 323.98037 271.91061 z " />
    <path
       style="fill:#e1e1e1;fill-rule:nonzero;stroke:#000000;fill-opacity:1;stroke-opacity:1;stroke-width:0.3125;stroke-linejoin:miter;stroke-linecap:butt;stroke-dasharray:none;"
       id="path825"
       d="M 323.90319 272.36179 C 323.69972 272.30781 323.9753 272.25133 324.10103 273.09662 C 324.28181 273.48163 324.48848 273.78915 324.75361 274.12226 L 323.96215 274.43886 C 323.65159 274.04561 323.41176 273.68146 323.20002 273.22771 C 323.15708 272.77643 322.93158 272.34637 323.27654 271.93695 C 323.6021 271.55055 324.45084 271.87432 323.90319 271.70071 L 323.90319 272.36179 z " />
    <path
       style="fill:#ffffff;fill-rule:nonzero;stroke:#000000;fill-opacity:1;stroke-opacity:1;stroke-width:0.3125;stroke-linejoin:miter;stroke-linecap:butt;stroke-dasharray:none;"
       id="path826"
       d="M 322.80643 271.55944 C 323.5849 272.18647 323.28668 271.34941 323.85139 271.24033 C 324.24543 271.11358 324.50629 270.94902 324.83978 270.70131 L 325.53632 271.11482 C 325.04966 271.46905 324.66113 271.69206 324.08719 271.8699 C 322.51008 271.96028 322.82427 270.85773 323.75607 271.55944 L 322.80643 271.55944 z " />
    <path
       style="fill:#eeeeee;fill-rule:nonzero;stroke:#000000;fill-opacity:1;stroke-opacity:1;stroke-width:0.3125;stroke-linejoin:miter;stroke-linecap:butt;stroke-dasharray:none;"
       id="path827"
       d="M 322.97181 270.76321 C 324.38607 270.6396 325.51472 269.92486 326.72857 269.26491 C 327.42917 268.73646 327.0847 269.01311 327.76122 268.43401 L 328.44677 268.82137 C 327.72386 269.44219 328.09278 269.14463 327.34053 269.7147 C 325.9148 270.49492 324.62158 271.2606 322.97181 271.42429 L 322.97181 270.76321 z " />
    <path
       style="fill:black;fill-rule:nonzero;stroke:none;fill-opacity:0.75;stroke-opacity:1;stroke-width:1pt;stroke-linejoin:miter;stroke-linecap:butt;"
       id="path828"
       d="M 327.49694 263.76804 C 327.18489 263.71141 327.20204 263.67745 327.34426 263.74464 C 327.45001 263.87533 327.30802 263.81389 327.43523 263.60471 L 328.2517 263.91854 C 327.47842 264.46029 326.93033 264.6702 326.40379 263.75558 C 326.74567 263.09612 327.56482 263.11177 327.49694 263.10696 L 327.49694 263.76804 z " />
    <path
       style="fill:black;fill-rule:nonzero;stroke:none;fill-opacity:0.75;stroke-opacity:1;stroke-width:1pt;stroke-linejoin:miter;stroke-linecap:butt;"
       id="path829"
       d="M 318.90319 262.67429 C 318.67607 262.67331 318.49987 262.6967 318.3514 262.84285 C 318.91547 262.76091 319.24794 262.72551 319.78674 262.42449 L 320.4779 262.854 C 319.25342 263.47499 318.13385 263.9332 317.4752 262.60711 C 317.94231 262.21239 318.26369 262.02611 318.90319 262.01321 L 318.90319 262.67429 z " />
    <path
       style="fill:black;fill-rule:nonzero;stroke:none;fill-opacity:0.75;stroke-opacity:1;stroke-width:1pt;stroke-linejoin:miter;stroke-linecap:butt;"
       id="path830"
       d="M 314.68444 268.76804 C 315.03189 268.71002 314.79991 268.87006 314.87229 269.22645 C 315.00578 269.35491 314.64569 269.24222 314.49408 269.24816 L 315.32937 269.54781 C 314.72214 269.88972 314.47184 269.94859 313.97456 269.41348 C 313.87231 268.69678 313.94892 268.32604 314.68444 268.10696 L 314.68444 268.76804 z " />
    <path
       style="fill:black;fill-rule:nonzero;stroke:none;fill-opacity:0.75;stroke-opacity:1;stroke-width:1pt;stroke-linejoin:miter;stroke-linecap:butt;"
       id="path831"
       d="M 319.52819 267.36179 C 319.36621 267.36724 319.27295 267.45616 319.23039 267.62017 C 319.29512 267.60355 319.20659 267.55457 319.19137 267.52132 L 319.66917 268.08306 C 318.97969 268.20198 318.67465 268.24425 318.2917 267.63384 C 318.56262 267.02846 318.80439 266.75707 319.52819 266.70071 L 319.52819 267.36179 z " />
    <path
       style="fill:black;fill-rule:nonzero;stroke:none;fill-opacity:0.75;stroke-opacity:1;stroke-width:1pt;stroke-linejoin:miter;stroke-linecap:butt;"
       id="path832"
       d="M 328.44357 267.97181 C 328.46392 267.97452 328.9222 268.37001 329.10189 268.44252 C 329.531 268.20313 329.36483 267.89649 329.19289 267.53309 L 330.03093 267.2556 C 330.50362 268.47378 330.09663 268.86517 328.8514 269.0714 C 328.25926 268.82821 327.70435 268.63351 327.49393 267.97181 L 328.44357 267.97181 z " />
    <path
       style="fill:black;fill-rule:nonzero;stroke:none;fill-opacity:0.75;stroke-opacity:1;stroke-width:1pt;stroke-linejoin:miter;stroke-linecap:butt;"
       id="path833"
       d="M 330.85725 269.09198 C 331.10276 269.2513 331.04681 269.14717 330.93374 269.40587 C 330.94933 269.45813 330.69726 269.47743 330.86927 269.04489 L 331.77611 269.19331 C 331.23463 270.05654 330.41462 270.43509 330.00843 269.29696 C 330.4351 268.65342 330.87343 268.36891 331.63662 268.71439 L 330.85725 269.09198 z " />
    <path
       style="fill:black;fill-rule:nonzero;stroke:none;fill-opacity:0.75;stroke-opacity:1;stroke-width:1pt;stroke-linejoin:miter;stroke-linecap:butt;"
       id="path834"
       d="M 329.05944 272.36179 C 329.68573 272.19759 329.19444 272.55945 329.40602 273.17501 C 329.64275 273.35543 329.50166 273.29597 329.55602 273.15544 L 330.35973 273.48707 C 329.63885 273.99863 329.23673 274.00621 328.55045 273.43386 C 328.29448 272.60877 328.25051 272.0821 329.05944 271.70071 L 329.05944 272.36179 z " />
    <path
       style="fill:black;fill-rule:nonzero;stroke:none;fill-opacity:0.75;stroke-opacity:1;stroke-width:1pt;stroke-linejoin:miter;stroke-linecap:butt;"
       id="path835"
       d="M 324.37194 274.23679 C 324.29799 274.23862 324.22603 274.30816 324.28038 274.43737 C 324.44204 274.48133 324.52404 274.45824 324.62885 274.33011 L 325.4342 274.66455 C 324.66097 275.20121 324.16251 275.20838 323.39831 274.66054 C 323.40372 273.95848 323.57943 273.66756 324.37194 273.57571 L 324.37194 274.23679 z " />
    <path
       style="fill:black;fill-rule:nonzero;stroke:none;fill-opacity:0.75;stroke-opacity:1;stroke-width:1pt;stroke-linejoin:miter;stroke-linecap:butt;"
       id="path836"
       d="M 319.52819 274.08054 C 319.62815 274.06909 319.41994 274.27911 319.33146 274.49077 C 319.34366 274.70775 319.06607 274.50227 318.77154 274.4671 L 319.26573 275.02901 C 318.66723 274.97621 318.4103 275.0361 318.40829 274.37643 C 318.67558 273.82208 318.89027 273.51932 319.52819 273.41946 L 319.52819 274.08054 z " />
    <path
       style="fill:black;fill-rule:nonzero;stroke:none;fill-opacity:0.75;stroke-opacity:1;stroke-width:1pt;stroke-linejoin:miter;stroke-linecap:butt;"
       id="path837"
       d="M 323.74393 266.87194 C 324.01225 267.27654 324.29112 266.86159 324.10046 267.41466 C 324.13231 267.94209 324.21548 267.78126 323.67853 267.74516 L 324.54779 267.99271 C 323.67867 268.42962 323.2336 268.38029 323.18011 267.30391 C 323.52475 266.67167 324.15236 266.00672 324.69357 266.87194 L 323.74393 266.87194 z " />
    <path
       style="fill:#050505;fill-rule:nonzero;stroke:none;fill-opacity:0.75;stroke-opacity:1;stroke-width:1pt;stroke-linejoin:miter;stroke-linecap:butt;"
       id="path838"
       d="M 324.52518 269.05944 C 324.71665 269.23519 325.54855 269.50766 325.18949 269.02678 C 325.05868 269.00518 324.85052 269.07352 324.92257 268.94038 L 325.77512 269.21554 C 325.4604 269.59519 325.2461 269.63045 324.76133 269.61312 C 324.00697 268.85877 324.81486 268.54484 325.47482 269.05944 L 324.52518 269.05944 z " />
    <path
       style="fill:black;fill-rule:nonzero;stroke:none;fill-opacity:0.75;stroke-opacity:1;stroke-width:1pt;stroke-linejoin:miter;stroke-linecap:butt;"
       id="path839"
       d="M 318.43444 270.33054 C 318.73468 270.05566 318.71092 269.75454 318.82984 269.72583 L 319.13102 270.34986 C 318.23778 270.47752 317.82803 270.33156 318.43444 269.66946 L 318.43444 270.33054 z " />
  </g>
</svg>
