<?xml version="1.0" encoding="UTF-8" standalone="no"?>
<!DOCTYPE svg PUBLIC "-//W3C//DTD SVG 20010904//EN"
"http://www.w3.org/TR/2001/REC-SVG-20010904/DTD/svg10.dtd">
<!-- Created by Andrew Fitzsimon (http://andy.fitzsimon.com.au/) -->
<!-- Created using Inkscape (http://www.inkscape.org/) -->
<svg
   id="ubuntuicon"
   sodipodi:version="0.32"
   inkscape:version="0.40cvs"
   width="160.00000"
   height="160.00000"
   sodipodi:docname="epiphany-bookmarks.svg"
   version="1.0"
   x="0.00000000"
   y="0.00000000"
   sodipodi:docbase="/home/andy/Desktop/ubuntu icons/human/scalable/apps"
   xmlns="http://www.w3.org/2000/svg"
   xmlns:cc="http://web.resource.org/cc/"
   xmlns:inkscape="http://www.inkscape.org/namespaces/inkscape"
   xmlns:sodipodi="http://sodipodi.sourceforge.net/DTD/sodipodi-0.dtd"
   xmlns:rdf="http://www.w3.org/1999/02/22-rdf-syntax-ns#"
   xmlns:dc="http://purl.org/dc/elements/1.1/"
   xmlns:xlink="http://www.w3.org/1999/xlink">
  <defs
     id="definitions">
    <linearGradient
       inkscape:collect="always"
       xlink:href="#linearGradient1693"
       id="linearGradient1681"
       gradientUnits="userSpaceOnUse"
       gradientTransform="matrix(0.993268,0.000000,0.000000,1.006777,1.130451,-5.953265e-2)"
       x1="92.480659"
       y1="-36.282169"
       x2="94.371857"
       y2="69.624741" />
    <linearGradient
       id="linearGradient1557">
      <stop
         style="stop-color:#ffffff;stop-opacity:0.0000000;"
         offset="0.0000000"
         id="stop1558" />
      <stop
         style="stop-color:#fff;stop-opacity:1;"
         offset="1"
         id="stop1559" />
    </linearGradient>
    <linearGradient
       xlink:href="#linearGradient1557"
       id="linearGradient1560"
       x1="0.50735295"
       y1="0.55629140"
       x2="0.16176471"
       y2="-0.19867550" />
    <linearGradient
       id="linearGradient1501">
      <stop
         style="stop-color:#ffffff;stop-opacity:1.0000000;"
         offset="0.0000000"
         id="stop1502" />
      <stop
         style="stop-color:#ffffff;stop-opacity:0.0000000;"
         offset="1.0000000"
         id="stop1504" />
    </linearGradient>
    <linearGradient
       xlink:href="#linearGradient1501"
       id="linearGradient2648"
       x1="0.98843932"
       y1="-1.0859375"
       x2="1.0289017"
       y2="0.46093750" />
    <linearGradient
       id="linearGradient1726">
      <stop
         style="stop-color:#000000;stop-opacity:0.40689656;"
         offset="0.0000000"
         id="stop1727" />
      <stop
         style="stop-color:#000000;stop-opacity:0.00000000;"
         offset="1.0000000"
         id="stop1728" />
    </linearGradient>
    <linearGradient
       xlink:href="#linearGradient1726"
       id="linearGradient1562"
       x1="990.71449"
       y1="722.65412"
       x2="263.58534"
       y2="381.06945"
       gradientUnits="userSpaceOnUse" />
    <linearGradient
       id="linearGradient1496">
      <stop
         style="stop-color:#ffffff;stop-opacity:1.0000000;"
         offset="0.0000000"
         id="stop1497" />
      <stop
         style="stop-color:#ffffff;stop-opacity:0.0000000;"
         offset="1.0000000"
         id="stop1498" />
    </linearGradient>
    <linearGradient
       xlink:href="#linearGradient1496"
       id="linearGradient1508"
       x1="2.6881127"
       y1="1.5854106"
       x2="0.40796086"
       y2="0.10899516" />
    <linearGradient
       xlink:href="#linearGradient1868"
       id="linearGradient2116"
       x1="0.57813334"
       y1="0.52089858"
       x2="-0.92769754"
       y2="-0.41032118" />
    <linearGradient
       xlink:href="#linearGradient1851"
       id="linearGradient849"
       x1="0.60655737"
       y1="-0.47656250"
       x2="0.52459013"
       y2="0.88281250" />
    <linearGradient
       inkscape:collect="always"
       xlink:href="#linearGradient1693"
       id="linearGradient1688"
       x1="0.61538464"
       y1="-0.50000000"
       x2="0.65384614"
       y2="0.66406250" />
    <linearGradient
       inkscape:collect="always"
       xlink:href="#linearGradient1693"
       id="linearGradient1720"
       x1="0.28378379"
       y1="0.14062500"
       x2="0.64864862"
       y2="1.5468750" />
    <radialGradient
       inkscape:collect="always"
       xlink:href="#linearGradient1694"
       id="radialGradient5258"
       cx="0.50000000"
       cy="0.50000000"
       r="0.51538461"
       fx="0.50769234"
       fy="0.27343750" />
    <radialGradient
       inkscape:collect="always"
       xlink:href="#MaterialSoftShadow"
       id="radialGradient2044" />
    <linearGradient
       xlink:href="#linearGradient1696"
       id="linearGradient1701"
       x1="-1.7829458"
       y1="2.4062500"
       x2="0.78294575"
       y2="-0.070312500" />
    <linearGradient
       xlink:href="#linearGradient1696"
       id="linearGradient1700"
       x1="-1.0465117"
       y1="2.4921875"
       x2="1.1085272"
       y2="-0.16406250" />
    <radialGradient
       xlink:href="#linearGradient1806"
       id="radialGradient1702"
       cx="0.50000000"
       cy="0.50000000"
       r="0.50000000"
       fx="0.50000000"
       fy="0.50000000" />
    <linearGradient
       id="linearGradient1675">
      <stop
         style="stop-color:#e3dfd7;stop-opacity:1.0000000;"
         offset="0.0000000"
         id="stop1676" />
      <stop
         style="stop-color:#c3beb4;stop-opacity:1.0000000;"
         offset="0.74752575"
         id="stop1677" />
      <stop
         style="stop-color:#807d75;stop-opacity:1.0000000;"
         offset="1.0000000"
         id="stop1678" />
    </linearGradient>
    <radialGradient
       xlink:href="#linearGradient1675"
       id="radialGradient1679"
       cx="0.37984496"
       cy="0.60937500"
       r="0.57385617"
       fx="0.39534882"
       fy="0.60156250" />
    <linearGradient
       xlink:href="#linearGradient1696"
       id="linearGradient1674"
       x1="2.3333333"
       y1="2.4140625"
       x2="0.17054264"
       y2="0.070312500" />
    <linearGradient
       id="linearGradient1806">
      <stop
         style="stop-color:#000000;stop-opacity:0.53103447;"
         offset="0.0000000"
         id="stop1807" />
      <stop
         style="stop-color:#000000;stop-opacity:0.073446326;"
         offset="0.64777780"
         id="stop3276" />
      <stop
         style="stop-color:#000000;stop-opacity:0.0000000;"
         offset="1.0000000"
         id="stop1808" />
    </linearGradient>
    <linearGradient
       id="linearGradient1696">
      <stop
         style="stop-color:#000000;stop-opacity:1.0000000;"
         offset="0.0000000"
         id="stop6349" />
      <stop
         style="stop-color:#ffffff;stop-opacity:1.0000000;"
         offset="1.0000000"
         id="stop1699" />
    </linearGradient>
    <linearGradient
       xlink:href="#linearGradient1696"
       id="linearGradient1704"
       x1="-0.66666669"
       y1="-0.95312500"
       x2="0.60305345"
       y2="0.83593750" />
    <linearGradient
       id="linearGradient1993">
      <stop
         style="stop-color:#ffffff;stop-opacity:0.0000000;"
         offset="0.0000000"
         id="stop1994" />
      <stop
         style="stop-color:#ffffff;stop-opacity:0.0000000;"
         offset="0.63866937"
         id="stop1997" />
      <stop
         style="stop-color:#ffffff;stop-opacity:0.60689658;"
         offset="0.73742270"
         id="stop1996" />
      <stop
         style="stop-color:#ffffff;stop-opacity:0.0000000;"
         offset="1.0000000"
         id="stop1995" />
    </linearGradient>
    <radialGradient
       xlink:href="#linearGradient1993"
       id="radialGradient1992"
       cx="0.50000000"
       cy="0.50000000"
       r="0.50000000"
       fx="0.50000000"
       fy="0.50000000" />
    <linearGradient
       inkscape:collect="always"
       id="linearGradient6143">
      <stop
         style="stop-color:#339900;stop-opacity:1.0000000;"
         offset="0.00000000"
         id="stop6144" />
      <stop
         style="stop-color:#ffff00;stop-opacity:1.0000000;"
         offset="0.50000000"
         id="stop6146" />
      <stop
         style="stop-color:#980101;stop-opacity:1.0000000;"
         offset="1.0000000"
         id="stop6145" />
    </linearGradient>
    <linearGradient
       id="linearGradient6136">
      <stop
         style="stop-color:#807d74;stop-opacity:1.0000000;"
         offset="0.00000000"
         id="stop6137" />
      <stop
         style="stop-color:#b9b6af;stop-opacity:1.0000000;"
         offset="0.30772975"
         id="stop6138" />
      <stop
         style="stop-color:#f2f0eb;stop-opacity:1.0000000;"
         offset="0.33577397"
         id="stop6139" />
      <stop
         style="stop-color:#565248;stop-opacity:1.0000000;"
         offset="0.69549668"
         id="stop6140" />
      <stop
         style="stop-color:#a09d95;stop-opacity:1.0000000;"
         offset="0.73801136"
         id="stop6141" />
      <stop
         style="stop-color:#000000;stop-opacity:1.0000000;"
         offset="1.0000000"
         id="stop6142" />
    </linearGradient>
    <linearGradient
       inkscape:collect="always"
       id="linearGradient1851">
      <stop
         style="stop-color:#000000;stop-opacity:0.20000000;"
         offset="0.0000000"
         id="stop1852" />
      <stop
         style="stop-color:#000000;stop-opacity:0.064516127;"
         offset="0.50000000"
         id="stop1854" />
      <stop
         style="stop-color:#adadad;stop-opacity:0.0000000;"
         offset="1.0000000"
         id="stop1853" />
    </linearGradient>
    <linearGradient
       id="Basic3DHighlightGradient">
      <stop
         style="stop-color:#eae8e3;stop-opacity:1.0000000;"
         offset="0.0000000"
         id="stop3921" />
      <stop
         style="stop-color:#eae8e3;stop-opacity:0.0000000;"
         offset="1.0000000"
         id="stop3922" />
    </linearGradient>
    <linearGradient
       id="BlackTransparent">
      <stop
         style="stop-color:#000000;stop-opacity:1.0000000;"
         offset="0.0000000"
         id="stopBlackFull" />
      <stop
         style="stop-color:#000000;stop-opacity:0.0000000;"
         offset="1.0000000"
         id="stopBlackTransparent" />
    </linearGradient>
    <linearGradient
       id="MaterialSteel">
      <stop
         style="stop-color:#807d74;stop-opacity:1.0000000;"
         offset="0.00000000"
         id="stop3351" />
      <stop
         style="stop-color:#b9b6af;stop-opacity:1.0000000;"
         offset="0.30772975"
         id="stop1713" />
      <stop
         style="stop-color:#f2f0eb;stop-opacity:1.0000000;"
         offset="0.33577397"
         id="stop3353" />
      <stop
         style="stop-color:#565248;stop-opacity:1.0000000;"
         offset="0.69549668"
         id="stop3354" />
      <stop
         style="stop-color:#a09d95;stop-opacity:1.0000000;"
         offset="0.73801136"
         id="stop6665" />
      <stop
         style="stop-color:#000000;stop-opacity:1.0000000;"
         offset="1.0000000"
         id="stop3355" />
    </linearGradient>
    <linearGradient
       id="WhiteTransparent">
      <stop
         style="stop-color:#ffffff;stop-opacity:1.0000000;"
         offset="0.0000000"
         id="stopWhiteFull" />
      <stop
         style="stop-color:#ffffff;stop-opacity:0.0000000;"
         offset="1.0000000"
         id="stopWhiteTransparent" />
    </linearGradient>
    <linearGradient
       id="linearGradient3970">
      <stop
         style="stop-color:#ffffff;stop-opacity:1.0000000;"
         offset="0.0000000"
         id="stop3971" />
      <stop
         style="stop-color:#ffffff;stop-opacity:0.0000000;"
         offset="1.0000000"
         id="stop3972" />
    </linearGradient>
    <linearGradient
       id="linearGradient924">
      <stop
         style="stop-color:#ffffff;stop-opacity:0.00000000;"
         offset="0.00000000"
         id="stop925" />
      <stop
         style="stop-color:#ffffff;stop-opacity:1;"
         offset="1.00000000"
         id="stop926" />
    </linearGradient>
    <linearGradient
       id="linearGradient1868">
      <stop
         style="stop-color:#ffffff;stop-opacity:0.0000000;"
         offset="0.0000000"
         id="stop1869" />
      <stop
         style="stop-color:#fff;stop-opacity:1;"
         offset="1"
         id="stop1870" />
    </linearGradient>
    <linearGradient
       id="linearGradient1807">
      <stop
         style="stop-color:#000000;stop-opacity:0.0000000;"
         offset="0.0000000"
         id="stop1809" />
      <stop
         style="stop-color:#000000;stop-opacity:0.075862072;"
         offset="0.60952944"
         id="stop1810" />
      <stop
         style="stop-color:#000000;stop-opacity:0.35862070;"
         offset="1.0000000"
         id="stop1811" />
    </linearGradient>
    <linearGradient
       id="linearGradient1653">
      <stop
         style="stop-color:#000000;stop-opacity:0.00000000;"
         offset="0.00000000"
         id="stop1654" />
      <stop
         style="stop-color:#000000;stop-opacity:0.34020618;"
         offset="0.50000000"
         id="stop1657" />
      <stop
         style="stop-color:#000000;stop-opacity:0.00000000;"
         offset="1.0000000"
         id="stop1656" />
    </linearGradient>
    <linearGradient
       id="linearGradient1536">
      <stop
         style="stop-color:#d1940c;stop-opacity:0.0000000;"
         offset="0.0000000"
         id="stop1537" />
      <stop
         style="stop-color:#eed680;stop-opacity:0.41290322;"
         offset="0.50000000"
         id="stop1645" />
      <stop
         style="stop-color:#ffffff;stop-opacity:1.0000000;"
         offset="1.0000000"
         id="stop1538" />
    </linearGradient>
    <linearGradient
       id="linearGradient11127">
      <stop
         style="stop-color:#000000;stop-opacity:0.50515461;"
         offset="0.00000000"
         id="stop11128" />
      <stop
         style="stop-color:#000000;stop-opacity:0.098159507;"
         offset="0.50000000"
         id="stop11129" />
      <stop
         style="stop-color:#000000;stop-opacity:0.0000000;"
         offset="1.0000000"
         id="stop11130" />
    </linearGradient>
    <linearGradient
       id="linearGradient11107">
      <stop
         style="stop-color:#ffffff;stop-opacity:0.65979379;"
         offset="0.00000000"
         id="stop11108" />
      <stop
         style="stop-color:#ffffff;stop-opacity:0.31958762;"
         offset="0.50000000"
         id="stop11492" />
      <stop
         style="stop-color:#ffffff;stop-opacity:0.00000000;"
         offset="1.0000000"
         id="stop11109" />
    </linearGradient>
    <linearGradient
       id="linearGradient11190">
      <stop
         style="stop-color:#fdfdfd;stop-opacity:1.0000000;"
         offset="0.00000000"
         id="stop11191" />
      <stop
         style="stop-color:#fd3301;stop-opacity:1.0000000;"
         offset="0.50000000"
         id="stop11192" />
      <stop
         style="stop-color:#fd3301;stop-opacity:0.00000000;"
         offset="1.0000000"
         id="stop11193" />
    </linearGradient>
    <linearGradient
       id="linearGradient2317">
      <stop
         style="stop-color:#d6d6d6;stop-opacity:1.0000000;"
         offset="0.0000000"
         id="stop2318" />
      <stop
         style="stop-color:#eaeaea;stop-opacity:1.0000000;"
         offset="0.25769231"
         id="stop2322" />
      <stop
         style="stop-color:#919191;stop-opacity:1.0000000;"
         offset="0.70594490"
         id="stop2320" />
      <stop
         style="stop-color:#d2d2d2;stop-opacity:1.0000000;"
         offset="0.73347497"
         id="stop2321" />
      <stop
         style="stop-color:#a6a6a6;stop-opacity:1.0000000;"
         offset="1.0000000"
         id="stop2319" />
    </linearGradient>
    <linearGradient
       id="TransparentBlack">
      <stop
         style="stop-color:#000000;stop-opacity:0.0000000;"
         offset="0.0000000"
         id="stopBlackTransparent1" />
      <stop
         style="stop-color:#000000;stop-opacity:1.0000000;"
         offset="1.0000000"
         id="stopBlackFull1" />
    </linearGradient>
    <linearGradient
       id="linearGradient1513">
      <stop
         style="stop-color:#ffffff;stop-opacity:1.0000000;"
         offset="0.0000000"
         id="stop1514" />
      <stop
         style="stop-color:#ffffff;stop-opacity:0.0000000;"
         offset="1.0000000"
         id="stop1515" />
    </linearGradient>
    <linearGradient
       id="linearGradient1694">
      <stop
         style="stop-color:#0180d4;stop-opacity:1.0000000;"
         offset="0.00000000"
         id="stop1696" />
      <stop
         style="stop-color:#0180d4;stop-opacity:1.0000000;"
         offset="0.56999999"
         id="stop1698" />
      <stop
         style="stop-color:#013366;stop-opacity:1.0000000;"
         offset="1.0000000"
         id="stop1697" />
    </linearGradient>
    <linearGradient
       id="linearGradient2150">
      <stop
         style="stop-color:#ffffff;stop-opacity:1.0000000;"
         offset="0.00000000"
         id="stop2151" />
      <stop
         style="stop-color:#edc73e;stop-opacity:0.00000000;"
         offset="1.0000000"
         id="stop2152" />
    </linearGradient>
    <linearGradient
       id="linearGradient2127">
      <stop
         style="stop-color:#d0930c;stop-opacity:1.0000000;"
         offset="0.00000000"
         id="stop2128" />
      <stop
         style="stop-color:#edc73e;stop-opacity:1.0000000;"
         offset="1.0000000"
         id="stop2129" />
    </linearGradient>
    <linearGradient
       id="MaterialSoftShadow">
      <stop
         style="stop-color:#000000;stop-opacity:0.21472393;"
         offset="0.0000000"
         id="stop2619" />
      <stop
         style="stop-color:#000000;stop-opacity:0.098159507;"
         offset="0.50000000"
         id="stop2621" />
      <stop
         style="stop-color:#000000;stop-opacity:0.0000000;"
         offset="1.0000000"
         id="stop2620" />
    </linearGradient>
    <linearGradient
       id="linearGradient1693">
      <stop
         style="stop-color:#ffffff;stop-opacity:1.0000000;"
         offset="0.00000000"
         id="stop1694" />
      <stop
         style="stop-color:#ffffff;stop-opacity:0.00000000;"
         offset="1.0000000"
         id="stop1695" />
    </linearGradient>
    <radialGradient
       xlink:href="#linearGradient1694"
       id="radialGradient1505"
       cx="83.064369"
       cy="77.180077"
       r="75.042564"
       fx="83.064323"
       fy="37.927048"
       gradientUnits="userSpaceOnUse" />
    <linearGradient
       xlink:href="#linearGradient3970"
       id="linearGradient2222"
       x1="0.61111110"
       y1="1.1953125"
       x2="0.61111110"
       y2="0.77343750" />
    <linearGradient
       xlink:href="#linearGradient1851"
       id="linearGradient957"
       x1="0.52399999"
       y1="1.1774193"
       x2="0.54000002"
       y2="0.40322581" />
    <linearGradient
       xlink:href="#linearGradient1851"
       id="linearGradient1063"
       x1="2.1844869"
       y1="0.96518356"
       x2="2.1359541"
       y2="0.17509195" />
    <linearGradient
       xlink:href="#linearGradient1868"
       id="linearGradient1497" />
    <linearGradient
       xlink:href="#linearGradient2317"
       id="linearGradient2316" />
    <linearGradient
       xlink:href="#linearGradient1513"
       id="linearGradient2121" />
    <linearGradient
       xlink:href="#linearGradient6143"
       id="linearGradient858"
       x1="0.66129035"
       y1="0.039062500"
       x2="0.66129035"
       y2="1.1026638" />
    <linearGradient
       xlink:href="#linearGradient3970"
       id="linearGradient1004"
       x1="0.88888890"
       y1="-0.15625000"
       x2="0.94444442"
       y2="0.21875000" />
    <radialGradient
       inkscape:collect="always"
       xlink:href="#MaterialSoftShadow"
       id="radialGradient1274"
       cx="-289.09140"
       cy="598.36652"
       fx="-289.09140"
       fy="598.36652"
       r="125.20509"
       gradientUnits="userSpaceOnUse" />
    <radialGradient
       inkscape:collect="always"
       xlink:href="#MaterialSoftShadow"
       id="radialGradient1275"
       cx="-289.09140"
       cy="598.36652"
       fx="-289.09140"
       fy="598.36652"
       r="125.20509"
       gradientUnits="userSpaceOnUse" />
    <radialGradient
       inkscape:collect="always"
       xlink:href="#linearGradient1694"
       id="radialGradient1897"
       cx="49.695137"
       cy="52.516701"
       r="0.49999985"
       fx="49.695137"
       fy="52.516701"
       gradientUnits="userSpaceOnUse"
       gradientTransform="scale(0.993268,1.006777)" />
    <linearGradient
       inkscape:collect="always"
       xlink:href="#linearGradient1557"
       id="linearGradient1899"
       x1="0.40666667"
       y1="0.63846153"
       x2="0.36666667"
       y2="-0.10000000" />
    <linearGradient
       inkscape:collect="always"
       xlink:href="#linearGradient1557"
       id="linearGradient1901"
       x1="-0.92688578"
       y1="-0.073202059"
       x2="-0.76217347"
       y2="-0.064914189"
       gradientTransform="matrix(1.265402e-2,8.795908e-2,-8.795908e-2,1.265402e-2,-0.374100,-0.766764)" />
    <linearGradient
       inkscape:collect="always"
       xlink:href="#linearGradient1557"
       id="linearGradient1929" />
    <linearGradient
       inkscape:collect="always"
       xlink:href="#linearGradient1557"
       id="linearGradient1932"
       x1="98.591822"
       y1="92.664768"
       x2="73.594266"
       y2="51.928011"
       gradientUnits="userSpaceOnUse" />
  </defs>
  <sodipodi:namedview
     id="base"
     pagecolor="#ffffff"
     bordercolor="#666666"
     borderopacity="1.0"
     inkscape:pageopacity="0.0"
     inkscape:pageshadow="2"
     inkscape:zoom="1.9940412"
     inkscape:cx="115.63993"
     inkscape:cy="46.582637"
     inkscape:window-width="640"
     inkscape:window-height="524"
     inkscape:window-x="434"
     inkscape:window-y="116"
     showgrid="false"
     gridempspacing="5"
     gridtolerance="5.0000000mm"
     inkscape:grid-points="false"
     gridspacingx="1.2500000mm"
     gridspacingy="1.2500000mm"
     showguides="true"
     inkscape:guide-bbox="true"
     inkscape:grid-bbox="false"
     showborder="true"
     inkscape:current-layer="ubuntuicon" />
  <metadata
     id="metadata1293">
    <rdf:RDF
       id="RDF1294">
      <cc:Work
         rdf:about=""
         id="Work1295">
        <dc:format
           id="imageformat">image/svg+xml</dc:format>
        <dc:type
           id="type1298"
           rdf:resource="http://purl.org/dc/dcmitype/StillImage" />
        <dc:creator
           id="creator1299">
          <cc:Agent
             id="Agent1300">
            <dc:title
               id="title1301">Ubuntu Icon</dc:title>
          </cc:Agent>
        </dc:creator>
        <dc:rights
           id="rights1303">
          <cc:Agent
             id="Agent1304">
            <dc:title
               id="creator">Andrew Fitzsimon</dc:title>
          </cc:Agent>
          <cc:Agent
             id="Agent1332">
            <dc:title
               id="company">Canonical Software</dc:title>
          </cc:Agent>
          <cc:Agent
             id="Agent1335">
            <dc:title
               id="owner">Mark Shuttleworth</dc:title>
          </cc:Agent>
        </dc:rights>
        <dc:date
           id="date1307">2004-09-01</dc:date>
        <dc:description
           id="description1309">Icon for the Ubuntu Icon Set</dc:description>
        <dc:contributor
           id="contributor1311">
          <cc:Agent
             id="Agent1312">
            <dc:title
               id="title1313">Andrew Fitzsimon</dc:title>
          </cc:Agent>
        </dc:contributor>
      </cc:Work>
    </rdf:RDF>
  </metadata>
  <path
     d="M 151.78157,73.845107 C 151.78157,36.201057 121.67448,5.6845284 84.535481,5.6845284 C 47.396491,5.6845284 17.289391,36.201057 17.289391,73.845107 C 17.289391,111.48916 47.396491,142.00569 84.535481,142.00569 C 121.67448,142.00569 151.78157,111.48916 151.78157,73.845107 z "
     style="fill:url(#radialGradient1897);fill-opacity:1.0;fill-rule:evenodd;stroke:none;stroke-width:2.3390312;stroke-linecap:butt;stroke-linejoin:miter;stroke-miterlimit:4.0000000;stroke-opacity:1.0000000;"
     id="path1685" />
  <path
     sodipodi:type="arc"
     style="fill:url(#radialGradient1275);fill-opacity:1.0000000;fill-rule:evenodd;stroke:none;stroke-width:1.0000000pt;stroke-linecap:butt;stroke-linejoin:miter;stroke-opacity:1.0000000;"
     id="path1881"
     sodipodi:cx="-289.09140"
     sodipodi:cy="598.36652"
     sodipodi:rx="125.20509"
     sodipodi:ry="125.20509"
     d="M -163.88631 598.36652 A 125.20509 125.20509 0 1 0 -414.29649,598.36652 A 125.20509 125.20509 0 1 0 -163.88631 598.36652 z"
     transform="matrix(-0.447718,0.000000,0.000000,0.124549,-52.46260,68.50573)" />
  <path
     sodipodi:type="arc"
     style="fill:url(#radialGradient1274);fill-opacity:1.0000000;fill-rule:evenodd;stroke:none;stroke-width:1.0000000pt;stroke-linecap:butt;stroke-linejoin:miter;stroke-opacity:1.0000000;"
     id="path1882"
     sodipodi:cx="-289.09140"
     sodipodi:cy="598.36652"
     sodipodi:rx="125.20509"
     sodipodi:ry="125.20509"
     d="M -163.88631 598.36652 A 125.20509 125.20509 0 1 0 -414.29649,598.36652 A 125.20509 125.20509 0 1 0 -163.88631 598.36652 z"
     transform="matrix(-0.625791,0.000000,0.000000,9.299040e-2,-94.04362,96.78153)" />
  <path
     d="M 157.70307,77.308287 C 157.70307,36.208594 124.38519,2.8907134 83.285501,2.8907134 C 42.185811,2.8907134 8.8679211,36.208594 8.8679211,77.308287 C 8.8679211,118.40798 42.185811,151.72586 83.285501,151.72586 C 124.38519,151.72586 157.70307,118.40798 157.70307,77.308287 z "
     style="fill:#013366;fill-opacity:1.0000000;fill-rule:evenodd;stroke:none;stroke-width:8.7163954;stroke-linecap:butt;stroke-linejoin:miter;stroke-miterlimit:4.0000000;stroke-opacity:1.0000000;"
     id="path1883" />
  <path
     d="M 157.48188,77.180077 C 157.48188,36.080393 124.16401,2.7625164 83.064321,2.7625164 C 41.964631,2.7625164 8.6467611,36.080393 8.6467611,77.180077 C 8.6467611,118.27976 41.964631,151.59764 83.064321,151.59764 C 124.16401,151.59764 157.48188,118.27976 157.48188,77.180077 z "
     style="fill:url(#radialGradient1505);fill-opacity:1.0;fill-rule:evenodd;stroke:#000000;stroke-width:1.2500000;stroke-linecap:butt;stroke-linejoin:miter;stroke-miterlimit:4.0000000;stroke-opacity:1.0000000;"
     id="path1884" />
  <path
     d="M 77.128351,7.0762204 C 71.034581,8.4062934 64.519471,8.7370884 59.078511,12.073877 C 56.971061,12.246042 48.457321,15.586148 54.139511,16.166144 C 57.658921,15.167252 59.294631,11.507645 63.223961,11.814546 C 67.442501,10.559499 71.781251,9.0662234 76.380151,8.1876354 C 76.854771,7.9670184 76.864511,7.4439444 77.128351,7.0762204 z M 86.099481,8.2570164 C 83.055371,11.757958 76.035991,11.535382 75.616531,17.237965 C 77.051231,19.209778 84.110581,9.9292134 86.186391,15.662233 C 86.595251,19.505969 84.033651,24.357772 79.595801,21.853024 C 77.442451,21.673255 74.760881,22.115882 74.850381,20.188890 C 73.732881,23.015787 64.829021,28.486178 67.956481,22.390989 C 69.580671,21.170367 65.683861,20.948426 68.360811,18.851651 C 70.729901,16.446067 63.211701,16.672826 66.058341,19.267724 C 64.409191,21.541692 63.665781,23.960350 60.424521,24.356061 C 63.191041,24.047342 66.066791,23.599877 63.944401,26.552902 C 65.546401,32.571421 55.489331,29.428959 54.255221,33.871535 C 50.598171,39.755917 59.732251,39.444744 62.339671,36.545467 C 61.899341,31.103926 67.499161,32.710024 70.437541,32.172817 C 73.524281,29.881522 76.783531,36.969709 78.311251,39.503555 C 80.313981,40.560430 82.511741,36.418845 79.461541,35.347818 C 79.823281,33.313701 73.273381,29.871129 77.418881,29.722786 C 80.189721,31.196422 81.748621,34.249372 82.271091,36.237329 C 87.793481,35.987209 80.001221,42.369413 85.301651,40.428233 C 88.660041,39.827045 84.939801,34.225639 89.398081,36.422303 C 95.032941,38.586078 87.463251,29.151524 93.896031,29.111629 C 96.884591,27.346864 95.281211,35.244717 97.121371,31.384168 C 98.166181,25.130137 106.53172,33.716576 102.71923,36.220638 C 97.871941,34.872582 92.989591,34.479323 90.890121,39.937732 C 90.597251,42.508140 97.949791,36.229231 97.092101,40.813991 C 98.642171,45.676117 91.007571,46.561622 88.127611,44.877073 C 85.479941,41.689739 83.014021,44.660179 81.043291,46.110435 C 77.971191,45.681075 67.751231,44.869204 72.071641,40.290337 C 73.214391,35.509783 66.104021,39.855189 63.516131,38.778198 C 60.248671,40.548326 55.214311,38.980710 52.602171,41.620287 C 52.228601,44.681194 47.333151,42.993610 46.531631,46.677005 C 44.681591,50.870044 38.550831,52.270347 38.396361,56.764867 C 38.220401,61.788167 35.854381,66.359217 38.482011,71.308157 C 39.113851,76.369857 43.908781,79.501337 48.814761,78.312357 C 51.655511,78.251287 54.320461,81.805627 56.318421,77.519487 C 59.538221,72.215277 62.830791,80.475917 66.867051,78.331007 C 70.191031,82.159617 64.086921,86.714067 69.297151,89.394497 C 73.665721,94.022557 72.367701,100.45064 70.459131,105.82449 C 70.488641,110.15179 76.169211,112.40441 76.065181,116.69336 C 75.631371,122.83187 81.155631,128.21737 87.183051,125.25077 C 91.089531,124.14951 92.671381,119.51029 96.676181,118.43902 C 99.715741,115.87354 98.394501,108.37879 103.94310,108.19639 C 111.51498,105.66417 106.08272,96.611927 108.14623,91.486857 C 111.17301,87.911557 112.45778,82.620107 117.09420,80.639837 C 120.67785,77.501987 118.31205,71.177567 121.94697,67.623547 C 118.86804,69.996967 113.68693,72.073357 110.31651,69.190507 C 105.10032,64.665477 100.81074,59.005237 98.150751,52.620885 C 96.905871,49.798170 96.984811,44.121597 100.07074,44.148187 C 100.55697,50.071900 104.74717,54.843505 107.67110,59.761637 C 110.46888,62.958047 112.42024,67.969607 117.61225,66.294247 C 121.99882,64.807207 128.01224,61.900427 128.10850,56.699617 C 127.69907,50.810138 117.19654,56.310277 115.12465,50.300758 C 110.98066,47.831864 117.94495,43.754065 119.20067,48.331750 C 121.89003,51.075450 126.71388,49.625353 128.69154,53.332708 C 132.69482,51.543207 135.89753,52.802684 137.54684,57.002567 C 141.07525,60.496627 142.03034,65.791487 141.89897,70.579627 C 146.52934,75.093717 145.10612,64.011387 146.33043,61.286427 C 146.51480,58.701887 146.77585,55.518786 147.86439,59.746057 C 151.25250,61.369747 148.89150,54.466711 148.11801,52.912631 C 142.17624,39.337815 140.26642,36.850887 133.74864,29.036018 C 122.99194,18.485707 114.25121,13.983350 102.34252,10.056999 C 101.47671,14.286070 96.188581,10.563379 93.666341,14.104924 C 91.019901,16.105181 91.006741,15.849944 92.862251,13.193746 C 91.514621,10.777380 88.454431,9.6219064 86.099481,8.2570164 z M 67.336451,12.980169 C 64.691601,11.728243 58.139031,15.860478 64.006281,15.581666 C 65.665451,15.927300 66.219041,13.772790 67.336451,12.980169 z M 63.592481,19.172105 C 61.481031,19.979530 56.466301,21.401254 60.898661,22.348147 C 62.167791,21.752217 62.994641,20.384646 63.592481,19.172105 z M 75.688371,37.171941 C 72.477471,38.782785 75.478161,41.984608 77.172911,38.938275 C 76.770461,38.270670 76.139361,37.799915 75.688371,37.171941 z M 148.11970,71.443617 C 143.40397,74.657827 153.70600,77.076757 148.11970,71.443617 z M 13.336941,79.651557 C 13.063391,85.543327 14.575761,91.754267 15.891311,98.108577 C 17.588831,101.11514 18.730541,107.27238 20.683951,108.14185 C 22.719551,103.47333 18.533061,98.251697 20.974321,93.421717 C 18.035531,91.110127 21.989961,85.986307 17.212651,84.589717 C 15.709091,83.119497 14.589171,81.326287 13.336941,79.651557 z M 116.72800,98.659367 C 116.24063,104.09908 108.83395,105.37660 110.21504,110.88999 C 111.53455,113.78029 109.56818,113.99359 109.26472,116.33632 C 111.98803,118.42559 114.30289,111.62447 116.39007,109.77804 C 116.87683,107.09008 123.22462,98.029417 116.72800,98.659367 z "
     style="fill:#fdfdfd;fill-opacity:0.58854169;fill-rule:evenodd;stroke:none;stroke-width:1.0000000pt;stroke-linecap:butt;stroke-linejoin:miter;stroke-opacity:1.0000000;"
     id="path1885" />
  <path
     d="M 77.128351,7.0762204 C 71.034581,8.4062934 64.519471,8.7370884 59.078511,12.073877 C 56.971061,12.246042 48.457321,15.586148 54.139511,16.166144 C 57.658921,15.167252 59.294631,11.507645 63.223961,11.814546 C 67.442501,10.559499 71.781251,9.0662234 76.380151,8.1876354 C 76.854771,7.9670184 76.864511,7.4439444 77.128351,7.0762204 z M 86.099481,8.2570164 C 83.055371,11.757958 76.035991,11.535382 75.616531,17.237965 C 77.051231,19.209778 84.110581,9.9292134 86.186391,15.662233 C 86.595251,19.505969 84.033651,24.357772 79.595801,21.853024 C 77.442451,21.673255 74.760881,22.115882 74.850381,20.188890 C 73.732881,23.015787 64.829021,28.486178 67.956481,22.390989 C 69.580671,21.170367 65.683861,20.948426 68.360811,18.851651 C 70.729901,16.446067 63.211701,16.672826 66.058341,19.267724 C 64.409191,21.541692 63.665781,23.960350 60.424521,24.356061 C 63.191041,24.047342 66.066791,23.599877 63.944401,26.552902 C 65.546401,32.571421 55.489331,29.428959 54.255221,33.871535 C 50.598171,39.755917 59.732251,39.444744 62.339671,36.545467 C 61.899341,31.103926 67.499161,32.710024 70.437541,32.172817 C 73.524281,29.881522 76.783531,36.969709 78.311251,39.503555 C 80.313981,40.560430 82.511741,36.418845 79.461541,35.347818 C 79.823281,33.313701 73.273381,29.871129 77.418881,29.722786 C 80.189721,31.196422 81.748621,34.249372 82.271091,36.237329 C 87.793481,35.987209 80.001221,42.369413 85.301651,40.428233 C 88.660041,39.827045 84.939801,34.225639 89.398081,36.422303 C 95.032941,38.586078 87.463251,29.151524 93.896031,29.111629 C 96.884591,27.346864 95.281211,35.244717 97.121371,31.384168 C 98.166181,25.130137 106.53172,33.716576 102.71923,36.220638 C 97.871941,34.872582 92.989591,34.479323 90.890121,39.937732 C 90.597251,42.508140 97.949791,36.229231 97.092101,40.813991 C 98.642171,45.676117 91.007571,46.561622 88.127611,44.877073 C 85.479941,41.689739 83.014021,44.660179 81.043291,46.110435 C 77.971191,45.681075 67.751231,44.869204 72.071641,40.290337 C 73.214391,35.509783 66.104021,39.855189 63.516131,38.778198 C 60.248671,40.548326 55.214311,38.980710 52.602171,41.620287 C 52.228601,44.681194 47.333151,42.993610 46.531631,46.677005 C 44.681591,50.870044 38.550831,52.270347 38.396361,56.764867 C 38.220401,61.788167 35.854381,66.359217 38.482011,71.308157 C 39.113851,76.369857 43.908781,79.501337 48.814761,78.312357 C 51.655511,78.251287 54.320461,81.805627 56.318421,77.519487 C 59.538221,72.215277 62.830791,80.475917 66.867051,78.331007 C 70.191031,82.159617 64.086921,86.714067 69.297151,89.394497 C 73.665721,94.022557 72.367701,100.45064 70.459131,105.82449 C 70.488641,110.15179 76.169211,112.40441 76.065181,116.69336 C 75.631371,122.83187 81.155631,128.21737 87.183051,125.25077 C 91.089531,124.14951 92.671381,119.51029 96.676181,118.43902 C 99.715741,115.87354 98.394501,108.37879 103.94310,108.19639 C 111.51498,105.66417 106.08272,96.611927 108.14623,91.486857 C 111.17301,87.911557 112.45778,82.620107 117.09420,80.639837 C 120.67785,77.501987 118.31205,71.177567 121.94697,67.623547 C 118.86804,69.996967 113.68693,72.073357 110.31651,69.190507 C 105.10032,64.665477 100.81074,59.005237 98.150751,52.620885 C 96.905871,49.798170 96.984811,44.121597 100.07074,44.148187 C 100.55697,50.071900 104.74717,54.843505 107.67110,59.761637 C 110.46888,62.958047 112.42024,67.969607 117.61225,66.294247 C 121.99882,64.807207 128.01224,61.900427 128.10850,56.699617 C 127.69907,50.810138 117.19654,56.310277 115.12465,50.300758 C 110.98066,47.831864 117.94495,43.754065 119.20067,48.331750 C 121.89003,51.075450 126.71388,49.625353 128.69154,53.332708 C 132.69482,51.543207 135.89753,52.802684 137.54684,57.002567 C 141.07525,60.496627 142.03034,65.791487 141.89897,70.579627 C 146.52934,75.093717 145.10612,64.011387 146.33043,61.286427 C 146.51480,58.701887 146.77585,55.518786 147.86439,59.746057 C 151.25250,61.369747 148.89150,54.466711 148.11801,52.912631 C 142.17624,39.337815 140.26642,36.850887 133.74864,29.036018 C 122.99194,18.485707 114.25121,13.983350 102.34252,10.056999 C 101.47671,14.286070 96.188581,10.563379 93.666341,14.104924 C 91.019901,16.105181 91.006741,15.849944 92.862251,13.193746 C 91.514621,10.777380 88.454431,9.6219064 86.099481,8.2570164 z M 67.336451,12.980169 C 64.691601,11.728243 58.139031,15.860478 64.006281,15.581666 C 65.665451,15.927300 66.219041,13.772790 67.336451,12.980169 z M 63.592481,19.172105 C 61.481031,19.979530 56.466301,21.401254 60.898661,22.348147 C 62.167791,21.752217 62.994641,20.384646 63.592481,19.172105 z M 75.688371,37.171941 C 72.477471,38.782785 75.478161,41.984608 77.172911,38.938275 C 76.770461,38.270670 76.139361,37.799915 75.688371,37.171941 z M 148.11970,71.443617 C 143.40397,74.657827 153.70600,77.076757 148.11970,71.443617 z M 13.336941,79.651557 C 13.063391,85.543327 14.575761,91.754267 15.891311,98.108577 C 17.588831,101.11514 18.730541,107.27238 20.683951,108.14185 C 22.719551,103.47333 18.533061,98.251697 20.974321,93.421717 C 18.035531,91.110127 21.989961,85.986307 17.212651,84.589717 C 15.709091,83.119497 14.589171,81.326287 13.336941,79.651557 z M 116.72800,98.659367 C 116.24063,104.09908 108.83395,105.37660 110.21504,110.88999 C 111.53455,113.78029 109.56818,113.99359 109.26472,116.33632 C 111.98803,118.42559 114.30289,111.62447 116.39007,109.77804 C 116.87683,107.09008 123.22462,98.029417 116.72800,98.659367 z "
     style="fill:url(#linearGradient1899);fill-opacity:1.0;fill-rule:evenodd;stroke:none;stroke-width:1.0000000pt;stroke-linecap:butt;stroke-linejoin:miter;stroke-opacity:1.0000000;"
     id="path1683" />
  <path
     d="M 157.70307,77.308287 C 157.70307,36.208594 124.38519,2.8907134 83.285501,2.8907134 C 42.185811,2.8907134 8.8679211,36.208594 8.8679211,77.308287 C 8.8679211,118.40798 42.185811,151.72586 83.285501,151.72586 C 124.38519,151.72586 157.70307,118.40798 157.70307,77.308287 z "
     style="fill:none;fill-opacity:1.0000000;fill-rule:evenodd;stroke:none;stroke-width:3.7500000;stroke-linecap:butt;stroke-linejoin:miter;stroke-miterlimit:4.0000000;stroke-opacity:1.0000000;"
     id="path1886" />
  <path
     d="M 157.70307,77.308287 C 157.70307,36.208594 124.38519,2.8907134 83.285501,2.8907134 C 42.185811,2.8907134 8.8679211,36.208594 8.8679211,77.308287 C 8.8679211,118.40798 42.185811,151.72586 83.285501,151.72586 C 124.38519,151.72586 157.70307,118.40798 157.70307,77.308287 z "
     style="fill:none;fill-opacity:0.94117647;fill-rule:evenodd;stroke:none;stroke-width:5.8040280;stroke-linecap:butt;stroke-linejoin:miter;stroke-miterlimit:4.0000000;stroke-opacity:1.0000000;"
     id="path1887" />
  <path
     d="M 145.58564,73.845107 C 145.58564,39.669508 118.25256,11.964713 84.535481,11.964713 C 50.818411,11.964713 23.485321,39.669508 23.485321,73.845107 C 23.485321,108.02071 50.818411,135.72550 84.535481,135.72550 C 118.25256,135.72550 145.58564,108.02071 145.58564,73.845107 z "
     style="fill:url(#linearGradient1681);fill-opacity:1.0000000;fill-rule:evenodd;stroke:none;stroke-width:2.3390312;stroke-linecap:butt;stroke-linejoin:miter;stroke-miterlimit:4.0000000;stroke-opacity:1.0000000;"
     id="path1888" />
  <g
     id="g5573"
     transform="matrix(1.648424,0.000000,0.000000,1.648424,-161.6421,-235.2436)"
     style="fill-opacity:0.079545446;">
    <path
       style="fill-rule:evenodd;stroke-width:25.000000;"
       d="M 165.98017,227.75087 C 158.48622,229.01119 159.04474,221.66925 155.03853,220.23456 C 151.03232,218.79985 146.70461,224.90948 141.94292,219.14265 C 137.34349,213.57233 143.74204,210.09559 142.98142,205.90876 C 142.22081,201.72192 135.80680,202.35210 138.84535,194.20494 C 141.58795,186.85132 146.11378,191.05622 149.35937,188.30410 C 152.60497,185.55198 149.43452,180.00855 156.66953,178.79177 C 165.37577,177.32757 163.78822,183.59053 167.79443,185.02523 C 171.80064,186.45994 175.37675,179.44003 180.89005,186.11713 C 186.45560,192.85751 179.09093,195.16420 179.85154,199.35103 C 180.61215,203.53786 188.09719,204.15031 185.45373,211.23811 C 182.90735,218.06567 176.71918,214.20356 173.47359,216.95569 C 170.22800,219.70781 173.61505,226.46685 165.98017,227.75087 z "
       id="path5574"
       sodipodi:nodetypes="czzzzzzzzzzzz" />
    <path
       style="fill-rule:evenodd;stroke-width:25.000000;"
       d="M 165.60336,225.41512 C 158.82336,226.55537 159.32867,219.91289 155.70413,218.61488 C 152.07959,217.31686 148.16418,222.84443 143.85613,217.62700 C 139.69489,212.58736 145.48385,209.44185 144.79570,205.65390 C 144.10755,201.86594 138.30460,202.43608 141.05367,195.06510 C 143.53498,188.41206 147.62964,192.21636 150.56602,189.72643 C 153.50241,187.23650 150.63401,182.22119 157.17974,181.12034 C 165.05654,179.79563 163.62024,185.46192 167.24478,186.75994 C 170.86932,188.05796 174.10473,181.70684 179.09278,187.74781 C 184.12810,193.84604 177.46506,195.93297 178.15321,199.72092 C 178.84136,203.50887 185.61330,204.06298 183.22168,210.47552 C 180.91789,216.65262 175.31927,213.15846 172.38289,215.64839 C 169.44650,218.13832 172.51087,224.25343 165.60336,225.41512 z "
       id="path5575"
       sodipodi:nodetypes="czzzzzzzzzzzz" />
    <path
       style="fill-rule:evenodd;stroke-width:25.000000;"
       d="M 165.80955,226.69326 C 158.63888,227.89921 159.17330,220.87398 155.33991,219.50118 C 151.50652,218.12836 147.36550,223.97444 142.80921,218.45637 C 138.40819,213.12634 144.53072,209.79958 143.80292,205.79336 C 143.07512,201.78713 136.93779,202.39013 139.84527,194.59442 C 142.46955,187.55802 146.80015,191.58153 149.90573,188.94812 C 153.01132,186.31472 149.97764,181.01042 156.90055,179.84613 C 165.23122,178.44509 163.71216,184.43788 167.54555,185.81070 C 171.37895,187.18351 174.80079,180.46643 180.07626,186.85549 C 185.40172,193.30511 178.35474,195.51229 179.08255,199.51851 C 179.81035,203.52473 186.97250,204.11077 184.44307,210.89281 C 182.00653,217.42585 176.08531,213.73035 172.97973,216.36375 C 169.87414,218.99716 173.11508,225.46463 165.80955,226.69326 z "
       id="path5576"
       sodipodi:nodetypes="czzzzzzzzzzzz" />
  </g>
  <path
     style="fill:#002b3d;fill-opacity:1.0000000;stroke:#000000;stroke-opacity:1.0000000;"
     d="M 192.44720,114.50882 C 192.44720,114.50882 180.42572,131.10727 180.42572,138.55179 C 180.42572,146.00136 194.16672,141.99589 199.60345,147.42755 C 205.04017,152.86934 186.71714,167.18183 186.71714,167.18183 L 205.04017,162.02326 L 212.48975,169.75100 C 212.48975,160.30374 223.36825,152.86428 217.64326,147.13422 C 211.91826,141.40417 195.59797,142.01612 194.74833,134.53619 C 193.88856,127.06133 192.45226,114.50376 192.45226,114.50376 L 192.44720,114.50882 z "
     id="path5578"
     transform="matrix(1.227751,0.000000,0.000000,1.227751,-118.4413,-53.76052)" />
  <path
     style="fill:#d40000;fill-opacity:1.0000000;fill-rule:evenodd;stroke:#000000;stroke-width:6.9552584;stroke-miterlimit:4.0000000;stroke-opacity:1.0000000;"
     d="M 426.11179,669.43739 C 357.89354,708.82322 336.72344,635.49297 292.61702,636.07033 C 248.51061,636.64769 228.60937,711.66257 161.47330,672.90154 C 96.624879,635.46129 146.17585,578.51674 123.62264,540.60814 C 101.06943,502.69954 41.057317,532.05336 41.057317,441.91916 C 41.057317,360.56417 100.24493,385.00957 121.79813,346.52362 C 143.35133,308.03767 92.479115,265.68250 158.34018,227.65760 C 237.59405,181.90035 244.86159,248.47865 288.96800,247.90129 C 333.07442,247.32393 342.37863,166.19086 420.11172,211.07008 C 498.58166,256.37472 435.40917,305.45488 457.96238,343.36348 C 480.51559,381.27208 555.43100,360.10752 555.43100,438.52167 C 555.43100,514.05671 481.34009,498.96205 459.78689,537.44800 C 438.23369,575.93395 495.61291,629.31090 426.11179,669.43739 z "
     id="path5579"
     sodipodi:nodetypes="czzzzzzzzzzzz"
     transform="matrix(0.134805,5.027650e-2,-5.027650e-2,0.134805,88.55396,23.49647)" />
  <path
     style="fill:url(#linearGradient849);fill-rule:evenodd;stroke-width:25.000000;"
     d="M 127.50617,348.72618 C 114.51637,350.91079 115.48449,338.18448 108.54024,335.69761 C 101.59600,333.21073 94.094461,343.80101 85.840689,333.80494 C 77.868168,324.14951 88.959231,318.12302 87.640812,310.86569 C 86.322383,303.60837 72.663184,304.38302 77.930126,290.26097 C 82.684056,277.51443 93.070343,285.12075 98.696162,280.35029 C 104.32197,275.57983 99.144082,263.74735 111.68502,261.63823 C 126.77617,259.10022 123.70670,272.17993 130.65094,274.66680 C 137.59519,277.15368 143.79392,264.98559 153.35050,276.55947 C 162.99767,288.24305 150.23195,292.24139 151.55038,299.49872 C 152.86881,306.75605 165.84315,307.81766 161.26107,320.10344 C 156.84722,331.93812 146.12085,325.24366 140.49504,330.01412 C 134.86922,334.78458 140.74024,346.50049 127.50617,348.72618 z "
     id="path5580"
     sodipodi:nodetypes="czzzzzzzzzzzz"
     transform="matrix(0.759698,0.000000,0.000000,0.759698,14.78147,-135.9283)" />
  <path
     sodipodi:type="arc"
     style="fill:#980101;fill-opacity:1.0000000;fill-rule:evenodd;stroke:#000000;stroke-width:19.754992;stroke-miterlimit:4.0000000;stroke-opacity:0.20886071;"
     id="path5581"
     sodipodi:cx="293.67163"
     sodipodi:cy="450.62323"
     sodipodi:rx="166.98976"
     sodipodi:ry="166.98976"
     d="M 460.66139 450.62323 A 166.98976 166.98976 0 1 0 126.68187,450.62323 A 166.98976 166.98976 0 1 0 460.66139 450.62323 z"
     transform="matrix(0.133622,4.983555e-2,-4.983555e-2,0.133622,88.70239,24.15882)" />
  <path
     sodipodi:type="arc"
     style="fill:url(#linearGradient1508);fill-opacity:0.75000000;fill-rule:evenodd;stroke-width:1.0000000pt;"
     id="path5583"
     sodipodi:cx="293.67163"
     sodipodi:cy="450.62323"
     sodipodi:rx="166.98976"
     sodipodi:ry="166.98976"
     d="M 460.66139 450.62323 A 166.98976 166.98976 0 1 0 126.68187,450.62323 A 166.98976 166.98976 0 1 0 460.66139 450.62323 z"
     transform="matrix(0.107063,3.992999e-2,-3.992999e-2,0.107063,93.74808,40.72807)" />
  <path
     sodipodi:type="arc"
     style="fill:url(#linearGradient1562);fill-opacity:0.75000000;fill-rule:evenodd;stroke-width:1.0000000pt;"
     id="path5584"
     sodipodi:cx="293.67163"
     sodipodi:cy="450.62323"
     sodipodi:rx="166.98976"
     sodipodi:ry="166.98976"
     d="M 460.66139 450.62323 A 166.98976 166.98976 0 1 0 126.68187,450.62323 A 166.98976 166.98976 0 1 0 460.66139 450.62323 z"
     transform="matrix(0.108280,4.038392e-2,-4.038392e-2,0.108280,91.94464,41.81529)" />
  <path
     style="fill:url(#linearGradient2648);"
     d="M 200.26806,147.94862 C 215.05407,168.88585 222.35996,153.00263 217.03797,147.67593 C 211.71598,142.34925 195.21405,142.89931 200.26806,147.94862 z "
     id="path5585"
     sodipodi:nodetypes="ccc"
     transform="matrix(1.227751,0.000000,0.000000,1.227751,-118.4413,-53.76052)" />
  <path
     style="fill:url(#linearGradient1560);fill-rule:evenodd;stroke-width:1.0000000pt;"
     d="M 111.61946,109.49346 C 111.61946,109.49346 112.73061,102.62456 117.98329,103.83672 C 123.23597,105.04888 122.02381,106.36205 122.02381,106.36205 C 119.80152,105.85698 115.76100,104.44280 111.61946,109.49346 z "
     id="path5586"
     sodipodi:nodetypes="cccc"
     transform="matrix(1.648424,0.000000,0.000000,1.648424,-92.37297,-108.6942)" />
  <path
     style="fill:url(#linearGradient1560);fill-rule:evenodd;stroke-width:1.0000000pt;"
     d="M 101.69754,123.26086 C 101.69754,123.26086 97.897851,117.43174 102.59929,114.79423 C 107.30073,112.15672 107.28755,113.94378 107.28755,113.94378 C 105.30370,115.06540 101.36307,116.73785 101.69754,123.26086 z "
     id="path5587"
     sodipodi:nodetypes="cccc"
     transform="matrix(1.648424,0.000000,0.000000,1.648424,-92.37297,-108.6942)" />
  <path
     style="fill:url(#linearGradient1560);fill-rule:evenodd;stroke-width:1.0000000pt;"
     d="M 103.63533,141.13797 C 103.63533,141.13797 105.79623,129.83650 103.87698,129.43245 C 100.20298,134.43495 99.612105,137.71781 103.63533,141.13797 z "
     id="path5588"
     sodipodi:nodetypes="ccc"
     transform="matrix(1.648424,0.000000,0.000000,1.648424,-92.37297,-108.6942)" />
  <path
     style="fill:url(#linearGradient1560);fill-rule:evenodd;stroke-width:1.0000000pt;"
     d="M 129.03773,109.51665 C 133.73917,106.87914 133.72599,108.66620 133.72599,108.66620 C 127.49959,115.04050 126.25554,110.84099 129.03773,109.51665 z "
     id="path5589"
     sodipodi:nodetypes="ccc"
     transform="matrix(1.648424,0.000000,0.000000,1.648424,-92.37297,-108.6942)" />
  <path
     sodipodi:type="arc"
     style="fill:url(#linearGradient1932);fill-opacity:1.0000000;fill-rule:evenodd;stroke:none;stroke-width:1.0000000pt;stroke-linecap:butt;stroke-linejoin:miter;stroke-opacity:1.0000000;"
     id="path1930"
     sodipodi:cx="94.657021"
     sodipodi:cy="91.044556"
     sodipodi:rx="15.044825"
     sodipodi:ry="15.044825"
     d="M 109.70185 91.044556 A 15.044825 15.044825 0 1 0 79.612196,91.044556 A 15.044825 15.044825 0 1 0 109.70185 91.044556 z"
     transform="translate(6.268677,5.014942)" />
</svg>
