<?xml version="1.0" encoding="UTF-8" standalone="no"?>
<!DOCTYPE svg PUBLIC "-//W3C//DTD SVG 20010904//EN"
"http://www.w3.org/TR/2001/REC-SVG-20010904/DTD/svg10.dtd">
<!-- Created by Andrew Fitzsimon (http://andy.fitzsimon.com.au/) -->
<!-- Created using Inkscape (http://www.inkscape.org/) -->
<svg
   id="ubuntuicon"
   sodipodi:version="0.32"
   inkscape:version="0.40cvs"
   width="160.00000"
   height="160.00000"
   sodipodi:docname="gdm+xnest.svg"
   version="1.0"
   x="0.00000000"
   y="0.00000000"
   sodipodi:docbase="/home/andy/.icons/warty/scalable/apps"
   xmlns="http://www.w3.org/2000/svg"
   xmlns:cc="http://web.resource.org/cc/"
   xmlns:inkscape="http://www.inkscape.org/namespaces/inkscape"
   xmlns:sodipodi="http://sodipodi.sourceforge.net/DTD/sodipodi-0.dtd"
   xmlns:rdf="http://www.w3.org/1999/02/22-rdf-syntax-ns#"
   xmlns:dc="http://purl.org/dc/elements/1.1/"
   xmlns:xlink="http://www.w3.org/1999/xlink">
  <defs
     id="definitions">
    <linearGradient
       inkscape:collect="always"
       xlink:href="#linearGradient1513"
       id="linearGradient9012"
       x1="-24.442082"
       y1="-62.852401"
       x2="104.86879"
       y2="117.79005"
       gradientTransform="matrix(1.199688,0.000000,0.000000,0.833550,-0.857138,0.685709)"
       gradientUnits="userSpaceOnUse" />
    <linearGradient
       inkscape:collect="always"
       xlink:href="#linearGradient1513"
       id="linearGradient9010"
       x1="-22.008342"
       y1="-21.729695"
       x2="78.657433"
       y2="111.18519"
       gradientTransform="matrix(1.356203,0.000000,0.000000,0.737353,-0.857138,0.685709)"
       gradientUnits="userSpaceOnUse" />
    <radialGradient
       inkscape:collect="always"
       xlink:href="#MaterialSoftShadow"
       id="radialGradient2044" />
    <linearGradient
       inkscape:collect="always"
       xlink:href="#linearGradient1693"
       id="linearGradient3492"
       x1="-0.71367520"
       y1="-2.8906250"
       x2="0.89743590"
       y2="0.82031250" />
    <linearGradient
       inkscape:collect="always"
       xlink:href="#linearGradient1693"
       id="linearGradient3494"
       x1="-0.21428572"
       y1="-1.7812500"
       x2="0.50000000"
       y2="0.59375000" />
    <linearGradient
       inkscape:collect="always"
       xlink:href="#linearGradient1693"
       id="linearGradient3488"
       x1="0.28571430"
       y1="-0.085937500"
       x2="0.63095236"
       y2="0.85937500" />
    <linearGradient
       inkscape:collect="always"
       xlink:href="#MaterialSoftShadow"
       id="linearGradient3483"
       x1="0.76190478"
       y1="0.093750000"
       x2="1.1726191"
       y2="1.6406250" />
    <linearGradient
       id="linearGradient11127">
      <stop
         style="stop-color:#000000;stop-opacity:0.50515461;"
         offset="0.00000000"
         id="stop11128" />
      <stop
         style="stop-color:#000000;stop-opacity:0.098159507;"
         offset="0.50000000"
         id="stop11129" />
      <stop
         style="stop-color:#000000;stop-opacity:0.0000000;"
         offset="1.0000000"
         id="stop11130" />
    </linearGradient>
    <linearGradient
       id="linearGradient11107">
      <stop
         style="stop-color:#ffffff;stop-opacity:0.65979379;"
         offset="0.00000000"
         id="stop11108" />
      <stop
         style="stop-color:#ffffff;stop-opacity:0.31958762;"
         offset="0.50000000"
         id="stop11492" />
      <stop
         style="stop-color:#ffffff;stop-opacity:0.00000000;"
         offset="1.0000000"
         id="stop11109" />
    </linearGradient>
    <linearGradient
       id="linearGradient11190">
      <stop
         style="stop-color:#fdfdfd;stop-opacity:1.0000000;"
         offset="0.00000000"
         id="stop11191" />
      <stop
         style="stop-color:#fd3301;stop-opacity:1.0000000;"
         offset="0.50000000"
         id="stop11192" />
      <stop
         style="stop-color:#fd3301;stop-opacity:0.00000000;"
         offset="1.0000000"
         id="stop11193" />
    </linearGradient>
    <linearGradient
       xlink:href="#linearGradient1513"
       id="linearGradient2222"
       y2="0.55248618"
       x2="0.58431375"
       y1="-0.10497238"
       x1="-0.10588235" />
    <linearGradient
       id="linearGradient2317">
      <stop
         style="stop-color:#d6d6d6;stop-opacity:1.0000000;"
         offset="0.0000000"
         id="stop2318" />
      <stop
         style="stop-color:#eaeaea;stop-opacity:1.0000000;"
         offset="0.25769231"
         id="stop2322" />
      <stop
         style="stop-color:#919191;stop-opacity:1.0000000;"
         offset="0.70594490"
         id="stop2320" />
      <stop
         style="stop-color:#d2d2d2;stop-opacity:1.0000000;"
         offset="0.73347497"
         id="stop2321" />
      <stop
         style="stop-color:#a6a6a6;stop-opacity:1.0000000;"
         offset="1.0000000"
         id="stop2319" />
    </linearGradient>
    <linearGradient
       xlink:href="#linearGradient2317"
       id="linearGradient2316"
       x1="0.47450981"
       y1="0.21771218"
       x2="0.80392158"
       y2="0.52029520" />
    <linearGradient
       xlink:href="#linearGradient1513"
       id="linearGradient2121"
       x1="0.41568628"
       y1="0.27687296"
       x2="0.59607846"
       y2="0.44299674" />
    <linearGradient
       id="TransparentBlack">
      <stop
         style="stop-color:#000000;stop-opacity:0.0000000;"
         offset="0.0000000"
         id="stopBlackTransparent1" />
      <stop
         style="stop-color:#000000;stop-opacity:1.0000000;"
         offset="1.0000000"
         id="stopBlackFull1" />
    </linearGradient>
    <linearGradient
       id="linearGradient1513">
      <stop
         style="stop-color:#ffffff;stop-opacity:1.0000000;"
         offset="0.0000000"
         id="stop1514" />
      <stop
         style="stop-color:#ffffff;stop-opacity:0.0000000;"
         offset="1.0000000"
         id="stop1515" />
    </linearGradient>
    <linearGradient
       id="linearGradient1694">
      <stop
         style="stop-color:#0180d4;stop-opacity:1.0000000;"
         offset="0.00000000"
         id="stop1696" />
      <stop
         style="stop-color:#0180d4;stop-opacity:1.0000000;"
         offset="0.56999999"
         id="stop1698" />
      <stop
         style="stop-color:#013366;stop-opacity:1.0000000;"
         offset="1.0000000"
         id="stop1697" />
    </linearGradient>
    <radialGradient
       xlink:href="#linearGradient1694"
       id="radialGradient1505"
       cx="0.50000000"
       cy="0.50000000"
       r="0.55434185"
       fx="0.48461539"
       fy="0.20312500" />
    <linearGradient
       id="linearGradient2150">
      <stop
         style="stop-color:#ffffff;stop-opacity:1.0000000;"
         offset="0.00000000"
         id="stop2151" />
      <stop
         style="stop-color:#edc73e;stop-opacity:0.00000000;"
         offset="1.0000000"
         id="stop2152" />
    </linearGradient>
    <linearGradient
       id="linearGradient2127">
      <stop
         style="stop-color:#d0930c;stop-opacity:1.0000000;"
         offset="0.00000000"
         id="stop2128" />
      <stop
         style="stop-color:#edc73e;stop-opacity:1.0000000;"
         offset="1.0000000"
         id="stop2129" />
    </linearGradient>
    <linearGradient
       id="MaterialSoftShadow">
      <stop
         style="stop-color:#000000;stop-opacity:0.21472393;"
         offset="0.0000000"
         id="stop2619" />
      <stop
         style="stop-color:#000000;stop-opacity:0.098159507;"
         offset="0.50000000"
         id="stop2621" />
      <stop
         style="stop-color:#000000;stop-opacity:0.0000000;"
         offset="1.0000000"
         id="stop2620" />
    </linearGradient>
    <linearGradient
       id="linearGradient1693">
      <stop
         style="stop-color:#ffffff;stop-opacity:1.0000000;"
         offset="0.00000000"
         id="stop1694" />
      <stop
         style="stop-color:#ffffff;stop-opacity:0.00000000;"
         offset="1.0000000"
         id="stop1695" />
    </linearGradient>
  </defs>
  <sodipodi:namedview
     id="base"
     pagecolor="#ffffff"
     bordercolor="#666666"
     borderopacity="1.0"
     inkscape:pageopacity="0.0"
     inkscape:pageshadow="2"
     inkscape:zoom="1.9881000"
     inkscape:cx="93.646959"
     inkscape:cy="63.714505"
     inkscape:window-width="640"
     inkscape:window-height="524"
     inkscape:window-x="326"
     inkscape:window-y="110"
     showgrid="false"
     gridempspacing="5"
     gridtolerance="5.0000000mm"
     inkscape:grid-points="false"
     gridspacingx="1.2500000mm"
     gridspacingy="1.2500000mm"
     showguides="true"
     inkscape:guide-bbox="true"
     inkscape:grid-bbox="false"
     showborder="true"
     inkscape:current-layer="ubuntuicon" />
  <metadata
     id="metadata1293">
    <rdf:RDF
       id="RDF1294">
      <cc:Work
         rdf:about=""
         id="Work1295">
        <dc:format
           id="imageformat">image/svg+xml</dc:format>
        <dc:type
           id="type1298"
           rdf:resource="http://purl.org/dc/dcmitype/StillImage" />
        <dc:creator
           id="creator1299">
          <cc:Agent
             id="Agent1300">
            <dc:title
               id="title1301">Ubuntu Icon</dc:title>
          </cc:Agent>
        </dc:creator>
        <dc:rights
           id="rights1303">
          <cc:Agent
             id="Agent1304">
            <dc:title
               id="creator">Andrew Fitzsimon</dc:title>
          </cc:Agent>
          <cc:Agent
             id="Agent1332">
            <dc:title
               id="company">Canonical Software</dc:title>
          </cc:Agent>
          <cc:Agent
             id="Agent1335">
            <dc:title
               id="owner">Mark Shuttleworth</dc:title>
          </cc:Agent>
        </dc:rights>
        <dc:date
           id="date1307">2004-09-01</dc:date>
        <dc:description
           id="description1309">Icon for the Ubuntu Icon Set</dc:description>
        <dc:contributor
           id="contributor1311">
          <cc:Agent
             id="Agent1312">
            <dc:title
               id="title1313">Andrew Fitzsimon</dc:title>
          </cc:Agent>
        </dc:contributor>
      </cc:Work>
    </rdf:RDF>
  </metadata>
  <g
     id="g7898"
     transform="matrix(0.992567,0.000000,0.000000,0.992567,0.379244,4.826545)">
    <g
       id="g7920"
       transform="matrix(1.079786,0.000000,0.000000,1.079786,-3.330414,7.822973)">
      <path
         style="fill:url(#linearGradient3483);fill-opacity:1.0000000;fill-rule:evenodd;stroke:none;stroke-width:1.2758383;stroke-miterlimit:4.0000000;stroke-opacity:1.0000000;"
         d="M 14.992724,235.00835 L 14.087491,182.39995 L 13.182256,136.66196 C 13.182256,131.45858 15.667668,129.79154 20.052670,129.79154 L 150.59055,129.79154 C 155.13930,129.79154 157.46097,132.11324 157.46097,136.66196 L 157.81175,182.10167 L 158.16253,234.41180 C 158.19076,238.62187 151.99228,241.58399 147.78218,241.60746 L 27.767187,242.27637 C 22.868159,242.30367 15.077010,239.90673 14.992724,235.00835 z "
         id="path7922"
         sodipodi:nodetypes="cczzzzczzzz"
         transform="matrix(0.850739,0.000000,0.000000,0.850739,4.524191,-94.65103)" />
      <path
         style="fill:#eeeeee;fill-opacity:1.0000000;fill-rule:evenodd;stroke:none;stroke-width:1.2758383;stroke-miterlimit:4.0000000;stroke-opacity:1.0000000;"
         d="M 14.992724,235.00835 L 14.087491,182.39995 L 13.182256,136.66196 C 13.182256,131.45858 15.667668,129.79154 20.052670,129.79154 L 150.59055,129.79154 C 155.13930,129.79154 157.46097,132.11324 157.46097,136.66196 L 157.81175,182.10167 L 158.16253,234.41180 C 158.18754,238.14168 151.51208,238.56973 147.78218,238.59052 L 27.767187,239.25943 C 23.279513,239.28444 15.069933,239.49543 14.992724,235.00835 z "
         id="path7923"
         sodipodi:nodetypes="cczzzzczzzz"
         transform="matrix(0.850739,0.000000,0.000000,0.850739,4.524191,-94.65103)" />
      <path
         style="fill:url(#linearGradient3488);fill-opacity:1.0000000;fill-rule:evenodd;stroke:none;stroke-width:1.2758383;stroke-miterlimit:4.0000000;stroke-opacity:1.0000000;"
         d="M -6.6944141,369.30650 L -7.5572500,319.16205 L -8.4200878,275.56622 C -8.4200878,270.60654 -6.0510815,269.01758 -1.8714535,269.01758 L 122.55261,269.01758 C 126.88832,269.01758 129.10125,271.23054 129.10125,275.56622 L 129.43560,318.87774 L 129.76995,368.73789 C 129.79389,372.30868 123.44658,372.82471 119.87577,372.84461 L 5.4817498,373.48219 L -6.6944141,369.30650 z "
         id="path7924"
         sodipodi:nodetypes="cczzzzczzcc"
         transform="matrix(0.850739,0.000000,0.000000,0.850739,25.79050,-210.8810)" />
      <path
         style="fill:#000000;fill-opacity:1.0000000;fill-rule:evenodd;stroke:none;stroke-width:1.2758383;stroke-miterlimit:4.0000000;stroke-opacity:1.0000000;"
         d="M 26.923085,143.53237 L 26.923085,225.97735 L 143.72014,225.97735 L 143.72014,143.53237 L 26.923085,143.53237 z "
         id="path7925"
         sodipodi:nodetypes="ccccc"
         transform="matrix(0.850739,0.000000,0.000000,0.850739,4.524191,-94.65103)" />
      <path
         style="fill:url(#linearGradient3494);fill-opacity:1.0000000;fill-rule:evenodd;stroke:none;stroke-width:1.2758383;stroke-miterlimit:4.0000000;stroke-opacity:1.0000000;"
         d="M 18.610135,348.63150 L 112.43745,350.57209 L 112.43745,286.08054 C 57.872813,288.02111 19.014361,309.18968 18.610135,348.63150 z "
         id="path7926"
         sodipodi:nodetypes="cccc"
         transform="matrix(1.055582,0.000000,0.000000,1.055582,7.928462,-272.6060)" />
      <path
         style="fill:url(#linearGradient3492);fill-opacity:1.0000000;fill-rule:evenodd;stroke:none;stroke-width:1.0000000pt;stroke-opacity:1.0000000;"
         d="M 22.145669,339.10297 C 22.145669,339.10297 28.673746,316.98167 64.021923,324.91574 C 98.153951,332.57685 102.45633,301.64869 111.63469,301.08120 L 111.63469,349.88526 L 22.570634,350.45276 L 22.145669,339.10297 z "
         id="path7927"
         sodipodi:nodetypes="czcccc"
         transform="matrix(1.055582,0.000000,0.000000,1.055582,7.928462,-272.6060)" />
    </g>
    <path
       sodipodi:type="arc"
       style="fill:url(#radialGradient2044);fill-opacity:1.0000000;fill-rule:evenodd;stroke:none;stroke-width:1.0000000pt;stroke-linecap:butt;stroke-linejoin:miter;stroke-opacity:1.0000000;"
       id="path7928"
       sodipodi:cx="-289.09140"
       sodipodi:cy="598.36652"
       sodipodi:rx="125.20509"
       sodipodi:ry="125.20509"
       d="M -163.88631 598.36652 A 125.20509 125.20509 0 1 0 -414.29649,598.36652 A 125.20509 125.20509 0 1 0 -163.88631 598.36652 z"
       transform="matrix(-0.634997,0.000000,0.000000,9.435834e-2,-102.9150,72.25826)" />
    <path
       sodipodi:type="arc"
       style="fill:url(#radialGradient2044);fill-opacity:1.0000000;fill-rule:evenodd;stroke:none;stroke-width:1.0000000pt;stroke-linecap:butt;stroke-linejoin:miter;stroke-opacity:1.0000000;"
       id="path7881"
       sodipodi:cx="-289.09140"
       sodipodi:cy="598.36652"
       sodipodi:rx="125.20509"
       sodipodi:ry="125.20509"
       d="M -163.88631 598.36652 A 125.20509 125.20509 0 1 0 -414.29649,598.36652 A 125.20509 125.20509 0 1 0 -163.88631 598.36652 z"
       transform="matrix(-0.506363,0.000000,0.000000,0.148258,-66.40305,42.89680)" />
    <g
       id="g7882"
       transform="matrix(1.079786,0.000000,0.000000,1.079786,-3.330414,7.822973)">
      <path
         style="fill:url(#linearGradient3483);fill-opacity:1.0000000;fill-rule:evenodd;stroke:none;stroke-width:1.2758383;stroke-miterlimit:4.0000000;stroke-opacity:1.0000000;"
         d="M 14.992724,235.00835 L 14.087491,182.39995 L 13.182256,136.66196 C 13.182256,131.45858 15.667668,129.79154 20.052670,129.79154 L 150.59055,129.79154 C 155.13930,129.79154 157.46097,132.11324 157.46097,136.66196 L 157.81175,182.10167 L 158.16253,234.41180 C 158.19076,238.62187 151.99228,241.58399 147.78218,241.60746 L 27.767187,242.27637 C 22.868159,242.30367 15.077010,239.90673 14.992724,235.00835 z "
         id="path7884"
         sodipodi:nodetypes="cczzzzczzzz"
         transform="matrix(0.850739,0.000000,0.000000,0.850739,4.524191,-94.65103)" />
      <path
         style="fill:#eeeeee;fill-opacity:1.0000000;fill-rule:evenodd;stroke:#000000;stroke-width:1.6451193;stroke-miterlimit:4.0000000;stroke-opacity:1.0000000;stroke-dasharray:none;"
         d="M 14.992724,235.00835 L 14.087491,182.39995 L 13.182256,136.66196 C 13.182256,131.45858 15.667668,129.79154 20.052670,129.79154 L 150.59055,129.79154 C 155.13930,129.79154 157.46097,132.11324 157.46097,136.66196 L 157.81175,182.10167 L 158.16253,234.41180 C 158.18754,238.14168 151.51208,238.56973 147.78218,238.59052 L 27.767187,239.25943 C 23.279513,239.28444 15.069933,239.49543 14.992724,235.00835 z "
         id="path7885"
         sodipodi:nodetypes="cczzzzczzzz"
         transform="matrix(0.850739,0.000000,0.000000,0.850739,4.524191,-94.65103)" />
      <path
         style="fill:url(#linearGradient3488);fill-opacity:1.0000000;fill-rule:evenodd;stroke:none;stroke-width:1.2758383;stroke-miterlimit:4.0000000;stroke-opacity:1.0000000;"
         d="M -6.6944141,369.30650 L -7.5572500,319.16205 L -8.4200878,275.56622 C -8.4200878,270.60654 -6.0510815,269.01758 -1.8714535,269.01758 L 122.55261,269.01758 C 126.88832,269.01758 129.10125,271.23054 129.10125,275.56622 L 129.43560,318.87774 L 129.76995,368.73789 C 129.79389,372.30868 123.44658,372.82471 119.87577,372.84461 L 5.4817498,373.48219 L -6.6944141,369.30650 z "
         id="path7886"
         sodipodi:nodetypes="cczzzzczzcc"
         transform="matrix(0.850739,0.000000,0.000000,0.850739,25.79050,-210.8810)" />
      <path
         style="fill:#002b3d;fill-opacity:1.0000000;fill-rule:evenodd;stroke:none;stroke-width:1.2758383;stroke-miterlimit:4.0000000;stroke-opacity:1.0000000;"
         d="M 26.923085,143.53237 L 26.923085,225.97735 L 143.72014,225.97735 L 143.72014,143.53237 L 26.923085,143.53237 z "
         id="path7887"
         sodipodi:nodetypes="ccccc"
         transform="matrix(0.850739,0.000000,0.000000,0.850739,4.524191,-94.65103)" />
    </g>
  </g>
  <g
     id="g4715"
     transform="matrix(0.575926,0.000000,0.000000,0.575926,33.98435,34.25457)">
    <g
       id="g4716"
       transform="matrix(1.079786,0.000000,0.000000,1.079786,-3.330414,7.822973)">
      <path
         style="fill:url(#linearGradient3483);fill-opacity:1.0000000;fill-rule:evenodd;stroke:none;stroke-width:1.2758383;stroke-miterlimit:4.0000000;stroke-opacity:1.0000000;"
         d="M 14.992724,235.00835 L 14.087491,182.39995 L 13.182256,136.66196 C 13.182256,131.45858 15.667668,129.79154 20.052670,129.79154 L 150.59055,129.79154 C 155.13930,129.79154 157.46097,132.11324 157.46097,136.66196 L 157.81175,182.10167 L 158.16253,234.41180 C 158.19076,238.62187 151.99228,241.58399 147.78218,241.60746 L 27.767187,242.27637 C 22.868159,242.30367 15.077010,239.90673 14.992724,235.00835 z "
         id="path4717"
         sodipodi:nodetypes="cczzzzczzzz"
         transform="matrix(0.850739,0.000000,0.000000,0.850739,4.524191,-94.65103)" />
      <path
         style="fill:#000000;fill-opacity:1.0000000;fill-rule:evenodd;stroke:none;stroke-width:1.2758383;stroke-miterlimit:4.0000000;stroke-opacity:1.0000000;"
         d="M 26.923085,143.53237 L 26.923085,225.97735 L 143.72014,225.97735 L 143.72014,143.53237 L 26.923085,143.53237 z "
         id="path4720"
         sodipodi:nodetypes="ccccc"
         transform="matrix(0.850739,0.000000,0.000000,0.850739,4.524191,-94.65103)" />
      <path
         style="fill:url(#linearGradient3494);fill-opacity:1.0000000;fill-rule:evenodd;stroke:none;stroke-width:1.2758383;stroke-miterlimit:4.0000000;stroke-opacity:1.0000000;"
         d="M 18.610135,348.63150 L 112.43745,350.57209 L 112.43745,286.08054 C 57.872813,288.02111 19.014361,309.18968 18.610135,348.63150 z "
         id="path4721"
         sodipodi:nodetypes="cccc"
         transform="matrix(1.055582,0.000000,0.000000,1.055582,7.928462,-272.6060)" />
      <path
         style="fill:url(#linearGradient3492);fill-opacity:1.0000000;fill-rule:evenodd;stroke:none;stroke-width:1.0000000pt;stroke-opacity:1.0000000;"
         d="M 22.145669,339.10297 C 22.145669,339.10297 28.673746,316.98167 64.021923,324.91574 C 98.153951,332.57685 102.45633,301.64869 111.63469,301.08120 L 111.63469,349.88526 L 22.570634,350.45276 L 22.145669,339.10297 z "
         id="path4722"
         sodipodi:nodetypes="czcccc"
         transform="matrix(1.055582,0.000000,0.000000,1.055582,7.928462,-272.6060)" />
    </g>
    <g
       id="g4725"
       transform="matrix(1.079786,0.000000,0.000000,1.079786,-3.330414,7.822973)">
      <path
         style="fill:#edc73e;fill-opacity:1.0000000;fill-rule:evenodd;stroke:none;stroke-width:1.2758383;stroke-miterlimit:4.0000000;stroke-opacity:1.0000000;"
         d="M 26.923085,143.53237 L 26.923085,225.97735 L 143.72014,225.97735 L 143.72014,143.53237 L 26.923085,143.53237 z "
         id="path4729"
         sodipodi:nodetypes="ccccc"
         transform="matrix(0.850739,0.000000,0.000000,0.850739,4.524191,-94.65103)" />
    </g>
  </g>
  <rect
     style="fill:#ffffff;fill-opacity:1.0000000;fill-rule:evenodd;stroke:#000000;stroke-width:0.92534428pt;stroke-linecap:butt;stroke-linejoin:miter;stroke-opacity:1.0000000;"
     id="rect5353"
     width="36.239223"
     height="9.4604492"
     x="62.755726"
     y="79.034828" />
  <path
     style="fill:url(#linearGradient9012);fill-opacity:1.0000000;fill-rule:evenodd;stroke:none;stroke-width:1.0000000pt;stroke-linecap:butt;stroke-linejoin:miter;stroke-opacity:1.0000000;"
     d="M 25.885507,116.80035 C 35.485428,78.172091 75.256532,51.886591 130.79893,44.115226 L 131.48464,117.48606 L 25.885507,116.80035 z "
     id="path9009"
     sodipodi:nodetypes="cccc" />
  <path
     style="fill:url(#linearGradient9010);fill-opacity:1.0000000;fill-rule:evenodd;stroke:none;stroke-width:1.0000000pt;stroke-linecap:butt;stroke-linejoin:miter;stroke-opacity:1.0000000;"
     d="M 25.885507,116.80035 L 25.542650,88.686292 C 45.542487,59.886526 119.71331,79.772079 130.79893,59.886527 L 131.48464,117.48606 L 25.885507,116.80035 z "
     id="path9011"
     sodipodi:nodetypes="ccccc" />
</svg>
