<?xml version="1.0" encoding="UTF-8" standalone="no"?>
<!DOCTYPE svg PUBLIC "-//W3C//DTD SVG 20010904//EN"
"http://www.w3.org/TR/2001/REC-SVG-20010904/DTD/svg10.dtd">
<!-- Created by Andrew Fitzsimon (http://andy.fitzsimon.com.au/) -->
<!-- Created using Inkscape (http://www.inkscape.org/) -->
<svg
   id="ubuntuicon"
   sodipodi:version="0.32"
   inkscape:version="0.39cvs"
   width="160.00000"
   height="160.00000"
   sodipodi:docname="gimp-sane.svg"
   version="1.0"
   x="0.00000000"
   y="0.00000000"
   xmlns="http://www.w3.org/2000/svg"
   xmlns:cc="http://web.resource.org/cc/"
   xmlns:inkscape="http://www.inkscape.org/namespaces/inkscape"
   xmlns:sodipodi="http://sodipodi.sourceforge.net/DTD/sodipodi-0.dtd"
   xmlns:rdf="http://www.w3.org/1999/02/22-rdf-syntax-ns#"
   xmlns:dc="http://purl.org/dc/elements/1.1/"
   xmlns:xlink="http://www.w3.org/1999/xlink"
   sodipodi:docbase="C:\Documents and Settings\n4429206\Desktop\mm\ubuntu\apps">
  <defs
     id="definitions">
    <linearGradient
       id="linearGradient1726">
      <stop
         style="stop-color:#000000;stop-opacity:0.40689656;"
         offset="0.0000000"
         id="stop1727" />
      <stop
         style="stop-color:#000000;stop-opacity:0.00000000;"
         offset="1.0000000"
         id="stop1728" />
    </linearGradient>
    <radialGradient
       xlink:href="#linearGradient1726"
       id="radialGradient1505" />
    <linearGradient
       id="MaterialSoftShadow">
      <stop
         style="stop-color:#000000;stop-opacity:0.21472393;"
         offset="0.0000000"
         id="stop2619" />
      <stop
         style="stop-color:#000000;stop-opacity:0.098159507;"
         offset="0.50000000"
         id="stop2621" />
      <stop
         style="stop-color:#000000;stop-opacity:0.0000000;"
         offset="1.0000000"
         id="stop2620" />
    </linearGradient>
    <linearGradient
       id="linearGradient1693">
      <stop
         style="stop-color:#000;stop-opacity:1;"
         offset="0"
         id="stop1694" />
      <stop
         style="stop-color:#fff;stop-opacity:1;"
         offset="1"
         id="stop1695" />
    </linearGradient>
  </defs>
  <sodipodi:namedview
     id="base"
     pagecolor="#ffffff"
     bordercolor="#666666"
     borderopacity="1.0"
     inkscape:pageopacity="0.0"
     inkscape:pageshadow="2"
     inkscape:zoom="1.4142136"
     inkscape:cx="99.205260"
     inkscape:cy="41.053927"
     inkscape:window-width="640"
     inkscape:window-height="524"
     inkscape:window-x="365"
     inkscape:window-y="189"
     showgrid="true"
     gridempspacing="5"
     gridtolerance="5.0000000mm"
     inkscape:grid-points="true"
     gridspacingx="1.2500000mm"
     gridspacingy="1.2500000mm"
     showguides="true"
     inkscape:guide-bbox="true"
     inkscape:grid-bbox="false" />
  <metadata
     id="metadata1293">
    <rdf:RDF
       id="RDF1294">
      <cc:Work
         rdf:about=""
         id="Work1295">
        <dc:format
           id="imageformat">image/svg+xml</dc:format>
        <dc:type
           id="type1298"
           rdf:resource="http://purl.org/dc/dcmitype/StillImage" />
        <dc:creator
           id="creator1299">
          <cc:Agent
             id="Agent1300">
            <dc:title
               id="title1301">Ubuntu Icon</dc:title>
          </cc:Agent>
        </dc:creator>
        <dc:rights
           id="rights1303">
          <cc:Agent
             id="Agent1304">
            <dc:title
               id="creator">Andrew Fitzsimon</dc:title>
          </cc:Agent>
          <cc:Agent
             id="Agent1332">
            <dc:title
               id="company">Canonical Software</dc:title>
          </cc:Agent>
          <cc:Agent
             id="Agent1335">
            <dc:title
               id="owner">Mark Shuttleworth</dc:title>
          </cc:Agent>
        </dc:rights>
        <dc:date
           id="date1307">2004-09-01</dc:date>
        <dc:description
           id="description1309">Icon for the Ubuntu Icon Set</dc:description>
        <dc:contributor
           id="contributor1311">
          <cc:Agent
             id="Agent1312">
            <dc:title
               id="title1313">Andrew Fitzsimon</dc:title>
          </cc:Agent>
        </dc:contributor>
      </cc:Work>
    </rdf:RDF>
  </metadata>
  <g
     id="g10242"
     transform="matrix(1.044496,0.000000,0.000000,1.044496,-413.2945,-460.8432)">
    <path
       sodipodi:type="arc"
       style="fill:url(#radialGradient1505);fill-opacity:1.0000000;fill-rule:evenodd;stroke:none;stroke-width:1.0000000pt;stroke-opacity:1.0000000;"
       id="path9968"
       sodipodi:cx="25.912205"
       sodipodi:cy="175.83524"
       sodipodi:rx="56.143108"
       sodipodi:ry="56.143108"
       d="M 82.055313 175.83524 A 56.143108 56.143108 0 1 0 -30.230904,175.83524 A 56.143108 56.143108 0 1 0 82.055313 175.83524 z"
       transform="matrix(1.383887,0.000000,0.000000,0.238314,436.6404,531.9465)" />
    <path
       style="fill:#aaaaaa;fill-opacity:1.0000000;fill-rule:evenodd;stroke:#000000;stroke-width:3.4599733;stroke-linecap:butt;stroke-linejoin:miter;stroke-miterlimit:4.0000000;stroke-opacity:1.0000000;"
       d="M 266.32168,261.71102 L 248.57527,463.42278 C 246.18949,490.54031 260.99197,498.75914 278.62586,498.75914 L 501.52085,498.75914 C 519.24482,498.75914 534.28607,490.71882 532.04469,463.42278 L 515.48137,261.71102 C 513.79373,241.15862 495.22664,227.84700 481.88148,227.84700 L 300.15818,227.84700 C 286.74676,227.84700 268.13618,241.08683 266.32168,261.71102 z "
       id="rect8459"
       sodipodi:nodetypes="czzzzzzzz"
       transform="matrix(0.440524,0.000000,0.000000,0.440524,298.4881,359.7399)" />
    <path
       style="fill:#cccccc;fill-opacity:1.0000000;fill-rule:evenodd;stroke:none;stroke-width:1.0000000pt;stroke-linecap:butt;stroke-linejoin:miter;stroke-opacity:1.0000000;"
       d="M 270.40645,251.95672 L 253.24477,456.02853 C 251.02336,482.44360 265.25236,482.56331 282.30520,482.56331 L 497.85576,482.56331 C 514.99572,482.56331 529.46045,482.61312 527.37383,456.02853 L 511.35627,251.95672 C 509.78516,231.94000 491.76895,219.01290 478.86351,219.01290 L 303.12802,219.01290 C 290.15851,219.01290 272.09594,231.86678 270.40645,251.95672 z "
       id="path9974"
       sodipodi:nodetypes="czzzzzzzz"
       transform="matrix(0.440524,0.000000,0.000000,0.440524,298.4881,359.7399)" />
    <path
       style="fill:#666666;fill-opacity:1.0000000;fill-rule:evenodd;stroke:#000000;stroke-width:3.4599733;stroke-linecap:butt;stroke-linejoin:miter;stroke-miterlimit:4.0000000;stroke-opacity:1.0000000;"
       d="M 290.47202,255.32675 L 276.18281,412.66793 C 274.38455,432.46887 286.18060,437.08956 300.37920,437.08956 L 479.85170,437.08956 C 494.12283,437.08956 506.11836,432.59686 504.42914,412.66793 L 491.09255,255.32675 C 489.82066,240.32138 474.78368,239.45673 464.03830,239.45673 L 317.71678,239.45673 C 306.91806,239.45673 291.83968,240.26718 290.47202,255.32675 z "
       id="path8461"
       sodipodi:nodetypes="czzzzzzzz"
       transform="matrix(0.440524,0.000000,0.000000,0.440524,298.4881,359.7399)" />
    <g
       id="g1708"
       transform="matrix(0.502259,0.000000,0.000000,0.480993,107.3858,314.3053)"
       style="fill:none;stroke:#000000;stroke-opacity:1.0000000;">
      <path
         style="fill:#eeeeee;fill-opacity:1.0000000;fill-rule:evenodd;stroke-width:3.6178942;stroke-linecap:butt;stroke-linejoin:miter;stroke-miterlimit:4.0000000;"
         d="M 645.84028,478.28435 L 657.61907,335.46654 L 790.13044,335.46654 L 803.98592,476.89114 L 645.84028,478.28435 z "
         id="path1719"
         sodipodi:nodetypes="ccccc" />
    </g>
    <path
       style="fill:#aaaaaa;fill-opacity:1.0000000;fill-rule:evenodd;stroke:#000000;stroke-width:1.1447808;stroke-linecap:butt;stroke-linejoin:miter;stroke-miterlimit:4.0000000;stroke-opacity:1.0000000;"
       d="M 49.031409,36.442161 L 43.353994,67.279447 C 42.446180,72.210273 47.326336,79.614364 52.967751,79.614364 L 124.27611,79.614364 C 129.94634,79.614364 134.89430,72.243756 134.04127,67.279447 L 128.74234,36.442161 C 128.10005,32.704315 122.26247,30.274704 117.99310,30.274704 L 59.856349,30.274704 C 55.565780,30.274704 49.721838,32.692022 49.031409,36.442161 z "
       id="path8486"
       sodipodi:nodetypes="czzzzzzzz"
       transform="matrix(1.331435,0.000000,0.000000,1.331435,352.0777,414.7714)" />
    <path
       style="fill:#eeeeee;fill-opacity:1.0000000;fill-rule:evenodd;stroke:none;stroke-width:0.23674965pt;stroke-linecap:butt;stroke-linejoin:miter;stroke-opacity:1.0000000;"
       d="M 50.903275,36.486220 L 45.493824,62.407618 C 44.628858,66.552404 49.278680,72.776175 54.653829,72.776175 L 122.59656,72.776175 C 127.99917,72.776175 132.71359,66.580545 131.90082,62.407618 L 126.85199,36.486220 C 126.24001,33.344241 120.67796,31.301945 116.61009,31.301945 L 61.217297,31.301945 C 57.129236,31.301945 51.561118,33.333909 50.903275,36.486220 z "
       id="path8477"
       sodipodi:nodetypes="czzzzzzzz"
       transform="matrix(1.331435,0.000000,0.000000,1.331435,352.0777,414.7714)" />
  </g>
</svg>
