<?xml version="1.0" encoding="UTF-8" standalone="no"?>
<!DOCTYPE svg PUBLIC "-//W3C//DTD SVG 20010904//EN"
"http://www.w3.org/TR/2001/REC-SVG-20010904/DTD/svg10.dtd">
<!-- Created by Andrew Fitzsimon (http://andy.fitzsimon.com.au/) -->
<!-- Created using Inkscape (http://www.inkscape.org/) -->
<svg
   id="ubuntuicon"
   sodipodi:version="0.32"
   inkscape:version="0.40cvs"
   width="160.00000"
   height="160.00000"
   sodipodi:docname="gnome-preferences-sound.svg"
   version="1.0"
   x="0.00000000"
   y="0.00000000"
   sodipodi:docbase="/home/andy/.icons/warty/scalable/apps"
   xmlns="http://www.w3.org/2000/svg"
   xmlns:cc="http://web.resource.org/cc/"
   xmlns:inkscape="http://www.inkscape.org/namespaces/inkscape"
   xmlns:sodipodi="http://sodipodi.sourceforge.net/DTD/sodipodi-0.dtd"
   xmlns:rdf="http://www.w3.org/1999/02/22-rdf-syntax-ns#"
   xmlns:dc="http://purl.org/dc/elements/1.1/"
   xmlns:xlink="http://www.w3.org/1999/xlink">
  <defs
     id="definitions">
    <radialGradient
       inkscape:collect="always"
       xlink:href="#linearGradient1601"
       id="radialGradient1605"
       cx="0.50000000"
       cy="0.50000000"
       r="0.50000000"
       fx="0.51349235"
       fy="0.76708025" />
    <linearGradient
       inkscape:collect="always"
       id="linearGradient1601">
      <stop
         style="stop-color:#ffffff;stop-opacity:1.0000000;"
         offset="0.0000000"
         id="stop1602" />
      <stop
         style="stop-color:#ffffff;stop-opacity:0.0000000;"
         offset="1.0000000"
         id="stop1603" />
    </linearGradient>
    <radialGradient
       inkscape:collect="always"
       xlink:href="#linearGradient1601"
       id="radialGradient1607"
       cx="0.50000000"
       cy="0.50000000"
       r="0.50000000"
       fx="0.58139533"
       fy="0.72656250" />
    <linearGradient
       inkscape:collect="always"
       id="linearGradient1595">
      <stop
         style="stop-color:#ffffff;stop-opacity:1.0000000;"
         offset="0.0000000"
         id="stop1596" />
      <stop
         style="stop-color:#ffffff;stop-opacity:0.0000000;"
         offset="1.0000000"
         id="stop1597" />
    </linearGradient>
    <linearGradient
       inkscape:collect="always"
       xlink:href="#linearGradient1595"
       id="linearGradient1647"
       x1="1.4545516"
       y1="-0.99877542"
       x2="0.54091513"
       y2="0.41685998" />
    <linearGradient
       inkscape:collect="always"
       xlink:href="#linearGradient1807"
       id="linearGradient1663"
       x1="0.94877434"
       y1="2.9371059"
       x2="0.92076761"
       y2="-1.6378677" />
    <linearGradient
       inkscape:collect="always"
       xlink:href="#linearGradient1622"
       id="linearGradient1632"
       x1="0.64317292"
       y1="-0.42543414"
       x2="0.67455328"
       y2="1.5392576" />
    <linearGradient
       inkscape:collect="always"
       xlink:href="#linearGradient1807"
       id="linearGradient1664"
       x1="1.0021659"
       y1="3.1559360"
       x2="0.97151226"
       y2="-1.8514305"
       gradientTransform="scale(1.006900,0.993148)" />
    <linearGradient
       inkscape:collect="always"
       xlink:href="#linearGradient1622"
       id="linearGradient1633"
       x1="0.51456237"
       y1="-0.86088276"
       x2="0.64927697"
       y2="1.1479207"
       gradientTransform="scale(1.006898,0.993149)" />
    <linearGradient
       inkscape:collect="always"
       xlink:href="#linearGradient1807"
       id="linearGradient1665"
       x1="0.85744750"
       y1="2.5310705"
       x2="0.83472550"
       y2="-1.1806339"
       gradientTransform="matrix(1.000000,-2.166902e-7,-1.005579e-6,1.000000,4.846384e-17,4.250073e-17)" />
    <linearGradient
       inkscape:collect="always"
       xlink:href="#linearGradient1622"
       id="linearGradient1634"
       x1="0.59862697"
       y1="-0.37642178"
       x2="0.61179250"
       y2="1.3264573" />
    <linearGradient
       inkscape:collect="always"
       xlink:href="#linearGradient1807"
       id="linearGradient1666"
       x1="0.92854935"
       y1="2.8176298"
       x2="0.90222275"
       y2="-1.4828855"
       gradientTransform="matrix(1.000000,-1.061222e-6,-1.194012e-6,1.000000,-2.211772e-17,-1.036497e-16)" />
    <linearGradient
       inkscape:collect="always"
       xlink:href="#linearGradient1622"
       id="linearGradient1635"
       x1="0.50979036"
       y1="-0.63217109"
       x2="0.62548828"
       y2="1.0930643" />
    <linearGradient
       inkscape:collect="always"
       xlink:href="#linearGradient1807"
       id="linearGradient1667"
       x1="0.88382012"
       y1="2.6295443"
       x2="0.85992670"
       y2="-1.2735069"
       gradientTransform="matrix(1.000000,-1.774830e-6,3.852062e-7,1.000000,-1.352542e-17,-1.024571e-16)" />
    <linearGradient
       inkscape:collect="always"
       xlink:href="#linearGradient1622"
       id="linearGradient1636"
       x1="0.50375038"
       y1="-0.50141639"
       x2="0.60875511"
       y2="1.0643682" />
    <linearGradient
       inkscape:collect="always"
       xlink:href="#linearGradient1807"
       id="linearGradient1668"
       x1="0.81030577"
       y1="2.2857580"
       x2="0.79069805"
       y2="-0.91720223"
       gradientTransform="matrix(1.009424,-1.251076e-6,6.658959e-8,0.990664,-3.510105e-17,3.252607e-19)" />
    <linearGradient
       inkscape:collect="always"
       xlink:href="#linearGradient1622"
       id="linearGradient1883"
       x1="0.60993820"
       y1="-0.50966012"
       x2="0.59831393"
       y2="1.2198474"
       gradientTransform="scale(1.009424,0.990664)" />
    <linearGradient
       inkscape:collect="always"
       xlink:href="#linearGradient1807"
       id="linearGradient1669"
       x1="0.78028715"
       y1="2.0803959"
       x2="0.76325291"
       y2="-0.70219380"
       gradientTransform="matrix(1.009423,1.704896e-6,-2.618218e-7,0.990665,-2.623769e-17,-1.729302e-17)" />
    <linearGradient
       inkscape:collect="always"
       xlink:href="#linearGradient1622"
       id="linearGradient1631"
       x1="0.57144982"
       y1="-0.70344001"
       x2="0.57144982"
       y2="1.1716106" />
    <linearGradient
       inkscape:collect="always"
       xlink:href="#linearGradient1807"
       id="linearGradient1670"
       x1="0.75510257"
       y1="1.9416970"
       x2="0.73974293"
       y2="-0.56734192"
       gradientTransform="scale(0.996483,1.003529)" />
    <linearGradient
       inkscape:collect="always"
       xlink:href="#linearGradient1622"
       id="linearGradient1629"
       x1="0.59610069"
       y1="-0.59965861"
       x2="0.58183712"
       y2="0.91393399" />
    <linearGradient
       inkscape:collect="always"
       xlink:href="#linearGradient1807"
       id="linearGradient1671"
       x1="0.72702670"
       y1="1.7999723"
       x2="0.71349812"
       y2="-0.40995422"
       gradientTransform="matrix(0.998019,8.096060e-7,-1.749747e-6,1.001985,-2.997819e-17,-2.347298e-17)" />
    <linearGradient
       inkscape:collect="always"
       xlink:href="#linearGradient1622"
       id="linearGradient1626"
       x1="0.65891778"
       y1="-0.98382145"
       x2="0.65645111"
       y2="1.1004710" />
    <linearGradient
       inkscape:collect="always"
       id="linearGradient1622">
      <stop
         style="stop-color:#1f1f1f;stop-opacity:1.0000000;"
         offset="0.0000000"
         id="stop1623" />
      <stop
         style="stop-color:#d5d5d5;stop-opacity:1.0000000;"
         offset="1.0000000"
         id="stop1624" />
    </linearGradient>
    <linearGradient
       inkscape:collect="always"
       xlink:href="#linearGradient1622"
       id="linearGradient1621"
       x1="0.61049014"
       y1="1.5158283"
       x2="0.58183712"
       y2="0.039205562" />
    <linearGradient
       id="linearGradient1807">
      <stop
         style="stop-color:#000000;stop-opacity:0.0000000;"
         offset="0.0000000"
         id="stop1809" />
      <stop
         style="stop-color:#000000;stop-opacity:0.075862072;"
         offset="0.60952944"
         id="stop1810" />
      <stop
         style="stop-color:#000000;stop-opacity:0.35862070;"
         offset="1.0000000"
         id="stop1811" />
    </linearGradient>
    <linearGradient
       inkscape:collect="always"
       xlink:href="#linearGradient1807"
       id="linearGradient1672"
       x1="0.68898344"
       y1="1.5916643"
       x2="0.67748237"
       y2="-0.28706795"
       gradientTransform="scale(0.996483,1.003530)" />
    <linearGradient
       xlink:href="#linearGradient924"
       id="linearGradient957"
       x1="0.61971831"
       y1="0.63275433"
       x2="0.92605633"
       y2="0.99007446" />
    <linearGradient
       id="linearGradient924">
      <stop
         style="stop-color:#ffffff;stop-opacity:0.00000000;"
         offset="0.00000000"
         id="stop925" />
      <stop
         style="stop-color:#ffffff;stop-opacity:1;"
         offset="1.00000000"
         id="stop926" />
    </linearGradient>
    <linearGradient
       xlink:href="#linearGradient924"
       id="linearGradient1063"
       x1="0.73800737"
       y1="0.74218750"
       x2="1.1070111"
       y2="-2.6875000" />
    <linearGradient
       id="linearGradient1868">
      <stop
         style="stop-color:#ffffff;stop-opacity:0.0000000;"
         offset="0.0000000"
         id="stop1869" />
      <stop
         style="stop-color:#fff;stop-opacity:1;"
         offset="1"
         id="stop1870" />
    </linearGradient>
    <linearGradient
       xlink:href="#linearGradient1868"
       id="linearGradient1497"
       x1="0.48339483"
       y1="0.67187500"
       x2="0.43542436"
       y2="-0.54687500" />
    <linearGradient
       inkscape:collect="always"
       id="linearGradient1851">
      <stop
         style="stop-color:#000000;stop-opacity:0.20000000;"
         offset="0.0000000"
         id="stop1852" />
      <stop
         style="stop-color:#000000;stop-opacity:0.064516127;"
         offset="0.50000000"
         id="stop1854" />
      <stop
         style="stop-color:#adadad;stop-opacity:0.0000000;"
         offset="1.0000000"
         id="stop1853" />
    </linearGradient>
    <radialGradient
       inkscape:collect="always"
       xlink:href="#linearGradient1851"
       id="radialGradient1875"
       cx="0.50000000"
       cy="0.50000000"
       r="0.50000000"
       fx="0.51372552"
       fy="0.31578946" />
    <linearGradient
       id="linearGradient1513">
      <stop
         style="stop-color:#ffffff;stop-opacity:1.0000000;"
         offset="0.0000000"
         id="stop1514" />
      <stop
         style="stop-color:#ffffff;stop-opacity:0.0000000;"
         offset="1.0000000"
         id="stop1515" />
    </linearGradient>
    <linearGradient
       id="MaterialSoftShadow">
      <stop
         style="stop-color:#000000;stop-opacity:0.21472393;"
         offset="0.0000000"
         id="stop2619" />
      <stop
         style="stop-color:#000000;stop-opacity:0.098159507;"
         offset="0.50000000"
         id="stop2621" />
      <stop
         style="stop-color:#000000;stop-opacity:0.0000000;"
         offset="1.0000000"
         id="stop2620" />
    </linearGradient>
    <radialGradient
       inkscape:collect="always"
       xlink:href="#MaterialSoftShadow"
       id="radialGradient5065"
       cx="0.50000000"
       cy="0.50000000"
       r="0.55434185"
       fx="0.48461539"
       fy="0.20312500" />
    <radialGradient
       xlink:href="#MaterialSoftShadow"
       id="radialGradient1505"
       cx="0.50000000"
       cy="0.50000000"
       r="0.55434185"
       fx="0.48461539"
       fy="0.20312500" />
  </defs>
  <sodipodi:namedview
     id="base"
     pagecolor="#ffffff"
     bordercolor="#666666"
     borderopacity="1.0"
     inkscape:pageopacity="0.0"
     inkscape:pageshadow="2"
     inkscape:zoom="1.4100000"
     inkscape:cx="122.09511"
     inkscape:cy="53.767557"
     inkscape:window-width="640"
     inkscape:window-height="524"
     inkscape:window-x="434"
     inkscape:window-y="116"
     showgrid="false"
     gridempspacing="5"
     gridtolerance="5.0000000mm"
     inkscape:grid-points="false"
     gridspacingx="1.2500000mm"
     gridspacingy="1.2500000mm"
     showguides="true"
     inkscape:guide-bbox="true"
     inkscape:grid-bbox="false"
     showborder="true"
     inkscape:current-layer="ubuntuicon" />
  <metadata
     id="metadata1293">
    <rdf:RDF
       id="RDF1294">
      <cc:Work
         rdf:about=""
         id="Work1295">
        <dc:format
           id="imageformat">image/svg+xml</dc:format>
        <dc:type
           id="type1298"
           rdf:resource="http://purl.org/dc/dcmitype/StillImage" />
        <dc:creator
           id="creator1299">
          <cc:Agent
             id="Agent1300">
            <dc:title
               id="title1301">Ubuntu Icon</dc:title>
          </cc:Agent>
        </dc:creator>
        <dc:rights
           id="rights1303">
          <cc:Agent
             id="Agent1304">
            <dc:title
               id="creator">Andrew Fitzsimon</dc:title>
          </cc:Agent>
          <cc:Agent
             id="Agent1332">
            <dc:title
               id="company">Canonical Software</dc:title>
          </cc:Agent>
          <cc:Agent
             id="Agent1335">
            <dc:title
               id="owner">Mark Shuttleworth</dc:title>
          </cc:Agent>
        </dc:rights>
        <dc:date
           id="date1307">2004-09-01</dc:date>
        <dc:description
           id="description1309">Icon for the Ubuntu Icon Set</dc:description>
        <dc:contributor
           id="contributor1311">
          <cc:Agent
             id="Agent1312">
            <dc:title
               id="title1313">Andrew Fitzsimon</dc:title>
          </cc:Agent>
        </dc:contributor>
      </cc:Work>
    </rdf:RDF>
  </metadata>
  <path
     sodipodi:type="arc"
     style="fill:url(#radialGradient1505);fill-opacity:0.75000000;fill-rule:evenodd;stroke-width:1.0000000pt;"
     id="path1615"
     sodipodi:cx="25.912205"
     sodipodi:cy="175.83524"
     sodipodi:rx="56.143108"
     sodipodi:ry="56.143108"
     d="M 82.055313 175.83524 A 56.143108 56.143108 0 1 0 -30.230904,175.83524 A 56.143108 56.143108 0 1 0 82.055313 175.83524 z"
     transform="matrix(-1.219637,0.000000,0.000000,0.223596,121.7768,106.2929)" />
  <path
     sodipodi:type="arc"
     style="fill:url(#radialGradient5065);fill-opacity:0.75000000;fill-rule:evenodd;stroke-width:1.0000000pt;"
     id="path4093"
     sodipodi:cx="25.912205"
     sodipodi:cy="175.83524"
     sodipodi:rx="56.143108"
     sodipodi:ry="56.143108"
     d="M 82.055313 175.83524 A 56.143108 56.143108 0 1 0 -30.230904,175.83524 A 56.143108 56.143108 0 1 0 82.055313 175.83524 z"
     transform="matrix(-1.144870,0.000000,0.000000,0.265729,115.6418,98.88438)" />
  <path
     sodipodi:type="arc"
     style="fill:#474747;fill-opacity:1.0000000;fill-rule:evenodd;stroke:url(#linearGradient1672);stroke-width:0.53303164;stroke-linecap:butt;stroke-linejoin:miter;stroke-miterlimit:4.0000000;stroke-opacity:1.0000000;"
     id="path984"
     sodipodi:cx="363.21103"
     sodipodi:cy="672.39398"
     sodipodi:rx="54.879639"
     sodipodi:ry="38.960354"
     d="M 418.09067 672.39398 A 54.879639 38.960354 0 1 0 308.33139,672.39398 A 54.879639 38.960354 0 1 0 418.09067 672.39398 z"
     transform="matrix(0.963253,-0.822127,0.902719,1.057679,-868.0309,-318.5966)" />
  <path
     sodipodi:type="arc"
     style="fill:#cccccc;fill-rule:evenodd;stroke:#000000;stroke-width:1.2233455;stroke-linecap:butt;stroke-linejoin:miter;stroke-miterlimit:4.0000000;stroke-opacity:1.0000000;stroke-dasharray:none;fill-opacity:1.0000000;"
     id="path1868"
     sodipodi:cx="363.21103"
     sodipodi:cy="672.39398"
     sodipodi:rx="54.879639"
     sodipodi:ry="38.960354"
     d="M 418.09067 672.39398 A 54.879639 38.960354 0 1 0 308.33139,672.39398 A 54.879639 38.960354 0 1 0 418.09067 672.39398 z"
     transform="matrix(0.964206,-0.822940,0.903612,1.058724,-868.9770,-319.0046)" />
  <path
     sodipodi:type="arc"
     style="fill:#000000;fill-rule:evenodd;stroke:none;stroke-width:1.3776526;stroke-linecap:butt;stroke-linejoin:miter;stroke-miterlimit:4.0000000;stroke-opacity:1.0000000;fill-opacity:0.10588235;"
     id="path4096"
     sodipodi:cx="363.21103"
     sodipodi:cy="672.39398"
     sodipodi:rx="54.879639"
     sodipodi:ry="38.960354"
     d="M 418.09067 672.39398 A 54.879639 38.960354 0 1 0 308.33139,672.39398 A 54.879639 38.960354 0 1 0 418.09067 672.39398 z"
     transform="matrix(0.811419,-0.692539,0.760429,0.890961,-718.6244,-254.1647)" />
  <path
     sodipodi:type="arc"
     style="fill:#000000;fill-rule:evenodd;stroke:none;stroke-width:0.53303164;stroke-linecap:butt;stroke-linejoin:miter;stroke-miterlimit:4.0000000;stroke-opacity:1.0000000;fill-opacity:0.10588235;"
     id="path4097"
     sodipodi:cx="363.21103"
     sodipodi:cy="672.39398"
     sodipodi:rx="54.879639"
     sodipodi:ry="38.960354"
     d="M 418.09067 672.39398 A 54.879639 38.960354 0 1 0 308.33139,672.39398 A 54.879639 38.960354 0 1 0 418.09067 672.39398 z"
     transform="matrix(0.721270,-0.615596,0.675943,0.791975,-627.0249,-213.6817)" />
  <path
     sodipodi:type="arc"
     style="fill:#000000;fill-rule:evenodd;stroke:none;stroke-width:0.53303164;stroke-linecap:butt;stroke-linejoin:miter;stroke-miterlimit:4.0000000;stroke-opacity:1.0000000;fill-opacity:0.10588235;"
     id="path1871"
     sodipodi:cx="363.21103"
     sodipodi:cy="672.39398"
     sodipodi:rx="54.879639"
     sodipodi:ry="38.960354"
     d="M 418.09067 672.39398 A 54.879639 38.960354 0 1 0 308.33139,672.39398 A 54.879639 38.960354 0 1 0 418.09067 672.39398 z"
     transform="matrix(0.642026,-0.547964,0.617407,0.723391,-557.9621,-190.4732)" />
  <path
     sodipodi:type="arc"
     style="fill:#000000;fill-rule:evenodd;stroke:none;stroke-width:0.53303164;stroke-linecap:butt;stroke-linejoin:miter;stroke-miterlimit:4.0000000;stroke-opacity:1.0000000;fill-opacity:0.10588235;"
     id="path2772"
     sodipodi:cx="363.21103"
     sodipodi:cy="672.39398"
     sodipodi:rx="54.879639"
     sodipodi:ry="38.960354"
     d="M 418.09067 672.39398 A 54.879639 38.960354 0 1 0 308.33139,672.39398 A 54.879639 38.960354 0 1 0 418.09067 672.39398 z"
     transform="matrix(0.557764,-0.476045,0.536376,0.628451,-470.7012,-151.8521)" />
  <path
     sodipodi:type="arc"
     style="fill:#000000;fill-rule:evenodd;stroke:none;stroke-width:0.53303164;stroke-linecap:butt;stroke-linejoin:miter;stroke-miterlimit:4.0000000;stroke-opacity:1.0000000;fill-opacity:0.10588235;"
     id="path2773"
     sodipodi:cx="363.21103"
     sodipodi:cy="672.39398"
     sodipodi:rx="54.879639"
     sodipodi:ry="38.960354"
     d="M 418.09067 672.39398 A 54.879639 38.960354 0 1 0 308.33139,672.39398 A 54.879639 38.960354 0 1 0 418.09067 672.39398 z"
     transform="matrix(0.462031,-0.394338,0.436057,0.510911,-367.0803,-100.8606)" />
  <path
     sodipodi:type="arc"
     style="fill:#000000;fill-rule:evenodd;stroke:none;stroke-width:0.53303164;stroke-linecap:butt;stroke-linejoin:miter;stroke-miterlimit:4.0000000;stroke-opacity:1.0000000;fill-opacity:0.10588235;"
     id="path2774"
     sodipodi:cx="363.21103"
     sodipodi:cy="672.39398"
     sodipodi:rx="54.879639"
     sodipodi:ry="38.960354"
     d="M 418.09067 672.39398 A 54.879639 38.960354 0 1 0 308.33139,672.39398 A 54.879639 38.960354 0 1 0 418.09067 672.39398 z"
     transform="matrix(0.419329,-0.357893,0.395756,0.463690,-323.8401,-81.07757)" />
  <path
     sodipodi:type="arc"
     style="fill:#000000;fill-rule:evenodd;stroke:none;stroke-width:0.53303164;stroke-linecap:butt;stroke-linejoin:miter;stroke-miterlimit:4.0000000;stroke-opacity:1.0000000;fill-opacity:0.10588235;"
     id="path1875"
     sodipodi:cx="363.21103"
     sodipodi:cy="672.39398"
     sodipodi:rx="54.879639"
     sodipodi:ry="38.960354"
     d="M 418.09067 672.39398 A 54.879639 38.960354 0 1 0 308.33139,672.39398 A 54.879639 38.960354 0 1 0 418.09067 672.39398 z"
     transform="matrix(0.485850,-0.414668,0.458537,0.537249,-390.6555,-111.7815)" />
  <path
     sodipodi:type="arc"
     style="fill:#000000;fill-rule:evenodd;stroke:none;stroke-width:0.53303164;stroke-linecap:butt;stroke-linejoin:miter;stroke-miterlimit:4.0000000;stroke-opacity:1.0000000;fill-opacity:0.10588235;"
     id="path2776"
     sodipodi:cx="363.21103"
     sodipodi:cy="672.39398"
     sodipodi:rx="54.879639"
     sodipodi:ry="38.960354"
     d="M 418.09067 672.39398 A 54.879639 38.960354 0 1 0 308.33139,672.39398 A 54.879639 38.960354 0 1 0 418.09067 672.39398 z"
     transform="matrix(0.357667,-0.305266,0.342235,0.400983,-264.4903,-56.36452)" />
  <path
     sodipodi:type="arc"
     style="fill:#000000;fill-rule:evenodd;stroke:none;stroke-width:0.53303164;stroke-linecap:butt;stroke-linejoin:miter;stroke-miterlimit:4.0000000;stroke-opacity:1.0000000;fill-opacity:0.10588235;"
     id="path2777"
     sodipodi:cx="363.21103"
     sodipodi:cy="672.39398"
     sodipodi:rx="54.879639"
     sodipodi:ry="38.960354"
     d="M 418.09067 672.39398 A 54.879639 38.960354 0 1 0 308.33139,672.39398 A 54.879639 38.960354 0 1 0 418.09067 672.39398 z"
     transform="matrix(0.394173,-0.336423,0.372013,0.435874,-297.5991,-69.46407)" />
  <path
     sodipodi:type="arc"
     style="fill:#2e2e2e;fill-opacity:1.0000000;fill-rule:evenodd;stroke:none;stroke-width:1.0000000pt;stroke-linecap:butt;stroke-linejoin:miter;stroke-opacity:1.0000000;"
     id="path2778"
     sodipodi:cx="363.21103"
     sodipodi:cy="672.39398"
     sodipodi:rx="54.879639"
     sodipodi:ry="38.960354"
     d="M 418.09067 672.39398 A 54.879639 38.960354 0 1 0 308.33139,672.39398 A 54.879639 38.960354 0 1 0 418.09067 672.39398 z"
     transform="matrix(0.328869,-0.280686,0.301867,0.353686,-226.0921,-32.31617)" />
  <path
     sodipodi:type="arc"
     style="fill:url(#linearGradient1647);fill-rule:evenodd;stroke:none;stroke-width:1.0000000pt;stroke-linecap:butt;stroke-linejoin:miter;stroke-opacity:1.0000000;"
     id="path1879"
     sodipodi:cx="363.21103"
     sodipodi:cy="672.39398"
     sodipodi:rx="54.879639"
     sodipodi:ry="38.960354"
     d="M 418.09067 672.39398 A 54.879639 38.960354 0 1 0 308.33139,672.39398 A 54.879639 38.960354 0 1 0 418.09067 672.39398 z"
     transform="matrix(0.263628,-0.225003,0.241982,0.283521,-162.1297,-5.362686)" />
  <path
     sodipodi:type="arc"
     style="opacity:0.54491019;fill:url(#radialGradient1607);fill-opacity:0.75000000;fill-rule:evenodd;stroke:none;stroke-width:1.0000000pt;stroke-linecap:butt;stroke-linejoin:miter;stroke-opacity:1.0000000;"
     id="path1880"
     sodipodi:cx="299.78192"
     sodipodi:cy="709.33105"
     sodipodi:rx="27.252903"
     sodipodi:ry="27.252903"
     d="M 327.03482 709.33105 A 27.252903 27.252903 0 1 0 272.52902,709.33105 A 27.252903 27.252903 0 1 0 327.03482 709.33105 z"
     transform="matrix(0.176554,-0.150687,0.150687,0.176554,-75.74159,33.64512)" />
  <path
     sodipodi:type="arc"
     style="opacity:0.61077845;fill:url(#radialGradient1605);fill-opacity:0.75000000;fill-rule:evenodd;stroke:none;stroke-width:1.0000000pt;stroke-linecap:butt;stroke-linejoin:miter;stroke-opacity:1.0000000;"
     id="path1881"
     sodipodi:cx="299.78192"
     sodipodi:cy="709.33105"
     sodipodi:rx="27.252903"
     sodipodi:ry="27.252903"
     d="M 327.03482 709.33105 A 27.252903 27.252903 0 1 0 272.52902,709.33105 A 27.252903 27.252903 0 1 0 327.03482 709.33105 z"
     transform="matrix(-0.287656,-3.241979e-2,-0.106972,0.205832,260.7741,-21.58096)" />
  <path
     sodipodi:type="arc"
     style="fill:url(#radialGradient1875);fill-opacity:0.75000000;fill-rule:evenodd;stroke:none;stroke-width:1.0000000pt;stroke-linecap:butt;stroke-linejoin:miter;stroke-opacity:1.0000000;"
     id="path2823"
     sodipodi:cx="-289.09140"
     sodipodi:cy="598.36652"
     sodipodi:rx="125.20509"
     sodipodi:ry="125.20509"
     d="M -163.88631 598.36652 A 125.20509 125.20509 0 1 0 -414.29649,598.36652 A 125.20509 125.20509 0 1 0 -163.88631 598.36652 z"
     transform="matrix(-0.529501,0.000000,0.000000,7.901519e-2,-72.30102,79.12862)" />
  <path
     style="fill:#ffffff;fill-opacity:1.0000000;fill-rule:evenodd;stroke:#ffffff;stroke-width:5.6621422;stroke-linecap:round;stroke-linejoin:round;stroke-miterlimit:4.0000000;stroke-opacity:0.53797466;stroke-dasharray:none;"
     d="M 1047.0328,717.04548 L 1047.0328,718.76423 L 1047.0328,776.95173 C 1044.3161,775.28721 1040.2076,774.13925 1035.3765,774.13923 C 1027.1685,774.13923 1020.5328,777.25229 1020.5328,781.07673 C 1020.5328,784.90115 1027.1685,787.98296 1035.3765,787.98298 C 1043.5846,787.98298 1050.2515,784.90112 1050.2515,781.07673 C 1050.2515,781.01340 1050.2239,780.95216 1050.2203,780.88923 L 1050.2828,780.88923 L 1050.2828,720.60798 C 1052.1169,721.07869 1054.8175,721.83151 1057.6578,723.13923 C 1059.7546,724.10462 1061.5282,725.27904 1062.2828,726.35798 C 1063.0374,727.43691 1063.1333,728.28670 1061.6891,729.79548 C 1057.8832,733.77138 1057.5499,738.12811 1058.5641,741.48298 C 1059.0711,743.16040 1059.8948,744.59397 1060.8141,745.70173 C 1061.7333,746.80947 1062.5932,747.65019 1064.0015,747.98298 C 1064.0016,747.98301 1060.2894,742.78233 1060.4078,739.60798 C 1060.5262,736.43366 1061.0538,734.75969 1064.2203,731.45173 C 1066.2622,729.31860 1066.3392,726.86869 1065.0641,725.04548 C 1063.7889,723.22228 1061.5730,721.87866 1059.2203,720.79548 C 1054.5150,718.62911 1049.0641,717.48298 1049.0641,717.48298 L 1047.0328,717.04548 z M 958.59536,730.95173 L 958.59536,732.54548 L 958.59536,786.17048 C 956.09415,784.62591 952.31501,783.54549 947.84536,783.54548 C 940.28293,783.54548 934.15787,786.42811 934.15786,789.95173 C 934.15786,793.47532 940.28292,796.32672 947.84536,796.32673 C 955.40779,796.32673 961.56408,793.47529 961.56411,789.95173 C 961.56411,789.88942 961.53667,789.82611 961.53286,789.76423 L 961.56411,789.76423 L 961.56411,737.32673 C 963.19767,737.74596 993.35294,750.05258 997.78284,751.98298 L 997.78284,808.76423 C 994.92304,807.01251 990.61755,805.79549 985.53286,805.79548 C 976.89248,805.79548 969.87661,809.08214 969.87661,813.10798 C 969.87661,817.13382 976.89251,820.38922 985.53286,820.38923 C 994.17324,820.38923 1001.1890,817.13383 1001.1891,813.10798 C 1001.1891,813.04470 1001.1612,812.98338 1001.1578,812.92048 L 1001.1891,812.92048 L 1001.4703,747.10798 L 997.78284,745.70173 L 997.78284,745.79548 C 990.09420,742.60113 960.47036,731.35798 960.47036,731.35798 L 958.59536,730.95173 z "
     id="path2403"
     transform="matrix(0.883058,0.000000,0.000000,0.883058,-819.8009,-629.3529)" />
  <path
     sodipodi:type="arc"
     style="fill-rule:evenodd;stroke-width:1.0000000pt;fill:#000000;fill-opacity:0.10588235;stroke:none;stroke-opacity:1.0000000;"
     id="path2820"
     sodipodi:cx="-54.077988"
     sodipodi:cy="-23.926258"
     sodipodi:rx="21.692299"
     sodipodi:ry="12.221014"
     d="M -32.385689 -23.926258 A 21.692299 12.221014 0 1 0 -75.770287,-23.926258 A 21.692299 12.221014 0 1 0 -32.385689 -23.926258 z"
     transform="matrix(0.605320,0.000000,0.000000,0.500619,127.3815,72.27616)" />
  <path
     sodipodi:type="arc"
     style="fill:#000000;fill-opacity:0.10588235;fill-rule:evenodd;stroke-width:1.0000000pt;stroke:none;stroke-opacity:1.0000000;"
     id="path2821"
     sodipodi:cx="-54.383511"
     sodipodi:cy="-17.815750"
     sodipodi:rx="17.720470"
     sodipodi:ry="15.276267"
     d="M -36.663040 -17.815750 A 17.720470 15.276267 0 1 0 -72.103981,-17.815750 A 17.720470 15.276267 0 1 0 -36.663040 -17.815750 z"
     transform="matrix(0.638225,0.000000,0.000000,0.350434,129.3842,66.38854)" />
  <path
     style="fill:#000000;fill-opacity:1.0000000;fill-rule:evenodd;stroke:none;stroke-width:7.6144667;stroke-linecap:round;stroke-linejoin:round;stroke-miterlimit:4.0000000;stroke-opacity:0.53797466;"
     d="M 1047.0328,717.04548 L 1047.0328,718.76423 L 1047.0328,776.95173 C 1044.3161,775.28721 1040.2076,774.13925 1035.3765,774.13923 C 1027.1685,774.13923 1020.5328,777.25229 1020.5328,781.07673 C 1020.5328,784.90115 1027.1685,787.98296 1035.3765,787.98298 C 1043.5846,787.98298 1050.2515,784.90112 1050.2515,781.07673 C 1050.2515,781.01340 1050.2239,780.95216 1050.2203,780.88923 L 1050.2828,780.88923 L 1050.2828,720.60798 C 1052.1169,721.07869 1054.8175,721.83151 1057.6578,723.13923 C 1059.7546,724.10462 1061.5282,725.27904 1062.2828,726.35798 C 1063.0374,727.43691 1063.1333,728.28670 1061.6891,729.79548 C 1057.8832,733.77138 1057.5499,738.12811 1058.5641,741.48298 C 1059.0711,743.16040 1059.8948,744.59397 1060.8141,745.70173 C 1061.7333,746.80947 1062.5932,747.65019 1064.0015,747.98298 C 1064.0016,747.98301 1060.2894,742.78233 1060.4078,739.60798 C 1060.5262,736.43366 1061.0538,734.75969 1064.2203,731.45173 C 1066.2622,729.31860 1066.3392,726.86869 1065.0641,725.04548 C 1063.7889,723.22228 1061.5730,721.87866 1059.2203,720.79548 C 1054.5150,718.62911 1049.0641,717.48298 1049.0641,717.48298 L 1047.0328,717.04548 z M 958.59536,730.95173 L 958.59536,732.54548 L 958.59536,786.17048 C 956.09415,784.62591 952.31501,783.54549 947.84536,783.54548 C 940.28293,783.54548 934.15787,786.42811 934.15786,789.95173 C 934.15786,793.47532 940.28292,796.32672 947.84536,796.32673 C 955.40779,796.32673 961.56408,793.47529 961.56411,789.95173 C 961.56411,789.88942 961.53667,789.82611 961.53286,789.76423 L 961.56411,789.76423 L 961.56411,737.32673 C 963.19767,737.74596 993.35294,750.05258 997.78284,751.98298 L 997.78284,808.76423 C 994.92304,807.01251 990.61755,805.79549 985.53286,805.79548 C 976.89248,805.79548 969.87661,809.08214 969.87661,813.10798 C 969.87661,817.13382 976.89251,820.38922 985.53286,820.38923 C 994.17324,820.38923 1001.1890,817.13383 1001.1891,813.10798 C 1001.1891,813.04470 1001.1612,812.98338 1001.1578,812.92048 L 1001.1891,812.92048 L 1001.4703,747.10798 L 997.78284,745.70173 L 997.78284,745.79548 C 990.09420,742.60113 960.47036,731.35798 960.47036,731.35798 L 958.59536,730.95173 z "
     id="path1851"
     transform="matrix(0.883058,0.000000,0.000000,0.883058,-819.8009,-629.3529)" />
</svg>
