<?xml version="1.0" encoding="UTF-8" standalone="no"?>
<!DOCTYPE svg PUBLIC "-//W3C//DTD SVG 20010904//EN"
"http://www.w3.org/TR/2001/REC-SVG-20010904/DTD/svg10.dtd">
<!-- Created with Inkscape (http://www.inkscape.org/) -->
<svg
   id="svg1"
   sodipodi:version="0.32"
   inkscape:version="0.40cvs"
   width="128.00000pt"
   height="128.00000pt"
   sodipodi:docname="tsclient.svg"
   sodipodi:docbase="/home/andy/.icons/warty/scalable/apps"
   xmlns="http://www.w3.org/2000/svg"
   xmlns:cc="http://web.resource.org/cc/"
   xmlns:inkscape="http://www.inkscape.org/namespaces/inkscape"
   xmlns:sodipodi="http://sodipodi.sourceforge.net/DTD/sodipodi-0.dtd"
   xmlns:rdf="http://www.w3.org/1999/02/22-rdf-syntax-ns#"
   xmlns:dc="http://purl.org/dc/elements/1.1/"
   xmlns:xlink="http://www.w3.org/1999/xlink">
  <defs
     id="defs3">
    <linearGradient
       id="linearGradient1694">
      <stop
         style="stop-color:#0180d4;stop-opacity:1.0000000;"
         offset="0.00000000"
         id="stop1696" />
      <stop
         style="stop-color:#0180d4;stop-opacity:1.0000000;"
         offset="0.56999999"
         id="stop1698" />
      <stop
         style="stop-color:#013366;stop-opacity:1.0000000;"
         offset="1.0000000"
         id="stop1697" />
    </linearGradient>
    <radialGradient
       xlink:href="#linearGradient1694"
       id="radialGradient1505"
       cx="79.724411"
       cy="76.779894"
       r="78.184421"
       fx="77.554564"
       fy="34.908619"
       gradientUnits="userSpaceOnUse"
       gradientTransform="matrix(0.911326,0.000000,0.000000,0.911326,8.012980,-1.293149)" />
    <linearGradient
       inkscape:collect="always"
       xlink:href="#linearGradient1693"
       id="linearGradient1684"
       x1="88.009292"
       y1="-11.108592"
       x2="72.715558"
       y2="162.85263"
       gradientTransform="matrix(0.976070,0.000000,0.000000,0.850875,8.012983,-1.293142)"
       gradientUnits="userSpaceOnUse" />
    <linearGradient
       inkscape:collect="always"
       xlink:href="#linearGradient1693"
       id="linearGradient1681"
       gradientUnits="userSpaceOnUse"
       gradientTransform="matrix(0.850638,0.000000,0.000000,0.862207,10.49947,2.530065)"
       x1="92.480659"
       y1="-36.282169"
       x2="94.371857"
       y2="69.624741" />
    <linearGradient
       inkscape:collect="always"
       xlink:href="#linearGradient1693"
       id="linearGradient1687"
       gradientUnits="userSpaceOnUse"
       gradientTransform="matrix(0.936968,0.000000,0.000000,0.949712,3.250266,-3.893405)"
       x1="64.112701"
       y1="213.35556"
       x2="69.786293"
       y2="111.23103" />
    <linearGradient
       id="linearGradient4392">
      <stop
         style="stop-color:#ffffff;stop-opacity:0.20000000;"
         offset="0.0000000"
         id="stop4393" />
      <stop
         style="stop-color:#ffffff;stop-opacity:0.00000000;"
         offset="1.0000000"
         id="stop4394" />
    </linearGradient>
    <linearGradient
       inkscape:collect="always"
       xlink:href="#linearGradient1693"
       id="linearGradient3492"
       x1="-0.71367520"
       y1="-2.8906250"
       x2="0.89743590"
       y2="0.82031250" />
    <linearGradient
       inkscape:collect="always"
       xlink:href="#linearGradient1693"
       id="linearGradient3494"
       x1="-0.21428572"
       y1="-1.7812500"
       x2="0.50000000"
       y2="0.59375000" />
    <linearGradient
       inkscape:collect="always"
       xlink:href="#linearGradient2541"
       id="linearGradient3481"
       x1="0.47999999"
       y1="0.67948717"
       x2="1.6120000"
       y2="0.94871795" />
    <linearGradient
       inkscape:collect="always"
       xlink:href="#linearGradient1693"
       id="linearGradient3600"
       x1="0.49200001"
       y1="2.0000598"
       x2="0.49200001"
       y2="-0.14288515" />
    <linearGradient
       id="linearGradient1693">
      <stop
         style="stop-color:#ffffff;stop-opacity:1.0000000;"
         offset="0.00000000"
         id="stop1694" />
      <stop
         style="stop-color:#ffffff;stop-opacity:0.00000000;"
         offset="1.0000000"
         id="stop1695" />
    </linearGradient>
    <linearGradient
       inkscape:collect="always"
       xlink:href="#linearGradient1693"
       id="linearGradient3488"
       x1="0.28571430"
       y1="-0.085937500"
       x2="0.63095236"
       y2="0.85937500" />
    <linearGradient
       inkscape:collect="always"
       xlink:href="#MaterialSoftShadow"
       id="linearGradient3483"
       x1="0.76190478"
       y1="0.093750000"
       x2="1.1726191"
       y2="1.6406250" />
    <linearGradient
       inkscape:collect="always"
       id="linearGradient2541">
      <stop
         style="stop-color:#000000;stop-opacity:0.0000000;"
         offset="0.0000000"
         id="stop2542" />
      <stop
         style="stop-color:#000000;stop-opacity:1.0000000;"
         offset="1.0000000"
         id="stop2543" />
    </linearGradient>
    <linearGradient
       inkscape:collect="always"
       xlink:href="#linearGradient2541"
       id="linearGradient3490"
       x1="0.22000000"
       y1="0.35897437"
       x2="-1.3320000"
       y2="1.1923077" />
    <linearGradient
       id="MaterialSoftShadow">
      <stop
         style="stop-color:#000000;stop-opacity:0.21176471;"
         offset="0.00000000"
         id="stop2619" />
      <stop
         style="stop-color:#000000;stop-opacity:0.098159507;"
         offset="0.50000000"
         id="stop2621" />
      <stop
         style="stop-color:#000000;stop-opacity:0.0000000;"
         offset="1.0000000"
         id="stop2620" />
    </linearGradient>
    <radialGradient
       inkscape:collect="always"
       xlink:href="#MaterialSoftShadow"
       id="radialGradient2044" />
    <linearGradient
       inkscape:collect="always"
       xlink:href="#linearGradient1693"
       id="linearGradient4388"
       x1="0.054863922"
       y1="-2.6064758"
       x2="0.26532507"
       y2="-0.92618328"
       gradientTransform="matrix(0.721977,0.000000,0.000000,0.721977,-5.514434e-2,-1.233293)" />
    <linearGradient
       inkscape:collect="always"
       xlink:href="#linearGradient4392"
       id="linearGradient4391"
       x1="-5.8817968e-17"
       y1="0.50000000"
       x2="1.0000000"
       y2="0.50000000"
       gradientTransform="matrix(0.721977,0.000000,0.000000,0.721977,-6.880180e-2,-1.695460)" />
    <linearGradient
       inkscape:collect="always"
       xlink:href="#linearGradient4392"
       id="linearGradient6902"
       gradientTransform="matrix(0.972008,0.000000,0.000000,0.536262,31.38697,-141.2737)"
       x1="16.449108"
       y1="438.58474"
       x2="82.918744"
       y2="438.58474"
       gradientUnits="userSpaceOnUse" />
    <linearGradient
       inkscape:collect="always"
       xlink:href="#linearGradient2541"
       id="linearGradient6903"
       x1="32.230878"
       y1="257.91083"
       x2="104.42995"
       y2="275.08240"
       gradientTransform="matrix(1.927279,0.000000,0.000000,0.587026,15.97007,-9.421214)"
       gradientUnits="userSpaceOnUse" />
    <linearGradient
       inkscape:collect="always"
       xlink:href="#linearGradient1693"
       id="linearGradient6904"
       x1="19.410126"
       y1="1091.4825"
       x2="19.410126"
       y2="1036.0121"
       gradientTransform="matrix(2.579148,0.000000,0.000000,0.131274,29.05857,-19.55940)"
       gradientUnits="userSpaceOnUse" />
    <linearGradient
       inkscape:collect="always"
       xlink:href="#linearGradient1693"
       id="linearGradient6905"
       x1="27.202170"
       y1="296.79760"
       x2="68.981224"
       y2="411.19479"
       gradientTransform="matrix(0.664453,0.000000,0.000000,0.509555,43.60390,-99.05620)"
       gradientUnits="userSpaceOnUse" />
    <linearGradient
       inkscape:collect="always"
       xlink:href="#MaterialSoftShadow"
       id="linearGradient6906"
       x1="109.05686"
       y1="158.68078"
       x2="162.14838"
       y2="358.63958"
       gradientTransform="matrix(0.662891,0.000000,0.000000,0.510755,29.05857,-19.55940)"
       gradientUnits="userSpaceOnUse" />
    <linearGradient
       inkscape:collect="always"
       xlink:href="#linearGradient2541"
       id="linearGradient6907"
       x1="16.337922"
       y1="236.33603"
       x2="-82.648815"
       y2="289.48613"
       gradientTransform="matrix(1.927279,0.000000,0.000000,0.587026,15.97007,-9.421214)"
       gradientUnits="userSpaceOnUse" />
    <radialGradient
       inkscape:collect="always"
       xlink:href="#MaterialSoftShadow"
       id="radialGradient6908"
       cx="-289.09140"
       cy="598.36652"
       fx="-289.09140"
       fy="598.36652"
       r="125.20509"
       gradientUnits="userSpaceOnUse" />
    <radialGradient
       inkscape:collect="always"
       xlink:href="#MaterialSoftShadow"
       id="radialGradient6927"
       cx="-289.09140"
       cy="598.36652"
       fx="-289.09140"
       fy="598.36652"
       r="125.20509"
       gradientUnits="userSpaceOnUse" />
    <radialGradient
       inkscape:collect="always"
       xlink:href="#MaterialSoftShadow"
       id="radialGradient6928"
       cx="-289.09140"
       cy="598.36652"
       fx="-289.09140"
       fy="598.36652"
       r="125.20509"
       gradientUnits="userSpaceOnUse" />
  </defs>
  <sodipodi:namedview
     id="base"
     pagecolor="#ffffff"
     bordercolor="#666666"
     borderopacity="1.0"
     inkscape:pageopacity="0.0"
     inkscape:pageshadow="2"
     inkscape:zoom="1.0000000"
     inkscape:cx="41.313599"
     inkscape:cy="35.638916"
     inkscape:window-width="805"
     inkscape:window-height="524"
     inkscape:window-x="591"
     inkscape:window-y="133"
     inkscape:current-layer="svg1" />
  <metadata
     id="metadata31">
    <rdf:RDF
       id="RDF32">
      <cc:Work
         rdf:about=""
         id="Work33">
        <dc:format
           id="format34">image/svg+xml</dc:format>
        <dc:type
           id="type36"
           rdf:resource="http://purl.org/dc/dcmitype/StillImage" />
      </cc:Work>
    </rdf:RDF>
  </metadata>
  <path
     sodipodi:type="arc"
     style="fill:url(#radialGradient6928);fill-opacity:1.0000000;fill-rule:evenodd;stroke:none;stroke-width:1.0000000pt;stroke-linecap:butt;stroke-linejoin:miter;stroke-opacity:1.0000000;"
     id="path1881"
     sodipodi:cx="-289.09140"
     sodipodi:cy="598.36652"
     sodipodi:rx="125.20509"
     sodipodi:ry="125.20509"
     d="M -163.88631 598.36652 A 125.20509 125.20509 0 1 0 -414.29649,598.36652 A 125.20509 125.20509 0 1 0 -163.88631 598.36652 z"
     transform="matrix(-0.383427,0.000000,0.000000,0.106664,-35.39785,61.24962)" />
  <path
     sodipodi:type="arc"
     style="fill:url(#radialGradient6927);fill-opacity:1.0000000;fill-rule:evenodd;stroke:none;stroke-width:1.0000000pt;stroke-linecap:butt;stroke-linejoin:miter;stroke-opacity:1.0000000;"
     id="path1882"
     sodipodi:cx="-289.09140"
     sodipodi:cy="598.36652"
     sodipodi:rx="125.20509"
     sodipodi:ry="125.20509"
     d="M -163.88631 598.36652 A 125.20509 125.20509 0 1 0 -414.29649,598.36652 A 125.20509 125.20509 0 1 0 -163.88631 598.36652 z"
     transform="matrix(-0.535929,0.000000,0.000000,7.963729e-2,-71.00795,85.46509)" />
  <path
     d="M 144.58876,68.788123 C 144.58876,33.590210 116.05522,5.0566635 80.857301,5.0566635 C 45.659387,5.0566635 17.125843,33.590210 17.125843,68.788123 C 17.125843,103.98604 45.659387,132.51958 80.857301,132.51958 C 116.05522,132.51958 144.58876,103.98604 144.58876,68.788123 z "
     style="fill:#013366;fill-opacity:1.0000000;fill-rule:evenodd;stroke:none;stroke-width:8.7163954;stroke-linecap:butt;stroke-linejoin:miter;stroke-miterlimit:4.0000000;stroke-opacity:1.0000000;"
     id="path1883" />
  <path
     d="M 144.39934,68.678325 C 144.39934,33.480418 115.86579,4.9468760 80.667881,4.9468760 C 45.469977,4.9468760 16.936432,33.480418 16.936432,68.678325 C 16.936432,103.87623 45.469977,132.40978 80.667881,132.40978 C 115.86579,132.40978 144.39934,103.87623 144.39934,68.678325 z "
     style="fill:url(#radialGradient1505);fill-opacity:1.0000000;fill-rule:evenodd;stroke:#000000;stroke-width:1.0705042;stroke-linecap:butt;stroke-linejoin:miter;stroke-miterlimit:4.0000000;stroke-opacity:1.0000000;"
     id="path1884" />
  <path
     d="M 75.584305,8.6411469 C 70.365572,9.7802257 64.786009,10.063520 60.126353,12.921157 C 58.321525,13.068600 51.030330,15.929077 55.896577,16.425788 C 58.910611,15.570334 60.311439,12.436233 63.676530,12.699065 C 67.289302,11.624238 71.005023,10.345391 74.943535,9.5929658 C 75.350002,9.4040288 75.358343,8.9560671 75.584305,8.6411469 z M 83.267203,9.6523840 C 80.660217,12.650602 74.648804,12.459988 74.289577,17.343698 C 75.518251,19.032367 81.563910,11.084459 83.341641,15.994237 C 83.691782,19.286026 81.498019,23.441126 77.697429,21.296052 C 75.853301,21.142096 73.556796,21.521164 73.633435,19.870881 C 72.676405,22.291845 65.051109,26.976707 67.729485,21.756766 C 69.120438,20.711421 65.783197,20.521351 68.075746,18.725666 C 70.104643,16.665515 63.666031,16.859712 66.103903,19.081992 C 64.691566,21.029426 64.054906,23.100772 61.279080,23.439661 C 63.648338,23.175272 66.111139,22.792062 64.293518,25.321042 C 65.665476,30.475322 57.052567,27.784107 55.995671,31.588743 C 52.863770,36.628150 60.686218,36.361659 62.919230,33.878709 C 62.542121,29.218554 67.337826,30.594023 69.854264,30.133957 C 72.497759,28.171684 75.288992,34.242032 76.597336,36.412025 C 78.312481,37.317137 80.194650,33.770270 77.582448,32.853039 C 77.892252,31.111014 72.282887,28.162784 75.833107,28.035742 C 78.206065,29.297769 79.541111,31.912326 79.988557,33.614818 C 84.717950,33.400615 78.044632,38.866356 82.583938,37.203923 C 85.460075,36.689063 82.274048,31.892000 86.092135,33.773231 C 90.917848,35.626295 84.435149,27.546511 89.944194,27.512344 C 92.503607,26.000994 91.130467,32.764743 92.706387,29.458554 C 93.601165,24.102581 100.76544,31.456037 97.500412,33.600525 C 93.349186,32.446044 89.167925,32.109256 87.369922,36.783857 C 87.119108,38.985163 93.415857,33.607883 92.681320,37.534288 C 94.008805,41.698229 87.470508,42.456578 85.004101,41.013924 C 82.736627,38.284282 80.624813,40.828176 78.937065,42.070180 C 76.306116,41.702475 67.553708,41.007186 71.253713,37.085827 C 72.232368,32.991746 66.143032,36.713166 63.926746,35.790828 C 61.128482,37.306770 56.817039,35.964259 54.579994,38.224802 C 54.260076,40.846173 50.067587,39.400921 49.381171,42.555392 C 47.796782,46.146325 42.546378,47.345549 42.414099,51.194675 C 42.263406,55.496643 40.237129,59.411307 42.487449,63.649596 C 43.028551,67.984446 47.134953,70.666264 51.336443,69.648013 C 53.769271,69.595713 56.051543,72.639659 57.762602,68.968998 C 60.520050,64.426456 63.339818,71.500895 66.796493,69.663986 C 69.643161,72.942824 64.415572,76.843267 68.877631,79.138793 C 72.618889,83.102281 71.507269,88.607311 69.872763,93.209499 C 69.898026,96.915411 74.762895,98.844563 74.673795,102.51763 C 74.302278,107.77467 79.033281,112.38684 84.195176,109.84623 C 87.540698,108.90310 88.895408,104.93006 92.325125,104.01262 C 94.928214,101.81554 93.796708,95.397008 98.548539,95.240800 C 105.03313,93.072199 100.38092,85.319830 102.14812,80.930700 C 104.74026,77.868801 105.84054,73.337185 109.81118,71.641281 C 112.88024,68.954008 110.85415,63.537757 113.96712,60.494082 C 111.33031,62.526684 106.89320,64.304915 104.00675,61.836034 C 99.539586,57.960779 95.865983,53.113336 93.587959,47.645752 C 92.521832,45.228368 92.589445,40.366932 95.232237,40.389704 C 95.648655,45.462792 99.237147,49.549210 101.74122,53.761117 C 104.13724,56.498527 105.80840,60.790446 110.25484,59.355667 C 114.01151,58.082155 119.16144,55.592781 119.24388,51.138792 C 118.89323,46.095021 109.89884,50.805359 108.12445,45.658787 C 104.57553,43.544418 110.53977,40.052176 111.61518,43.972521 C 113.91835,46.322236 118.04951,45.080367 119.74318,48.255358 C 123.17162,46.722825 125.91442,47.801443 127.32690,51.398240 C 130.34864,54.390565 131.16658,58.925098 131.05408,63.025677 C 135.01954,66.891561 133.80069,57.400617 134.84920,55.066951 C 135.00708,52.853541 135.23066,50.127524 136.16289,53.747772 C 139.06448,55.138307 137.04251,49.226523 136.38008,47.895603 C 131.29153,36.270084 129.65596,34.140272 124.07412,27.447592 C 114.86203,18.412270 107.37644,14.556435 97.177797,11.193896 C 96.436314,14.815687 91.907542,11.627562 89.747487,14.660553 C 87.481067,16.373580 87.469797,16.154993 89.058862,13.880216 C 87.904747,11.810832 85.283998,10.821280 83.267203,9.6523840 z M 67.198480,13.697308 C 64.933422,12.625155 59.321779,16.164015 64.346512,15.925239 C 65.767439,16.221241 66.241527,14.376112 67.198480,13.697308 z M 63.992132,19.000102 C 62.183879,19.691585 57.889256,20.909153 61.685144,21.720077 C 62.772031,21.209720 63.480149,20.038527 63.992132,19.000102 z M 74.351093,34.415224 C 71.601276,35.794755 74.171069,38.536807 75.622458,35.927918 C 75.277798,35.356179 74.737323,34.953022 74.351093,34.415224 z M 136.38153,63.765605 C 132.34297,66.518265 141.16566,68.589838 136.38153,63.765605 z M 20.953118,70.794907 C 20.718849,75.840642 22.014048,81.159712 23.140689,86.601562 C 24.594451,89.176391 25.572215,94.449475 27.245123,95.194092 C 28.988417,91.195952 25.403092,86.724132 27.493797,82.587722 C 24.977015,80.608071 28.363594,76.220013 24.272289,75.023962 C 22.984635,73.764868 22.025532,72.229158 20.953118,70.794907 z M 109.49757,87.073265 C 109.08019,91.731848 102.73708,92.825922 103.91985,97.547608 C 105.04988,100.02288 103.36589,100.20554 103.10600,102.21187 C 105.43825,104.00112 107.42071,98.176611 109.20816,96.595331 C 109.62503,94.293347 115.06131,86.533773 109.49757,87.073265 z "
     style="fill:url(#linearGradient1684);fill-opacity:1.0000000;fill-rule:evenodd;stroke:none;stroke-width:1.0000000pt;stroke-linecap:butt;stroke-linejoin:miter;stroke-opacity:1.0000000;"
     id="path1683" />
  <path
     d="M 75.584305,8.6411469 C 70.365572,9.7802257 64.786009,10.063520 60.126353,12.921157 C 58.321525,13.068600 51.030330,15.929077 55.896577,16.425788 C 58.910611,15.570334 60.311439,12.436233 63.676530,12.699065 C 67.289302,11.624238 71.005023,10.345391 74.943535,9.5929658 C 75.350002,9.4040288 75.358343,8.9560671 75.584305,8.6411469 z M 83.267203,9.6523840 C 80.660217,12.650602 74.648804,12.459988 74.289577,17.343698 C 75.518251,19.032367 81.563910,11.084459 83.341641,15.994237 C 83.691782,19.286026 81.498019,23.441126 77.697429,21.296052 C 75.853301,21.142096 73.556796,21.521164 73.633435,19.870881 C 72.676405,22.291845 65.051109,26.976707 67.729485,21.756766 C 69.120438,20.711421 65.783197,20.521351 68.075746,18.725666 C 70.104643,16.665515 63.666031,16.859712 66.103903,19.081992 C 64.691566,21.029426 64.054906,23.100772 61.279080,23.439661 C 63.648338,23.175272 66.111139,22.792062 64.293518,25.321042 C 65.665476,30.475322 57.052567,27.784107 55.995671,31.588743 C 52.863770,36.628150 60.686218,36.361659 62.919230,33.878709 C 62.542121,29.218554 67.337826,30.594023 69.854264,30.133957 C 72.497759,28.171684 75.288992,34.242032 76.597336,36.412025 C 78.312481,37.317137 80.194650,33.770270 77.582448,32.853039 C 77.892252,31.111014 72.282887,28.162784 75.833107,28.035742 C 78.206065,29.297769 79.541111,31.912326 79.988557,33.614818 C 84.717950,33.400615 78.044632,38.866356 82.583938,37.203923 C 85.460075,36.689063 82.274048,31.892000 86.092135,33.773231 C 90.917848,35.626295 84.435149,27.546511 89.944194,27.512344 C 92.503607,26.000994 91.130467,32.764743 92.706387,29.458554 C 93.601165,24.102581 100.76544,31.456037 97.500412,33.600525 C 93.349186,32.446044 89.167925,32.109256 87.369922,36.783857 C 87.119108,38.985163 93.415857,33.607883 92.681320,37.534288 C 94.008805,41.698229 87.470508,42.456578 85.004101,41.013924 C 82.736627,38.284282 80.624813,40.828176 78.937065,42.070180 C 76.306116,41.702475 67.553708,41.007186 71.253713,37.085827 C 72.232368,32.991746 66.143032,36.713166 63.926746,35.790828 C 61.128482,37.306770 56.817039,35.964259 54.579994,38.224802 C 54.260076,40.846173 50.067587,39.400921 49.381171,42.555392 C 47.796782,46.146325 42.546378,47.345549 42.414099,51.194675 C 42.263406,55.496643 40.237129,59.411307 42.487449,63.649596 C 43.028551,67.984446 47.134953,70.666264 51.336443,69.648013 C 53.769271,69.595713 56.051543,72.639659 57.762602,68.968998 C 60.520050,64.426456 63.339818,71.500895 66.796493,69.663986 C 69.643161,72.942824 64.415572,76.843267 68.877631,79.138793 C 72.618889,83.102281 71.507269,88.607311 69.872763,93.209499 C 69.898026,96.915411 74.762895,98.844563 74.673795,102.51763 C 74.302278,107.77467 79.033281,112.38684 84.195176,109.84623 C 87.540698,108.90310 88.895408,104.93006 92.325125,104.01262 C 94.928214,101.81554 93.796708,95.397008 98.548539,95.240800 C 105.03313,93.072199 100.38092,85.319830 102.14812,80.930700 C 104.74026,77.868801 105.84054,73.337185 109.81118,71.641281 C 112.88024,68.954008 110.85415,63.537757 113.96712,60.494082 C 111.33031,62.526684 106.89320,64.304915 104.00675,61.836034 C 99.539586,57.960779 95.865983,53.113336 93.587959,47.645752 C 92.521832,45.228368 92.589445,40.366932 95.232237,40.389704 C 95.648655,45.462792 99.237147,49.549210 101.74122,53.761117 C 104.13724,56.498527 105.80840,60.790446 110.25484,59.355667 C 114.01151,58.082155 119.16144,55.592781 119.24388,51.138792 C 118.89323,46.095021 109.89884,50.805359 108.12445,45.658787 C 104.57553,43.544418 110.53977,40.052176 111.61518,43.972521 C 113.91835,46.322236 118.04951,45.080367 119.74318,48.255358 C 123.17162,46.722825 125.91442,47.801443 127.32690,51.398240 C 130.34864,54.390565 131.16658,58.925098 131.05408,63.025677 C 135.01954,66.891561 133.80069,57.400617 134.84920,55.066951 C 135.00708,52.853541 135.23066,50.127524 136.16289,53.747772 C 139.06448,55.138307 137.04251,49.226523 136.38008,47.895603 C 131.29153,36.270084 129.65596,34.140272 124.07412,27.447592 C 114.86203,18.412270 107.37644,14.556435 97.177797,11.193896 C 96.436314,14.815687 91.907542,11.627562 89.747487,14.660553 C 87.481067,16.373580 87.469797,16.154993 89.058862,13.880216 C 87.904747,11.810832 85.283998,10.821280 83.267203,9.6523840 z M 67.198480,13.697308 C 64.933422,12.625155 59.321779,16.164015 64.346512,15.925239 C 65.767439,16.221241 66.241527,14.376112 67.198480,13.697308 z M 63.992132,19.000102 C 62.183879,19.691585 57.889256,20.909153 61.685144,21.720077 C 62.772031,21.209720 63.480149,20.038527 63.992132,19.000102 z M 74.351093,34.415224 C 71.601276,35.794755 74.171069,38.536807 75.622458,35.927918 C 75.277798,35.356179 74.737323,34.953022 74.351093,34.415224 z M 136.38153,63.765605 C 132.34297,66.518265 141.16566,68.589838 136.38153,63.765605 z M 20.953118,70.794907 C 20.718849,75.840642 22.014048,81.159712 23.140689,86.601562 C 24.594451,89.176391 25.572215,94.449475 27.245123,95.194092 C 28.988417,91.195952 25.403092,86.724132 27.493797,82.587722 C 24.977015,80.608071 28.363594,76.220013 24.272289,75.023962 C 22.984635,73.764868 22.025532,72.229158 20.953118,70.794907 z M 109.49757,87.073265 C 109.08019,91.731848 102.73708,92.825922 103.91985,97.547608 C 105.04988,100.02288 103.36589,100.20554 103.10600,102.21187 C 105.43825,104.00112 107.42071,98.176611 109.20816,96.595331 C 109.62503,94.293347 115.06131,86.533773 109.49757,87.073265 z "
     style="fill:#fdfdfd;fill-opacity:0.58854169;fill-rule:evenodd;stroke:none;stroke-width:1.0000000pt;stroke-linecap:butt;stroke-linejoin:miter;stroke-opacity:1.0000000;"
     id="path1885" />
  <path
     d="M 144.58876,68.788123 C 144.58876,33.590210 116.05522,5.0566635 80.857301,5.0566635 C 45.659387,5.0566635 17.125843,33.590210 17.125843,68.788123 C 17.125843,103.98604 45.659387,132.51958 80.857301,132.51958 C 116.05522,132.51958 144.58876,103.98604 144.58876,68.788123 z "
     style="fill:none;fill-opacity:1.0000000;fill-rule:evenodd;stroke:none;stroke-width:3.7500000;stroke-linecap:butt;stroke-linejoin:miter;stroke-miterlimit:4.0000000;stroke-opacity:1.0000000;"
     id="path1886" />
  <path
     d="M 144.58876,68.788123 C 144.58876,33.590210 116.05522,5.0566635 80.857301,5.0566635 C 45.659387,5.0566635 17.125843,33.590210 17.125843,68.788123 C 17.125843,103.98604 45.659387,132.51958 80.857301,132.51958 C 116.05522,132.51958 144.58876,103.98604 144.58876,68.788123 z "
     style="fill:none;fill-opacity:0.94117647;fill-rule:evenodd;stroke:none;stroke-width:5.8040280;stroke-linecap:butt;stroke-linejoin:miter;stroke-miterlimit:4.0000000;stroke-opacity:1.0000000;"
     id="path1887" />
  <path
     d="M 134.21135,65.822246 C 134.21135,36.554148 110.80321,12.827669 81.927796,12.827669 C 53.052376,12.827669 29.644224,36.554148 29.644224,65.822246 C 29.644224,95.090348 53.052376,118.81682 81.927796,118.81682 C 110.80321,118.81682 134.21135,95.090348 134.21135,65.822246 z "
     style="fill:url(#linearGradient1681);fill-opacity:1.0000000;fill-rule:evenodd;stroke:none;stroke-width:2.3390312;stroke-linecap:butt;stroke-linejoin:miter;stroke-miterlimit:4.0000000;stroke-opacity:1.0000000;"
     id="path1888" />
  <path
     d="M 139.51756,65.822246 C 139.51756,33.583756 113.73376,7.4492960 81.927796,7.4492960 C 50.121840,7.4492960 24.338019,33.583756 24.338019,65.822246 C 24.338019,98.060740 50.121840,124.19520 81.927796,124.19520 C 113.73376,124.19520 139.51756,98.060740 139.51756,65.822246 z "
     style="fill:url(#linearGradient1687);fill-opacity:1.0000000;fill-rule:evenodd;stroke:none;stroke-width:2.3390312;stroke-linecap:butt;stroke-linejoin:miter;stroke-miterlimit:4.0000000;stroke-opacity:1.0000000;"
     id="path1685" />
  <path
     sodipodi:type="arc"
     style="fill:url(#radialGradient6908);fill-opacity:1.0000000;fill-rule:evenodd;stroke:none;stroke-width:1.0000000pt;stroke-linecap:butt;stroke-linejoin:miter;stroke-opacity:1.0000000;"
     id="path2163"
     sodipodi:cx="-289.09140"
     sodipodi:cy="598.36652"
     sodipodi:rx="125.20509"
     sodipodi:ry="125.20509"
     d="M -163.88631 598.36652 A 125.20509 125.20509 0 1 0 -414.29649,598.36652 A 125.20509 125.20509 0 1 0 -163.88631 598.36652 z"
     transform="matrix(-0.505000,0.000000,0.000000,5.661497e-2,-62.52825,119.0114)" />
  <path
     style="fill:#eeeeee;fill-opacity:1.0000000;fill-rule:evenodd;stroke:#000000;stroke-width:1.3295677;stroke-miterlimit:4.0000000;stroke-opacity:1.0000000;"
     d="M 37.405906,117.32123 L 37.643451,121.21108 L 20.317736,143.21859 L 19.417780,146.34259 L 19.417780,151.54924 C 19.417780,152.96158 21.197067,153.98911 22.417633,153.97902 L 139.78230,153.00807 C 141.08604,152.99728 142.48385,151.06958 142.32776,149.57184 L 141.90352,145.50096 L 139.35806,142.06475 L 122.25653,120.83348 L 122.17468,116.53857 L 37.405906,117.32123 z "
     id="path2165"
     sodipodi:nodetypes="cccczzzzccccc" />
  <path
     style="fill:#eeeeee;fill-opacity:1.0000000;fill-rule:evenodd;stroke:none;stroke-width:1.2758383;stroke-miterlimit:4.0000000;stroke-opacity:1.0000000;"
     d="M 37.782416,117.18538 L 37.255687,86.574024 L 36.728956,59.960368 C 36.728956,56.932667 38.175147,55.962663 40.726657,55.962663 L 116.68299,55.962663 C 119.32978,55.962663 120.68070,57.313595 120.68070,59.960368 L 120.88481,86.400463 L 121.08892,116.83826 L 115.04888,116.49115 L 115.04888,120.65648 L 68.814404,120.30937 L 68.814404,117.68357 L 65.286270,117.63321 L 65.204138,120.65648 L 45.418849,120.65648 L 45.215519,116.88037 L 37.782416,117.18538 z "
     id="path2166"
     sodipodi:nodetypes="cczzzzccccccccccc" />
  <path
     style="fill:#cccccc;fill-opacity:1.0000000;fill-rule:evenodd;stroke:none;stroke-width:1.0000000pt;stroke-opacity:1.0000000;"
     d="M 41.026702,121.98044 L 29.903267,137.64675 C 27.670245,140.79176 30.335405,141.58007 31.600243,141.57386 L 131.72167,141.08297 C 132.61605,141.07858 134.97510,141.34957 132.57017,138.13764 L 120.70083,122.28544 L 41.026702,121.98044 z "
     id="path2168"
     sodipodi:nodetypes="czzzzcc" />
  <path
     style="fill:#666666;fill-opacity:1.0000000;fill-rule:evenodd;stroke:none;stroke-width:1.0000000pt;stroke-opacity:1.0000000;"
     d="M 62.866531,141.31384 L 66.206783,130.74958 L 94.710257,130.74958 L 98.273193,141.05618 L 62.866531,141.31384 z "
     id="path2169"
     sodipodi:nodetypes="ccccc" />
  <path
     style="fill:#cccccc;fill-opacity:1.0000000;fill-rule:evenodd;stroke:none;stroke-width:2.5038331;stroke-linecap:round;stroke-linejoin:round;stroke-opacity:1.0000000;"
     d="M 137.49202,143.72238 L 23.427969,144.06510 C 22.906117,144.06510 22.483073,144.50897 22.483073,145.05652 C 22.483073,145.60407 22.906117,146.04794 23.427969,146.04794 L 137.51534,145.68075 C 137.86142,145.69645 138.18740,145.51008 138.36241,145.19643 C 138.53743,144.88278 138.53279,144.49330 138.35035,144.18433 C 138.16793,143.87538 137.83760,143.69760 137.49202,143.72238 z "
     id="path2170" />
  <path
     style="fill:url(#linearGradient6907);fill-opacity:1.0000000;fill-rule:evenodd;stroke:none;stroke-width:2.2849834;stroke-miterlimit:4.0000000;stroke-opacity:1.0000000;"
     d="M 38.403090,116.65656 L 38.640636,120.54641 L 21.314907,142.55394 L 20.414950,145.67794 L 20.414950,150.88459 C 20.414950,152.29693 22.194239,153.32447 23.414806,153.31437 L 140.77956,152.34342 C 142.08331,152.33263 143.48112,150.40493 143.32503,148.90718 L 142.90079,144.83631 L 140.35532,141.40010 L 123.25378,120.16881 L 123.17194,115.87389 L 38.403090,116.65656 z "
     id="path2173"
     sodipodi:nodetypes="cccczzzzccccc" />
  <path
     style="fill:url(#linearGradient6906);fill-opacity:1.0000000;fill-rule:evenodd;stroke:#000000;stroke-width:1.3295679;stroke-miterlimit:4.0000000;stroke-opacity:1.0000000;"
     d="M 37.782416,117.18538 L 37.255687,86.574024 L 36.728956,59.960368 C 36.728956,56.932667 38.175147,55.962663 40.726657,55.962663 L 116.68299,55.962663 C 119.32978,55.962663 120.68070,57.313595 120.68070,59.960368 L 120.88481,86.400463 L 121.08892,116.83826 L 115.04888,116.49115 L 115.04888,120.65648 L 68.814404,120.30937 L 68.814404,117.68357 L 65.286270,117.63321 L 65.204138,120.65648 L 45.418849,120.65648 L 45.215519,116.88037 L 37.782416,117.18538 z "
     id="path2167"
     sodipodi:nodetypes="cczzzzccccccccccc" />
  <path
     style="fill:url(#linearGradient6905);fill-opacity:1.0000000;fill-rule:evenodd;stroke:none;stroke-width:1.2758383;stroke-miterlimit:4.0000000;stroke-opacity:1.0000000;"
     d="M 39.708608,115.83291 L 39.206548,86.655260 L 38.704487,61.288068 C 38.704487,58.402169 40.082945,57.477597 42.514954,57.477597 L 114.91383,57.477597 C 117.43666,57.477597 118.72430,58.765257 118.72430,61.288068 L 118.91885,86.489828 L 119.11340,115.50205 L 113.35625,115.17120 L 113.35625,119.14144 L 69.287195,118.81059 L 69.287195,116.30777 L 65.924303,116.25977 L 65.846018,119.14144 L 46.987384,119.14144 L 46.793577,115.54219 L 39.708608,115.83291 z "
     id="path2172"
     sodipodi:nodetypes="cczzzzccccccccccc" />
  <path
     style="fill:url(#linearGradient6904);fill-opacity:1.0000000;fill-rule:evenodd;stroke:none;stroke-width:1.0000000pt;stroke-opacity:1.0000000;"
     d="M 46.273451,116.92759 L 46.348408,120.12575 L 64.462982,119.97583 L 64.462982,116.92759 L 46.273451,116.92759 z M 70.309617,116.92759 L 70.384574,120.12575 L 113.03503,120.32563 L 112.78517,116.92759 L 70.309617,116.92759 z "
     id="path2174" />
  <path
     style="fill:#eeeeee;fill-opacity:1.0000000;fill-rule:evenodd;stroke:none;stroke-width:1.0000000pt;stroke-opacity:1.0000000;"
     d="M 42.789031,123.27093 L 37.571093,130.77266 L 124.44687,130.99883 L 118.34238,122.90277 L 42.789031,123.27093 z "
     id="path2175"
     sodipodi:nodetypes="ccccc" />
  <path
     style="fill:url(#linearGradient6903);fill-opacity:1.0000000;fill-rule:evenodd;stroke:none;stroke-width:1.2503220;stroke-miterlimit:4.0000000;stroke-opacity:1.0000000;"
     d="M 37.073525,117.32133 L 37.311070,121.21117 L 19.985344,143.21870 L 19.085387,146.34270 L 19.085387,151.54936 C 19.085387,152.96170 20.864676,153.98923 22.085243,153.97914 L 139.44999,153.00818 C 140.75374,152.99739 142.15154,151.06969 141.99545,149.57195 L 141.57121,145.50107 L 139.02575,142.06486 L 121.92420,120.83357 L 121.84236,116.53866 L 37.073525,117.32133 z "
     id="path2171"
     sodipodi:nodetypes="cccczzzzccccc" />
  <path
     style="fill:#0166c9;fill-opacity:1.0000000;fill-rule:evenodd;stroke:none;stroke-width:1.2758383;stroke-miterlimit:4.0000000;stroke-opacity:1.0000000;"
     d="M 44.724359,63.958067 L 44.724359,111.93049 L 112.68530,111.93049 L 112.68530,63.958067 L 44.724359,63.958067 z "
     id="path2176"
     sodipodi:nodetypes="ccccc" />
  <path
     style="fill:url(#linearGradient6902);fill-opacity:1.0000000;fill-rule:evenodd;stroke:none;stroke-width:1.0000000pt;stroke-opacity:1.0000000;"
     d="M 47.375634,103.55084 C 47.375634,103.55084 52.088755,87.579775 77.609326,93.307991 C 102.25187,98.839136 105.35808,76.509716 111.98465,76.100002 L 111.98465,111.33541 L 47.682449,111.74513 L 47.375634,103.55084 z "
     id="path2178"
     sodipodi:nodetypes="czcccc" />
</svg>
