<?xml version="1.0" encoding="UTF-8" standalone="no"?>
<!DOCTYPE svg PUBLIC "-//W3C//DTD SVG 20010904//EN"
"http://www.w3.org/TR/2001/REC-SVG-20010904/DTD/svg10.dtd">
<!-- Created by Andrew Fitzsimon (http://andy.fitzsimon.com.au/) -->
<!-- Created using Inkscape (http://www.inkscape.org/) -->
<svg
   id="ubuntuicon"
   sodipodi:version="0.32"
   inkscape:version="0.40cvs"
   width="160.00000"
   height="160.00000"
   sodipodi:docname="gnome-network-proxy.svg"
   version="1.0"
   x="0.00000000"
   y="0.00000000"
   sodipodi:docbase="/home/andy/.icons/warty/scalable/apps"
   xmlns="http://www.w3.org/2000/svg"
   xmlns:cc="http://web.resource.org/cc/"
   xmlns:inkscape="http://www.inkscape.org/namespaces/inkscape"
   xmlns:sodipodi="http://sodipodi.sourceforge.net/DTD/sodipodi-0.dtd"
   xmlns:rdf="http://www.w3.org/1999/02/22-rdf-syntax-ns#"
   xmlns:dc="http://purl.org/dc/elements/1.1/"
   xmlns:xlink="http://www.w3.org/1999/xlink">
  <defs
     id="definitions">
    <linearGradient
       inkscape:collect="always"
       xlink:href="#linearGradient1693"
       id="linearGradient1688"
       x1="0.61538464"
       y1="-0.50000000"
       x2="0.65384614"
       y2="0.66406250" />
    <linearGradient
       inkscape:collect="always"
       xlink:href="#linearGradient1693"
       id="linearGradient1720"
       x1="0.28378379"
       y1="0.14062500"
       x2="0.64864862"
       y2="1.5468750" />
    <radialGradient
       inkscape:collect="always"
       xlink:href="#linearGradient1694"
       id="radialGradient5258"
       cx="0.50000000"
       cy="0.50000000"
       r="0.51538461"
       fx="0.50769234"
       fy="0.27343750" />
    <linearGradient
       inkscape:collect="always"
       xlink:href="#MaterialSoftShadow"
       id="linearGradient1778"
       x1="0.54400003"
       y1="0.13829787"
       x2="0.62000000"
       y2="0.69148934" />
    <linearGradient
       inkscape:collect="always"
       xlink:href="#linearGradient1693"
       id="linearGradient1828"
       x1="-0.30434781"
       y1="-0.71875000"
       x2="0.42028984"
       y2="0.34375000" />
    <linearGradient
       inkscape:collect="always"
       xlink:href="#linearGradient1693"
       id="linearGradient1775"
       x1="0.68316829"
       y1="1.2031250"
       x2="0.56435645"
       y2="0.39062500" />
    <linearGradient
       inkscape:collect="always"
       xlink:href="#linearGradient1693"
       id="linearGradient1769"
       x1="0.13861386"
       y1="-0.25781250"
       x2="0.52475250"
       y2="0.69531250" />
    <linearGradient
       id="linearGradient1693">
      <stop
         style="stop-color:#ffffff;stop-opacity:1.0000000;"
         offset="0.00000000"
         id="stop1694" />
      <stop
         style="stop-color:#ffffff;stop-opacity:0.00000000;"
         offset="1.0000000"
         id="stop1695" />
    </linearGradient>
    <linearGradient
       id="linearGradient1653">
      <stop
         style="stop-color:#000000;stop-opacity:0.00000000;"
         offset="0.00000000"
         id="stop1654" />
      <stop
         style="stop-color:#000000;stop-opacity:0.34020618;"
         offset="0.50000000"
         id="stop1657" />
      <stop
         style="stop-color:#000000;stop-opacity:0.00000000;"
         offset="1.0000000"
         id="stop1656" />
    </linearGradient>
    <linearGradient
       inkscape:collect="always"
       xlink:href="#linearGradient1653"
       id="linearGradient1652"
       x1="3.7079714e-017"
       y1="0.50000000"
       x2="1.0000000"
       y2="0.50000000" />
    <linearGradient
       inkscape:collect="always"
       xlink:href="#linearGradient1536"
       id="linearGradient1535"
       x1="0.54802263"
       y1="0.60156250"
       x2="-0.20338982"
       y2="0.60937500" />
    <linearGradient
       id="linearGradient1536">
      <stop
         style="stop-color:#d1940c;stop-opacity:0.0000000;"
         offset="0.0000000"
         id="stop1537" />
      <stop
         style="stop-color:#eed680;stop-opacity:0.41290322;"
         offset="0.50000000"
         id="stop1645" />
      <stop
         style="stop-color:#ffffff;stop-opacity:1.0000000;"
         offset="1.0000000"
         id="stop1538" />
    </linearGradient>
    <linearGradient
       inkscape:collect="always"
       xlink:href="#linearGradient1536"
       id="linearGradient1551"
       x1="0.41242939"
       y1="0.56250000"
       x2="1.4745762"
       y2="0.54687500" />
    <radialGradient
       inkscape:collect="always"
       xlink:href="#MaterialSoftShadow"
       id="radialGradient2044" />
    <linearGradient
       id="linearGradient1513">
      <stop
         style="stop-color:#ffffff;stop-opacity:1.0000000;"
         offset="0.0000000"
         id="stop1514" />
      <stop
         style="stop-color:#ffffff;stop-opacity:0.0000000;"
         offset="1.0000000"
         id="stop1515" />
    </linearGradient>
    <linearGradient
       id="linearGradient1694">
      <stop
         style="stop-color:#0180d4;stop-opacity:1.0000000;"
         offset="0.00000000"
         id="stop1696" />
      <stop
         style="stop-color:#0180d4;stop-opacity:1.0000000;"
         offset="0.56999999"
         id="stop1698" />
      <stop
         style="stop-color:#013366;stop-opacity:1.0000000;"
         offset="1.0000000"
         id="stop1697" />
    </linearGradient>
    <radialGradient
       xlink:href="#linearGradient1693"
       id="radialGradient1505"
       cx="0.50000000"
       cy="0.50000000"
       r="0.50000000"
       fx="0.50000000"
       fy="0.50000000" />
    <linearGradient
       id="MaterialSoftShadow">
      <stop
         style="stop-color:#000000;stop-opacity:0.21472393;"
         offset="0.0000000"
         id="stop2619" />
      <stop
         style="stop-color:#000000;stop-opacity:0.098159507;"
         offset="0.50000000"
         id="stop2621" />
      <stop
         style="stop-color:#000000;stop-opacity:0.0000000;"
         offset="1.0000000"
         id="stop2620" />
    </linearGradient>
    <radialGradient
       inkscape:collect="always"
       xlink:href="#linearGradient1694"
       id="radialGradient4696"
       cx="0.52904779"
       cy="0.30779290"
       r="0.053101361"
       fx="0.52711844"
       fy="0.30878222"
       gradientTransform="matrix(0.337935,0.000000,0.000000,0.337935,5.745192e-2,0.272486)" />
    <radialGradient
       inkscape:collect="always"
       xlink:href="#linearGradient1694"
       id="radialGradient4698"
       cx="0.42774126"
       cy="0.45352888"
       r="0.58347785"
       fx="0.43821457"
       fy="0.21120593"
       gradientTransform="matrix(0.975900,0.000000,0.000000,0.975900,-6.680992e-3,3.698185e-6)" />
    <linearGradient
       inkscape:collect="always"
       xlink:href="#MaterialSoftShadow"
       id="linearGradient4699"
       x1="1.7076184e-17"
       y1="0.50000000"
       x2="1.0000000"
       y2="0.50000000"
       gradientTransform="matrix(0.806761,0.000000,0.000000,0.806761,-3.326216e-2,-0.457502)" />
    <linearGradient
       inkscape:collect="always"
       xlink:href="#linearGradient1513"
       id="linearGradient4701"
       x1="0.22952718"
       y1="0.094125696"
       x2="0.26623377"
       y2="1.5447762"
       gradientTransform="matrix(0.730883,0.000000,0.000000,0.730883,-2.972060e-2,-2.623027e-2)" />
    <linearGradient
       inkscape:collect="always"
       xlink:href="#linearGradient1693"
       id="linearGradient4705"
       x1="78.690994"
       y1="-30.327187"
       x2="78.690994"
       y2="22.236766"
       gradientUnits="userSpaceOnUse" />
    <linearGradient
       inkscape:collect="always"
       xlink:href="#linearGradient1693"
       id="linearGradient4707"
       gradientUnits="userSpaceOnUse"
       x1="79.270744"
       y1="91.226952"
       x2="77.080574"
       y2="14.571188" />
  </defs>
  <sodipodi:namedview
     id="base"
     pagecolor="#ffffff"
     bordercolor="#666666"
     borderopacity="1.0"
     inkscape:pageopacity="0.0"
     inkscape:pageshadow="2"
     inkscape:zoom="1.0000000"
     inkscape:cx="99.385101"
     inkscape:cy="66.311310"
     inkscape:window-width="640"
     inkscape:window-height="524"
     inkscape:window-x="483"
     inkscape:window-y="22"
     showgrid="false"
     gridempspacing="5"
     gridtolerance="5.0000000mm"
     inkscape:grid-points="false"
     gridspacingx="1.2500000mm"
     gridspacingy="1.2500000mm"
     showguides="true"
     inkscape:guide-bbox="true"
     inkscape:grid-bbox="false"
     showborder="true"
     inkscape:current-layer="ubuntuicon" />
  <metadata
     id="metadata1293">
    <rdf:RDF
       id="RDF1294">
      <cc:Work
         rdf:about=""
         id="Work1295">
        <dc:format
           id="imageformat">image/svg+xml</dc:format>
        <dc:type
           id="type1298"
           rdf:resource="http://purl.org/dc/dcmitype/StillImage" />
        <dc:creator
           id="creator1299">
          <cc:Agent
             id="Agent1300">
            <dc:title
               id="title1301">Ubuntu Icon</dc:title>
          </cc:Agent>
        </dc:creator>
        <dc:rights
           id="rights1303">
          <cc:Agent
             id="Agent1304">
            <dc:title
               id="creator">Andrew Fitzsimon</dc:title>
          </cc:Agent>
          <cc:Agent
             id="Agent1332">
            <dc:title
               id="company">Canonical Software</dc:title>
          </cc:Agent>
          <cc:Agent
             id="Agent1335">
            <dc:title
               id="owner">Mark Shuttleworth</dc:title>
          </cc:Agent>
        </dc:rights>
        <dc:date
           id="date1307">2004-09-01</dc:date>
        <dc:description
           id="description1309">Icon for the Ubuntu Icon Set</dc:description>
        <dc:contributor
           id="contributor1311">
          <cc:Agent
             id="Agent1312">
            <dc:title
               id="title1313">Andrew Fitzsimon</dc:title>
          </cc:Agent>
        </dc:contributor>
      </cc:Work>
    </rdf:RDF>
  </metadata>
  <path
     sodipodi:type="arc"
     style="fill:url(#radialGradient2044);fill-opacity:1.0000000;fill-rule:evenodd;stroke:none;stroke-width:1.0000000pt;stroke-linecap:butt;stroke-linejoin:miter;stroke-opacity:1.0000000;"
     id="path1804"
     sodipodi:cx="-289.09140"
     sodipodi:cy="598.36652"
     sodipodi:rx="125.20509"
     sodipodi:ry="125.20509"
     d="M -163.88631 598.36652 A 125.20509 125.20509 0 1 0 -414.29649,598.36652 A 125.20509 125.20509 0 1 0 -163.88631 598.36652 z"
     transform="matrix(-0.481778,0.000000,0.000000,0.382662,-58.18094,-119.2557)" />
  <path
     sodipodi:type="arc"
     style="fill:url(#radialGradient2044);fill-opacity:1.0000000;fill-rule:evenodd;stroke:none;stroke-width:1.0000000pt;stroke-linecap:butt;stroke-linejoin:miter;stroke-opacity:1.0000000;"
     id="path1805"
     sodipodi:cx="-289.09140"
     sodipodi:cy="598.36652"
     sodipodi:rx="125.20509"
     sodipodi:ry="125.20509"
     d="M -163.88631 598.36652 A 125.20509 125.20509 0 1 0 -414.29649,598.36652 A 125.20509 125.20509 0 1 0 -163.88631 598.36652 z"
     transform="matrix(-0.496055,0.000000,0.000000,4.648724e-2,-61.97942,126.8290)" />
  <path
     sodipodi:type="arc"
     style="fill:url(#radialGradient2044);fill-opacity:1.0000000;fill-rule:evenodd;stroke:none;stroke-width:1.0000000pt;stroke-linecap:butt;stroke-linejoin:miter;stroke-opacity:1.0000000;"
     id="path1803"
     sodipodi:cx="-289.09140"
     sodipodi:cy="598.36652"
     sodipodi:rx="125.20509"
     sodipodi:ry="125.20509"
     d="M -163.88631 598.36652 A 125.20509 125.20509 0 1 0 -414.29649,598.36652 A 125.20509 125.20509 0 1 0 -163.88631 598.36652 z"
     transform="matrix(-0.520659,0.000000,0.000000,4.648724e-2,-69.09208,126.8290)" />
  <path
     style="fill:#cccccc;fill-opacity:1.0000000;fill-rule:evenodd;stroke:#000000;stroke-width:2.0142273;stroke-linecap:butt;stroke-linejoin:miter;stroke-miterlimit:4.0000000;stroke-opacity:1.0000000;stroke-dasharray:none;"
     d="M 19.265676,134.78019 L 141.54975,134.78019 C 144.16999,134.78019 147.10812,131.84205 147.10812,129.22182 L 147.10812,90.313247 L 130.43302,29.171205 C 129.74360,26.643295 127.49489,23.612839 124.87465,23.612839 L 35.940777,23.612839 C 33.320539,23.612839 31.071841,26.643295 30.382411,29.171205 L 13.707308,90.313247 L 13.707308,129.22182 C 13.707308,131.84205 16.645436,134.78019 19.265676,134.78019 z "
     id="path2654"
     sodipodi:nodetypes="czzczzzzczz"
     transform="matrix(0.806761,0.000000,0.000000,0.806761,16.55625,45.35316)" />
  <path
     style="fill:#cccccc;fill-opacity:1.0000000;fill-rule:evenodd;stroke:none;stroke-width:1.3200000pt;stroke-linecap:butt;stroke-linejoin:miter;stroke-opacity:1.0000000;"
     d="M 141.01040,82.082354 L 128.65899,30.137201 C 127.82818,26.643163 124.40095,24.365517 120.80951,24.365517 L 41.622002,24.365517 C 38.030549,24.365517 35.195479,26.676773 34.234247,30.137201 L 19.805039,82.082354 L 141.01040,82.082354 z "
     id="path1807"
     sodipodi:nodetypes="czzzzcc"
     transform="matrix(0.806761,0.000000,0.000000,0.806761,16.55625,45.35316)" />
  <path
     style="fill:url(#linearGradient1769);fill-opacity:1.0000000;fill-rule:evenodd;stroke:none;stroke-width:1.3200000pt;stroke-linecap:butt;stroke-linejoin:miter;stroke-opacity:1.0000000;"
     d="M 141.01040,82.082354 L 128.65899,30.137201 C 127.82818,26.643163 124.40095,24.365517 120.80951,24.365517 L 41.622002,24.365517 C 38.030549,24.365517 35.195479,26.676773 34.234247,30.137201 L 19.805039,82.082354 L 141.01040,82.082354 z "
     id="path1768"
     sodipodi:nodetypes="czzzzcc"
     transform="matrix(0.806761,0.000000,0.000000,0.806761,16.55625,45.35316)" />
  <path
     style="fill:url(#linearGradient1775);fill-opacity:1.0000000;fill-rule:evenodd;stroke:none;stroke-width:1.3200000pt;stroke-linecap:butt;stroke-linejoin:miter;stroke-opacity:1.0000000;"
     d="M 141.01040,82.082354 L 128.42812,34.621717 C 127.53591,31.256222 124.40095,27.251358 120.80951,27.251358 L 41.622002,27.251358 C 38.030549,27.251358 35.001816,31.284258 34.003380,34.621717 L 19.805039,82.082354 L 141.01040,82.082354 z "
     id="path1774"
     sodipodi:nodetypes="czzzzcc"
     transform="matrix(0.806761,0.000000,0.000000,0.806761,16.55625,45.35316)" />
  <path
     style="fill:url(#linearGradient1828);fill-opacity:0.75000000;fill-rule:evenodd;stroke:none;stroke-width:1.0000000pt;stroke-linecap:butt;stroke-linejoin:miter;stroke-opacity:1.0000000;"
     d="M 66.555568,25.550994 C 49.532708,25.588416 39.996916,33.495401 35.828308,50.000000 L 27.678643,82.266674 C 23.510037,98.771273 41.383018,113.01924 58.405899,112.99393 L 121.33497,112.90038 L 109.11049,25.457443 L 66.555568,25.550994 z "
     id="rect1826"
     sodipodi:nodetypes="czzzccz"
     transform="matrix(0.806761,0.000000,0.000000,0.806761,16.55625,45.35316)" />
  <path
     sodipodi:type="arc"
     style="fill:url(#radialGradient4698);fill-opacity:1.0;fill-rule:evenodd;stroke:#000000;stroke-width:1.0000000pt;stroke-linecap:butt;stroke-linejoin:miter;stroke-opacity:1.0000000;"
     id="path4697"
     sodipodi:cx="81.593071"
     sodipodi:cy="52.474251"
     sodipodi:rx="51.865360"
     sodipodi:ry="51.865360"
     d="M 133.45843 52.474251 A 51.865360 51.865360 0 1 0 29.727711,52.474251 A 51.865360 51.865360 0 1 0 133.45843 52.474251 z"
     transform="matrix(0.975900,0.000000,0.000000,0.975900,0.701370,2.529629)" />
  <path
     style="fill:#eeeeee;fill-opacity:1.0000000;fill-rule:evenodd;stroke:none;stroke-width:1.0000000pt;stroke-linecap:butt;stroke-linejoin:miter;stroke-opacity:1.0000000;"
     d="M 22.209905,131.14166 C 19.715841,131.14166 16.919196,128.34502 16.919196,125.85096 L 16.919196,92.423282 C 16.919196,89.929221 19.715841,87.132577 22.209905,87.132577 L 138.60552,87.132577 C 141.09958,87.132577 143.89623,89.929221 143.89623,92.423282 L 143.89623,125.85096 C 143.89623,128.34502 141.09958,131.14166 138.60552,131.14166 L 22.209905,131.14166 z "
     id="path1761"
     sodipodi:nodetypes="czzzzzzzz"
     transform="matrix(0.806761,0.000000,0.000000,0.806761,16.55625,45.35316)" />
  <path
     style="fill:url(#linearGradient4699);fill-opacity:1.0;fill-rule:evenodd;stroke:none;stroke-width:1.0000000pt;stroke-linecap:butt;stroke-linejoin:miter;stroke-opacity:1.0000000;"
     d="M 25.576723,130.93223 C 23.226942,130.93223 20.592086,128.64865 20.592086,126.61215 L 20.592086,96.371689 C 20.592086,94.335183 23.226942,92.051622 25.576723,92.051622 L 135.23871,92.051622 C 137.58849,92.051622 140.22334,94.335183 140.22334,96.371689 L 140.22334,126.61215 C 140.22334,128.64865 137.58849,130.93223 135.23871,130.93223 L 25.576723,130.93223 z "
     id="path1777"
     sodipodi:nodetypes="czzzzzzzz"
     transform="matrix(0.806761,0.000000,0.000000,0.806761,16.55625,45.35316)" />
  <path
     sodipodi:type="arc"
     style="fill:url(#radialGradient2044);fill-opacity:1.0000000;fill-rule:evenodd;stroke:none;stroke-width:1.0000000pt;stroke-linecap:butt;stroke-linejoin:miter;stroke-opacity:1.0000000;"
     id="path7309"
     sodipodi:cx="-289.09140"
     sodipodi:cy="598.36652"
     sodipodi:rx="125.20509"
     sodipodi:ry="125.20509"
     d="M -163.88631 598.36652 A 125.20509 125.20509 0 1 0 -414.29649,598.36652 A 125.20509 125.20509 0 1 0 -163.88631 598.36652 z"
     transform="matrix(-0.307509,0.000000,0.000000,9.583046e-2,-12.82079,48.35901)" />
  <path
     sodipodi:type="arc"
     style="fill:url(#radialGradient2044);fill-opacity:1.0000000;fill-rule:evenodd;stroke:none;stroke-width:1.0000000pt;stroke-linecap:butt;stroke-linejoin:miter;stroke-opacity:1.0000000;"
     id="path7310"
     sodipodi:cx="-289.09140"
     sodipodi:cy="598.36652"
     sodipodi:rx="125.20509"
     sodipodi:ry="125.20509"
     d="M -163.88631 598.36652 A 125.20509 125.20509 0 1 0 -414.29649,598.36652 A 125.20509 125.20509 0 1 0 -163.88631 598.36652 z"
     transform="matrix(-0.429815,0.000000,0.000000,6.386911e-2,-41.38011,68.35388)" />
  <path
     d="M 74.146182,10.900920 C 68.419654,12.150835 62.297186,12.461694 57.184133,15.597388 C 55.203691,15.759177 47.203040,18.897988 52.542782,19.443030 C 55.850097,18.504337 57.387227,15.065280 61.079753,15.353686 C 65.044056,14.174275 69.121328,12.770993 73.443066,11.945354 C 73.889082,11.738033 73.898236,11.246483 74.146182,10.900920 z M 82.576650,12.010554 C 79.715997,15.300508 73.119655,15.091346 72.725473,20.450256 C 74.073704,22.303236 80.707620,13.581974 82.658331,18.969488 C 83.042547,22.581577 80.635323,27.140981 76.464926,24.787184 C 74.441354,24.618249 71.921391,25.034201 72.005493,23.223341 C 70.955337,25.879872 62.588081,31.020584 65.527065,25.292728 C 67.053366,24.145668 63.391401,23.937103 65.907020,21.966692 C 68.133337,19.706083 61.068229,19.919176 63.743315,22.357690 C 62.193550,24.494615 61.494944,26.767510 58.449023,27.139373 C 61.048812,26.849259 63.751258,26.428761 61.756770,29.203819 C 63.262228,34.859625 53.811254,31.906547 52.651525,36.081386 C 49.214872,41.611140 57.798471,41.318720 60.248759,38.594171 C 59.834961,33.480570 65.097300,34.989875 67.858594,34.485044 C 70.759308,32.331836 73.822142,38.992846 75.257791,41.373987 C 77.139821,42.367168 79.205129,38.475180 76.338756,37.468700 C 76.678699,35.557171 70.523532,32.322069 74.419201,32.182666 C 77.023053,33.567492 78.488001,36.436453 78.978987,38.304603 C 84.168565,38.069557 76.845909,44.067131 81.826904,42.242938 C 84.982895,41.677981 81.486862,36.414150 85.676461,38.478430 C 90.971731,40.511802 83.858238,31.645832 89.903335,31.608341 C 92.711787,29.949932 91.205036,37.371812 92.934299,33.743923 C 93.916138,27.866798 101.77752,35.935766 98.194796,38.288918 C 93.639637,37.022104 89.051529,36.652545 87.078581,41.781998 C 86.803358,44.197497 93.712795,38.296993 92.906790,42.605448 C 94.363447,47.174553 87.188950,48.006692 84.482557,46.423664 C 81.994447,43.428418 79.677146,46.219841 77.825178,47.582696 C 74.938227,47.179212 65.334186,46.416269 69.394215,42.113352 C 70.468099,37.620904 63.786245,41.704429 61.354314,40.692344 C 58.283769,42.355793 53.552810,40.882652 51.098095,43.363152 C 50.747043,46.239590 46.146615,44.653710 45.393406,48.115121 C 43.654857,52.055462 37.893573,53.371374 37.748417,57.595031 C 37.583063,62.315593 35.359631,66.611165 37.828905,71.261852 C 38.422664,76.018497 42.928626,78.961262 47.538937,77.843933 C 50.208484,77.786544 52.712828,81.126675 54.590381,77.098848 C 57.616138,72.114304 60.710279,79.877106 64.503290,77.861461 C 67.626947,81.459338 61.890701,85.739307 66.786931,88.258193 C 70.892227,92.607340 69.672439,98.648026 67.878890,103.69802 C 67.906615,107.76453 73.244847,109.88139 73.147082,113.91186 C 72.739418,119.68043 77.930754,124.74137 83.594918,121.95355 C 87.265972,120.91866 88.752494,116.55903 92.515940,115.55232 C 95.372315,113.14145 94.130705,106.09838 99.344907,105.92697 C 106.46046,103.54736 101.35558,95.040664 103.29473,90.224458 C 106.13910,86.864628 107.34644,81.892073 111.70344,80.031151 C 115.07112,77.082400 112.84790,71.139131 116.26376,67.799298 C 113.37038,70.029678 108.50152,71.980937 105.33422,69.271825 C 100.43239,65.019498 96.401329,59.700383 93.901646,53.700787 C 92.731785,51.048186 92.805972,45.713717 95.705923,45.738705 C 96.162851,51.305419 100.10052,55.789458 102.84824,60.411195 C 105.47741,63.414964 107.31117,68.124499 112.19027,66.550111 C 116.31248,65.152683 121.96350,62.421086 122.05396,57.533711 C 121.66920,51.999166 111.79962,57.167834 109.85259,51.520485 C 105.95834,49.200381 112.50292,45.368335 113.68297,49.670141 C 116.21025,52.248489 120.74338,50.885784 122.60186,54.369711 C 126.36388,52.688056 129.37357,53.871629 130.92348,57.818403 C 134.23925,61.101891 135.13678,66.077647 135.01333,70.577224 C 139.36464,74.819270 138.02720,64.404829 139.17772,61.844091 C 139.35098,59.415310 139.59630,56.424043 140.61924,60.396553 C 143.80316,61.922390 141.58445,55.435372 140.85757,53.974950 C 135.27389,41.218235 133.47917,38.881185 127.35419,31.537287 C 117.24575,21.622802 109.03179,17.391784 97.840792,13.702059 C 97.027158,17.676261 92.057720,14.177922 89.687490,17.506032 C 87.200541,19.385741 87.188170,19.145886 88.931858,16.649767 C 87.665443,14.379026 84.789685,13.293187 82.576650,12.010554 z M 64.944399,16.449061 C 62.458942,15.272584 56.301270,19.155785 61.814923,18.893776 C 63.374106,19.218580 63.894326,17.193914 64.944399,16.449061 z M 61.426063,22.267833 C 59.441857,23.026598 54.729353,24.362640 58.894592,25.252468 C 60.087236,24.692452 60.864257,23.407299 61.426063,22.267833 z M 72.792978,39.182890 C 69.775594,40.696655 72.595439,43.705516 74.188051,40.842774 C 73.809854,40.215403 73.216792,39.773018 72.792978,39.182890 z M 140.85916,71.389150 C 136.42763,74.409651 146.10879,76.682795 140.85916,71.389150 z M 14.199229,79.102423 C 13.942162,84.639123 15.363385,90.475754 16.599656,96.447112 C 18.194871,99.272479 19.267777,105.05865 21.103461,105.87572 C 23.016383,101.48855 19.082194,96.581608 21.376331,92.042714 C 18.614654,89.870437 22.330760,85.055408 17.841364,83.742978 C 16.428415,82.361370 15.375988,80.676231 14.199229,79.102423 z M 111.35931,96.964712 C 110.90132,102.07659 103.94101,103.27712 105.23886,108.45824 C 106.47885,111.17435 104.63099,111.37480 104.34582,113.57634 C 106.90500,115.53970 109.08036,109.14845 111.04175,107.41330 C 111.49917,104.88733 117.46441,96.372727 111.35931,96.964712 z "
     style="fill:url(#linearGradient4701);fill-opacity:1.0;fill-rule:evenodd;stroke:none;stroke-width:1.0000000pt;stroke-linecap:butt;stroke-linejoin:miter;stroke-opacity:1.0000000;"
     id="path3950"
     transform="matrix(0.730883,0.000000,0.000000,0.730883,21.99470,-1.226223)" />
  <path
     d="M 276.25000,26.750000 C 276.25000,-56.783068 208.53307,-124.50000 125.00000,-124.50000 C 41.466932,-124.50000 -26.250000,-56.783068 -26.250000,26.750000 C -26.250000,110.28307 41.466932,178.00000 125.00000,178.00000 C 208.53307,178.00000 276.25000,110.28307 276.25000,26.750000 z "
     transform="matrix(0.337935,0.000000,0.000000,0.337935,38.17398,45.93920)"
     style="fill:none;fill-opacity:1.0000000;fill-rule:evenodd;stroke:none;stroke-width:3.7500000;stroke-linecap:butt;stroke-linejoin:miter;stroke-miterlimit:4.0000000;stroke-opacity:1.0000000;"
     id="path3952" />
  <path
     d="M 74.146182,10.900920 C 68.419654,12.150835 62.297186,12.461694 57.184133,15.597388 C 55.203691,15.759177 47.203040,18.897988 52.542782,19.443030 C 55.850097,18.504337 57.387227,15.065280 61.079753,15.353686 C 65.044056,14.174275 69.121328,12.770993 73.443066,11.945354 C 73.889082,11.738033 73.898236,11.246483 74.146182,10.900920 z M 82.576650,12.010554 C 79.715997,15.300508 73.119655,15.091346 72.725473,20.450256 C 74.073704,22.303236 80.707620,13.581974 82.658331,18.969488 C 83.042547,22.581577 80.635323,27.140981 76.464926,24.787184 C 74.441354,24.618249 71.921391,25.034201 72.005493,23.223341 C 70.955337,25.879872 62.588081,31.020584 65.527065,25.292728 C 67.053366,24.145668 63.391401,23.937103 65.907020,21.966692 C 68.133337,19.706083 61.068229,19.919176 63.743315,22.357690 C 62.193550,24.494615 61.494944,26.767510 58.449023,27.139373 C 61.048812,26.849259 63.751258,26.428761 61.756770,29.203819 C 63.262228,34.859625 53.811254,31.906547 52.651525,36.081386 C 49.214872,41.611140 57.798471,41.318720 60.248759,38.594171 C 59.834961,33.480570 65.097300,34.989875 67.858594,34.485044 C 70.759308,32.331836 73.822142,38.992846 75.257791,41.373987 C 77.139821,42.367168 79.205129,38.475180 76.338756,37.468700 C 76.678699,35.557171 70.523532,32.322069 74.419201,32.182666 C 77.023053,33.567492 78.488001,36.436453 78.978987,38.304603 C 84.168565,38.069557 76.845909,44.067131 81.826904,42.242938 C 84.982895,41.677981 81.486862,36.414150 85.676461,38.478430 C 90.971731,40.511802 83.858238,31.645832 89.903335,31.608341 C 92.711787,29.949932 91.205036,37.371812 92.934299,33.743923 C 93.916138,27.866798 101.77752,35.935766 98.194796,38.288918 C 93.639637,37.022104 89.051529,36.652545 87.078581,41.781998 C 86.803358,44.197497 93.712795,38.296993 92.906790,42.605448 C 94.363447,47.174553 87.188950,48.006692 84.482557,46.423664 C 81.994447,43.428418 79.677146,46.219841 77.825178,47.582696 C 74.938227,47.179212 65.334186,46.416269 69.394215,42.113352 C 70.468099,37.620904 63.786245,41.704429 61.354314,40.692344 C 58.283769,42.355793 53.552810,40.882652 51.098095,43.363152 C 50.747043,46.239590 46.146615,44.653710 45.393406,48.115121 C 43.654857,52.055462 37.893573,53.371374 37.748417,57.595031 C 37.583063,62.315593 35.359631,66.611165 37.828905,71.261852 C 38.422664,76.018497 42.928626,78.961262 47.538937,77.843933 C 50.208484,77.786544 52.712828,81.126675 54.590381,77.098848 C 57.616138,72.114304 60.710279,79.877106 64.503290,77.861461 C 67.626947,81.459338 61.890701,85.739307 66.786931,88.258193 C 70.892227,92.607340 69.672439,98.648026 67.878890,103.69802 C 67.906615,107.76453 73.244847,109.88139 73.147082,113.91186 C 72.739418,119.68043 77.930754,124.74137 83.594918,121.95355 C 87.265972,120.91866 88.752494,116.55903 92.515940,115.55232 C 95.372315,113.14145 94.130705,106.09838 99.344907,105.92697 C 106.46046,103.54736 101.35558,95.040664 103.29473,90.224458 C 106.13910,86.864628 107.34644,81.892073 111.70344,80.031151 C 115.07112,77.082400 112.84790,71.139131 116.26376,67.799298 C 113.37038,70.029678 108.50152,71.980937 105.33422,69.271825 C 100.43239,65.019498 96.401329,59.700383 93.901646,53.700787 C 92.731785,51.048186 92.805972,45.713717 95.705923,45.738705 C 96.162851,51.305419 100.10052,55.789458 102.84824,60.411195 C 105.47741,63.414964 107.31117,68.124499 112.19027,66.550111 C 116.31248,65.152683 121.96350,62.421086 122.05396,57.533711 C 121.66920,51.999166 111.79962,57.167834 109.85259,51.520485 C 105.95834,49.200381 112.50292,45.368335 113.68297,49.670141 C 116.21025,52.248489 120.74338,50.885784 122.60186,54.369711 C 126.36388,52.688056 129.37357,53.871629 130.92348,57.818403 C 134.23925,61.101891 135.13678,66.077647 135.01333,70.577224 C 139.36464,74.819270 138.02720,64.404829 139.17772,61.844091 C 139.35098,59.415310 139.59630,56.424043 140.61924,60.396553 C 143.80316,61.922390 141.58445,55.435372 140.85757,53.974950 C 135.27389,41.218235 133.47917,38.881185 127.35419,31.537287 C 117.24575,21.622802 109.03179,17.391784 97.840792,13.702059 C 97.027158,17.676261 92.057720,14.177922 89.687490,17.506032 C 87.200541,19.385741 87.188170,19.145886 88.931858,16.649767 C 87.665443,14.379026 84.789685,13.293187 82.576650,12.010554 z M 64.944399,16.449061 C 62.458942,15.272584 56.301270,19.155785 61.814923,18.893776 C 63.374106,19.218580 63.894326,17.193914 64.944399,16.449061 z M 61.426063,22.267833 C 59.441857,23.026598 54.729353,24.362640 58.894592,25.252468 C 60.087236,24.692452 60.864257,23.407299 61.426063,22.267833 z M 72.792978,39.182890 C 69.775594,40.696655 72.595439,43.705516 74.188051,40.842774 C 73.809854,40.215403 73.216792,39.773018 72.792978,39.182890 z M 140.85916,71.389150 C 136.42763,74.409651 146.10879,76.682795 140.85916,71.389150 z M 14.199229,79.102423 C 13.942162,84.639123 15.363385,90.475754 16.599656,96.447112 C 18.194871,99.272479 19.267777,105.05865 21.103461,105.87572 C 23.016383,101.48855 19.082194,96.581608 21.376331,92.042714 C 18.614654,89.870437 22.330760,85.055408 17.841364,83.742978 C 16.428415,82.361370 15.375988,80.676231 14.199229,79.102423 z M 111.35931,96.964712 C 110.90132,102.07659 103.94101,103.27712 105.23886,108.45824 C 106.47885,111.17435 104.63099,111.37480 104.34582,113.57634 C 106.90500,115.53970 109.08036,109.14845 111.04175,107.41330 C 111.49917,104.88733 117.46441,96.372727 111.35931,96.964712 z "
     style="fill:#ffffff;fill-opacity:0.17948718;fill-rule:evenodd;stroke:none;stroke-width:1.0000000pt;stroke-linecap:butt;stroke-linejoin:miter;stroke-opacity:1.0000000;"
     id="path4702"
     transform="matrix(0.730883,0.000000,0.000000,0.730883,21.99470,-1.226223)" />
  <path
     d="M 276.25000,26.750000 C 276.25000,-56.783068 208.53307,-124.50000 125.00000,-124.50000 C 41.466932,-124.50000 -26.250000,-56.783068 -26.250000,26.750000 C -26.250000,110.28307 41.466932,178.00000 125.00000,178.00000 C 208.53307,178.00000 276.25000,110.28307 276.25000,26.750000 z "
     transform="matrix(0.337935,0.000000,0.000000,0.337935,38.17398,45.93920)"
     style="fill:none;fill-opacity:0.94117647;fill-rule:evenodd;stroke:none;stroke-width:5.8040280;stroke-linecap:butt;stroke-linejoin:miter;stroke-miterlimit:4.0000000;stroke-opacity:1.0000000;"
     id="path1906" />
  <path
     sodipodi:type="arc"
     style="fill:url(#linearGradient4707);fill-opacity:1.0000000;fill-rule:evenodd;stroke:none;stroke-width:1.0000000pt;stroke-linecap:butt;stroke-linejoin:miter;stroke-opacity:1.0000000;"
     id="path4706"
     sodipodi:cx="76.533035"
     sodipodi:cy="18.951517"
     sodipodi:rx="36.685257"
     sodipodi:ry="36.685257"
     d="M 113.21829 18.951517 A 36.685257 36.685257 0 1 0 39.847778,18.951517 A 36.685257 36.685257 0 1 0 113.21829 18.951517 z"
     transform="matrix(1.137931,0.000000,0.000000,1.137931,-6.761253,35.33626)" />
  <path
     sodipodi:type="arc"
     style="fill:url(#radialGradient1505);fill-opacity:0.75000000;fill-rule:evenodd;stroke:none;stroke-width:1.0000000pt;stroke-linecap:butt;stroke-linejoin:miter;stroke-opacity:1.0000000;"
     id="path6278"
     sodipodi:cx="301.40427"
     sodipodi:cy="154.69670"
     sodipodi:rx="42.426407"
     sodipodi:ry="42.426407"
     d="M 343.83067 154.69670 A 42.426407 42.426407 0 1 0 258.97786,154.69670 A 42.426407 42.426407 0 1 0 343.83067 154.69670 z"
     transform="matrix(1.228242,0.000000,0.000000,1.228242,-290.3254,-99.35295)" />
  <path
     style="fill:#565248;fill-opacity:1.0000000;fill-rule:evenodd;stroke:#000000;stroke-width:2.7821293;stroke-linecap:butt;stroke-linejoin:miter;stroke-miterlimit:4.0000000;stroke-opacity:1.0000000;stroke-dasharray:none;"
     d="M 81.258749,27.607320 C 61.507612,27.607320 45.387921,39.685859 45.387921,59.436998 L 45.387921,73.176328 C 45.387921,92.927468 117.12958,92.927466 117.12958,73.176328 L 117.12958,59.436998 C 117.12958,39.685863 101.00989,27.607320 81.258749,27.607320 z M 81.258749,41.594266 C 93.502762,41.594266 103.13594,47.192994 103.13594,59.436998 L 103.13594,73.176328 C 103.13594,85.420344 59.374867,85.420342 59.374867,73.176328 L 59.374867,59.436998 C 59.374867,47.192985 69.014738,41.594266 81.258749,41.594266 z "
     id="path6280"
     sodipodi:nodetypes="cccccccccccc"
     transform="matrix(0.584085,0.000000,0.000000,0.584085,33.27074,40.32755)" />
  <path
     transform="matrix(0.131762,0.000000,0.000000,0.131762,30.05381,6.464534)"
     style="fill:#fdca01;fill-opacity:1.0000000;fill-rule:evenodd;stroke:#000000;stroke-width:12.332843;stroke-linecap:butt;stroke-linejoin:miter;stroke-miterlimit:4.0000000;stroke-opacity:1.0000000;stroke-dasharray:none;"
     d="M 203.66811,565.78857 C 198.31230,565.78857 194.00058,570.10029 194.00058,575.45610 L 194.00058,841.15529 C 194.00058,846.51110 198.31230,850.82281 203.66811,850.82281 L 565.87908,850.82281 C 571.23488,850.82281 575.54660,846.51110 575.54660,841.15529 L 575.54660,575.45610 C 575.54660,570.10029 571.23488,565.78857 565.87908,565.78857 L 203.66811,565.78857 z "
     id="path6281" />
  <path
     transform="matrix(0.131762,0.000000,0.000000,0.131762,30.05381,6.464534)"
     style="fill:url(#linearGradient1551);fill-opacity:1.0000000;fill-rule:evenodd;stroke:none;stroke-width:1.2500000;stroke-linecap:butt;stroke-linejoin:miter;stroke-miterlimit:4.0000000;stroke-opacity:1.0000000;"
     d="M 231.30722,580.15674 C 218.74343,580.15674 208.62891,590.27127 208.62891,602.83505 L 208.62891,813.77631 C 208.62891,826.34009 218.74343,836.45462 231.30722,836.45462 L 538.23996,836.45462 C 550.80375,836.45462 560.91827,826.34009 560.91827,813.77631 L 560.91827,602.83505 C 560.91827,590.27127 550.80375,580.15674 538.23996,580.15674 L 231.30722,580.15674 z "
     id="path6282" />
  <path
     transform="matrix(0.131762,0.000000,0.000000,0.131762,30.05381,6.464534)"
     style="fill:url(#linearGradient1535);fill-opacity:1.0000000;fill-rule:evenodd;stroke:none;stroke-width:1.2500000;stroke-linecap:butt;stroke-linejoin:miter;stroke-miterlimit:4.0000000;stroke-opacity:1.0000000;"
     d="M 231.30722,580.15674 C 218.74343,580.15674 208.62891,590.27127 208.62891,602.83505 L 208.62891,813.77631 C 208.62891,826.34009 218.74343,836.45462 231.30722,836.45462 L 538.23996,836.45462 C 550.80375,836.45462 560.91827,826.34009 560.91827,813.77631 L 560.91827,602.83505 C 560.91827,590.27127 550.80375,580.15674 538.23996,580.15674 L 231.30722,580.15674 z "
     id="path6283" />
  <path
     style="fill:url(#linearGradient1652);fill-opacity:1.0000000;fill-rule:evenodd;stroke:none;stroke-width:13.413198;stroke-linecap:butt;stroke-linejoin:miter;stroke-miterlimit:4.0000000;stroke-opacity:1.0000000;"
     d="M 203.66811,565.78857 C 198.31230,565.78857 194.00058,570.10029 194.00058,575.45610 L 194.00058,841.15529 C 194.00058,846.51110 198.31230,850.82281 203.66811,850.82281 L 565.87908,850.82281 C 571.23488,850.82281 575.54660,846.51110 575.54660,841.15529 L 575.54660,575.45610 C 575.54660,570.10029 571.23488,565.78857 565.87908,565.78857 L 203.66811,565.78857 z "
     id="path6284"
     transform="matrix(0.131762,0.000000,0.000000,0.131762,30.05381,6.464534)" />
  <path
     sodipodi:type="arc"
     style="fill:url(#linearGradient4705);fill-opacity:1.0000000;fill-rule:evenodd;stroke:none;stroke-width:1.0000000pt;stroke-linecap:butt;stroke-linejoin:miter;stroke-opacity:1.0000000;"
     id="path4704"
     sodipodi:cx="76.533035"
     sodipodi:cy="18.951517"
     sodipodi:rx="36.685257"
     sodipodi:ry="36.685257"
     d="M 113.21829 18.951517 A 36.685257 36.685257 0 1 0 39.847778,18.951517 A 36.685257 36.685257 0 1 0 113.21829 18.951517 z"
     transform="translate(3.795027,21.50515)" />
</svg>
