<?xml version="1.0" encoding="UTF-8" standalone="no"?>
<!DOCTYPE svg PUBLIC "-//W3C//DTD SVG 20010904//EN"
"http://www.w3.org/TR/2001/REC-SVG-20010904/DTD/svg10.dtd">
<!-- Created by Andrew Fitzsimon (http://andy.fitzsimon.com.au/) -->
<!-- Created using Inkscape (http://www.inkscape.org/) -->
<svg
   id="ubuntuicon"
   sodipodi:version="0.32"
   inkscape:version="0.40cvs"
   width="160.00000"
   height="160.00000"
   sodipodi:docname="gparted.svg"
   version="1.0"
   x="0.00000000"
   y="0.00000000"
   sodipodi:docbase="/home/andy/Documents"
   xmlns="http://www.w3.org/2000/svg"
   xmlns:cc="http://web.resource.org/cc/"
   xmlns:inkscape="http://www.inkscape.org/namespaces/inkscape"
   xmlns:sodipodi="http://sodipodi.sourceforge.net/DTD/sodipodi-0.dtd"
   xmlns:rdf="http://www.w3.org/1999/02/22-rdf-syntax-ns#"
   xmlns:dc="http://purl.org/dc/elements/1.1/"
   xmlns:xlink="http://www.w3.org/1999/xlink">
  <defs
     id="definitions">
    <linearGradient
       inkscape:collect="always"
       xlink:href="#MaterialSoftShadow"
       id="linearGradient4147"
       x1="40.410686"
       y1="178.20168"
       x2="45.849251"
       y2="228.97756"
       gradientTransform="matrix(1.781896,0.000000,0.000000,0.579123,408.2599,514.8218)"
       gradientUnits="userSpaceOnUse" />
    <linearGradient
       id="linearGradient1513">
      <stop
         style="stop-color:#ffffff;stop-opacity:1.0000000;"
         offset="0.0000000"
         id="stop1514" />
      <stop
         style="stop-color:#ffffff;stop-opacity:0.0000000;"
         offset="1.0000000"
         id="stop1515" />
    </linearGradient>
    <linearGradient
       inkscape:collect="always"
       xlink:href="#linearGradient1513"
       id="linearGradient4151"
       x1="35.502718"
       y1="50.095946"
       x2="72.072269"
       y2="95.740344"
       gradientTransform="matrix(1.510339,0.000000,0.000000,0.683249,408.2599,514.8218)"
       gradientUnits="userSpaceOnUse" />
    <linearGradient
       id="linearGradient1693">
      <stop
         style="stop-color:#ffffff;stop-opacity:1.0000000;"
         offset="0.00000000"
         id="stop1694" />
      <stop
         style="stop-color:#ffffff;stop-opacity:0.00000000;"
         offset="1.0000000"
         id="stop1695" />
    </linearGradient>
    <linearGradient
       inkscape:collect="always"
       xlink:href="#linearGradient1693"
       id="linearGradient1769"
       x1="25.260389"
       y1="13.745643"
       x2="57.556887"
       y2="93.464679"
       gradientTransform="matrix(1.472097,0.000000,0.000000,0.700999,408.2599,514.8218)"
       gradientUnits="userSpaceOnUse" />
    <radialGradient
       inkscape:collect="always"
       xlink:href="#MaterialSoftShadow"
       id="radialGradient13789"
       cx="-289.09140"
       cy="598.36652"
       fx="-289.09140"
       fy="598.36652"
       r="125.20509"
       gradientUnits="userSpaceOnUse" />
    <radialGradient
       inkscape:collect="always"
       xlink:href="#MaterialSoftShadow"
       id="radialGradient13790"
       cx="-289.09140"
       cy="598.36652"
       fx="-289.09140"
       fy="598.36652"
       r="125.20509"
       gradientUnits="userSpaceOnUse" />
    <radialGradient
       inkscape:collect="always"
       xlink:href="#MaterialSoftShadow"
       id="radialGradient13791"
       cx="-289.09140"
       cy="598.36652"
       fx="-289.09140"
       fy="598.36652"
       r="125.20509"
       gradientUnits="userSpaceOnUse" />
    <linearGradient
       id="WhiteTransparent">
      <stop
         style="stop-color:#ffffff;stop-opacity:1.0000000;"
         offset="0.0000000"
         id="stopWhiteFull" />
      <stop
         style="stop-color:#ffffff;stop-opacity:0.0000000;"
         offset="1.0000000"
         id="stopWhiteTransparent" />
    </linearGradient>
    <linearGradient
       inkscape:collect="always"
       xlink:href="#WhiteTransparent"
       id="linearGradient2473"
       x1="-19.694053"
       y1="143.43524"
       x2="102.53048"
       y2="144.95689"
       gradientTransform="scale(1.414214,0.707107)"
       gradientUnits="userSpaceOnUse" />
    <linearGradient
       inkscape:collect="always"
       id="linearGradient1851">
      <stop
         style="stop-color:#000000;stop-opacity:0.20000000;"
         offset="0.0000000"
         id="stop1852" />
      <stop
         style="stop-color:#000000;stop-opacity:0.064516127;"
         offset="0.50000000"
         id="stop1854" />
      <stop
         style="stop-color:#adadad;stop-opacity:0.0000000;"
         offset="1.0000000"
         id="stop1853" />
    </linearGradient>
    <linearGradient
       inkscape:collect="always"
       xlink:href="#linearGradient1851"
       id="linearGradient2458"
       gradientTransform="scale(1.095328,0.912968)"
       x1="89.983456"
       y1="321.90925"
       x2="131.64325"
       y2="321.90925"
       gradientUnits="userSpaceOnUse" />
    <linearGradient
       id="linearGradient1868">
      <stop
         style="stop-color:#ffffff;stop-opacity:0.0000000;"
         offset="0.0000000"
         id="stop1869" />
      <stop
         style="stop-color:#fff;stop-opacity:1;"
         offset="1"
         id="stop1870" />
    </linearGradient>
    <linearGradient
       inkscape:collect="always"
       xlink:href="#linearGradient1868"
       id="linearGradient2470"
       x1="64.104655"
       y1="455.24842"
       x2="160.46318"
       y2="455.24842"
       gradientTransform="scale(1.549028,0.645566)"
       gradientUnits="userSpaceOnUse" />
    <linearGradient
       id="MaterialSoftShadow">
      <stop
         style="stop-color:#000000;stop-opacity:0.21472393;"
         offset="0.0000000"
         id="stop2619" />
      <stop
         style="stop-color:#000000;stop-opacity:0.098159507;"
         offset="0.50000000"
         id="stop2621" />
      <stop
         style="stop-color:#000000;stop-opacity:0.0000000;"
         offset="1.0000000"
         id="stop2620" />
    </linearGradient>
    <radialGradient
       inkscape:collect="always"
       xlink:href="#MaterialSoftShadow"
       id="radialGradient2480"
       cx="60.451202"
       cy="237.38155"
       r="33.911650"
       fx="60.451202"
       fy="237.38155"
       gradientTransform="scale(1.695582,0.589768)"
       gradientUnits="userSpaceOnUse" />
  </defs>
  <sodipodi:namedview
     id="base"
     pagecolor="#ffffff"
     bordercolor="#666666"
     borderopacity="1.0"
     inkscape:pageopacity="0.0"
     inkscape:pageshadow="2"
     inkscape:zoom="1.0000000"
     inkscape:cx="20.061035"
     inkscape:cy="78.867279"
     inkscape:window-width="630"
     inkscape:window-height="523"
     inkscape:window-x="89"
     inkscape:window-y="244"
     showgrid="true"
     gridempspacing="2"
     gridtolerance="4.0000000pt"
     inkscape:grid-points="true"
     gridspacingx="4.0000000pt"
     gridspacingy="4.0000000pt"
     showguides="true"
     inkscape:guide-bbox="true"
     inkscape:grid-bbox="false"
     showborder="true"
     inkscape:current-layer="ubuntuicon"
     gridoriginy="0.0000000pt"
     gridoriginx="0.0000000pt"
     gridcolor="#3f3fff"
     gridopacity="0.023529412"
     gridempcolor="#3f3fff"
     gridempopacity="0.082352941" />
  <metadata
     id="metadata1293">
    <rdf:RDF
       id="RDF1294">
      <cc:Work
         rdf:about=""
         id="Work1295">
        <dc:format
           id="imageformat">image/svg+xml</dc:format>
        <dc:type
           id="type1298"
           rdf:resource="http://purl.org/dc/dcmitype/StillImage" />
        <dc:creator
           id="creator1299">
          <cc:Agent
             id="Agent1300">
            <dc:title
               id="title1301">Ubuntu Icon</dc:title>
          </cc:Agent>
        </dc:creator>
        <dc:rights
           id="rights1303">
          <cc:Agent
             id="Agent1332">
            <dc:title
               id="company">Canonical Software</dc:title>
          </cc:Agent>
          <cc:Agent
             id="Agent1304">
            <dc:title
               id="creator">Andrew Fitzsimon</dc:title>
          </cc:Agent>
          <cc:Agent
             id="Agent1335">
            <dc:title
               id="owner">Mark Shuttleworth</dc:title>
          </cc:Agent>
        </dc:rights>
        <dc:date
           id="date1307">2004-09-01</dc:date>
        <dc:description
           id="description1309">Icon for the Ubuntu Icon Set</dc:description>
        <dc:contributor
           id="contributor1311">
          <cc:Agent
             id="Agent1312">
            <dc:title
               id="title1313">Andrew Fitzsimon</dc:title>
          </cc:Agent>
        </dc:contributor>
      </cc:Work>
    </rdf:RDF>
  </metadata>
  <g
     id="g2333"
     transform="matrix(0.884575,0.000000,0.000000,0.884575,-313.4756,-269.2034)">
    <path
       sodipodi:type="arc"
       style="fill:url(#radialGradient13791);fill-opacity:1.0000000;fill-rule:evenodd;stroke:none;stroke-width:1.0000000pt;stroke-linecap:butt;stroke-linejoin:miter;stroke-opacity:1.0000000;"
       id="path1855"
       sodipodi:cx="-289.09140"
       sodipodi:cy="598.36652"
       sodipodi:rx="125.20509"
       sodipodi:ry="125.20509"
       d="M -163.88631 598.36652 A 125.20509 125.20509 0 1 0 -414.29649,598.36652 A 125.20509 125.20509 0 1 0 -163.88631 598.36652 z"
       transform="matrix(-0.606637,0.000000,0.000000,0.523647,259.1536,100.2684)" />
    <path
       sodipodi:type="arc"
       style="fill:url(#radialGradient13790);fill-opacity:1.0000000;fill-rule:evenodd;stroke:none;stroke-width:1.0000000pt;stroke-linecap:butt;stroke-linejoin:miter;stroke-opacity:1.0000000;"
       id="path1856"
       sodipodi:cx="-289.09140"
       sodipodi:cy="598.36652"
       sodipodi:rx="125.20509"
       sodipodi:ry="125.20509"
       d="M -163.88631 598.36652 A 125.20509 125.20509 0 1 0 -414.29649,598.36652 A 125.20509 125.20509 0 1 0 -163.88631 598.36652 z"
       transform="matrix(-0.624613,0.000000,0.000000,5.853498e-2,254.3707,429.9132)" />
    <path
       sodipodi:type="arc"
       style="fill:url(#radialGradient13789);fill-opacity:1.0000000;fill-rule:evenodd;stroke:none;stroke-width:1.0000000pt;stroke-linecap:butt;stroke-linejoin:miter;stroke-opacity:1.0000000;"
       id="path4755"
       sodipodi:cx="-289.09140"
       sodipodi:cy="598.36652"
       sodipodi:rx="125.20509"
       sodipodi:ry="125.20509"
       d="M -163.88631 598.36652 A 125.20509 125.20509 0 1 0 -414.29649,598.36652 A 125.20509 125.20509 0 1 0 -163.88631 598.36652 z"
       transform="matrix(-0.595848,0.000000,0.000000,0.484396,260.9584,122.8758)" />
    <path
       style="fill:#cccccc;fill-opacity:1.0000000;fill-rule:evenodd;stroke:#000000;stroke-width:1.7500000;stroke-linecap:butt;stroke-linejoin:miter;stroke-miterlimit:4.0000000;stroke-opacity:1.0000000;"
       d="M 427.83079,651.73736 L 552.05221,651.73736 C 554.71397,651.73736 557.69865,648.75267 557.69865,646.09093 L 557.69865,606.56593 L 540.75936,544.45522 C 540.05902,541.88726 537.77468,538.80879 535.11293,538.80879 L 444.77008,538.80879 C 442.10833,538.80879 439.82400,541.88726 439.12365,544.45522 L 422.18437,606.56593 L 422.18437,646.09093 C 422.18437,648.75267 425.16904,651.73736 427.83079,651.73736 z "
       id="path1860"
       sodipodi:nodetypes="czzczzzzczz"
       transform="translate(-55.00000,-187.5000)" />
    <path
       style="fill:#cccccc;fill-opacity:1.0000000;fill-rule:evenodd;stroke:none;stroke-width:1.3200000pt;stroke-linecap:butt;stroke-linejoin:miter;stroke-opacity:1.0000000;"
       d="M 551.50432,598.20464 L 538.95723,545.43652 C 538.11325,541.88712 534.63173,539.57339 530.98339,539.57339 L 450.54131,539.57339 C 446.89296,539.57339 444.01297,541.92126 443.03651,545.43652 L 428.37870,598.20464 L 551.50432,598.20464 z "
       id="path1861"
       sodipodi:nodetypes="czzzzcc"
       transform="translate(-55.00000,-187.5000)" />
    <path
       style="fill:url(#linearGradient1769);fill-opacity:1.0000000;fill-rule:evenodd;stroke:none;stroke-width:1.3200000pt;stroke-linecap:butt;stroke-linejoin:miter;stroke-opacity:1.0000000;"
       d="M 551.50432,598.20464 L 538.95723,545.43652 C 538.11325,541.88712 534.63173,539.57339 530.98339,539.57339 L 450.54131,539.57339 C 446.89296,539.57339 444.01297,541.92126 443.03651,545.43652 L 428.37870,598.20464 L 551.50432,598.20464 z "
       id="path1862"
       sodipodi:nodetypes="czzzzcc"
       transform="translate(-55.00000,-187.5000)" />
    <path
       style="fill:url(#linearGradient4151);fill-opacity:1.0000000;fill-rule:evenodd;stroke:none;stroke-width:1.3200000pt;stroke-linecap:butt;stroke-linejoin:miter;stroke-opacity:1.0000000;"
       d="M 551.50432,598.20464 L 538.72270,549.99208 C 537.81635,546.57326 534.63173,542.50495 530.98339,542.50495 L 450.54131,542.50495 C 446.89296,542.50495 443.81624,546.60175 442.80199,549.99208 L 428.37870,598.20464 L 551.50432,598.20464 z "
       id="path1863"
       sodipodi:nodetypes="czzzzcc"
       transform="translate(-55.00000,-187.5000)" />
    <path
       style="fill:#eeeeee;fill-opacity:1.0000000;fill-rule:evenodd;stroke:none;stroke-width:1.0000000pt;stroke-linecap:butt;stroke-linejoin:miter;stroke-opacity:1.0000000;"
       d="M 430.82167,648.04119 C 428.28809,648.04119 425.44714,645.20024 425.44714,642.66667 L 425.44714,608.70939 C 425.44714,606.17582 428.28809,603.33487 430.82167,603.33487 L 549.06134,603.33487 C 551.59491,603.33487 554.43587,606.17582 554.43587,608.70939 L 554.43587,642.66667 C 554.43587,645.20024 551.59491,648.04119 549.06134,648.04119 L 430.82167,648.04119 z "
       id="path1866"
       sodipodi:nodetypes="czzzzzzzz"
       transform="translate(-55.00000,-187.5000)" />
    <path
       style="fill:url(#linearGradient4147);fill-opacity:1.0000000;fill-rule:evenodd;stroke:none;stroke-width:1.0000000pt;stroke-linecap:butt;stroke-linejoin:miter;stroke-opacity:1.0000000;"
       d="M 434.24183,647.82844 C 431.85482,647.82844 429.17822,645.50868 429.17822,643.43992 L 429.17822,612.72036 C 429.17822,610.65159 431.85482,608.33185 434.24183,608.33185 L 545.64119,608.33185 C 548.02820,608.33185 550.70479,610.65159 550.70479,612.72036 L 550.70479,643.43992 C 550.70479,645.50868 548.02820,647.82844 545.64119,647.82844 L 434.24183,647.82844 z "
       id="path1867"
       sodipodi:nodetypes="czzzzzzzz"
       transform="translate(-55.00000,-187.5000)" />
    <path
       style="fill:none;fill-opacity:0.75000000;fill-rule:evenodd;stroke:#000000;stroke-width:3.7500000;stroke-linecap:round;stroke-linejoin:round;stroke-miterlimit:4.0000000;stroke-opacity:1.0000000;"
       d="M 444.15198,627.26984 L 537.20565,627.26984"
       id="path4979"
       transform="translate(-55.00000,-187.5000)" />
    <path
       style="fill:none;fill-opacity:0.75000000;fill-rule:evenodd;stroke:#339900;stroke-width:3.7500000;stroke-linecap:round;stroke-linejoin:round;stroke-miterlimit:4.0000000;stroke-opacity:1.0000000;"
       d="M 521.31752,639.91993 L 537.20565,639.91993"
       id="path4980"
       sodipodi:nodetypes="cc"
       transform="translate(-55.00000,-187.5000)" />
  </g>
  <g
     id="g2926"
     transform="translate(20.17078,-51.13776)">
    <path
       sodipodi:type="arc"
       style="fill:url(#radialGradient2480);fill-opacity:1.0000000;fill-rule:evenodd;stroke:none;stroke-width:1.0000000pt;stroke-linecap:butt;stroke-linejoin:miter;stroke-opacity:1.0000000;"
       id="path2478"
       sodipodi:cx="102.50000"
       sodipodi:cy="140.00000"
       sodipodi:rx="57.500000"
       sodipodi:ry="20.000000"
       d="M 160.00000 140.00000 A 57.500000 20.000000 0 1 0 45.000000,140.00000 A 57.500000 20.000000 0 1 0 160.00000 140.00000 z"
       transform="translate(-25.37234,-6.362237)" />
    <g
       id="g2382"
       transform="translate(-72.72689,-176.2381)">
      <path
         d="M 324.60945,974.13480 L 324.60945,989.60285 C 324.60945,1002.4026 345.38922,1012.7925 370.98880,1012.7925 C 396.58836,1012.7925 417.36814,1002.4026 417.36814,989.60285 L 417.36814,974.13480 L 324.60945,974.13480 z "
         style="fill:#fdca01;fill-opacity:1.0000000;fill-rule:evenodd;stroke:#000000;stroke-width:1.4873121;stroke-linecap:butt;stroke-linejoin:miter;stroke-miterlimit:4.0000000;stroke-opacity:1.0000000;"
         id="path3867"
         transform="matrix(1.128912,0.000000,0.000000,1.128912,-271.2576,-827.6401)" />
      <path
         d="M 417.18629,974.13473 C 417.18629,961.32839 396.42303,950.94679 370.81026,950.94679 C 345.19748,950.94679 324.43423,961.32839 324.43423,974.13473 C 324.43423,986.94108 345.19748,997.32267 370.81026,997.32267 C 396.42303,997.32267 417.18629,986.94108 417.18629,974.13473 L 417.18629,974.13473 z "
         style="fill:#7b3535;fill-opacity:1.0000000;fill-rule:evenodd;stroke:#000000;stroke-width:1.0516868;stroke-linecap:butt;stroke-linejoin:miter;stroke-miterlimit:4.0000000;stroke-opacity:1.0000000;"
         id="path3868"
         transform="matrix(1.128912,0.000000,0.000000,1.128912,-271.2576,-827.6401)" />
      <path
         d="M 99.299912,273.78190 L 99.299912,289.87590 C 99.299912,303.19362 120.92058,314.00397 147.55611,314.00397 C 174.19161,314.00397 195.81229,303.19362 195.81229,289.87590 L 195.81229,273.78190 L 99.299912,273.78190 z "
         style="fill:url(#linearGradient2470);fill-opacity:1.0000000;fill-rule:evenodd;stroke:none;stroke-width:1.5474995;stroke-linecap:butt;stroke-linejoin:miter;stroke-miterlimit:4.0000000;stroke-opacity:1.0000000;"
         id="path2469" />
      <path
         d="M 324.60945,974.13480 L 324.60945,989.60285 C 324.60945,1002.4026 345.38922,1012.7925 370.98880,1012.7925 L 370.98548,974.13480 L 324.60945,974.13480 z "
         style="fill:#980101;fill-opacity:1.0000000;fill-rule:evenodd;stroke:#000000;stroke-width:1.4873121;stroke-linecap:butt;stroke-linejoin:miter;stroke-miterlimit:4.0000000;stroke-opacity:1.0000000;"
         id="path3869"
         transform="matrix(1.128912,0.000000,0.000000,1.128912,-271.2576,-827.6401)" />
      <path
         d="M 370.98554,974.13473 L 324.43423,974.13473 C 324.43423,967.73486 329.62834,961.93788 338.02241,957.74086 C 346.41647,953.54384 358.01047,950.94679 370.81026,950.94679 C 383.61004,950.94679 395.20405,953.54384 403.59811,957.74086 L 370.98554,974.13473 z "
         style="fill:#339900;fill-opacity:1.0000000;fill-rule:evenodd;stroke:#000000;stroke-width:1.4394391;stroke-linecap:butt;stroke-linejoin:miter;stroke-miterlimit:4.0000000;stroke-opacity:1.0000000;"
         id="path3870"
         transform="matrix(1.128912,0.000000,0.000000,1.128912,-271.2576,-827.6401)" />
      <path
         d="M 98.561428,274.87590 L 98.561428,290.09442 C 98.561428,302.68768 119.00598,312.90997 144.19258,312.90997 L 144.18932,274.87590 L 98.561428,274.87590 z "
         style="fill:url(#linearGradient2458);fill-opacity:1.0000000;fill-rule:evenodd;stroke:none;stroke-width:1.4633187;stroke-linecap:butt;stroke-linejoin:miter;stroke-miterlimit:4.0000000;stroke-opacity:1.0000000;"
         id="path2457" />
      <path
         d="M 370.98554,997.32267 C 358.18576,997.32267 346.41647,994.72562 338.02241,990.52861 C 329.62834,986.33159 324.43423,980.53460 324.43423,974.13473 L 370.98554,974.13473 L 370.98554,997.32267 z "
         style="fill:#fd3301;fill-opacity:1.0000000;fill-rule:evenodd;stroke:#000000;stroke-width:1.4394391;stroke-linecap:butt;stroke-linejoin:miter;stroke-miterlimit:4.0000000;stroke-opacity:1.0000000;"
         id="path3871"
         transform="matrix(1.128912,0.000000,0.000000,1.128912,-271.2576,-827.6401)" />
      <path
         d="M 417.18629,974.13473 C 417.18629,980.53460 411.99217,986.33159 403.59811,990.52861 C 395.20405,994.72562 383.78532,997.32267 370.98554,997.32267 L 370.98554,974.13473 L 403.59811,957.74086 C 411.99217,961.93788 417.18629,967.73486 417.18629,974.13473 z "
         style="fill:#ffff99;fill-opacity:1.0000000;fill-rule:evenodd;stroke:#000000;stroke-width:1.4394391;stroke-linecap:butt;stroke-linejoin:miter;stroke-miterlimit:4.0000000;stroke-opacity:1.0000000;"
         id="path3872"
         transform="matrix(1.128912,0.000000,0.000000,1.128912,-271.2576,-827.6401)" />
    </g>
    <path
       sodipodi:type="arc"
       style="fill:url(#linearGradient2473);fill-opacity:1.0000000;fill-rule:evenodd;stroke:none;stroke-width:1.0000000pt;stroke-linecap:butt;stroke-linejoin:miter;stroke-opacity:1.0000000;"
       id="path2472"
       sodipodi:cx="100.00000"
       sodipodi:cy="102.50000"
       sodipodi:rx="45.000000"
       sodipodi:ry="22.500000"
       d="M 145.00000 102.50000 A 45.000000 22.500000 0 1 0 55.000000,102.50000 A 45.000000 22.500000 0 1 0 145.00000 102.50000 z"
       transform="translate(-25.37234,-6.362237)" />
  </g>
</svg>
