<?xml version="1.0" encoding="UTF-8" standalone="no"?>
<!DOCTYPE svg PUBLIC "-//W3C//DTD SVG 20010904//EN"
"http://www.w3.org/TR/2001/REC-SVG-20010904/DTD/svg10.dtd">
<!-- Created by Andrew Fitzsimon (http://andy.fitzsimon.com.au/) -->
<!-- Created using Inkscape (http://www.inkscape.org/) -->
<svg
   id="ubuntuicon"
   sodipodi:version="0.32"
   inkscape:version="0.39cvs"
   width="160.00000"
   height="160.00000"
   sodipodi:docname="gtkam.svg"
   version="1.0"
   x="0.00000000"
   y="0.00000000"
   xmlns="http://www.w3.org/2000/svg"
   xmlns:cc="http://web.resource.org/cc/"
   xmlns:inkscape="http://www.inkscape.org/namespaces/inkscape"
   xmlns:sodipodi="http://sodipodi.sourceforge.net/DTD/sodipodi-0.dtd"
   xmlns:rdf="http://www.w3.org/1999/02/22-rdf-syntax-ns#"
   xmlns:dc="http://purl.org/dc/elements/1.1/"
   xmlns:xlink="http://www.w3.org/1999/xlink"
   sodipodi:docbase="C:\Documents and Settings\n4429206\Desktop\mm\ubuntu\apps">
  <defs
     id="definitions">
    <radialGradient
       inkscape:collect="always"
       xlink:href="#MaterialSoftShadow"
       id="radialGradient2044" />
    <linearGradient
       id="MaterialSoftShadow">
      <stop
         style="stop-color:#000000;stop-opacity:0.21472393;"
         offset="0.0000000"
         id="stop2619" />
      <stop
         style="stop-color:#000000;stop-opacity:0.098159507;"
         offset="0.50000000"
         id="stop2621" />
      <stop
         style="stop-color:#000000;stop-opacity:0.0000000;"
         offset="1.0000000"
         id="stop2620" />
    </linearGradient>
    <linearGradient
       id="linearGradient1693">
      <stop
         style="stop-color:#000;stop-opacity:1;"
         offset="0"
         id="stop1694" />
      <stop
         style="stop-color:#fff;stop-opacity:1;"
         offset="1"
         id="stop1695" />
    </linearGradient>
  </defs>
  <sodipodi:namedview
     id="base"
     pagecolor="#ffffff"
     bordercolor="#666666"
     borderopacity="1.0"
     inkscape:pageopacity="0.0"
     inkscape:pageshadow="2"
     inkscape:zoom="1.4142136"
     inkscape:cx="99.205260"
     inkscape:cy="41.053927"
     inkscape:window-width="640"
     inkscape:window-height="524"
     inkscape:window-x="365"
     inkscape:window-y="189"
     showgrid="true"
     gridempspacing="5"
     gridtolerance="5.0000000mm"
     inkscape:grid-points="true"
     gridspacingx="1.2500000mm"
     gridspacingy="1.2500000mm"
     showguides="true"
     inkscape:guide-bbox="true"
     inkscape:grid-bbox="false" />
  <metadata
     id="metadata1293">
    <rdf:RDF
       id="RDF1294">
      <cc:Work
         rdf:about=""
         id="Work1295">
        <dc:format
           id="imageformat">image/svg+xml</dc:format>
        <dc:type
           id="type1298"
           rdf:resource="http://purl.org/dc/dcmitype/StillImage" />
        <dc:creator
           id="creator1299">
          <cc:Agent
             id="Agent1300">
            <dc:title
               id="title1301">Ubuntu Icon</dc:title>
          </cc:Agent>
        </dc:creator>
        <dc:rights
           id="rights1303">
          <cc:Agent
             id="Agent1304">
            <dc:title
               id="creator">Andrew Fitzsimon</dc:title>
          </cc:Agent>
          <cc:Agent
             id="Agent1332">
            <dc:title
               id="company">Canonical Software</dc:title>
          </cc:Agent>
          <cc:Agent
             id="Agent1335">
            <dc:title
               id="owner">Mark Shuttleworth</dc:title>
          </cc:Agent>
        </dc:rights>
        <dc:date
           id="date1307">2004-09-01</dc:date>
        <dc:description
           id="description1309">Icon for the Ubuntu Icon Set</dc:description>
        <dc:contributor
           id="contributor1311">
          <cc:Agent
             id="Agent1312">
            <dc:title
               id="title1313">Andrew Fitzsimon</dc:title>
          </cc:Agent>
        </dc:contributor>
      </cc:Work>
    </rdf:RDF>
  </metadata>
  <g
     id="g4211"
     transform="matrix(1.441817,0.000000,0.000000,1.441817,-709.2478,-783.7455)">
    <path
       sodipodi:type="arc"
       style="fill:url(#radialGradient2044);fill-opacity:1.0000000;fill-rule:evenodd;stroke:none;stroke-width:1.0000000pt;stroke-linecap:butt;stroke-linejoin:miter;stroke-opacity:1.0000000;"
       id="path4172"
       sodipodi:cx="-289.09140"
       sodipodi:cy="598.36652"
       sodipodi:rx="125.20509"
       sodipodi:ry="125.20509"
       d="M -163.88631 598.36652 A 125.20509 125.20509 0 1 0 -414.29649,598.36652 A 125.20509 125.20509 0 1 0 -163.88631 598.36652 z"
       transform="matrix(-0.354642,0.000000,0.000000,5.269855e-2,454.5489,608.1146)" />
    <path
       style="fill:#ffffff;fill-rule:evenodd;stroke:#000000;stroke-width:1.3954332;stroke-miterlimit:4.0000000;stroke-opacity:1.0000000;"
       d="M 544.57801,550.10792 L 545.12795,600.70194 L 595.72198,601.80181 L 595.72198,550.10792 L 544.57801,550.10792 z "
       id="path4174"
       sodipodi:nodetypes="ccccc" />
    <path
       style="fill:#cccccc;fill-opacity:1.0000000;fill-rule:evenodd;stroke:none;stroke-width:2.5582206;stroke-miterlimit:4.0000000;stroke-opacity:1.0000000;"
       d="M 549.59379,559.17129 L 549.36251,591.86361 L 590.44494,593.05317 L 590.21366,558.61616 L 549.59379,559.17129 z "
       id="path4175"
       sodipodi:nodetypes="ccccc" />
  </g>
  <g
     id="g7315"
     transform="matrix(1.303534,0.000000,0.000000,1.303534,-194.5908,-1254.200)">
    <path
       sodipodi:type="arc"
       style="fill:url(#radialGradient2044);fill-opacity:1.0000000;fill-rule:evenodd;stroke:none;stroke-width:1.0000000pt;stroke-linecap:butt;stroke-linejoin:miter;stroke-opacity:1.0000000;"
       id="path7313"
       sodipodi:cx="-289.09140"
       sodipodi:cy="598.36652"
       sodipodi:rx="125.20509"
       sodipodi:ry="125.20509"
       d="M -163.88631 598.36652 A 125.20509 125.20509 0 1 0 -414.29649,598.36652 A 125.20509 125.20509 0 1 0 -163.88631 598.36652 z"
       transform="matrix(-0.340924,0.000000,0.000000,0.106244,107.9450,997.5393)" />
    <path
       sodipodi:type="arc"
       style="fill:url(#radialGradient2044);fill-opacity:1.0000000;fill-rule:evenodd;stroke:none;stroke-width:1.0000000pt;stroke-linecap:butt;stroke-linejoin:miter;stroke-opacity:1.0000000;"
       id="path7314"
       sodipodi:cx="-289.09140"
       sodipodi:cy="598.36652"
       sodipodi:rx="125.20509"
       sodipodi:ry="125.20509"
       d="M -163.88631 598.36652 A 125.20509 125.20509 0 1 0 -414.29649,598.36652 A 125.20509 125.20509 0 1 0 -163.88631 598.36652 z"
       transform="matrix(-0.476521,0.000000,0.000000,7.080940e-2,74.03004,1015.562)" />
    <g
       transform="matrix(0.455689,0.000000,0.000000,0.455689,-58.34843,610.8518)"
       id="g4379">
      <path
         d="M 503.25000,844.38420 C 492.09420,844.38420 492.72521,854.37544 492.68750,860.21875 C 487.64233,861.04202 483.75000,865.18371 483.75000,870.46875 L 483.75000,966.75000 C 483.75000,972.62608 488.46769,977.37500 494.34375,977.37500 L 685.65625,977.37500 C 691.53233,977.37500 696.25000,972.62606 696.25000,966.75000 L 696.25000,870.46875 C 696.25000,864.59267 691.53231,859.87500 685.65625,859.87500 L 580.09772,859.87500 C 579.87153,854.20177 579.50470,844.38420 569.59772,844.38420 L 503.25000,844.38420 z "
         style="fill:#cccccc;fill-opacity:1.0000000;fill-rule:evenodd;stroke:#000000;stroke-width:2.9225163;stroke-linecap:butt;stroke-linejoin:miter;stroke-miterlimit:4.0000000;stroke-opacity:1.0000000;"
         id="rect4357" />
      <path
         d="M 491.18038,886.53290 L 491.18038,875.88756 C 491.18038,870.42241 495.56815,866.00560 501.03328,866.00560 L 678.96672,866.00560 C 684.43187,866.00560 688.81962,870.42243 688.81962,875.88756 L 688.81962,886.53290 L 491.18038,886.53290 z "
         style="fill:#eeeeee;fill-opacity:1.0000000;fill-rule:evenodd;stroke:none;stroke-width:3.2585092;stroke-linecap:butt;stroke-linejoin:miter;stroke-miterlimit:4.0000000;stroke-opacity:1.0000000;"
         id="path4386" />
      <path
         d="M 491.18038,951.03351 L 491.18038,961.67885 C 491.18038,967.14400 495.56815,971.56081 501.03328,971.56081 L 678.96672,971.56081 C 684.43187,971.56081 688.81962,967.14398 688.81962,961.67885 L 688.81962,951.03351 L 491.18038,951.03351 z "
         style="fill:#aaaaaa;fill-opacity:1.0000000;fill-rule:evenodd;stroke:none;stroke-width:3.2585092;stroke-linecap:butt;stroke-linejoin:miter;stroke-miterlimit:4.0000000;stroke-opacity:1.0000000;"
         id="path4387" />
      <path
         d="M 641.25000,927.36218 C 641.25000,902.50937 621.10281,882.36218 596.25000,882.36218 C 571.39719,882.36218 551.25000,902.50937 551.25000,927.36218 C 551.25000,952.21499 571.39719,972.36218 596.25000,972.36218 C 621.10281,972.36218 641.25000,952.21499 641.25000,927.36218 L 641.25000,927.36218 z "
         transform="matrix(1.271481,0.000000,0.000000,1.271481,-161.8705,-245.5111)"
         style="fill:#ababab;fill-opacity:1.0000000;fill-rule:evenodd;stroke:#000000;stroke-width:2.2985137;stroke-linecap:butt;stroke-linejoin:miter;stroke-miterlimit:4.0000000;stroke-opacity:1.0000000;"
         id="path4359" />
      <path
         d="M 641.25000,927.36218 C 641.25000,902.50937 621.10281,882.36218 596.25000,882.36218 C 571.39719,882.36218 551.25000,902.50937 551.25000,927.36218 C 551.25000,952.21499 571.39719,972.36218 596.25000,972.36218 C 621.10281,972.36218 641.25000,952.21499 641.25000,927.36218 L 641.25000,927.36218 z "
         transform="matrix(0.753425,0.000000,0.000000,0.753425,147.0205,234.9146)"
         style="fill:#666666;fill-opacity:1.0000000;fill-rule:evenodd;stroke:#000000;stroke-width:3.8789744;stroke-linecap:butt;stroke-linejoin:miter;stroke-miterlimit:4.0000000;stroke-opacity:1.0000000;"
         id="path4360" />
      <path
         d="M 622.18777,943.50141 C 619.83962,944.60524 598.77122,936.97185 596.71678,938.55661 C 595.10940,939.79651 605.97224,958.16962 604.06250,957.48123 C 601.62158,956.60136 592.12160,936.30613 589.54829,935.97401 C 587.53496,935.71417 582.22440,956.38711 581.36078,954.54995 C 580.25694,952.20181 587.89033,931.13341 586.30557,929.07896 C 585.06568,927.47158 566.69256,938.33443 567.38096,936.42468 C 568.26082,933.98377 588.55605,924.48378 588.88817,921.91047 C 589.14802,919.89714 568.47507,914.58658 570.31223,913.72296 C 572.66038,912.61913 593.72878,920.25252 595.78322,918.66776 C 597.39060,917.42786 586.52776,899.05475 588.43750,899.74314 C 590.87842,900.62300 600.37840,920.91823 602.95171,921.25035 C 604.96504,921.51020 610.27560,900.83725 611.13922,902.67441 C 612.24306,905.02256 604.60967,926.09096 606.19443,928.14541 C 607.43432,929.75278 625.80744,918.88994 625.11904,920.79968 C 624.23918,923.24060 603.94395,932.74058 603.61183,935.31389 C 603.35198,937.32722 624.02493,942.63778 622.18777,943.50141 z "
         transform="translate(0.000000,6.250000)"
         style="fill:#000000;fill-opacity:1.0000000;fill-rule:evenodd;stroke:none;stroke-width:3.7500000;stroke-linecap:butt;stroke-linejoin:miter;stroke-miterlimit:4.0000000;stroke-opacity:1.0000000;"
         id="path4362" />
      <path
         d="M 509.24779,851.47973 C 504.33130,851.47973 500.37326,855.43776 500.37326,860.35426 L 500.37326,865.05292 C 500.37326,869.96939 504.33130,873.92743 509.24779,873.92743 L 562.35336,873.92743 C 567.26985,873.92743 571.22789,869.96939 571.22789,865.05292 L 571.22789,860.35426 C 571.22789,855.43776 567.26985,851.47973 562.35336,851.47973 L 509.24779,851.47973 z "
         style="fill:#333333;fill-opacity:1.0000000;fill-rule:evenodd;stroke:none;stroke-width:3.7500000;stroke-linecap:butt;stroke-linejoin:miter;stroke-miterlimit:4.0000000;stroke-opacity:1.0000000;"
         id="rect4358" />
    </g>
  </g>
</svg>
