<?xml version="1.0" encoding="UTF-8" standalone="no"?>
<!DOCTYPE svg PUBLIC "-//W3C//DTD SVG 20010904//EN"
"http://www.w3.org/TR/2001/REC-SVG-20010904/DTD/svg10.dtd">
<!-- Created by Andrew Fitzsimon (http://andy.fitzsimon.com.au/) -->
<!-- Created using Inkscape (http://www.inkscape.org/) -->
<svg
   id="ubuntuicon"
   sodipodi:version="0.32"
   inkscape:version="0.39cvs"
   width="160.00000"
   height="160.00000"
   sodipodi:docname="mozilla-web.svg"
   version="1.0"
   x="0.00000000"
   y="0.00000000"
   xmlns="http://www.w3.org/2000/svg"
   xmlns:cc="http://web.resource.org/cc/"
   xmlns:inkscape="http://www.inkscape.org/namespaces/inkscape"
   xmlns:sodipodi="http://sodipodi.sourceforge.net/DTD/sodipodi-0.dtd"
   xmlns:rdf="http://www.w3.org/1999/02/22-rdf-syntax-ns#"
   xmlns:dc="http://purl.org/dc/elements/1.1/"
   xmlns:xlink="http://www.w3.org/1999/xlink"
   sodipodi:docbase="C:\Documents and Settings\n4429206\Desktop\mm\ubuntu\apps">
  <defs
     id="definitions">
    <radialGradient
       inkscape:collect="always"
       xlink:href="#MaterialSoftShadow"
       id="radialGradient2044" />
    <linearGradient
       id="BlackTransparent">
      <stop
         style="stop-color:#000000;stop-opacity:1.0000000;"
         offset="0.0000000"
         id="stopBlackFull" />
      <stop
         style="stop-color:#000000;stop-opacity:0.0000000;"
         offset="1.0000000"
         id="stopBlackTransparent" />
    </linearGradient>
    <linearGradient
       id="linearGradient1726">
      <stop
         style="stop-color:#000000;stop-opacity:0.40689656;"
         offset="0.0000000"
         id="stop1727" />
      <stop
         style="stop-color:#000000;stop-opacity:0.00000000;"
         offset="1.0000000"
         id="stop1728" />
    </linearGradient>
    <radialGradient
       xlink:href="#linearGradient1726"
       id="radialGradient1505" />
    <linearGradient
       id="MaterialSoftShadow">
      <stop
         style="stop-color:#000000;stop-opacity:0.21472393;"
         offset="0.0000000"
         id="stop2619" />
      <stop
         style="stop-color:#000000;stop-opacity:0.098159507;"
         offset="0.50000000"
         id="stop2621" />
      <stop
         style="stop-color:#000000;stop-opacity:0.0000000;"
         offset="1.0000000"
         id="stop2620" />
    </linearGradient>
    <linearGradient
       id="linearGradient1693">
      <stop
         style="stop-color:#000;stop-opacity:1;"
         offset="0"
         id="stop1694" />
      <stop
         style="stop-color:#fff;stop-opacity:1;"
         offset="1"
         id="stop1695" />
    </linearGradient>
  </defs>
  <sodipodi:namedview
     id="base"
     pagecolor="#ffffff"
     bordercolor="#666666"
     borderopacity="1.0"
     inkscape:pageopacity="0.0"
     inkscape:pageshadow="2"
     inkscape:zoom="2.0000000"
     inkscape:cx="94.982548"
     inkscape:cy="56.749634"
     inkscape:window-width="640"
     inkscape:window-height="524"
     inkscape:window-x="365"
     inkscape:window-y="189"
     showgrid="false"
     gridempspacing="5"
     gridtolerance="5.0000000mm"
     inkscape:grid-points="true"
     gridspacingx="1.2500000mm"
     gridspacingy="1.2500000mm"
     showguides="true"
     inkscape:guide-bbox="true"
     inkscape:grid-bbox="false" />
  <metadata
     id="metadata1293">
    <rdf:RDF
       id="RDF1294">
      <cc:Work
         rdf:about=""
         id="Work1295">
        <dc:format
           id="imageformat">image/svg+xml</dc:format>
        <dc:type
           id="type1298"
           rdf:resource="http://purl.org/dc/dcmitype/StillImage" />
        <dc:creator
           id="creator1299">
          <cc:Agent
             id="Agent1300">
            <dc:title
               id="title1301">Ubuntu Icon</dc:title>
          </cc:Agent>
        </dc:creator>
        <dc:rights
           id="rights1303">
          <cc:Agent
             id="Agent1304">
            <dc:title
               id="creator">Andrew Fitzsimon</dc:title>
          </cc:Agent>
          <cc:Agent
             id="Agent1332">
            <dc:title
               id="company">Canonical Software</dc:title>
          </cc:Agent>
          <cc:Agent
             id="Agent1335">
            <dc:title
               id="owner">Mark Shuttleworth</dc:title>
          </cc:Agent>
        </dc:rights>
        <dc:date
           id="date1307">2004-09-01</dc:date>
        <dc:description
           id="description1309">Icon for the Ubuntu Icon Set</dc:description>
        <dc:contributor
           id="contributor1311">
          <cc:Agent
             id="Agent1312">
            <dc:title
               id="title1313">Andrew Fitzsimon</dc:title>
          </cc:Agent>
        </dc:contributor>
      </cc:Work>
    </rdf:RDF>
  </metadata>
  <g
     id="g2108"
     transform="matrix(1.234105,0.000000,0.000000,1.234105,-304.1633,-845.0849)">
    <path
       sodipodi:type="arc"
       style="fill:url(#radialGradient2044);fill-opacity:1.0000000;fill-rule:evenodd;stroke:none;stroke-width:1.0000000pt;stroke-linecap:butt;stroke-linejoin:miter;stroke-opacity:1.0000000;"
       id="path7309"
       sodipodi:cx="-289.09140"
       sodipodi:cy="598.36652"
       sodipodi:rx="125.20509"
       sodipodi:ry="125.20509"
       d="M -163.88631 598.36652 A 125.20509 125.20509 0 1 0 -414.29649,598.36652 A 125.20509 125.20509 0 1 0 -163.88631 598.36652 z"
       transform="matrix(-0.340924,0.000000,0.000000,0.106244,207.8660,739.7489)" />
    <path
       sodipodi:type="arc"
       style="fill:url(#radialGradient2044);fill-opacity:1.0000000;fill-rule:evenodd;stroke:none;stroke-width:1.0000000pt;stroke-linecap:butt;stroke-linejoin:miter;stroke-opacity:1.0000000;"
       id="path7310"
       sodipodi:cx="-289.09140"
       sodipodi:cy="598.36652"
       sodipodi:rx="125.20509"
       sodipodi:ry="125.20509"
       d="M -163.88631 598.36652 A 125.20509 125.20509 0 1 0 -414.29649,598.36652 A 125.20509 125.20509 0 1 0 -163.88631 598.36652 z"
       transform="matrix(-0.476521,0.000000,0.000000,7.080940e-2,176.2033,761.9165)" />
    <g
       transform="matrix(0.774299,0.000000,0.000000,0.774299,-46.19711,105.4049)"
       id="g1908">
      <path
         d="M 276.25000,26.750000 C 276.25000,-56.783068 208.53307,-124.50000 125.00000,-124.50000 C 41.466932,-124.50000 -26.250000,-56.783068 -26.250000,26.750000 C -26.250000,110.28307 41.466932,178.00000 125.00000,178.00000 C 208.53307,178.00000 276.25000,110.28307 276.25000,26.750000 z "
         transform="matrix(0.483865,0.000000,0.000000,0.483865,401.1361,815.7849)"
         style="fill:#666666;fill-opacity:1.0000000;fill-rule:evenodd;stroke:none;stroke-width:8.7163954;stroke-linecap:butt;stroke-linejoin:miter;stroke-miterlimit:4.0000000;stroke-opacity:1.0000000;"
         id="path3949" />
      <path
         d="M 62.539101,10.115279 C 57.864224,11.135653 52.866120,11.389424 48.692056,13.949262 C 47.075313,14.081339 40.543946,16.643722 44.903068,17.088669 C 47.603010,16.322363 48.857853,13.514873 51.872263,13.750315 C 55.108539,12.787497 58.437039,11.641922 61.965109,10.967908 C 62.329216,10.798660 62.336689,10.397381 62.539101,10.115279 z M 69.421351,11.021134 C 67.086044,13.706903 61.701091,13.536152 61.379299,17.910923 C 62.479933,19.423611 67.895560,12.303970 69.488032,16.702091 C 69.801688,19.650836 67.836540,23.372926 64.432018,21.451393 C 62.780066,21.313482 60.722883,21.653047 60.791540,20.174743 C 59.934240,22.343414 53.103593,26.540057 55.502846,21.864096 C 56.748849,20.927689 53.759387,20.757426 55.813024,19.148872 C 57.630488,17.303414 51.862855,17.477373 54.046674,19.468065 C 52.781516,21.212553 52.211206,23.068041 49.724655,23.371613 C 51.847004,23.134777 54.053158,22.791502 52.424949,25.056933 C 53.653936,29.674076 45.938591,27.263317 44.991841,30.671466 C 42.186314,35.185705 49.193574,34.946987 51.193877,32.722789 C 50.856071,28.548278 55.152005,29.780406 57.406200,29.368285 C 59.774211,27.610504 62.274569,33.048249 63.446568,34.992104 C 64.982971,35.802892 66.668995,32.625650 64.329018,31.804006 C 64.606532,30.243520 59.581734,27.602530 62.761981,27.488728 C 64.887647,28.619237 66.083564,30.961326 66.484383,32.486399 C 70.720918,32.294518 64.743035,37.190664 68.809293,35.701476 C 71.385700,35.240271 68.531698,30.943119 71.951896,32.628303 C 76.274713,34.288256 70.467581,27.050481 75.402523,27.019875 C 77.695216,25.666026 76.465173,31.724911 77.876864,28.763267 C 78.678393,23.965450 85.096066,30.552588 82.171295,32.473594 C 78.452670,31.439425 74.707148,31.137734 73.096523,35.325186 C 72.871843,37.297089 78.512393,32.480186 77.854407,35.997413 C 79.043556,39.727422 73.186623,40.406743 70.977247,39.114431 C 68.946067,36.669248 67.054328,38.948039 65.542466,40.060612 C 63.185690,39.731226 55.345388,39.108394 58.659811,35.595688 C 59.536481,31.928258 54.081720,35.261862 52.096402,34.435642 C 49.589749,35.793606 45.727609,34.591001 43.723692,36.615968 C 43.437109,38.964161 39.681529,37.669521 39.066643,40.495259 C 37.647371,43.711974 32.944121,44.786225 32.825622,48.234226 C 32.690635,52.087878 30.875526,55.594588 32.891329,59.391197 C 33.376047,63.274305 37.054509,65.676645 40.818157,64.764508 C 42.997454,64.717658 45.041886,67.444389 46.574635,64.156255 C 49.044725,60.087100 51.570641,66.424298 54.667083,64.778817 C 57.217094,67.715960 52.534284,71.209932 56.531343,73.266236 C 59.882720,76.816682 58.886941,81.748023 57.422769,85.870607 C 57.445402,89.190322 61.803292,90.918431 61.723481,94.208718 C 61.390683,98.917924 65.628653,103.04944 70.252619,100.77359 C 73.249500,99.928755 74.463029,96.369754 77.535335,95.547920 C 79.867150,93.579794 78.853556,87.830151 83.110193,87.690224 C 88.919004,85.747614 84.751614,78.803137 86.334651,74.871405 C 88.656665,72.128593 89.642278,68.069225 93.199140,66.550053 C 95.948356,64.142827 94.133423,59.291013 96.921975,56.564525 C 94.559947,58.385306 90.585237,59.978225 87.999598,57.766629 C 83.997964,54.295223 80.707190,49.952940 78.666562,45.055143 C 77.711541,42.889680 77.772104,38.534862 80.139492,38.555261 C 80.512507,43.099673 83.727042,46.760239 85.970151,50.533214 C 88.116487,52.985355 89.613486,56.830005 93.596561,55.544746 C 96.961746,54.403949 101.57498,52.173998 101.64883,48.184167 C 101.33473,43.666017 93.277653,47.885482 91.688186,43.275243 C 88.509102,41.381216 93.851794,38.252908 94.815139,41.764707 C 96.878293,43.869553 100.57893,42.757102 102.09611,45.601222 C 105.16725,44.228395 107.62423,45.194610 108.88950,48.416577 C 111.59635,51.097067 112.32905,55.159048 112.22827,58.832298 C 115.78048,62.295311 114.68866,53.793435 115.62789,51.702965 C 115.76933,49.720219 115.96960,47.278285 116.80468,50.521261 C 119.40389,51.766885 117.59263,46.471179 116.99924,45.278957 C 112.44098,34.864955 110.97585,32.957094 105.97570,26.961870 C 97.723626,18.868136 91.018124,15.414125 81.882302,12.402002 C 81.218088,15.646359 77.161265,12.790475 75.226317,15.507392 C 73.196085,17.041901 73.185986,16.846094 74.609454,14.808376 C 73.575610,12.954647 71.227972,12.068217 69.421351,11.021134 z M 55.027184,14.644529 C 52.998170,13.684107 47.971327,16.854175 52.472422,16.640283 C 53.745268,16.905438 54.169952,15.252593 55.027184,14.644529 z M 52.154975,19.394710 C 50.535159,20.014131 46.688085,21.104815 50.088397,21.831230 C 51.062017,21.374058 51.696342,20.324918 52.154975,19.394710 z M 61.434407,33.203392 C 58.971152,34.439161 61.273145,36.895458 62.573281,34.558446 C 62.264538,34.046289 61.780389,33.685146 61.434407,33.203392 z M 117.00054,59.495117 C 113.38284,61.960917 121.28610,63.816608 117.00054,59.495117 z M 13.601137,65.791882 C 13.391279,70.311792 14.551501,75.076552 15.560736,79.951297 C 16.862997,82.257798 17.738869,86.981366 19.237438,87.648382 C 20.799060,84.066896 17.587367,80.061093 19.460196,76.355747 C 17.205689,74.582399 20.239349,70.651628 16.574410,69.580220 C 15.420943,68.452338 14.561789,67.076667 13.601137,65.791882 z M 92.918202,80.373842 C 92.544321,84.546945 86.862240,85.527008 87.921749,89.756639 C 88.934016,91.973947 87.425511,92.137578 87.192709,93.934818 C 89.281907,95.537619 91.057773,90.320087 92.658963,88.903590 C 93.032383,86.841506 97.902133,79.890572 92.918202,80.373842 z "
         transform="matrix(1.368772,0.000000,0.000000,1.368772,369.6666,741.8494)"
         style="fill:#ffffff;fill-opacity:1.0000000;fill-rule:evenodd;stroke:none;stroke-width:1.0000000pt;stroke-linecap:butt;stroke-linejoin:miter;stroke-opacity:1.0000000;"
         id="path3950" />
      <path
         d="M 276.25000,26.750000 C 276.25000,-56.783068 208.53307,-124.50000 125.00000,-124.50000 C 41.466932,-124.50000 -26.250000,-56.783068 -26.250000,26.750000 C -26.250000,110.28307 41.466932,178.00000 125.00000,178.00000 C 208.53307,178.00000 276.25000,110.28307 276.25000,26.750000 z "
         transform="matrix(0.483865,0.000000,0.000000,0.483865,401.1361,815.7849)"
         style="fill:none;fill-opacity:1.0000000;fill-rule:evenodd;stroke:none;stroke-width:3.7500000;stroke-linecap:butt;stroke-linejoin:miter;stroke-miterlimit:4.0000000;stroke-opacity:1.0000000;"
         id="path3952" />
      <path
         d="M 276.25000,26.750000 C 276.25000,-56.783068 208.53307,-124.50000 125.00000,-124.50000 C 41.466932,-124.50000 -26.250000,-56.783068 -26.250000,26.750000 C -26.250000,110.28307 41.466932,178.00000 125.00000,178.00000 C 208.53307,178.00000 276.25000,110.28307 276.25000,26.750000 z "
         transform="matrix(0.483865,0.000000,0.000000,0.483865,401.1361,815.7849)"
         style="fill:none;fill-opacity:0.94117647;fill-rule:evenodd;stroke:#000000;stroke-width:5.8040280;stroke-linecap:butt;stroke-linejoin:miter;stroke-miterlimit:4.0000000;stroke-opacity:1.0000000;"
         id="path1906" />
    </g>
  </g>
</svg>
