<?xml version="1.0" encoding="UTF-8" standalone="no"?>
<!DOCTYPE svg PUBLIC "-//W3C//DTD SVG 20010904//EN"
"http://www.w3.org/TR/2001/REC-SVG-20010904/DTD/svg10.dtd">
<!-- Created by Andrew Fitzsimon (http://andy.fitzsimon.com.au/) -->
<!-- Created using Inkscape (http://www.inkscape.org/) -->
<svg
   id="ubuntuicon"
   sodipodi:version="0.32"
   inkscape:version="0.39cvs"
   width="160.00000"
   height="160.00000"
   sodipodi:docname="ooo-calc.svg"
   version="1.0"
   x="0.00000000"
   y="0.00000000"
   xmlns="http://www.w3.org/2000/svg"
   xmlns:cc="http://web.resource.org/cc/"
   xmlns:inkscape="http://www.inkscape.org/namespaces/inkscape"
   xmlns:sodipodi="http://sodipodi.sourceforge.net/DTD/sodipodi-0.dtd"
   xmlns:rdf="http://www.w3.org/1999/02/22-rdf-syntax-ns#"
   xmlns:dc="http://purl.org/dc/elements/1.1/"
   xmlns:xlink="http://www.w3.org/1999/xlink"
   sodipodi:docbase="C:\Documents and Settings\n4429206\Desktop\mm\ubuntu\apps">
  <defs
     id="definitions">
    <radialGradient
       inkscape:collect="always"
       xlink:href="#MaterialSoftShadow"
       id="radialGradient2044" />
    <linearGradient
       id="MaterialSoftShadow">
      <stop
         style="stop-color:#000000;stop-opacity:0.21472393;"
         offset="0.0000000"
         id="stop2619" />
      <stop
         style="stop-color:#000000;stop-opacity:0.098159507;"
         offset="0.50000000"
         id="stop2621" />
      <stop
         style="stop-color:#000000;stop-opacity:0.0000000;"
         offset="1.0000000"
         id="stop2620" />
    </linearGradient>
    <linearGradient
       id="linearGradient1693">
      <stop
         style="stop-color:#000;stop-opacity:1;"
         offset="0"
         id="stop1694" />
      <stop
         style="stop-color:#fff;stop-opacity:1;"
         offset="1"
         id="stop1695" />
    </linearGradient>
  </defs>
  <sodipodi:namedview
     id="base"
     pagecolor="#ffffff"
     bordercolor="#666666"
     borderopacity="1.0"
     inkscape:pageopacity="0.0"
     inkscape:pageshadow="2"
     inkscape:zoom="2.0000000"
     inkscape:cx="7.2052155"
     inkscape:cy="98.053925"
     inkscape:window-width="640"
     inkscape:window-height="524"
     inkscape:window-x="365"
     inkscape:window-y="189"
     showgrid="true"
     gridempspacing="5"
     gridtolerance="5.0000000mm"
     inkscape:grid-points="true"
     gridspacingx="1.2500000mm"
     gridspacingy="1.2500000mm"
     showguides="true"
     inkscape:guide-bbox="true"
     inkscape:grid-bbox="false" />
  <metadata
     id="metadata1293">
    <rdf:RDF
       id="RDF1294">
      <cc:Work
         rdf:about=""
         id="Work1295">
        <dc:format
           id="imageformat">image/svg+xml</dc:format>
        <dc:type
           id="type1298"
           rdf:resource="http://purl.org/dc/dcmitype/StillImage" />
        <dc:creator
           id="creator1299">
          <cc:Agent
             id="Agent1300">
            <dc:title
               id="title1301">Ubuntu Icon</dc:title>
          </cc:Agent>
        </dc:creator>
        <dc:rights
           id="rights1303">
          <cc:Agent
             id="Agent1304">
            <dc:title
               id="creator">Andrew Fitzsimon</dc:title>
          </cc:Agent>
          <cc:Agent
             id="Agent1332">
            <dc:title
               id="company">Canonical Software</dc:title>
          </cc:Agent>
          <cc:Agent
             id="Agent1335">
            <dc:title
               id="owner">Mark Shuttleworth</dc:title>
          </cc:Agent>
        </dc:rights>
        <dc:date
           id="date1307">2004-09-01</dc:date>
        <dc:description
           id="description1309">Icon for the Ubuntu Icon Set</dc:description>
        <dc:contributor
           id="contributor1311">
          <cc:Agent
             id="Agent1312">
            <dc:title
               id="title1313">Andrew Fitzsimon</dc:title>
          </cc:Agent>
        </dc:contributor>
      </cc:Work>
    </rdf:RDF>
  </metadata>
  <g
     id="g2894"
     transform="matrix(1.101241,0.000000,0.000000,1.101241,-31.67064,-943.0605)">
    <path
       sodipodi:type="arc"
       style="fill:url(#radialGradient2044);fill-opacity:1.0000000;fill-rule:evenodd;stroke:none;stroke-width:1.0000000pt;stroke-linecap:butt;stroke-linejoin:miter;stroke-opacity:1.0000000;"
       id="path2272"
       sodipodi:cx="-289.09140"
       sodipodi:cy="598.36652"
       sodipodi:rx="125.20509"
       sodipodi:ry="125.20509"
       d="M -163.88631 598.36652 A 125.20509 125.20509 0 1 0 -414.29649,598.36652 A 125.20509 125.20509 0 1 0 -163.88631 598.36652 z"
       transform="matrix(0.405818,0.000000,0.000000,6.630952e-2,198.5685,912.6848)" />
    <path
       sodipodi:type="arc"
       style="fill:url(#radialGradient2044);fill-opacity:1.0000000;fill-rule:evenodd;stroke:none;stroke-width:1.0000000pt;stroke-linecap:butt;stroke-linejoin:miter;stroke-opacity:1.0000000;"
       id="path2271"
       sodipodi:cx="-289.09140"
       sodipodi:cy="598.36652"
       sodipodi:rx="125.20509"
       sodipodi:ry="125.20509"
       d="M -163.88631 598.36652 A 125.20509 125.20509 0 1 0 -414.29649,598.36652 A 125.20509 125.20509 0 1 0 -163.88631 598.36652 z"
       transform="matrix(0.405818,0.000000,0.000000,0.106244,237.3185,916.2893)" />
    <g
       id="g2261"
       transform="translate(-251.2500,-31.25000)">
      <rect
         width="117.69166"
         height="71.059074"
         x="291.81854"
         y="910.79254"
         style="fill:#cccccc;fill-opacity:1.0000000;fill-rule:evenodd;stroke:#000000;stroke-width:0.27651260pt;stroke-linecap:butt;stroke-linejoin:miter;stroke-opacity:1.0000000;"
         id="rect3863" />
      <path
         d="M 291.81874,910.22538 L 291.81874,910.79511 L 291.34693,910.79511 L 291.34693,981.84977 L 291.81874,981.84977 L 291.81874,982.41950 L 409.51096,982.41950 L 409.51096,981.84977 L 409.98276,981.84977 L 409.98276,910.79511 L 409.51096,910.79511 L 409.51096,910.22538 L 291.81874,910.22538 z M 292.29054,911.36483 L 320.77195,911.36483 L 320.77195,922.06623 L 292.29054,922.06623 L 292.29054,911.36483 z M 321.71557,911.36483 L 350.18910,911.36483 L 350.18910,922.06623 L 321.71557,922.06623 L 321.71557,911.36483 z M 351.13272,911.36483 L 379.61413,911.36483 L 379.61413,922.06623 L 351.13272,922.06623 L 351.13272,911.36483 z M 380.55774,911.36483 L 409.03915,911.36483 L 409.03915,922.06623 L 380.55774,922.06623 L 380.55774,911.36483 z M 292.29054,923.20569 L 320.77195,923.20569 L 320.77195,933.90710 L 292.29054,933.90710 L 292.29054,923.20569 z M 321.71557,923.20569 L 350.18910,923.20569 L 350.18910,933.90710 L 321.71557,933.90710 L 321.71557,923.20569 z M 351.13272,923.20569 L 379.61413,923.20569 L 379.61413,933.90710 L 351.13272,933.90710 L 351.13272,923.20569 z M 380.55774,923.20569 L 409.03915,923.20569 L 409.03915,933.90710 L 380.55774,933.90710 L 380.55774,923.20569 z M 292.29054,935.04656 L 320.77195,935.04656 L 320.77195,945.74797 L 292.29054,945.74797 L 292.29054,935.04656 z M 321.71557,935.04656 L 350.18910,935.04656 L 350.18910,945.74797 L 321.71557,945.74797 L 321.71557,935.04656 z M 351.13272,935.04656 L 379.61413,935.04656 L 379.61413,945.74797 L 351.13272,945.74797 L 351.13272,935.04656 z M 380.55774,935.04656 L 409.03915,935.04656 L 409.03915,945.74797 L 380.55774,945.74797 L 380.55774,935.04656 z M 292.29054,946.88742 L 320.77195,946.88742 L 320.77195,957.59832 L 292.29054,957.59832 L 292.29054,946.88742 z M 321.71557,946.88742 L 350.18910,946.88742 L 350.18910,957.59832 L 321.71557,957.59832 L 321.71557,946.88742 z M 351.13272,946.88742 L 379.61413,946.88742 L 379.61413,957.59832 L 351.13272,957.59832 L 351.13272,946.88742 z M 380.55774,946.88742 L 409.03915,946.88742 L 409.03915,957.59832 L 380.55774,957.59832 L 380.55774,946.88742 z M 292.29054,958.73778 L 320.77195,958.73778 L 320.77195,969.43918 L 292.29054,969.43918 L 292.29054,958.73778 z M 321.71557,958.73778 L 350.18910,958.73778 L 350.18910,969.43918 L 321.71557,969.43918 L 321.71557,958.73778 z M 351.13272,958.73778 L 379.61413,958.73778 L 379.61413,969.43918 L 351.13272,969.43918 L 351.13272,958.73778 z M 380.55774,958.73778 L 409.03915,958.73778 L 409.03915,969.43918 L 380.55774,969.43918 L 380.55774,958.73778 z M 292.29054,970.57864 L 320.77195,970.57864 L 320.77195,981.28004 L 292.29054,981.28004 L 292.29054,970.57864 z M 321.71557,970.57864 L 350.18910,970.57864 L 350.18910,981.28004 L 321.71557,981.28004 L 321.71557,970.57864 z M 351.13272,970.57864 L 379.61413,970.57864 L 379.61413,981.28004 L 351.13272,981.28004 L 351.13272,970.57864 z M 380.55774,970.57864 L 409.03915,970.57864 L 409.03915,981.28004 L 380.55774,981.28004 L 380.55774,970.57864 z "
         style="fill:#ffffff;fill-opacity:1.0000000;fill-rule:evenodd;stroke:none;stroke-width:3.7500000;stroke-linecap:butt;stroke-linejoin:miter;stroke-miterlimit:4.0000000;stroke-opacity:1.0000000;"
         id="path3864" />
      <rect
         width="117.69166"
         height="71.059074"
         x="291.81854"
         y="910.79254"
         style="fill:none;fill-opacity:1.0000000;fill-rule:evenodd;stroke:#000000;stroke-width:1.8268936;stroke-linecap:butt;stroke-linejoin:miter;stroke-miterlimit:4.0000000;stroke-opacity:1.0000000;"
         id="rect3865" />
      <path
         d="M 324.60945,974.13480 L 324.60945,989.60285 C 324.60945,1002.4026 345.38922,1012.7925 370.98880,1012.7925 C 396.58836,1012.7925 417.36814,1002.4026 417.36814,989.60285 L 417.36814,974.13480 L 324.60945,974.13480 z "
         style="fill:#cccccc;fill-opacity:1.0000000;fill-rule:evenodd;stroke:#000000;stroke-width:1.4873121;stroke-linecap:butt;stroke-linejoin:miter;stroke-miterlimit:4.0000000;stroke-opacity:1.0000000;"
         id="path3867" />
      <path
         d="M 417.18629,974.13473 C 417.18629,961.32839 396.42303,950.94679 370.81026,950.94679 C 345.19748,950.94679 324.43423,961.32839 324.43423,974.13473 C 324.43423,986.94108 345.19748,997.32267 370.81026,997.32267 C 396.42303,997.32267 417.18629,986.94108 417.18629,974.13473 L 417.18629,974.13473 z "
         style="fill:#7b3535;fill-opacity:1.0000000;fill-rule:evenodd;stroke:#000000;stroke-width:1.0516868;stroke-linecap:butt;stroke-linejoin:miter;stroke-miterlimit:4.0000000;stroke-opacity:1.0000000;"
         id="path3868" />
      <path
         d="M 324.60945,974.13480 L 324.60945,989.60285 C 324.60945,1002.4026 345.38922,1012.7925 370.98880,1012.7925 L 370.98548,974.13480 L 324.60945,974.13480 z "
         style="fill:#666666;fill-opacity:1.0000000;fill-rule:evenodd;stroke:#000000;stroke-width:1.4873121;stroke-linecap:butt;stroke-linejoin:miter;stroke-miterlimit:4.0000000;stroke-opacity:1.0000000;"
         id="path3869" />
      <path
         d="M 370.98554,974.13473 L 324.43423,974.13473 C 324.43423,967.73486 329.62834,961.93788 338.02241,957.74086 C 346.41647,953.54384 358.01047,950.94679 370.81026,950.94679 C 383.61004,950.94679 395.20405,953.54384 403.59811,957.74086 L 370.98554,974.13473 z "
         style="fill:#333333;fill-opacity:1.0000000;fill-rule:evenodd;stroke:#000000;stroke-width:1.0516868;stroke-linecap:butt;stroke-linejoin:miter;stroke-miterlimit:4.0000000;stroke-opacity:1.0000000;"
         id="path3870" />
      <path
         d="M 370.98554,997.32267 C 358.18576,997.32267 346.41647,994.72562 338.02241,990.52861 C 329.62834,986.33159 324.43423,980.53460 324.43423,974.13473 L 370.98554,974.13473 L 370.98554,997.32267 z "
         style="fill:#aaaaaa;fill-opacity:1.0000000;fill-rule:evenodd;stroke:#000000;stroke-width:1.0516868;stroke-linecap:butt;stroke-linejoin:miter;stroke-miterlimit:4.0000000;stroke-opacity:1.0000000;"
         id="path3871" />
      <path
         d="M 417.18629,974.13473 C 417.18629,980.53460 411.99217,986.33159 403.59811,990.52861 C 395.20405,994.72562 383.78532,997.32267 370.98554,997.32267 L 370.98554,974.13473 L 403.59811,957.74086 C 411.99217,961.93788 417.18629,967.73486 417.18629,974.13473 z "
         style="fill:#eeeeee;fill-opacity:1.0000000;fill-rule:evenodd;stroke:#000000;stroke-width:1.0516868;stroke-linecap:butt;stroke-linejoin:miter;stroke-miterlimit:4.0000000;stroke-opacity:1.0000000;"
         id="path3872" />
    </g>
  </g>
</svg>
