<?xml version="1.0" encoding="UTF-8" standalone="no"?>
<!DOCTYPE svg PUBLIC "-//W3C//DTD SVG 20010904//EN"
"http://www.w3.org/TR/2001/REC-SVG-20010904/DTD/svg10.dtd">
<!-- Created by Andrew Fitzsimon (http://andy.fitzsimon.com.au/) -->
<!-- Created using Inkscape (http://www.inkscape.org/) -->
<svg
   id="ubuntuicon"
   sodipodi:version="0.32"
   inkscape:version="0.40cvs"
   width="160.00000"
   height="160.00000"
   sodipodi:docname="totem.svg"
   version="1.0"
   x="0.00000000"
   y="0.00000000"
   sodipodi:docbase="/home/andy/.icons/warty/scalable/apps"
   xmlns="http://www.w3.org/2000/svg"
   xmlns:cc="http://web.resource.org/cc/"
   xmlns:inkscape="http://www.inkscape.org/namespaces/inkscape"
   xmlns:sodipodi="http://sodipodi.sourceforge.net/DTD/sodipodi-0.dtd"
   xmlns:rdf="http://www.w3.org/1999/02/22-rdf-syntax-ns#"
   xmlns:dc="http://purl.org/dc/elements/1.1/"
   xmlns:xlink="http://www.w3.org/1999/xlink">
  <defs
     id="definitions">
    <linearGradient
       xlink:href="#linearGradient1696"
       id="linearGradient1701"
       x1="-1.7829458"
       y1="2.4062500"
       x2="0.78294575"
       y2="-0.070312500" />
    <linearGradient
       xlink:href="#linearGradient1696"
       id="linearGradient1700"
       x1="-1.0465117"
       y1="2.4921875"
       x2="1.1085272"
       y2="-0.16406250" />
    <radialGradient
       xlink:href="#linearGradient1806"
       id="radialGradient1702"
       cx="0.50000000"
       cy="0.50000000"
       r="0.50000000"
       fx="0.50000000"
       fy="0.50000000" />
    <linearGradient
       id="linearGradient1675">
      <stop
         style="stop-color:#e3dfd7;stop-opacity:1.0000000;"
         offset="0.0000000"
         id="stop1676" />
      <stop
         style="stop-color:#c3beb4;stop-opacity:1.0000000;"
         offset="0.74752575"
         id="stop1677" />
      <stop
         style="stop-color:#807d75;stop-opacity:1.0000000;"
         offset="1.0000000"
         id="stop1678" />
    </linearGradient>
    <radialGradient
       xlink:href="#linearGradient1675"
       id="radialGradient1679"
       cx="0.37984496"
       cy="0.60937500"
       r="0.57385617"
       fx="0.39534882"
       fy="0.60156250" />
    <linearGradient
       xlink:href="#linearGradient1696"
       id="linearGradient1674"
       x1="2.3333333"
       y1="2.4140625"
       x2="0.17054264"
       y2="0.070312500" />
    <linearGradient
       id="linearGradient1806">
      <stop
         style="stop-color:#000000;stop-opacity:0.53103447;"
         offset="0.0000000"
         id="stop1807" />
      <stop
         style="stop-color:#000000;stop-opacity:0.073446326;"
         offset="0.64777780"
         id="stop3276" />
      <stop
         style="stop-color:#000000;stop-opacity:0.0000000;"
         offset="1.0000000"
         id="stop1808" />
    </linearGradient>
    <linearGradient
       id="linearGradient1696">
      <stop
         style="stop-color:#000000;stop-opacity:1.0000000;"
         offset="0.0000000"
         id="stop6349" />
      <stop
         style="stop-color:#ffffff;stop-opacity:1.0000000;"
         offset="1.0000000"
         id="stop1699" />
    </linearGradient>
    <linearGradient
       xlink:href="#linearGradient1696"
       id="linearGradient1704"
       x1="0.34975782"
       y1="-0.31772891"
       x2="0.99279398"
       y2="0.95100886"
       gradientTransform="matrix(0.852263,0.000000,0.000000,1.262765,6.779076e-4,6.150687e-3)" />
    <linearGradient
       id="linearGradient1993">
      <stop
         style="stop-color:#ffffff;stop-opacity:0.0000000;"
         offset="0.0000000"
         id="stop1994" />
      <stop
         style="stop-color:#ffffff;stop-opacity:0.0000000;"
         offset="0.63866937"
         id="stop1997" />
      <stop
         style="stop-color:#ffffff;stop-opacity:0.60689658;"
         offset="0.73742270"
         id="stop1996" />
      <stop
         style="stop-color:#ffffff;stop-opacity:0.0000000;"
         offset="1.0000000"
         id="stop1995" />
    </linearGradient>
    <radialGradient
       xlink:href="#linearGradient1993"
       id="radialGradient1992"
       cx="0.50000000"
       cy="0.50000000"
       r="0.50000000"
       fx="0.50000000"
       fy="0.50000000" />
    <linearGradient
       id="MaterialSoftShadow">
      <stop
         style="stop-color:#000000;stop-opacity:0.21472393;"
         offset="0.0000000"
         id="stop2619" />
      <stop
         style="stop-color:#000000;stop-opacity:0.098159507;"
         offset="0.50000000"
         id="stop2621" />
      <stop
         style="stop-color:#000000;stop-opacity:0.0000000;"
         offset="1.0000000"
         id="stop2620" />
    </linearGradient>
    <radialGradient
       xlink:href="#MaterialSoftShadow"
       id="radialGradient1505"
       cx="0.50000000"
       cy="0.50000000"
       r="0.50000000"
       fx="0.50000000"
       fy="0.50000000" />
    <linearGradient
       inkscape:collect="always"
       xlink:href="#linearGradient1696"
       id="linearGradient1685"
       x1="1.7463411"
       y1="1.6808403"
       x2="0.13760971"
       y2="0.041982591"
       gradientTransform="matrix(0.805714,0.000000,0.000000,1.335720,5.077178e-4,4.265256e-3)" />
  </defs>
  <sodipodi:namedview
     id="base"
     pagecolor="#ffffff"
     bordercolor="#666666"
     borderopacity="1.0"
     inkscape:pageopacity="0.0"
     inkscape:pageshadow="2"
     inkscape:zoom="2.0000000"
     inkscape:cx="115.63981"
     inkscape:cy="46.582642"
     inkscape:window-width="640"
     inkscape:window-height="524"
     inkscape:window-x="466"
     inkscape:window-y="104"
     showgrid="false"
     gridempspacing="5"
     gridtolerance="5.0000000mm"
     inkscape:grid-points="false"
     gridspacingx="1.2500000mm"
     gridspacingy="1.2500000mm"
     showguides="true"
     inkscape:guide-bbox="true"
     inkscape:grid-bbox="false"
     showborder="true"
     inkscape:current-layer="ubuntuicon" />
  <metadata
     id="metadata1293">
    <rdf:RDF
       id="RDF1294">
      <cc:Work
         rdf:about=""
         id="Work1295">
        <dc:format
           id="imageformat">image/svg+xml</dc:format>
        <dc:type
           id="type1298"
           rdf:resource="http://purl.org/dc/dcmitype/StillImage" />
        <dc:creator
           id="creator1299">
          <cc:Agent
             id="Agent1300">
            <dc:title
               id="title1301">Ubuntu Icon</dc:title>
          </cc:Agent>
        </dc:creator>
        <dc:rights
           id="rights1303">
          <cc:Agent
             id="Agent1304">
            <dc:title
               id="creator">Andrew Fitzsimon</dc:title>
          </cc:Agent>
          <cc:Agent
             id="Agent1332">
            <dc:title
               id="company">Canonical Software</dc:title>
          </cc:Agent>
          <cc:Agent
             id="Agent1335">
            <dc:title
               id="owner">Mark Shuttleworth</dc:title>
          </cc:Agent>
        </dc:rights>
        <dc:date
           id="date1307">2004-09-01</dc:date>
        <dc:description
           id="description1309">Icon for the Ubuntu Icon Set</dc:description>
        <dc:contributor
           id="contributor1311">
          <cc:Agent
             id="Agent1312">
            <dc:title
               id="title1313">Andrew Fitzsimon</dc:title>
          </cc:Agent>
        </dc:contributor>
      </cc:Work>
    </rdf:RDF>
  </metadata>
  <g
     id="gnome-stock-film"
     transform="matrix(1.332495,0.000000,0.000000,1.409478,-37.70325,-47.73114)">
    <path
       sodipodi:type="arc"
       style="fill:url(#radialGradient1992);fill-opacity:0.75000000;fill-rule:evenodd;stroke-width:1.0000000pt;"
       id="path1991"
       sodipodi:cx="129.78357"
       sodipodi:cy="141.07616"
       sodipodi:rx="77.496658"
       sodipodi:ry="77.496658"
       d="M 207.28023 141.07616 A 77.496658 77.496658 0 1 0 52.286911,141.07616 A 77.496658 77.496658 0 1 0 207.28023 141.07616 z"
       transform="matrix(0.700511,0.000000,0.000000,0.700511,-1.589935,-9.725626)" />
    <g
       id="g2448"
       transform="matrix(0.756983,0.000000,0.000000,0.756983,33.15941,33.92462)">
      <path
         style="fill:#c1c1c1;fill-rule:evenodd;stroke-width:2.5000000;"
         d="M 73.944845,9.6311402 C 37.958140,9.6311402 8.7446019,38.844677 8.7446019,74.831384 C 8.7446019,110.81809 37.958139,140.03162 73.944845,140.03162 C 109.93155,140.03162 139.14509,110.81809 139.14509,74.831384 C 139.14509,38.844678 109.93155,9.6311402 73.944845,9.6311402 z M 85.775176,17.132577 C 93.933581,17.132577 100.57050,23.739849 100.57050,31.898253 C 100.57050,40.056655 93.933571,46.693579 85.775176,46.693579 C 77.616774,46.693579 71.009503,40.056653 71.009500,31.898253 C 71.009500,23.739851 77.616771,17.132577 85.775176,17.132577 z M 41.804297,28.399559 C 49.962699,28.399559 56.569972,35.006832 56.569973,43.165235 C 56.569973,51.323637 49.962700,57.960563 41.804297,57.960562 C 33.645896,57.960562 27.008971,51.323636 27.008972,43.165235 C 27.008972,35.006833 33.645896,28.399558 41.804297,28.399559 z M 116.04778,48.798726 C 124.20618,48.798726 130.81346,55.435652 130.81345,63.594053 C 130.81345,71.752455 124.20617,78.359731 116.04778,78.359727 C 107.88937,78.359727 101.25245,71.752456 101.25245,63.594053 C 101.25245,55.435650 107.88937,48.798726 116.04778,48.798726 z M 71.513549,59.887809 C 73.650273,59.887809 75.397689,61.605580 75.397693,63.742302 C 75.397693,65.879027 73.650275,67.626443 71.513549,67.626446 C 69.376825,67.626446 67.659054,65.879029 67.659055,63.742302 C 67.659055,61.605578 69.376826,59.887808 71.513549,59.887809 z M 83.136330,62.170855 C 85.273055,62.170855 87.020474,63.918274 87.020474,66.054999 C 87.020474,68.191723 85.273053,69.909494 83.136330,69.909492 C 80.999606,69.909492 79.281839,68.191722 79.281836,66.054999 C 79.281836,63.918274 80.999604,62.170852 83.136330,62.170855 z M 62.559264,68.515945 C 64.695988,68.515945 66.413756,70.233717 66.413757,72.370438 C 66.413757,74.507163 64.695985,76.254580 62.559264,76.254582 C 60.422539,76.254582 58.675122,74.507166 58.675120,72.370438 C 58.675120,70.233714 60.422536,68.515945 62.559264,68.515945 z M 29.825717,71.332690 C 37.984119,71.332690 44.621045,77.939963 44.621043,86.098365 C 44.621043,94.256767 37.984119,100.89369 29.825717,100.89369 C 21.667315,100.89369 15.060041,94.256767 15.060041,86.098365 C 15.060041,77.939963 21.667315,71.332688 29.825717,71.332690 z M 87.020474,74.653485 C 89.157196,74.653485 90.874967,76.400908 90.874967,78.537627 C 90.874967,80.674352 89.157196,82.392119 87.020474,82.392121 C 84.883749,82.392121 83.136329,80.674355 83.136330,78.537627 C 83.136330,76.400904 84.883751,74.653485 87.020474,74.653485 z M 66.235858,80.109075 C 68.372582,80.109075 70.119998,81.856494 70.120001,83.993218 C 70.120001,86.129943 68.372584,87.847714 66.235858,87.847712 C 64.099133,87.847712 62.381364,86.129942 62.381364,83.993218 C 62.381364,81.856494 64.099135,80.109072 66.235858,80.109075 z M 78.570237,83.637419 C 80.706962,83.637419 82.424733,85.384840 82.424731,87.521563 C 82.424731,89.658287 80.706962,91.376053 78.570237,91.376056 C 76.433513,91.376056 74.686092,89.658289 74.686094,87.521563 C 74.686094,85.384838 76.433513,83.637418 78.570237,83.637419 z M 105.84819,92.087655 C 114.00660,92.087655 120.61387,98.694926 120.61387,106.85333 C 120.61387,115.01173 114.00660,121.64865 105.84819,121.64865 C 97.689788,121.64865 91.052867,115.01172 91.052867,106.85333 C 91.052867,98.694926 97.689798,92.087658 105.84819,92.087655 z M 63.597012,102.64303 C 71.755414,102.64303 78.392334,109.25031 78.392338,117.40871 C 78.392338,125.56712 71.755416,132.20405 63.597012,132.20404 C 55.438610,132.20404 48.831336,125.56711 48.831336,117.40871 C 48.831336,109.25031 55.438612,102.64303 63.597012,102.64303 z "
         id="path1075" />
      <path
         style="fill:url(#linearGradient1704);fill-opacity:1.0;fill-rule:evenodd;stroke:none;stroke-width:2.5000000;"
         d="M 75.389137,11.735559 C 39.402432,11.735559 10.188894,40.353702 10.188894,75.606971 C 10.188894,110.86023 39.402431,139.47838 75.389137,139.47838 C 111.37585,139.47838 140.58938,110.86023 140.58938,75.606971 C 140.58938,40.353703 111.37585,11.735559 75.389137,11.735559 z M 87.219466,19.084112 C 95.377871,19.084112 102.01479,25.556723 102.01479,33.548851 C 102.01479,41.540979 95.377861,48.042638 87.219466,48.042638 C 79.061066,48.042638 72.453795,41.540977 72.453792,33.548851 C 72.453792,25.556724 79.061063,19.084112 87.219466,19.084112 z M 43.248590,30.121464 C 51.406992,30.121464 58.014265,36.594075 58.014266,44.586204 C 58.014266,52.578331 51.406993,59.079990 43.248590,59.079989 C 35.090188,59.079989 28.453263,52.578330 28.453264,44.586204 C 28.453264,36.594076 35.090189,30.121463 43.248590,30.121464 z M 117.49207,50.104880 C 125.65047,50.104880 132.25775,56.606539 132.25774,64.598665 C 132.25774,72.590792 125.65046,79.063409 117.49207,79.063405 C 109.33366,79.063405 102.69674,72.590794 102.69674,64.598665 C 102.69674,56.606537 109.33366,50.104880 117.49207,50.104880 z M 72.957841,60.967957 C 75.094566,60.967957 76.841981,62.650718 76.841985,64.743893 C 76.841985,66.837069 75.094568,68.548873 72.957841,68.548874 C 70.821117,68.548874 69.103347,66.837071 69.103347,64.743893 C 69.103347,62.650716 70.821119,60.967956 72.957841,60.967957 z M 84.580622,63.204473 C 86.717343,63.204473 88.464764,64.916278 88.464764,67.009455 C 88.464764,69.102631 86.717343,70.785393 84.580622,70.785391 C 82.443900,70.785391 80.726129,69.102630 80.726129,67.009455 C 80.726129,64.916278 82.443900,63.204470 84.580622,63.204473 z M 64.003556,69.420244 C 66.140280,69.420244 67.858049,71.103008 67.858050,73.196181 C 67.858050,75.289357 66.140277,77.001161 64.003556,77.001163 C 61.866831,77.001163 60.119414,75.289360 60.119412,73.196181 C 60.119412,71.103005 61.866828,69.420245 64.003556,69.420244 z M 31.270009,72.179583 C 39.428411,72.179583 46.065337,78.652196 46.065335,86.644323 C 46.065335,94.636452 39.428411,101.13810 31.270009,101.13810 C 23.111607,101.13810 16.504333,94.636452 16.504333,86.644323 C 16.504333,78.652196 23.111607,72.179581 31.270009,72.179583 z M 88.464764,75.432697 C 90.601487,75.432697 92.319258,77.144506 92.319258,79.237678 C 92.319258,81.330855 90.601487,83.013612 88.464764,83.013614 C 86.328041,83.013614 84.580622,81.330858 84.580622,79.237678 C 84.580622,77.144503 86.328041,75.432698 88.464764,75.432697 z M 67.680150,80.777099 C 69.816874,80.777099 71.564291,82.488904 71.564293,84.582081 C 71.564293,86.675257 69.816876,88.358019 67.680150,88.358017 C 65.543425,88.358017 63.825656,86.675256 63.825656,84.582081 C 63.825656,82.488904 65.543427,80.777096 67.680150,80.777099 z M 80.014530,84.233533 C 82.151252,84.233533 83.869023,85.945340 83.869023,88.038514 C 83.869023,90.131695 82.151252,91.814447 80.014530,91.814447 C 77.877805,91.814447 76.130384,90.131695 76.130386,88.038514 C 76.130386,85.945338 77.877805,84.233532 80.014530,84.233533 z M 107.29248,92.511542 C 115.45089,92.511542 122.05816,98.984143 122.05816,106.97628 C 122.05816,114.96841 115.45089,121.47006 107.29248,121.47006 C 99.134079,121.47006 92.497157,114.96840 92.497157,106.97628 C 92.497157,98.984143 99.134088,92.511552 107.29248,92.511542 z M 65.041304,102.85180 C 73.199706,102.85180 79.836626,109.32440 79.836630,117.31653 C 79.836630,125.30866 73.199708,131.81033 65.041304,131.81032 C 56.882902,131.81032 50.275628,125.30865 50.275628,117.31653 C 50.275628,109.32440 56.882904,102.85180 65.041304,102.85180 z "
         id="path1705" />
      <path
         style="fill:#565248;fill-rule:evenodd;stroke-width:1.0000000pt;"
         d="M 73.808494,29.692993 C 49.084805,29.692993 29.007417,49.770379 29.007417,74.494070 C 29.007419,99.217765 49.084803,119.29515 73.808494,119.29515 C 98.532189,119.29515 118.57992,99.217765 118.57992,74.494070 C 118.57993,49.770381 98.532189,29.692993 73.808494,29.692993 z M 71.347548,59.431895 C 73.484271,59.431895 75.231689,61.149664 75.231692,63.286389 C 75.231692,65.423113 73.484268,67.170527 71.347548,67.170532 C 69.210825,67.170532 67.493057,65.423113 67.493054,63.286389 C 67.493054,61.149664 69.210823,59.431896 71.347548,59.431895 z M 82.970329,61.714941 C 85.107052,61.714941 86.854473,63.462358 86.854473,65.599085 C 86.854473,67.735809 85.107049,69.453578 82.970329,69.453578 C 80.833607,69.453578 79.115833,67.735806 79.115835,65.599085 C 79.115835,63.462360 80.833604,61.714936 82.970329,61.714941 z M 62.393263,68.060031 C 64.529987,68.060031 66.247759,69.777801 66.247756,71.914524 C 66.247756,74.051249 64.529988,75.798664 62.393263,75.798668 C 60.256538,75.798668 58.509125,74.051250 58.509119,71.914524 C 58.509119,69.777800 60.256539,68.060030 62.393263,68.060031 z M 86.854473,74.197571 C 88.991195,74.197571 90.708966,75.944992 90.708966,78.081714 C 90.708966,80.218439 88.991195,81.936204 86.854473,81.936208 C 84.717750,81.936208 82.970326,80.218440 82.970329,78.081714 C 82.970329,75.944990 84.717747,74.197570 86.854473,74.197571 z M 66.069857,79.653162 C 68.206581,79.653162 69.953997,81.400579 69.954000,83.537306 C 69.954000,85.674030 68.206587,87.391799 66.069857,87.391799 C 63.933132,87.391799 62.215367,85.674027 62.215363,83.537306 C 62.215363,81.400581 63.933138,79.653157 66.069857,79.653162 z M 78.404237,83.181506 C 80.540959,83.181506 82.258727,84.928925 82.258730,87.065650 C 82.258730,89.202374 80.540956,90.920135 78.404237,90.920143 C 76.267514,90.920143 74.520090,89.202374 74.520093,87.065650 C 74.520093,84.928925 76.267511,83.181503 78.404237,83.181506 z "
         id="path910" />
      <path
         sodipodi:type="arc"
         style="fill:url(#radialGradient1505);fill-opacity:0.75000000;fill-rule:evenodd;stroke-width:1.0000000pt;"
         id="path2723"
         sodipodi:cx="25.912205"
         sodipodi:cy="175.83524"
         sodipodi:rx="56.143108"
         sodipodi:ry="56.143108"
         d="M 82.055313 175.83524 A 56.143108 56.143108 0 1 0 -30.230904,175.83524 A 56.143108 56.143108 0 1 0 82.055313 175.83524 z"
         transform="matrix(1.141984,0.000000,0.000000,0.197904,49.87833,103.4431)" />
      <path
         style="fill:url(#linearGradient1685);fill-rule:evenodd;stroke:#000000;stroke-width:1.7497958;stroke-miterlimit:4.0000000;stroke-opacity:1.0000000;fill-opacity:1.0;"
         d="M 73.808494,9.2938266 C 37.821789,9.2938264 8.6082504,38.507364 8.6082504,74.494070 C 8.6082504,110.48078 37.821788,139.69431 73.808494,139.69431 C 109.79520,139.69431 139.00874,110.48078 139.00874,74.494070 C 139.00874,38.507365 109.79520,9.2938266 73.808494,9.2938266 z M 85.638825,16.795264 C 93.797230,16.795264 100.43415,23.402536 100.43415,31.560940 C 100.43415,39.719342 93.797220,46.356266 85.638825,46.356266 C 77.480423,46.356266 70.873152,39.719340 70.873149,31.560940 C 70.873149,23.402538 77.480420,16.795264 85.638825,16.795264 z M 41.667946,28.062246 C 49.826348,28.062246 56.433621,34.669519 56.433622,42.827922 C 56.433622,50.986324 49.826349,57.623249 41.667946,57.623248 C 33.509545,57.623248 26.872620,50.986323 26.872621,42.827922 C 26.872621,34.669520 33.509545,28.062245 41.667946,28.062246 z M 115.91143,48.461413 C 124.06983,48.461413 130.67711,55.098339 130.67710,63.256739 C 130.67710,71.415141 124.06982,78.022418 115.91143,78.022414 C 107.75302,78.022414 101.11610,71.415142 101.11610,63.256739 C 101.11610,55.098337 107.75302,48.461413 115.91143,48.461413 z M 71.377198,59.550495 C 73.513922,59.550495 75.261338,61.268266 75.261342,63.404988 C 75.261342,65.541713 73.513924,67.289129 71.377198,67.289132 C 69.240474,67.289132 67.522703,65.541715 67.522704,63.404988 C 67.522704,61.268264 69.240475,59.550494 71.377198,59.550495 z M 82.999979,61.833541 C 85.136704,61.833541 86.884123,63.580960 86.884123,65.717685 C 86.884123,67.854409 85.136702,69.572180 82.999979,69.572178 C 80.863255,69.572178 79.145488,67.854408 79.145485,65.717685 C 79.145485,63.580960 80.863253,61.833538 82.999979,61.833541 z M 62.422913,68.178631 C 64.559637,68.178631 66.277405,69.896403 66.277406,72.033124 C 66.277406,74.169849 64.559634,75.917266 62.422913,75.917268 C 60.286188,75.917268 58.538771,74.169852 58.538769,72.033124 C 58.538769,69.896400 60.286185,68.178631 62.422913,68.178631 z M 29.689366,70.995376 C 37.847768,70.995376 44.484694,77.602650 44.484692,85.761052 C 44.484692,93.919454 37.847768,100.55638 29.689366,100.55638 C 21.530964,100.55638 14.923690,93.919454 14.923690,85.761052 C 14.923690,77.602650 21.530964,70.995374 29.689366,70.995376 z M 86.884123,74.316171 C 89.020845,74.316171 90.738616,76.063594 90.738616,78.200314 C 90.738616,80.337039 89.020845,82.054806 86.884123,82.054808 C 84.747398,82.054808 82.999978,80.337042 82.999979,78.200314 C 82.999979,76.063590 84.747400,74.316171 86.884123,74.316171 z M 66.099507,79.771762 C 68.236231,79.771762 69.983647,81.519181 69.983650,83.655905 C 69.983650,85.792630 68.236233,87.510401 66.099507,87.510399 C 63.962782,87.510399 62.245013,85.792629 62.245013,83.655905 C 62.245013,81.519181 63.962784,79.771759 66.099507,79.771762 z M 78.433886,83.300106 C 80.570611,83.300106 82.288382,85.047527 82.288380,87.184250 C 82.288380,89.320974 80.570611,91.038740 78.433886,91.038743 C 76.297162,91.038743 74.549741,89.320976 74.549743,87.184250 C 74.549743,85.047525 76.297162,83.300105 78.433886,83.300106 z M 105.71184,91.750342 C 113.87025,91.750342 120.47752,98.357613 120.47752,106.51602 C 120.47752,114.67442 113.87025,121.31134 105.71184,121.31134 C 97.553437,121.31134 90.916516,114.67441 90.916516,106.51602 C 90.916516,98.357613 97.553447,91.750345 105.71184,91.750342 z M 63.460661,102.30572 C 71.619063,102.30572 78.255983,108.91300 78.255987,117.07140 C 78.255987,125.22981 71.619065,131.86674 63.460661,131.86673 C 55.302259,131.86673 48.694985,125.22980 48.694985,117.07140 C 48.694985,108.91300 55.302261,102.30572 63.460661,102.30572 z "
         id="path909" />
      <path
         style="fill-opacity:0.075471647;fill-rule:evenodd;stroke-width:1.0000000pt;"
         d="M 60.235654,19.378580 C 58.872415,19.728021 62.846284,40.929544 65.530515,57.068875 C 67.983785,55.845276 70.717483,55.076186 73.643607,55.076186 C 73.682276,55.076186 73.718862,55.075945 73.757475,55.076186 C 68.341414,39.627666 61.601974,19.028348 60.235654,19.378580 z M 113.52586,34.295283 C 112.53569,33.283344 95.980064,47.518245 83.322384,57.922885 C 85.752092,59.449422 87.760034,61.527342 89.243519,63.986354 C 99.920832,51.557839 114.51605,35.307219 113.52586,34.295283 z M 22.175288,57.865951 C 21.270118,57.828299 20.722419,57.893850 20.666537,58.093687 C 20.291727,59.434056 40.178571,66.439910 55.453200,72.156380 C 55.649347,69.234010 56.519109,66.515806 57.929828,64.128689 C 44.264699,61.543706 27.368768,58.081980 22.175288,57.865951 z M 91.890951,73.608197 C 91.853673,76.563715 91.066929,79.318464 89.784391,81.778223 C 105.85336,84.813037 126.86866,89.251447 127.24695,87.898626 C 127.62653,86.541225 107.21557,79.357009 91.890951,73.608197 z M 58.015230,82.774567 C 47.384790,95.115869 33.446582,110.70622 34.416094,111.69703 C 35.384791,112.68701 51.228558,99.110029 63.794028,88.752635 C 61.422499,87.234114 59.471620,85.188684 58.015230,82.774567 z M 82.468374,89.293508 C 80.064531,90.630434 77.353151,91.442486 74.440682,91.570867 C 79.820580,106.96057 86.359760,126.93042 87.706304,126.58527 C 89.058494,126.23865 85.154665,105.39493 82.468374,89.293508 z "
         id="polygon1708" />
      <path
         style="fill:url(#radialGradient1679);fill-rule:evenodd;stroke-width:1.0000000pt;"
         d="M 74.312543,55.073352 C 63.598945,55.073354 54.891825,63.780471 54.891825,74.494070 C 54.891827,85.207672 63.598944,93.914789 74.312543,93.914789 C 85.026145,93.914790 93.703612,85.207670 93.703612,74.494070 C 93.703612,63.780472 85.026143,55.073352 74.312543,55.073352 z M 71.347548,59.431895 C 73.484273,59.431895 75.231685,61.149665 75.231692,63.286389 C 75.231692,65.423113 73.484272,67.170528 71.347548,67.170532 C 69.210824,67.170532 67.493051,65.423114 67.493054,63.286389 C 67.493054,61.149664 69.210823,59.431893 71.347548,59.431895 z M 82.970329,61.714941 C 85.107054,61.714941 86.854473,63.462359 86.854473,65.599085 C 86.854473,67.735809 85.107049,69.453579 82.970329,69.453578 C 80.833605,69.453578 79.115835,67.735807 79.115835,65.599085 C 79.115835,63.462360 80.833600,61.714937 82.970329,61.714941 z M 62.393263,68.060031 C 64.529987,68.060031 66.247753,69.777802 66.247756,71.914524 C 66.247756,74.051249 64.529981,75.798665 62.393263,75.798668 C 60.256538,75.798668 58.509118,74.051251 58.509119,71.914524 C 58.509119,69.777800 60.256532,68.060031 62.393263,68.060031 z M 86.854473,74.197571 C 88.991195,74.197571 90.708966,75.944993 90.708966,78.081714 C 90.708966,80.218439 88.991195,81.936205 86.854473,81.936208 C 84.717748,81.936208 82.970325,80.218441 82.970329,78.081714 C 82.970329,75.944990 84.717747,74.197571 86.854473,74.197571 z M 66.069857,79.653162 C 68.206581,79.653162 69.953995,81.400580 69.954000,83.537306 C 69.954000,85.674030 68.206580,87.391800 66.069857,87.391799 C 63.933132,87.391799 62.215360,85.674028 62.215363,83.537306 C 62.215363,81.400581 63.933131,79.653158 66.069857,79.653162 z M 78.404237,83.181506 C 80.540961,83.181506 82.258729,84.928926 82.258730,87.065650 C 82.258730,89.202374 80.540958,90.920140 78.404237,90.920143 C 76.267512,90.920143 74.520088,89.202375 74.520093,87.065650 C 74.520093,84.928925 76.267509,83.181504 78.404237,83.181506 z "
         id="path911" />
      <path
         sodipodi:type="arc"
         style="fill:url(#radialGradient1702);fill-opacity:0.28301886;fill-rule:evenodd;stroke-width:1.0000000pt;"
         id="path1504"
         sodipodi:cx="112.00817"
         sodipodi:cy="77.668579"
         sodipodi:rx="6.4905396"
         sodipodi:ry="6.4905396"
         d="M 118.49871 77.668579 A 6.4905396 6.4905396 0 1 0 105.51763,77.668579 A 6.4905396 6.4905396 0 1 0 118.49871 77.668579 z"
         transform="matrix(-0.948798,0.000000,0.000000,0.948798,182.4143,2.219044)" />
      <path
         sodipodi:type="arc"
         style="fill:url(#linearGradient1700);fill-rule:evenodd;stroke-width:1.0000000pt;"
         id="path1505"
         sodipodi:cx="112.37906"
         sodipodi:cy="77.483139"
         sodipodi:rx="5.5633197"
         sodipodi:ry="5.5633197"
         d="M 117.94238 77.483139 A 5.5633197 5.5633197 0 1 0 106.81574,77.483139 A 5.5633197 5.5633197 0 1 0 117.94238 77.483139 z"
         transform="matrix(-0.948798,0.000000,0.000000,0.948798,180.3029,1.163349)" />
      <path
         sodipodi:type="arc"
         style="fill:url(#linearGradient1701);fill-opacity:0.75000000;fill-rule:evenodd;stroke-width:1.0000000pt;"
         id="path1506"
         sodipodi:cx="112.74995"
         sodipodi:cy="77.112251"
         sodipodi:rx="2.5962157"
         sodipodi:ry="2.5962157"
         d="M 115.34616 77.112251 A 2.5962157 2.5962157 0 1 0 110.15373,77.112251 A 2.5962157 2.5962157 0 1 0 115.34616 77.112251 z"
         transform="matrix(-0.948798,0.000000,0.000000,0.948798,180.3029,1.163349)" />
    </g>
  </g>
</svg>
