<?xml version="1.0" encoding="UTF-8" standalone="no"?>
<!DOCTYPE svg PUBLIC "-//W3C//DTD SVG 20010904//EN"
"http://www.w3.org/TR/2001/REC-SVG-20010904/DTD/svg10.dtd">
<!-- Created by Andrew Fitzsimon (http://andy.fitzsimon.com.au/) -->
<!-- Created using Inkscape (http://www.inkscape.org/) -->
<svg
   id="ubuntuicon"
   sodipodi:version="0.32"
   inkscape:version="0.39cvs"
   width="160.00000"
   height="160.00000"
   sodipodi:docname="emblem-tux.svg"
   version="1.0"
   x="0.00000000"
   y="0.00000000"
   xmlns="http://www.w3.org/2000/svg"
   xmlns:cc="http://web.resource.org/cc/"
   xmlns:inkscape="http://www.inkscape.org/namespaces/inkscape"
   xmlns:sodipodi="http://sodipodi.sourceforge.net/DTD/sodipodi-0.dtd"
   xmlns:rdf="http://www.w3.org/1999/02/22-rdf-syntax-ns#"
   xmlns:dc="http://purl.org/dc/elements/1.1/"
   xmlns:xlink="http://www.w3.org/1999/xlink"
   sodipodi:docbase="C:\Documents and Settings\n4431324\Desktop\New Folder\uma\emblems">
  <defs
     id="definitions">
    <linearGradient
       id="linearGradient1557">
      <stop
         style="stop-color:#ffffff;stop-opacity:0.0000000;"
         offset="0.0000000"
         id="stop1558" />
      <stop
         style="stop-color:#fff;stop-opacity:1;"
         offset="1"
         id="stop1559" />
    </linearGradient>
    <linearGradient
       xlink:href="#linearGradient1557"
       id="linearGradient1560"
       x1="0.50735295"
       y1="0.55629140"
       x2="0.16176471"
       y2="-0.19867550" />
    <linearGradient
       id="linearGradient1501">
      <stop
         style="stop-color:#ffffff;stop-opacity:1.0000000;"
         offset="0.0000000"
         id="stop1502" />
      <stop
         style="stop-color:#ffffff;stop-opacity:0.0000000;"
         offset="1.0000000"
         id="stop1504" />
    </linearGradient>
    <linearGradient
       xlink:href="#linearGradient1501"
       id="linearGradient2648"
       x1="0.98843932"
       y1="-1.0859375"
       x2="1.0289017"
       y2="0.46093750" />
    <linearGradient
       id="linearGradient1726">
      <stop
         style="stop-color:#000000;stop-opacity:0.40689656;"
         offset="0.0000000"
         id="stop1727" />
      <stop
         style="stop-color:#000000;stop-opacity:0.00000000;"
         offset="1.0000000"
         id="stop1728" />
    </linearGradient>
    <linearGradient
       xlink:href="#linearGradient1726"
       id="linearGradient1562"
       x1="2.5870826"
       y1="1.3145137"
       x2="0.40991578"
       y2="0.29174238" />
    <linearGradient
       id="linearGradient1496">
      <stop
         style="stop-color:#ffffff;stop-opacity:1.0000000;"
         offset="0.0000000"
         id="stop1497" />
      <stop
         style="stop-color:#ffffff;stop-opacity:0.0000000;"
         offset="1.0000000"
         id="stop1498" />
    </linearGradient>
    <linearGradient
       xlink:href="#linearGradient1496"
       id="linearGradient1508"
       x1="2.6881127"
       y1="1.5854106"
       x2="0.40796086"
       y2="0.10899516" />
    <linearGradient
       id="linearGradient841">
      <stop
         style="stop-color:#ffffff;stop-opacity:1.0000000;"
         offset="0.00000000"
         id="stop842" />
      <stop
         style="stop-color:#ffffff;stop-opacity:0.00000000;"
         offset="1.0000000"
         id="stop843" />
    </linearGradient>
    <linearGradient
       xlink:href="#linearGradient841"
       id="linearGradient2647"
       x1="0.0058655548"
       y1="-1.8462873"
       x2="0.59968853"
       y2="0.36989027" />
    <linearGradient
       id="linearGradient1868">
      <stop
         style="stop-color:#ffffff;stop-opacity:0.0000000;"
         offset="0.0000000"
         id="stop1869" />
      <stop
         style="stop-color:#fff;stop-opacity:1;"
         offset="1"
         id="stop1870" />
    </linearGradient>
    <linearGradient
       xlink:href="#linearGradient1868"
       id="linearGradient2116"
       x1="0.57813334"
       y1="0.52089858"
       x2="-0.92769754"
       y2="-0.41032118" />
    <linearGradient
       inkscape:collect="always"
       id="linearGradient1851">
      <stop
         style="stop-color:#000000;stop-opacity:0.20000000;"
         offset="0.0000000"
         id="stop1852" />
      <stop
         style="stop-color:#000000;stop-opacity:0.064516127;"
         offset="0.50000000"
         id="stop1854" />
      <stop
         style="stop-color:#adadad;stop-opacity:0.0000000;"
         offset="1.0000000"
         id="stop1853" />
    </linearGradient>
    <linearGradient
       xlink:href="#linearGradient1851"
       id="linearGradient849"
       x1="0.60655737"
       y1="-0.47656250"
       x2="0.52459013"
       y2="0.88281250" />
    <linearGradient
       id="linearGradient1507">
      <stop
         style="stop-color:#000000;stop-opacity:0.095505618;"
         offset="0.0000000"
         id="stop1508" />
      <stop
         style="stop-color:#000000;stop-opacity:0.0000000;"
         offset="1.0000000"
         id="stop1510" />
    </linearGradient>
    <linearGradient
       xlink:href="#linearGradient1507"
       id="linearGradient852"
       x1="0.42038217"
       y1="0.13548388"
       x2="0.76433122"
       y2="0.93548387" />
    <linearGradient
       xlink:href="#linearGradient4823"
       id="linearGradient4905"
       x1="0.24528302"
       y1="1.6015625"
       x2="0.28301886"
       y2="-0.023437500" />
    <linearGradient
       xlink:href="#linearGradient4823"
       id="linearGradient4909"
       x1="0.89719623"
       y1="-0.14843750"
       x2="0.40186915"
       y2="0.55468750" />
    <linearGradient
       xlink:href="#linearGradient4823"
       id="linearGradient4902"
       x1="0.90588236"
       y1="-0.27343750"
       x2="0.36470589"
       y2="0.50781250" />
    <linearGradient
       xlink:href="#linearGradient4823"
       id="linearGradient4898"
       x1="0.56809336"
       y1="-0.12500000"
       x2="0.49027237"
       y2="0.59375000" />
    <linearGradient
       xlink:href="#linearGradient4823"
       id="linearGradient4830"
       x1="1.4128441"
       y1="1.2500000"
       x2="0.42201835"
       y2="0.41406250" />
    <linearGradient
       xlink:href="#linearGradient4823"
       id="linearGradient4828"
       x1="0.084848486"
       y1="1.1640625"
       x2="0.53333336"
       y2="0.35937500" />
    <linearGradient
       xlink:href="#linearGradient4823"
       id="linearGradient4822"
       x1="0.76190478"
       y1="-0.53125000"
       x2="0.68571430"
       y2="0.53906250" />
    <linearGradient
       id="linearGradient4823">
      <stop
         style="stop-color:#ffffff;stop-opacity:0.83615822;"
         offset="0.0000000"
         id="stop4824" />
      <stop
         style="stop-color:#ffffff;stop-opacity:0.0000000;"
         offset="1.0000000"
         id="stop4826" />
    </linearGradient>
    <linearGradient
       xlink:href="#linearGradient4823"
       id="linearGradient4907"
       x1="2.2054794"
       y1="2.0312500"
       x2="0.56164384"
       y2="-0.28125000" />
    <linearGradient
       xlink:href="#linearGradient1806"
       id="linearGradient4900"
       x1="0.94897962"
       y1="0.75781250"
       x2="0.64285713"
       y2="0.35937500" />
    <linearGradient
       xlink:href="#linearGradient1806"
       id="linearGradient4832"
       x1="0.85217392"
       y1="0.96093750"
       x2="0.86086959"
       y2="0.29687500" />
    <linearGradient
       id="linearGradient1806">
      <stop
         style="stop-color:#000000;stop-opacity:0.53103447;"
         offset="0.0000000"
         id="stop1807" />
      <stop
         style="stop-color:#000000;stop-opacity:0.073446326;"
         offset="0.64777780"
         id="stop3276" />
      <stop
         style="stop-color:#000000;stop-opacity:0.0000000;"
         offset="1.0000000"
         id="stop1808" />
    </linearGradient>
    <radialGradient
       xlink:href="#linearGradient1806"
       id="radialGradient4069"
       cx="0.49032259"
       cy="0.50649351"
       r="0.38170236"
       fx="0.72156864"
       fy="0.48717949" />
    <linearGradient
       id="linearGradient1653">
      <stop
         style="stop-color:#000000;stop-opacity:0.00000000;"
         offset="0.00000000"
         id="stop1654" />
      <stop
         style="stop-color:#000000;stop-opacity:0.34020618;"
         offset="0.50000000"
         id="stop1657" />
      <stop
         style="stop-color:#000000;stop-opacity:0.00000000;"
         offset="1.0000000"
         id="stop1656" />
    </linearGradient>
    <linearGradient
       id="linearGradient1536">
      <stop
         style="stop-color:#d1940c;stop-opacity:0.0000000;"
         offset="0.0000000"
         id="stop1537" />
      <stop
         style="stop-color:#eed680;stop-opacity:0.41290322;"
         offset="0.50000000"
         id="stop1645" />
      <stop
         style="stop-color:#ffffff;stop-opacity:1.0000000;"
         offset="1.0000000"
         id="stop1538" />
    </linearGradient>
    <linearGradient
       id="linearGradient11127">
      <stop
         style="stop-color:#000000;stop-opacity:0.50515461;"
         offset="0.00000000"
         id="stop11128" />
      <stop
         style="stop-color:#000000;stop-opacity:0.098159507;"
         offset="0.50000000"
         id="stop11129" />
      <stop
         style="stop-color:#000000;stop-opacity:0.0000000;"
         offset="1.0000000"
         id="stop11130" />
    </linearGradient>
    <linearGradient
       id="linearGradient11107">
      <stop
         style="stop-color:#ffffff;stop-opacity:0.65979379;"
         offset="0.00000000"
         id="stop11108" />
      <stop
         style="stop-color:#ffffff;stop-opacity:0.31958762;"
         offset="0.50000000"
         id="stop11492" />
      <stop
         style="stop-color:#ffffff;stop-opacity:0.00000000;"
         offset="1.0000000"
         id="stop11109" />
    </linearGradient>
    <linearGradient
       id="linearGradient11190">
      <stop
         style="stop-color:#fdfdfd;stop-opacity:1.0000000;"
         offset="0.00000000"
         id="stop11191" />
      <stop
         style="stop-color:#fd3301;stop-opacity:1.0000000;"
         offset="0.50000000"
         id="stop11192" />
      <stop
         style="stop-color:#fd3301;stop-opacity:0.00000000;"
         offset="1.0000000"
         id="stop11193" />
    </linearGradient>
    <linearGradient
       xlink:href="#linearGradient1513"
       id="linearGradient2222"
       y2="0.55248618"
       x2="0.58431375"
       y1="-0.10497238"
       x1="-0.10588235" />
    <linearGradient
       id="linearGradient2317">
      <stop
         style="stop-color:#d6d6d6;stop-opacity:1.0000000;"
         offset="0.0000000"
         id="stop2318" />
      <stop
         style="stop-color:#eaeaea;stop-opacity:1.0000000;"
         offset="0.25769231"
         id="stop2322" />
      <stop
         style="stop-color:#919191;stop-opacity:1.0000000;"
         offset="0.70594490"
         id="stop2320" />
      <stop
         style="stop-color:#d2d2d2;stop-opacity:1.0000000;"
         offset="0.73347497"
         id="stop2321" />
      <stop
         style="stop-color:#a6a6a6;stop-opacity:1.0000000;"
         offset="1.0000000"
         id="stop2319" />
    </linearGradient>
    <linearGradient
       xlink:href="#linearGradient2317"
       id="linearGradient2316"
       x1="0.47450981"
       y1="0.21771218"
       x2="0.80392158"
       y2="0.52029520" />
    <linearGradient
       xlink:href="#linearGradient1513"
       id="linearGradient2121"
       x1="0.41568628"
       y1="0.27687296"
       x2="0.59607846"
       y2="0.44299674" />
    <linearGradient
       id="TransparentBlack">
      <stop
         style="stop-color:#000000;stop-opacity:0.0000000;"
         offset="0.0000000"
         id="stopBlackTransparent1" />
      <stop
         style="stop-color:#000000;stop-opacity:1.0000000;"
         offset="1.0000000"
         id="stopBlackFull1" />
    </linearGradient>
    <linearGradient
       id="linearGradient1513">
      <stop
         style="stop-color:#ffffff;stop-opacity:1.0000000;"
         offset="0.0000000"
         id="stop1514" />
      <stop
         style="stop-color:#ffffff;stop-opacity:0.0000000;"
         offset="1.0000000"
         id="stop1515" />
    </linearGradient>
    <linearGradient
       id="linearGradient1694">
      <stop
         style="stop-color:#0180d4;stop-opacity:1.0000000;"
         offset="0.00000000"
         id="stop1696" />
      <stop
         style="stop-color:#0180d4;stop-opacity:1.0000000;"
         offset="0.56999999"
         id="stop1698" />
      <stop
         style="stop-color:#013366;stop-opacity:1.0000000;"
         offset="1.0000000"
         id="stop1697" />
    </linearGradient>
    <radialGradient
       xlink:href="#linearGradient1694"
       id="radialGradient1505"
       cx="0.50000000"
       cy="0.50000000"
       r="0.55434185"
       fx="0.48461539"
       fy="0.20312500" />
    <linearGradient
       id="linearGradient2150">
      <stop
         style="stop-color:#ffffff;stop-opacity:1.0000000;"
         offset="0.00000000"
         id="stop2151" />
      <stop
         style="stop-color:#edc73e;stop-opacity:0.00000000;"
         offset="1.0000000"
         id="stop2152" />
    </linearGradient>
    <linearGradient
       id="linearGradient2127">
      <stop
         style="stop-color:#d0930c;stop-opacity:1.0000000;"
         offset="0.00000000"
         id="stop2128" />
      <stop
         style="stop-color:#edc73e;stop-opacity:1.0000000;"
         offset="1.0000000"
         id="stop2129" />
    </linearGradient>
    <linearGradient
       id="MaterialSoftShadow">
      <stop
         style="stop-color:#000000;stop-opacity:0.21472393;"
         offset="0.0000000"
         id="stop2619" />
      <stop
         style="stop-color:#000000;stop-opacity:0.098159507;"
         offset="0.50000000"
         id="stop2621" />
      <stop
         style="stop-color:#000000;stop-opacity:0.0000000;"
         offset="1.0000000"
         id="stop2620" />
    </linearGradient>
    <linearGradient
       id="linearGradient1693">
      <stop
         style="stop-color:#ffffff;stop-opacity:1.0000000;"
         offset="0.00000000"
         id="stop1694" />
      <stop
         style="stop-color:#ffffff;stop-opacity:0.00000000;"
         offset="1.0000000"
         id="stop1695" />
    </linearGradient>
  </defs>
  <sodipodi:namedview
     id="base"
     pagecolor="#ffffff"
     bordercolor="#666666"
     borderopacity="1.0"
     inkscape:pageopacity="0.0"
     inkscape:pageshadow="2"
     inkscape:zoom="1.0000000"
     inkscape:cx="53.455383"
     inkscape:cy="41.279236"
     inkscape:window-width="640"
     inkscape:window-height="524"
     inkscape:window-x="434"
     inkscape:window-y="116"
     showgrid="false"
     gridempspacing="5"
     gridtolerance="5.0000000mm"
     inkscape:grid-points="false"
     gridspacingx="1.2500000mm"
     gridspacingy="1.2500000mm"
     showguides="true"
     inkscape:guide-bbox="true"
     inkscape:grid-bbox="false"
     showborder="true" />
  <metadata
     id="metadata1293">
    <rdf:RDF
       id="RDF1294">
      <cc:Work
         rdf:about=""
         id="Work1295">
        <dc:format
           id="imageformat">image/svg+xml</dc:format>
        <dc:type
           id="type1298"
           rdf:resource="http://purl.org/dc/dcmitype/StillImage" />
        <dc:creator
           id="creator1299">
          <cc:Agent
             id="Agent1300">
            <dc:title
               id="title1301">Ubuntu Icon</dc:title>
          </cc:Agent>
        </dc:creator>
        <dc:rights
           id="rights1303">
          <cc:Agent
             id="Agent1304">
            <dc:title
               id="creator">Andrew Fitzsimon</dc:title>
          </cc:Agent>
          <cc:Agent
             id="Agent1332">
            <dc:title
               id="company">Canonical Software</dc:title>
          </cc:Agent>
          <cc:Agent
             id="Agent1335">
            <dc:title
               id="owner">Mark Shuttleworth</dc:title>
          </cc:Agent>
        </dc:rights>
        <dc:date
           id="date1307">2004-09-01</dc:date>
        <dc:description
           id="description1309">Icon for the Ubuntu Icon Set</dc:description>
        <dc:contributor
           id="contributor1311">
          <cc:Agent
             id="Agent1312">
            <dc:title
               id="title1313">Andrew Fitzsimon</dc:title>
          </cc:Agent>
        </dc:contributor>
      </cc:Work>
    </rdf:RDF>
  </metadata>
  <g
     id="g2384"
     transform="matrix(1.282930,0.000000,0.000000,1.282930,-11.45273,-17.70842)">
    <path
       sodipodi:type="arc"
       style="fill:url(#radialGradient4069);fill-opacity:0.75000000;fill-rule:evenodd;stroke-width:1.0000000pt;"
       id="path5140"
       sodipodi:cx="25.912205"
       sodipodi:cy="175.83524"
       sodipodi:rx="56.143108"
       sodipodi:ry="56.143108"
       d="M 82.055313 175.83524 A 56.143108 56.143108 0 1 0 -30.230904,175.83524 A 56.143108 56.143108 0 1 0 82.055313 175.83524 z"
       transform="matrix(0.936880,0.000000,0.000000,0.221889,50.18216,88.93385)" />
    <path
       id="path4963"
       style="fill:#ffffff;"
       d="M 47.422574,102.37794 L 57.742123,118.82446 L 71.125156,125.59662 L 91.441654,118.98575 L 103.69600,99.959250 L 102.40619,82.222539 L 92.409049,59.971251 L 87.733173,51.102995 L 62.740597,51.425393 L 61.450605,59.003855 L 52.743648,73.676682 L 46.938877,89.639702 L 47.422574,102.37794 z " />
    <path
       style="fill:url(#linearGradient4832);fill-opacity:0.75000000;fill-rule:evenodd;stroke-width:1.0000000pt;"
       d="M 95.402791,98.303459 C 95.402791,98.303459 91.715654,118.90985 74.620739,119.34382 C 57.509425,119.77821 57.190632,102.64316 58.196213,99.822354 C 59.201798,97.001548 57.525824,87.454197 71.939183,89.407065 C 86.352544,91.359931 93.391628,94.397725 95.402791,98.303459 z "
       id="path4831"
       sodipodi:nodetypes="czccc" />
    <path
       id="path4965"
       d="M 103.65462,107.71572 C 100.83398,107.47108 98.617759,105.36999 98.416289,101.19659 C 99.063882,90.115522 99.711485,78.645894 92.041076,71.248918 C 90.846622,62.038676 86.601277,58.656791 84.600927,52.742088 L 81.449298,50.482701 L 85.219741,44.582390 L 86.831533,44.625563 L 102.57529,76.458461 L 105.87083,92.504429 L 103.65462,107.71572 z "
       style="fill:#c1c1bf;" />
    <path
       id="path4966"
       d="M 65.057946,50.180490 C 64.583042,53.288946 64.324004,56.339840 64.770126,59.289995 C 61.488977,63.751205 58.999333,68.255590 58.711513,72.889493 C 56.221869,79.523744 50.307168,85.136235 51.328929,98.232049 C 54.653251,101.70028 59.301544,104.92386 63.287852,108.27697 C 68.295922,112.46475 65.316984,117.99089 58.265393,116.68131 C 56.696773,114.95440 53.142196,104.13236 46.407205,97.469325 L 47.731178,88.733987 L 54.092001,71.709430 L 62.007053,59.045347 L 62.884904,53.576767 L 61.776796,39.603103 L 62.697821,34.494297 L 65.057946,50.180490 L 65.057946,50.180490 z "
       style="fill:#c1c1bf;" />
    <path
       id="path4967"
       d="M 60.942119,30.536771 C 61.129201,29.529401 61.373849,28.579594 61.676060,27.687353 L 62.150962,30.810200 L 60.942119,30.536771 z "
       style="fill:#c1c1bf;" />
    <path
       id="path4968"
       d="M 62.007053,62.326497 C 59.488628,66.989181 58.610776,71.479174 64.395960,72.270679 C 61.215548,73.004620 57.258022,75.954776 53.257323,80.919672 L 53.343669,70.831579 L 58.107091,62.887745 L 62.007053,62.326497 z "
       style="fill:#c1c1bf;" />
    <path
       id="path4969"
       d="M 31.181525,125.89155 C 39.931255,129.82030 46.104995,129.60443 51.674313,132.38189 C 56.077960,134.69885 60.524780,134.42542 63.201506,131.61918 C 65.475285,128.68341 67.159032,128.53950 70.512135,128.23729 C 75.995108,127.90630 81.348560,127.84873 86.183938,128.35242 L 91.710082,128.79854 C 91.609345,135.00106 103.39557,135.76379 106.86381,131.05793 C 111.05159,126.07864 116.80800,123.84803 121.74411,120.23590 L 95.653218,107.31277 C 88.961401,123.48826 64.021794,127.71922 60.567953,114.85366 L 31.181525,125.89155 z "
       style="fill:#c1c1bf;" />
    <path
       id="path4970"
       d="M 95.077579,104.52092 C 92.559151,104.50653 89.983162,105.32681 90.184637,108.63674 L 91.033706,117.48720 L 98.675332,113.52968 L 95.077579,104.52092 z "
       style="fill:#c1c1bf;" />
    <path
       id="path4971"
       d="M 30.361238,126.43841 C 39.254877,130.36716 45.543745,130.13690 51.213801,132.92875 C 55.689402,135.23132 60.208177,134.97228 62.942468,132.15164 C 65.259420,129.23026 66.971949,129.08636 70.382617,128.78415 C 75.951934,128.43876 81.406124,128.39559 86.327848,128.88489 L 91.940339,129.34540 C 91.839602,135.54792 103.84169,136.29625 107.36749,131.59039 C 111.62723,126.61111 117.48437,124.39489 122.50683,120.76836 L 95.955423,107.85962 C 89.148484,124.02073 63.777146,128.25168 60.265741,115.40052 L 30.361238,126.43841 z " />
    <path
       id="path4972"
       d="M 114.24640,100.60656 C 118.50613,102.00249 115.75745,106.26223 117.93049,108.70870 C 118.86590,110.78100 120.83747,112.60866 124.13301,114.30679 C 129.64477,117.08427 123.02490,122.06355 116.33309,124.61076 C 108.17339,127.31627 106.59037,134.77081 97.653570,132.56898 C 94.415591,131.48966 93.465785,128.55389 93.566522,124.02073 C 94.645847,114.75292 93.350657,108.29136 93.552131,101.97371 C 93.537740,99.440892 94.501937,99.138682 99.236581,99.800667 C 99.797829,107.47108 108.25974,107.67255 114.24640,100.60656 z "
       style="fill:#d1940c;fill-opacity:1.0000000;stroke:#000000;stroke-width:1.3153625;stroke-miterlimit:4.0000000;stroke-opacity:1.0000000;" />
    <path
       id="path4973"
       d="M 105.71253,127.51774 C 112.10214,125.05688 118.54930,121.81891 123.74446,118.62410 C 125.34186,117.68869 125.55772,115.38613 123.31273,114.66657 C 118.44857,111.90350 115.80062,108.44967 116.36187,103.95967 C 116.44822,102.39105 114.51982,100.72169 114.00174,102.21836 C 109.75640,116.49424 96.056169,115.73151 97.941384,101.59954 C 98.042119,101.18220 98.142865,100.76486 98.243600,100.36192 C 95.782735,99.858231 94.832930,100.40509 94.948058,102.29031 L 96.847669,123.51704 C 97.322573,128.35242 101.25131,129.41735 105.71253,127.51774 z "
       style="fill:#eed680;fill-opacity:1.0000000;" />
    <path
       id="path4974"
       d="M 108.67707,69.737863 C 113.61319,76.185031 118.66443,92.432474 114.66374,100.52022 C 109.97227,109.75924 99.351707,110.85296 98.891193,101.36929 C 99.553177,90.144305 100.18638,78.530765 92.530370,71.047444 C 91.335916,61.707683 87.076180,58.282624 85.075830,52.295968 L 78.427187,47.460590 L 64.525478,49.259466 C 63.964229,52.670134 63.633236,55.994455 64.122530,59.218040 C 60.826991,63.708033 58.337347,68.241199 58.049528,72.889493 C 55.559884,79.552527 49.645181,85.208191 50.666942,98.361567 C 53.991265,101.85858 58.639559,105.09656 62.625866,108.46406 C 67.633935,112.68061 64.914035,117.45842 57.862444,116.13446 C 53.588316,111.41421 49.170278,106.78030 44.881760,102.07445 C 40.305421,98.822080 38.607282,94.648688 43.298749,88.316647 C 46.507943,84.028128 47.414576,74.717150 50.220822,70.961098 C 52.681683,67.262610 56.265043,63.952679 58.869814,60.254192 C 60.251351,57.822112 60.683081,55.951282 60.467216,53.130645 L 59.877185,36.077307 C 59.488628,23.701045 66.295572,17.109966 75.764852,17.311439 C 86.500540,17.412177 95.307830,24.751588 95.422956,37.904964 C 96.329592,44.308961 94.444374,47.978667 99.524395,57.131344 C 104.69077,66.773316 105.49666,66.255240 108.67707,69.737863 z " />
    <path
       id="path4975"
       d="M 90.055117,62.959701 L 90.501239,64.672230 C 89.335567,62.571143 87.939640,58.959002 86.183938,57.375991 C 85.651471,56.944261 84.960702,56.958652 84.543363,57.361601 C 82.212020,59.620988 76.426838,64.254891 71.792935,63.650469 C 68.223966,63.290694 64.741343,60.887396 63.978621,58.282624 C 63.575672,56.411794 63.762756,54.871957 64.007402,53.303338 L 85.939290,52.943563 C 85.493170,54.871957 88.414543,59.635378 90.055117,62.959701 z "
       style="fill:#c1c1bf;" />
    <path
       id="path4976"
       d="M 66.439482,34.897245 C 68.626914,34.897245 70.584091,37.617145 70.569699,41.373196 C 70.555309,43.891621 68.914734,44.539216 67.677108,45.647324 C 67.130250,46.151010 67.000730,48.870909 66.324354,48.870909 C 64.151312,48.870909 62.510738,44.999729 62.510738,41.373196 C 62.510738,37.761054 64.266440,34.897245 66.439482,34.897245 z "
       style="fill:#c1c1bf;" />
    <path
       id="path4977"
       d="M 66.684128,37.257369 C 68.626914,37.257369 69.979668,38.235957 70.137969,40.509736 C 70.253097,42.078355 69.835758,44.596781 68.742042,45.129249 C 68.238358,45.373895 66.497046,47.575718 65.892624,47.546937 C 63.431762,47.431809 62.812949,42.668386 63.000032,40.394608 C 63.172725,38.120829 64.755734,37.257369 66.684128,37.257369 z "
       style="fill:#ffffff;" />
    <path
       id="path4978"
       d="M 66.180444,38.782816 C 67.518807,38.667687 68.756433,40.193134 68.929126,42.179092 C 69.101818,44.165050 68.137620,45.891971 66.799257,46.007099 C 65.460894,46.122227 64.223267,44.596781 64.050575,42.596431 C 63.877883,40.610473 64.842081,38.897944 66.180444,38.782816 z " />
    <path
       id="path4979"
       d="M 81.190259,34.393560 C 84.341889,34.393560 86.917879,37.732273 86.917879,41.804926 C 86.917879,45.891971 84.341889,49.216293 81.190259,49.216293 C 78.038630,49.216293 75.491422,45.891971 75.491422,41.804926 C 75.491422,37.732273 78.038630,34.393560 81.190259,34.393560 z "
       style="fill:#c1c1bf;" />
    <path
       id="path4980"
       d="M 82.758879,37.242979 C 84.931920,38.020092 86.183938,39.732622 86.342239,41.560280 C 86.529321,43.661366 85.680252,46.035882 83.852595,47.431809 C 83.334519,47.820366 77.347862,45.460241 77.002478,44.567999 C 76.484402,43.287200 76.167799,40.826338 76.556356,39.372847 C 76.714657,38.797207 77.247124,37.962528 78.038630,37.516408 C 79.290648,36.811249 81.132695,36.667338 82.758879,37.242979 z "
       style="fill:#ffffff;" />
    <path
       id="path4981"
       d="M 81.175869,38.437432 C 82.917180,38.437432 84.341889,40.106788 84.341889,42.135919 C 84.341889,44.179442 82.917180,45.848798 81.175869,45.848798 C 79.434557,45.848798 78.009848,44.179442 78.009848,42.135919 C 78.009848,40.106788 79.434557,38.437432 81.175869,38.437432 z " />
    <path
       id="path4982"
       d="M 70.799956,43.143289 C 72.282229,42.711559 74.627962,42.855470 76.254146,43.172072 C 77.880329,43.603802 82.212020,45.891971 86.802750,48.381614 C 87.392781,48.683826 87.565474,49.662413 86.802750,49.979015 C 85.622688,50.065362 87.651819,52.972344 85.579515,54.008497 C 82.471059,54.814393 77.491772,59.433905 75.030911,59.808071 C 73.663765,60.110282 72.253447,60.153455 70.728000,59.808071 C 65.921406,58.829482 64.654997,53.360902 62.395610,52.252794 C 61.776796,51.605199 62.093398,50.482701 62.294873,50.252445 C 62.539520,49.086774 67.749063,43.488674 70.799956,43.143289 z "
       style="fill:#d1940c;fill-opacity:1.0000000;stroke:#000000;stroke-width:0.97433219;stroke-miterlimit:4.0000000;stroke-opacity:1.0000000;stroke-dasharray:none;" />
    <path
       id="path4899"
       d="M 71.614392,44.274027 C 73.004610,43.884578 75.204671,44.014395 76.729863,44.299991 C 78.255055,44.689435 82.317738,46.753508 86.623361,48.999322 C 87.176755,49.271933 87.338718,50.154682 86.623361,50.440277 C 85.516586,50.518168 87.419707,53.140446 85.476097,54.075119 C 82.560678,54.802089 77.890626,58.969175 75.582588,59.306696 C 74.300349,59.579310 72.977621,59.618255 71.546904,59.306696 C 67.038815,58.423950 65.851055,53.490948 63.731982,52.491366 C 63.151600,51.907197 63.448539,50.894633 63.637501,50.686929 C 63.866955,49.635419 68.752968,44.585584 71.614392,44.274027 z "
       style="fill:url(#linearGradient4900);" />
    <path
       id="path4984"
       d="M 74.887000,43.416718 C 77.491772,43.704539 83.017917,47.028860 85.680252,48.367223 C 86.342239,48.726999 86.299066,49.806324 85.709035,49.979015 C 85.075830,50.338791 84.888748,49.892670 84.385062,49.820714 C 83.579166,49.388984 82.255194,50.425137 81.204651,51.216643 C 75.146038,55.792981 73.937194,55.289296 69.044254,54.771220 C 67.346115,54.353880 66.238008,53.835805 65.748714,53.432856 C 66.108489,51.418116 69.907714,43.776494 71.159730,43.603802 C 71.476332,43.186462 73.793285,43.172072 74.887000,43.416718 z "
       style="fill:#eed680;fill-opacity:1.0000000;" />
    <path
       id="path4985"
       d="M 95.667609,79.595699 C 95.638827,80.056212 95.466139,80.128166 95.077579,79.696436 C 93.753605,77.393876 84.816792,72.515327 80.470710,71.968468 C 79.650422,71.680648 79.693595,71.306482 80.499491,71.191354 C 83.636730,71.191354 86.054418,69.809818 88.788709,69.809818 C 89.537042,69.838600 90.256591,70.126420 90.673930,70.558150 C 91.695691,71.220135 95.408565,76.343332 95.667609,79.595699 z "
       style="fill:#c1c1bf;" />
    <path
       id="path4986"
       d="M 73.836457,71.594302 C 73.980367,72.385807 70.569699,71.364046 70.756783,73.565869 C 70.814347,74.170292 69.907714,74.501285 69.936495,73.565869 C 69.936495,71.882122 70.022841,71.910904 68.353485,71.594302 C 68.051274,71.579911 68.080057,71.133790 68.353485,71.191354 L 68.353485,71.191354 C 69.547938,71.522347 71.159730,70.802797 71.087776,69.996901 C 71.058993,69.723471 71.519506,69.766644 71.505115,69.996901 C 71.404378,71.277700 74.138668,70.658887 73.836457,71.594302 z "
       style="fill:#c1c1bf;" />
    <path
       id="path4987"
       d="M 68.123229,103.28329 C 68.137620,103.87332 67.561980,103.74380 67.518807,103.32646 C 65.849451,98.318394 66.554610,85.985305 68.180793,82.013388 C 68.295922,81.437748 69.058644,81.610440 68.957907,82.013388 C 67.230987,89.309626 67.259769,96.821730 68.123229,103.28329 z "
       style="fill:#c1c1bf;" />
    <path
       style="fill:url(#linearGradient4907);fill-opacity:0.75000000;fill-rule:evenodd;stroke-width:1.0000000pt;"
       d="M 43.098642,99.816258 C 43.098642,99.816258 55.263342,116.38095 58.886870,115.60449 C 62.510399,114.82802 66.651573,114.05155 64.322164,110.68685 C 61.992751,107.32213 48.016287,100.07508 48.275111,96.969200 C 48.533935,93.863320 48.016287,80.145679 53.969226,77.557443 C 56.557461,73.157444 49.828051,71.604506 49.828051,73.933916 C 49.828051,76.263326 40.510408,92.569201 41.286878,95.157435 C 42.063348,97.745670 43.098642,99.816258 43.098642,99.816258 z "
       id="path4906"
       sodipodi:nodetypes="cccccccc" />
    <path
       id="path4988"
       d="M 48.162908,99.095508 C 52.955112,103.77258 56.092351,110.85296 60.740645,117.25695 C 67.504416,125.40226 62.107790,133.84978 51.113064,131.30257 C 45.601309,129.23026 37.671868,129.46053 31.296653,127.35944 C 26.821051,126.26572 26.662751,124.04951 28.950919,119.71782 C 29.756815,116.95474 29.828771,112.46475 29.080439,108.72309 C 28.677490,105.88806 29.987072,104.30505 33.009182,103.97406 L 33.009182,103.97406 C 35.570780,103.94528 39.139749,104.98143 41.082535,99.498456 C 42.536026,96.879294 46.018649,96.807339 48.162908,99.095508 z "
       style="fill:#d1940c;fill-opacity:1.0000000;stroke:#000000;stroke-width:1.3153625;stroke-miterlimit:4.0000000;stroke-opacity:1.0000000;" />
    <path
       id="path4990"
       d="M 42.751891,102.01688 C 42.593590,98.404740 45.687656,97.670799 47.759960,99.872622 C 51.458448,104.40579 54.840334,109.41385 57.891227,115.19904 C 62.755385,123.02775 58.740296,130.72693 51.400884,127.80556 C 47.759960,125.76204 39.053404,124.85540 34.361937,124.02073 C 31.224698,123.76168 30.807359,121.71816 32.001813,120.56688 C 33.642386,118.68167 33.815079,114.16289 32.260850,110.30610 C 30.721013,107.91720 33.613605,105.28364 35.887383,106.37736 C 37.988470,107.61498 42.953366,104.82313 42.751891,102.01688 z "
       style="fill:#eed680;fill-opacity:0.68750000;" />
    <path
       style="fill:url(#linearGradient4822);fill-opacity:0.75000000;fill-rule:evenodd;stroke:#000000;stroke-width:0.17979257pt;"
       d="M 63.804516,27.086877 C 63.804516,27.086877 64.322164,19.580999 74.416275,19.322174 C 84.510388,19.063352 91.757446,25.533937 92.533916,29.416288 C 93.310386,33.298640 92.792738,47.016281 95.122151,49.863338 C 97.451558,52.710395 103.66332,66.945683 96.416262,64.357449 C 89.169211,61.769215 85.545683,47.016281 87.098623,42.357460 C 88.651564,37.698637 86.063330,31.486876 80.628037,33.557464 C 75.192746,35.628050 76.228040,41.322166 72.345689,37.957461 C 68.463338,34.592757 67.428043,30.192758 64.839809,33.557463 C 62.251575,36.922167 62.769221,27.863347 63.804516,27.086877 z "
       id="path4821"
       sodipodi:nodetypes="cccccccccc" />
    <path
       style="fill:url(#linearGradient4828);fill-opacity:0.75000000;fill-rule:evenodd;stroke-width:1.0000000pt;"
       d="M 95.380967,106.02802 L 96.157446,120.78095 C 96.499372,127.27754 99.114314,130.71820 106.25155,127.25154 L 124.36920,118.45155 L 120.48684,112.75743 L 95.380967,106.02802 z "
       id="path4827"
       sodipodi:nodetypes="czzccc" />
    <path
       style="fill:url(#linearGradient4830);fill-opacity:0.75000000;fill-rule:evenodd;stroke-width:1.0000000pt;"
       d="M 36.287566,123.97218 L 52.868302,128.09355 C 59.181776,129.66284 62.005032,123.30191 58.210931,116.33321 L 49.357430,100.07182 L 43.674814,103.97098 L 36.287566,123.97218 z "
       id="path4829"
       sodipodi:nodetypes="czzccc" />
    <path
       id="path4897"
       d="M 74.550986,43.933232 C 76.908788,44.148952 80.936791,45.961571 83.346700,46.964673 C 83.945921,47.234326 83.906839,48.043278 83.372753,48.172710 C 82.799585,48.442361 82.630240,48.107993 82.174311,48.054065 C 81.444825,47.730483 80.246387,48.507077 79.295448,49.100310 C 73.811278,52.530272 73.691234,52.831718 69.262214,52.443419 C 67.725082,52.130623 66.722040,51.742328 66.279138,51.440317 C 66.604800,49.930272 70.043806,44.202883 71.177114,44.073452 C 71.463698,43.760656 73.560971,43.749871 74.550986,43.933232 z "
       style="fill:url(#linearGradient4898);"
       sodipodi:nodetypes="ccccccccc" />
    <path
       sodipodi:type="arc"
       style="fill:url(#linearGradient4902);fill-opacity:0.75000000;fill-rule:evenodd;stroke-width:1.0000000pt;"
       id="path4901"
       sodipodi:cx="310.04672"
       sodipodi:cy="237.02748"
       sodipodi:rx="7.7376719"
       sodipodi:ry="11.696481"
       d="M 317.78439 237.02748 A 7.7376719 11.696481 0 1 0 302.30905,237.02748 A 7.7376719 11.696481 0 1 0 317.78439 237.02748 z"
       transform="matrix(0.179793,0.000000,0.000000,0.179793,10.61630,-1.390672)" />
    <path
       sodipodi:type="arc"
       style="fill:url(#linearGradient4909);fill-opacity:0.75000000;fill-rule:evenodd;stroke-width:1.0000000pt;"
       id="path4903"
       sodipodi:cx="310.04672"
       sodipodi:cy="237.02748"
       sodipodi:rx="7.7376719"
       sodipodi:ry="11.696481"
       d="M 317.78439 237.02748 A 7.7376719 11.696481 0 1 0 302.30905,237.02748 A 7.7376719 11.696481 0 1 0 317.78439 237.02748 z"
       transform="matrix(0.244955,0.000000,0.000000,0.196390,5.443478,-5.356788)" />
    <path
       style="fill:url(#linearGradient4905);fill-opacity:0.75000000;fill-rule:evenodd;stroke-width:1.0000000pt;"
       d="M 104.95744,94.639790 C 104.95744,94.639790 98.486853,102.40449 101.59274,105.25155 C 104.69862,108.09861 111.68685,105.76920 112.98097,102.66331 C 117.12214,96.710376 115.43978,79.369207 107.54567,71.086858 C 99.779846,62.939103 97.710384,63.063331 97.969211,66.686859 C 98.228027,70.310388 109.61625,82.992736 104.95744,94.639790 z "
       id="path4904"
       sodipodi:nodetypes="ccczcc" />
  </g>
</svg>
